<svg width="1920" height="282" viewBox="0 0 1920 282" fill="none" xmlns="http://www.w3.org/2000/svg">
<mask id="mask0" style="mask-type:alpha" maskUnits="userSpaceOnUse" x="0" y="0" width="1920" height="282">
<rect width="1920" height="282" fill="#C4C4C4"/>
</mask>
<g mask="url(#mask0)">
<path d="M422.194 276.474V66.4767H-8V10.5796H588.784V66.4767H500.395V276.474H422.194Z" fill="#DC0032"/>
<path d="M686.965 10.5796V215.444H609.039V10.5796H686.965Z" fill="#DC0032"/>
<path d="M713.373 215.444V10.5796H820.762L883.543 125.678L947.425 10.5796H1050.41V215.444H973.033V87.679L901.165 215.444H861.239L789.646 87.679V215.444H713.373Z" fill="#DC0032"/>
<path d="M1076.93 10.5796H1303.54V60.6942H1154.03V86.3022H1300.52V136.141H1154.03V164.228H1305.75V215.444H1076.93V10.5796Z" fill="#DC0032"/>
<path d="M1469.06 219.299H1444C1360.66 219.299 1318.99 195.067 1318.99 146.605V143.851H1404.9C1406.37 163.126 1423.44 172.764 1456.12 172.764H1458.59C1469.06 172.764 1477.78 172.305 1484.75 171.387C1491.73 170.285 1496.87 168.817 1500.17 166.981C1503.48 164.962 1505.68 162.943 1506.78 160.923C1508.07 158.721 1508.71 156.242 1508.71 153.489V153.213C1508.71 149.358 1507.7 146.33 1505.68 144.127C1503.84 141.74 1499.25 139.721 1491.91 138.069C1484.75 136.233 1474.29 135.132 1460.52 134.765L1422.52 133.663C1355.52 131.828 1322.02 111.268 1322.02 71.9838V69.5056C1322.02 62.3463 1323.03 55.9214 1325.05 50.2307C1327.07 44.3565 1330.74 38.6658 1336.06 33.1587C1341.38 27.6516 1348.36 23.0624 1356.99 19.391C1365.62 15.7196 1376.9 12.7824 1390.86 10.5796C1404.99 8.19321 1421.33 7 1439.87 7H1464.38C1547.35 7 1588.84 28.5695 1588.84 71.7084V73.9112H1503.75C1502.1 59.4092 1485.58 52.1582 1454.19 52.1582H1451.43C1438.58 52.1582 1428.67 52.9843 1421.7 54.6364C1414.72 56.105 1410.41 57.8489 1408.75 59.8681C1407.1 61.7038 1406.28 64.182 1406.28 67.3027V67.5781C1406.28 70.6988 1407.19 73.2687 1409.03 75.288C1411.05 77.3073 1415.45 79.143 1422.25 80.7951C1429.04 82.2637 1438.58 83.0897 1450.88 83.2733L1487.78 84.0994C1526.51 85.2008 1554.23 90.6161 1570.94 100.345C1587.64 109.891 1596 125.035 1596 145.779V149.634C1596 157.16 1595.08 164.044 1593.24 170.285C1591.41 176.343 1587.73 182.585 1582.23 189.01C1576.72 195.251 1569.38 200.574 1560.2 204.98C1551.2 209.202 1538.91 212.69 1523.3 215.444C1507.88 218.014 1489.8 219.299 1469.06 219.299Z" fill="#DC0032"/>
</g>
</svg>
