<svg width="1920" height="223" viewBox="0 0 1920 223" fill="none" xmlns="http://www.w3.org/2000/svg">
<mask id="mask0" style="mask-type:alpha" maskUnits="userSpaceOnUse" x="0" y="0" width="1920" height="223">
<rect width="1920" height="223" fill="#C4C4C4"/>
</mask>
<g mask="url(#mask0)">
<path d="M234.722 214V63.8859H-0.5V7.55841H402.595V63.8859H313.525V214H234.722Z" fill="#DC0032"/>
<path d="M551.653 129.093L516.969 58.0589L483.117 129.093H551.653ZM592.997 214L576.904 180.703H458.977L443.16 214H363.248L465.359 7.55841H571.354L679.292 214H592.997Z" fill="#DC0032"/>
<path d="M688.288 214V7.55841H882.521C910.268 7.55841 929.877 11.998 941.346 20.8772C953 29.5714 958.827 40.7629 958.827 54.4517V57.504C958.827 68.9729 955.127 78.1296 947.728 84.974C940.328 91.6334 932.189 95.9805 923.31 98.0154C928.859 99.3102 933.946 101.068 938.571 103.287C943.38 105.507 948.375 108.559 953.555 112.444C958.919 116.329 963.081 121.601 966.041 128.26C969.186 134.92 970.758 142.504 970.758 151.013V154.343C970.758 194.114 941.716 214 883.631 214H688.288ZM858.658 54.4517H767.091V83.5866H858.658C872.717 83.5866 879.746 78.777 879.746 69.1579V68.603C879.746 59.1688 872.717 54.4517 858.658 54.4517ZM863.653 129.925H767.091V165.442H863.653C879.931 165.442 888.07 159.522 888.07 147.683V146.851C888.07 135.567 879.931 129.925 863.653 129.925Z" fill="#DC0032"/>
<path d="M987.441 7.55841H1215.8V58.0589H1065.13V83.8641H1212.75V134.087H1065.13V162.39H1218.02V214H987.441V7.55841Z" fill="#DC0032"/>
<path d="M1240.8 7.55841H1319.6V154.898H1462.78V214H1240.8V7.55841Z" fill="#DC0032"/>
<path d="M1657.49 129.093L1622.81 58.0589L1588.95 129.093H1657.49ZM1698.83 214L1682.74 180.703H1564.81L1549 214H1469.08L1571.19 7.55841L1920 6.5V212.942L1698.83 214Z" fill="#DC0032"/>
</g>
</svg>
