<svg width="1920" height="232" viewBox="0 0 1920 232" fill="none" xmlns="http://www.w3.org/2000/svg">
<mask id="mask0" style="mask-type:alpha" maskUnits="userSpaceOnUse" x="0" y="0" width="1920" height="232">
<rect width="1920" height="232" fill="#C4C4C4"/>
</mask>
<g mask="url(#mask0)">
<path d="M224.938 221.362V71.2481H-138V14.9207H392.81V71.2481H303.741V221.362H224.938ZM413.222 14.9207H641.584L605.079 65.4211H490.915V91.2264H546.809V141.449H490.915V169.752H643.804L605.079 221.362H413.222V14.9207ZM837.77 136.455L803.085 65.4211L769.233 136.455H837.77ZM879.114 221.362L863.02 188.065H745.093L729.277 221.362H649.364L751.475 14.9207H857.471L965.408 221.362H879.114ZM1106.98 225.247H1081.73C997.749 225.247 955.758 198.054 955.758 149.219H1042.33C1043.81 168.642 1061.01 178.354 1093.94 178.354H1096.44C1106.98 178.354 1115.77 177.891 1122.8 176.966C1129.83 175.856 1135.01 174.376 1138.34 172.527C1141.67 170.492 1143.89 168.457 1145 166.422C1146.29 164.202 1146.94 161.705 1146.94 158.93V158.653C1146.94 154.768 1145.92 151.716 1143.89 149.496C1142.04 147.091 1137.41 145.057 1130.01 143.392C1122.8 141.542 1112.25 140.432 1098.38 140.062L1060.09 138.952C992.569 137.102 958.81 116.384 958.81 76.7976V74.3004C958.81 67.086 959.827 60.6116 961.862 54.8771C963.897 48.9576 967.596 43.2231 972.961 37.6736C978.325 32.1241 985.355 27.4995 994.049 23.7999C1002.74 20.1002 1014.12 17.1405 1028.18 14.9207C1042.42 12.5159 1058.89 11.3135 1077.57 11.3135H1102.26C1185.88 11.3135 1221.02 31.5692 1221.02 49.905L1141.94 78.74C1140.28 64.1263 1123.63 56.8194 1092 56.8194H1089.22C1076.27 56.8194 1066.29 57.6518 1059.26 59.3167C1052.23 60.7966 1047.88 62.5539 1046.21 64.5887C1044.55 66.4386 1043.72 68.9358 1043.72 72.0805V72.358C1043.72 75.5027 1044.64 78.0925 1046.49 80.1273C1048.53 82.1621 1052.97 84.012 1059.81 85.6768C1066.66 87.1567 1076.27 87.9891 1088.67 88.1741L1125.85 89.0065C1164.88 90.1164 1192.81 95.5735 1209.65 105.378C1226.48 114.997 1234.9 130.258 1234.9 151.161V155.046C1234.9 162.63 1233.97 169.567 1232.12 175.856C1230.27 181.961 1226.57 188.25 1221.02 194.725C1215.47 201.014 1208.07 206.379 1198.83 210.818C1189.76 215.073 1177.37 218.587 1161.64 221.362C1146.11 223.952 1127.88 225.247 1106.98 225.247ZM1252.69 14.9207H1481.06V65.4211H1330.39V91.2264H1387V141.449H1330.39V169.752H1483.27L1442.5 221.362H1252.69V14.9207ZM1706.39 65.1437V100.66H1615.93C1600.02 100.66 1592.07 94.741 1592.07 82.9021V82.6246C1592.07 70.9707 1600.02 65.1437 1615.93 65.1437H1706.39ZM1706.39 150.606V221.362H2104V14.9207H1597.62C1539.72 14.9207 1510.77 32.5866 1510.77 67.9184V70.9706C1510.77 78 1512.16 84.382 1514.93 90.1164C1517.71 95.8509 1521.41 100.476 1526.03 103.99C1530.47 107.505 1534.91 110.28 1539.35 112.314C1543.6 114.349 1547.95 115.922 1552.39 117.032C1539.26 119.991 1528.9 125.726 1521.31 134.235C1513.73 142.559 1509.94 153.196 1509.94 166.145V196.667C1509.94 207.396 1508.64 215.165 1506.05 219.975V221.362H1586.52C1588.18 219.512 1589.02 215.905 1589.02 210.541V186.4C1589.02 174.191 1592.25 165.22 1598.73 159.485C1605.02 153.566 1615.75 150.606 1630.92 150.606H1706.39Z" fill="#DC0032" stroke="#DC0032" stroke-width="2.2198"/>
</g>
</svg>
