<svg width="531" height="164" viewBox="0 0 531 164" fill="none" xmlns="http://www.w3.org/2000/svg">
<mask id="path-1-inside-1_912:1493" fill="white">
<path d="M296.853 -412.624C272.898 -407.941 257.048 -396.954 254.166 -382.905C253.445 -378.582 253.085 -330.492 253.626 -275.918C254.886 -165.328 254.346 -169.651 267.674 -157.583C276.32 -149.838 287.487 -146.056 310.361 -143.354C334.857 -140.472 380.786 -145.335 384.388 -150.919C385.649 -153.26 395.735 -280.961 394.654 -282.222C393.574 -283.482 363.134 -285.464 342.421 -285.644L325.671 -285.824V-274.116C325.671 -263.85 326.031 -262.409 329.093 -262.409C332.695 -262.409 332.875 -257.366 329.453 -193.966L328.373 -171.452L322.789 -170.912C319.727 -170.551 316.305 -171.452 315.404 -172.713C313.963 -174.334 314.144 -204.953 316.125 -278.619C318.466 -368.316 319.367 -382.545 321.708 -384.526C325.311 -387.408 329.633 -387.228 333.596 -384.346C336.658 -382.004 336.838 -379.483 335.037 -338.777C334.136 -315.182 333.596 -295.55 333.776 -295.37C334.136 -294.649 394.474 -291.047 395.195 -291.587C395.915 -292.488 401.318 -363.813 401.318 -374.44C401.318 -386.147 397.176 -393.712 386.909 -400.376C374.301 -408.841 358.451 -412.083 328.373 -412.804C313.603 -413.164 299.374 -412.984 296.853 -412.624Z"/>
<path d="M144.657 -410.102C130.968 -407.941 116.019 -403.438 107.734 -399.295C98.0077 -394.432 88.4617 -382.905 87.2009 -374.8C85.9401 -367.595 104.132 -192.345 107.734 -175.054C112.777 -151.459 131.869 -139.932 165.91 -139.932C192.927 -139.932 216.522 -146.596 228.59 -157.403C240.837 -168.57 240.837 -167.489 238.496 -280.421C236.335 -380.203 236.335 -380.383 232.192 -387.948C223.366 -403.438 207.336 -410.102 176.177 -411.003C164.83 -411.363 150.601 -411.003 144.657 -410.102ZM167.171 -377.682C169.333 -376.421 170.773 -357.329 175.636 -276.458C181.22 -182.979 181.4 -176.675 178.518 -174.694C173.835 -171.092 168.972 -171.992 167.351 -176.495C166.631 -178.656 163.389 -219.002 160.147 -266.011C156.905 -313.021 153.843 -356.969 153.302 -363.633C152.222 -375.16 152.402 -375.881 156.544 -377.502C162.128 -379.843 163.929 -379.843 167.171 -377.682Z"/>
<path d="M455.533 -398.034C435.72 -323.287 393.934 -141.193 396.095 -139.212C396.996 -138.311 450.129 -132.367 450.85 -133.088C451.03 -133.448 452.651 -142.094 454.272 -152.54C455.893 -162.807 457.514 -171.632 457.874 -171.812C458.234 -172.172 461.656 -171.992 465.439 -171.272L472.643 -170.191L471.202 -157.403C470.482 -150.199 469.942 -141.193 469.942 -137.23L469.761 -130.026L496.238 -126.063C513.529 -123.542 523.255 -122.821 523.976 -123.902C525.957 -127.324 530.82 -285.103 531 -349.044V-395.333L525.236 -396.413C517.492 -397.674 463.277 -404.699 459.855 -404.699C458.414 -404.699 456.433 -401.817 455.533 -398.034ZM480.388 -262.229C477.326 -225.126 474.625 -194.867 474.444 -194.687C474.444 -194.507 471.202 -194.867 467.6 -195.407C461.656 -196.128 460.936 -196.668 461.656 -200.09C462.197 -202.071 467.06 -230.169 472.463 -262.409C477.867 -294.649 482.91 -323.287 483.45 -325.989C486.332 -340.038 485.611 -323.648 480.388 -262.229Z"/>
<path d="M30.4652 -398.215C14.255 -395.873 0.56641 -393.532 0.0260699 -392.991C-0.51427 -392.451 7.41072 -338.957 17.6772 -274.117C30.6453 -191.805 35.6885 -155.422 34.4277 -154.161C33.347 -153.081 29.2044 -151.82 25.0618 -151.279C20.9192 -150.739 17.3169 -149.658 16.7766 -148.938C15.876 -147.497 19.6584 -125.163 21.0993 -123.362C22.5402 -121.741 63.2458 -128.585 71.3509 -132.007C80.5367 -135.79 89.3623 -144.795 91.5236 -152.54C92.9645 -157.403 90.2628 -184.78 78.9157 -278.98C70.9907 -344.901 64.5066 -399.836 64.5066 -400.916C64.5066 -403.258 66.3078 -403.438 30.4652 -398.215Z"/>
<path d="M203.194 -117.958C200.672 -112.014 192.747 25.0518 189.505 117.45L188.244 152.392L200.672 151.311C207.517 150.591 217.783 150.05 223.547 150.05H233.813V108.624H246.421V118.35C246.421 123.574 246.961 132.76 247.502 138.523L248.582 149.33L270.016 148.97C281.903 148.97 291.99 148.429 292.35 147.889C293.25 146.988 284.425 48.6466 278.841 -3.0459C272.718 -58.5208 266.233 -113.635 265.333 -117.958C264.432 -121.921 264.072 -121.921 234.714 -121.921C205.535 -121.921 204.815 -121.921 203.194 -117.958ZM240.117 11.3632C241.558 39.641 243.359 67.7386 243.899 73.8625L244.98 85.2096H233.813L233.993 16.2262C234.173 -24.6595 234.714 -50.0555 235.614 -46.2731C236.515 -42.8509 238.496 -16.9146 240.117 11.3632Z"/>
<path d="M305.138 -92.9228C304.598 -76.7126 303.157 -25.7405 302.256 20.3684C301.356 66.4774 300.275 114.207 300.095 126.635L299.554 149.149L321.168 150.05C333.055 150.59 343.142 150.77 343.502 150.59C344.223 150.05 350.526 58.5525 350.707 44.8639L350.887 39.6406L364.215 40.9014L377.363 42.1621L378.624 36.3985C379.164 33.3366 379.705 26.8525 379.705 21.9895V13.1639H368.538C362.234 13.1639 356.29 12.4435 355.029 11.723C353.408 10.6423 353.588 -1.065 355.93 -39.9695L358.992 -90.4012L395.375 -89.3205L396.635 -102.109C397.356 -109.313 397.536 -115.437 396.996 -115.977C395.555 -117.418 368.898 -119.58 334.496 -121.201L306.219 -122.461L305.138 -92.9228Z"/>
<path d="M401.679 16.9464C394.474 89.7122 388.53 150.59 388.71 152.211C388.71 154.553 390.151 155.453 393.754 155.453C396.455 155.453 413.206 157.435 430.857 159.956C448.688 162.298 463.638 164.099 463.818 163.739C464.178 163.378 465.439 157.615 466.519 150.951C468.861 136.722 468.681 136.362 452.471 134.74C446.527 134.02 440.583 132.939 439.502 132.219C438.061 131.318 439.142 118.53 443.645 86.29C446.887 61.7946 449.949 41.4418 450.309 41.0816C450.669 40.9015 456.433 41.4418 463.097 42.3424C469.761 43.4231 475.705 43.7833 476.065 43.4231C476.606 42.8827 477.506 37.6594 478.047 31.7157L479.307 20.7288L467.24 19.468C460.756 18.7475 454.812 17.4868 454.272 16.5862C453.371 14.9651 465.799 -78.8738 467.06 -80.1346C467.42 -80.4949 474.985 -79.7744 483.99 -78.6937C492.996 -77.4329 500.921 -76.5324 501.641 -76.5324C503.082 -76.7125 508.306 -101.928 507.225 -103.009C506.324 -103.91 442.744 -112.735 428.155 -113.996L414.647 -115.077L401.679 16.9464Z"/>
<path d="M84.4992 -109.313C50.4578 -100.127 44.514 -88.9601 53.6998 -50.5959C58.743 -28.8022 67.3884 -12.412 83.5986 6.86017C103.411 30.455 112.417 43.6033 119.261 58.5527C126.646 74.4026 132.589 97.6372 134.21 115.468L135.291 128.437H129.708C122.863 128.437 123.224 129.697 119.261 94.2151C117.64 79.806 115.839 67.5583 115.118 67.018C113.858 65.5771 74.9532 70.6202 73.3322 72.2413C70.9907 74.5827 82.3378 137.802 86.1202 143.926C91.7037 152.572 100.529 156.174 119.441 156.894C146.638 157.975 168.972 149.69 175.276 136.181C177.978 130.598 178.338 126.635 177.438 111.326C175.456 80.1663 168.972 53.1493 158.166 30.2749C155.284 24.3311 144.297 8.12094 133.85 -5.74777C112.957 -33.4852 105.572 -46.8136 101.43 -65.005C98.0077 -79.9544 98.9082 -84.097 105.933 -84.097C108.814 -84.097 111.516 -83.3766 112.057 -82.6561C112.597 -81.7556 113.858 -73.8306 114.938 -65.005C115.839 -56.1795 117.28 -46.0931 117.82 -42.671L118.721 -36.1869L140.334 -38.3483C152.222 -39.429 162.308 -40.8698 163.029 -41.4102C163.569 -42.1306 163.209 -53.6579 161.948 -67.1664C159.606 -95.9845 157.265 -101.388 144.117 -107.872C132.229 -113.636 103.591 -114.356 84.4992 -109.313Z"/>
</mask>
<path d="M296.853 -412.624C272.898 -407.941 257.048 -396.954 254.166 -382.905C253.445 -378.582 253.085 -330.492 253.626 -275.918C254.886 -165.328 254.346 -169.651 267.674 -157.583C276.32 -149.838 287.487 -146.056 310.361 -143.354C334.857 -140.472 380.786 -145.335 384.388 -150.919C385.649 -153.26 395.735 -280.961 394.654 -282.222C393.574 -283.482 363.134 -285.464 342.421 -285.644L325.671 -285.824V-274.116C325.671 -263.85 326.031 -262.409 329.093 -262.409C332.695 -262.409 332.875 -257.366 329.453 -193.966L328.373 -171.452L322.789 -170.912C319.727 -170.551 316.305 -171.452 315.404 -172.713C313.963 -174.334 314.144 -204.953 316.125 -278.619C318.466 -368.316 319.367 -382.545 321.708 -384.526C325.311 -387.408 329.633 -387.228 333.596 -384.346C336.658 -382.004 336.838 -379.483 335.037 -338.777C334.136 -315.182 333.596 -295.55 333.776 -295.37C334.136 -294.649 394.474 -291.047 395.195 -291.587C395.915 -292.488 401.318 -363.813 401.318 -374.44C401.318 -386.147 397.176 -393.712 386.909 -400.376C374.301 -408.841 358.451 -412.083 328.373 -412.804C313.603 -413.164 299.374 -412.984 296.853 -412.624Z" stroke="white" stroke-width="2" mask="url(#path-1-inside-1_912:1493)"/>
<path d="M144.657 -410.102C130.968 -407.941 116.019 -403.438 107.734 -399.295C98.0077 -394.432 88.4617 -382.905 87.2009 -374.8C85.9401 -367.595 104.132 -192.345 107.734 -175.054C112.777 -151.459 131.869 -139.932 165.91 -139.932C192.927 -139.932 216.522 -146.596 228.59 -157.403C240.837 -168.57 240.837 -167.489 238.496 -280.421C236.335 -380.203 236.335 -380.383 232.192 -387.948C223.366 -403.438 207.336 -410.102 176.177 -411.003C164.83 -411.363 150.601 -411.003 144.657 -410.102ZM167.171 -377.682C169.333 -376.421 170.773 -357.329 175.636 -276.458C181.22 -182.979 181.4 -176.675 178.518 -174.694C173.835 -171.092 168.972 -171.992 167.351 -176.495C166.631 -178.656 163.389 -219.002 160.147 -266.011C156.905 -313.021 153.843 -356.969 153.302 -363.633C152.222 -375.16 152.402 -375.881 156.544 -377.502C162.128 -379.843 163.929 -379.843 167.171 -377.682Z" stroke="white" stroke-width="2" mask="url(#path-1-inside-1_912:1493)"/>
<path d="M455.533 -398.034C435.72 -323.287 393.934 -141.193 396.095 -139.212C396.996 -138.311 450.129 -132.367 450.85 -133.088C451.03 -133.448 452.651 -142.094 454.272 -152.54C455.893 -162.807 457.514 -171.632 457.874 -171.812C458.234 -172.172 461.656 -171.992 465.439 -171.272L472.643 -170.191L471.202 -157.403C470.482 -150.199 469.942 -141.193 469.942 -137.23L469.761 -130.026L496.238 -126.063C513.529 -123.542 523.255 -122.821 523.976 -123.902C525.957 -127.324 530.82 -285.103 531 -349.044V-395.333L525.236 -396.413C517.492 -397.674 463.277 -404.699 459.855 -404.699C458.414 -404.699 456.433 -401.817 455.533 -398.034ZM480.388 -262.229C477.326 -225.126 474.625 -194.867 474.444 -194.687C474.444 -194.507 471.202 -194.867 467.6 -195.407C461.656 -196.128 460.936 -196.668 461.656 -200.09C462.197 -202.071 467.06 -230.169 472.463 -262.409C477.867 -294.649 482.91 -323.287 483.45 -325.989C486.332 -340.038 485.611 -323.648 480.388 -262.229Z" stroke="white" stroke-width="2" mask="url(#path-1-inside-1_912:1493)"/>
<path d="M30.4652 -398.215C14.255 -395.873 0.56641 -393.532 0.0260699 -392.991C-0.51427 -392.451 7.41072 -338.957 17.6772 -274.117C30.6453 -191.805 35.6885 -155.422 34.4277 -154.161C33.347 -153.081 29.2044 -151.82 25.0618 -151.279C20.9192 -150.739 17.3169 -149.658 16.7766 -148.938C15.876 -147.497 19.6584 -125.163 21.0993 -123.362C22.5402 -121.741 63.2458 -128.585 71.3509 -132.007C80.5367 -135.79 89.3623 -144.795 91.5236 -152.54C92.9645 -157.403 90.2628 -184.78 78.9157 -278.98C70.9907 -344.901 64.5066 -399.836 64.5066 -400.916C64.5066 -403.258 66.3078 -403.438 30.4652 -398.215Z" stroke="white" stroke-width="2" mask="url(#path-1-inside-1_912:1493)"/>
<path d="M203.194 -117.958C200.672 -112.014 192.747 25.0518 189.505 117.45L188.244 152.392L200.672 151.311C207.517 150.591 217.783 150.05 223.547 150.05H233.813V108.624H246.421V118.35C246.421 123.574 246.961 132.76 247.502 138.523L248.582 149.33L270.016 148.97C281.903 148.97 291.99 148.429 292.35 147.889C293.25 146.988 284.425 48.6466 278.841 -3.0459C272.718 -58.5208 266.233 -113.635 265.333 -117.958C264.432 -121.921 264.072 -121.921 234.714 -121.921C205.535 -121.921 204.815 -121.921 203.194 -117.958ZM240.117 11.3632C241.558 39.641 243.359 67.7386 243.899 73.8625L244.98 85.2096H233.813L233.993 16.2262C234.173 -24.6595 234.714 -50.0555 235.614 -46.2731C236.515 -42.8509 238.496 -16.9146 240.117 11.3632Z" stroke="white" stroke-width="2" mask="url(#path-1-inside-1_912:1493)"/>
<path d="M305.138 -92.9228C304.598 -76.7126 303.157 -25.7405 302.256 20.3684C301.356 66.4774 300.275 114.207 300.095 126.635L299.554 149.149L321.168 150.05C333.055 150.59 343.142 150.77 343.502 150.59C344.223 150.05 350.526 58.5525 350.707 44.8639L350.887 39.6406L364.215 40.9014L377.363 42.1621L378.624 36.3985C379.164 33.3366 379.705 26.8525 379.705 21.9895V13.1639H368.538C362.234 13.1639 356.29 12.4435 355.029 11.723C353.408 10.6423 353.588 -1.065 355.93 -39.9695L358.992 -90.4012L395.375 -89.3205L396.635 -102.109C397.356 -109.313 397.536 -115.437 396.996 -115.977C395.555 -117.418 368.898 -119.58 334.496 -121.201L306.219 -122.461L305.138 -92.9228Z" stroke="white" stroke-width="2" mask="url(#path-1-inside-1_912:1493)"/>
<path d="M401.679 16.9464C394.474 89.7122 388.53 150.59 388.71 152.211C388.71 154.553 390.151 155.453 393.754 155.453C396.455 155.453 413.206 157.435 430.857 159.956C448.688 162.298 463.638 164.099 463.818 163.739C464.178 163.378 465.439 157.615 466.519 150.951C468.861 136.722 468.681 136.362 452.471 134.74C446.527 134.02 440.583 132.939 439.502 132.219C438.061 131.318 439.142 118.53 443.645 86.29C446.887 61.7946 449.949 41.4418 450.309 41.0816C450.669 40.9015 456.433 41.4418 463.097 42.3424C469.761 43.4231 475.705 43.7833 476.065 43.4231C476.606 42.8827 477.506 37.6594 478.047 31.7157L479.307 20.7288L467.24 19.468C460.756 18.7475 454.812 17.4868 454.272 16.5862C453.371 14.9651 465.799 -78.8738 467.06 -80.1346C467.42 -80.4949 474.985 -79.7744 483.99 -78.6937C492.996 -77.4329 500.921 -76.5324 501.641 -76.5324C503.082 -76.7125 508.306 -101.928 507.225 -103.009C506.324 -103.91 442.744 -112.735 428.155 -113.996L414.647 -115.077L401.679 16.9464Z" stroke="white" stroke-width="2" mask="url(#path-1-inside-1_912:1493)"/>
<path d="M84.4992 -109.313C50.4578 -100.127 44.514 -88.9601 53.6998 -50.5959C58.743 -28.8022 67.3884 -12.412 83.5986 6.86017C103.411 30.455 112.417 43.6033 119.261 58.5527C126.646 74.4026 132.589 97.6372 134.21 115.468L135.291 128.437H129.708C122.863 128.437 123.224 129.697 119.261 94.2151C117.64 79.806 115.839 67.5583 115.118 67.018C113.858 65.5771 74.9532 70.6202 73.3322 72.2413C70.9907 74.5827 82.3378 137.802 86.1202 143.926C91.7037 152.572 100.529 156.174 119.441 156.894C146.638 157.975 168.972 149.69 175.276 136.181C177.978 130.598 178.338 126.635 177.438 111.326C175.456 80.1663 168.972 53.1493 158.166 30.2749C155.284 24.3311 144.297 8.12094 133.85 -5.74777C112.957 -33.4852 105.572 -46.8136 101.43 -65.005C98.0077 -79.9544 98.9082 -84.097 105.933 -84.097C108.814 -84.097 111.516 -83.3766 112.057 -82.6561C112.597 -81.7556 113.858 -73.8306 114.938 -65.005C115.839 -56.1795 117.28 -46.0931 117.82 -42.671L118.721 -36.1869L140.334 -38.3483C152.222 -39.429 162.308 -40.8698 163.029 -41.4102C163.569 -42.1306 163.209 -53.6579 161.948 -67.1664C159.606 -95.9845 157.265 -101.388 144.117 -107.872C132.229 -113.636 103.591 -114.356 84.4992 -109.313Z" stroke="white" stroke-width="2" mask="url(#path-1-inside-1_912:1493)"/>
</svg>
