<svg width="531" height="125" viewBox="0 0 531 125" fill="none" xmlns="http://www.w3.org/2000/svg">
<mask id="path-1-inside-1_912:1499" fill="white">
<path d="M296.853 0.376467C272.898 5.05941 257.048 16.0463 254.166 30.0952C253.445 34.4179 253.085 82.5081 253.626 137.082C254.886 247.672 254.346 243.349 267.674 255.417C276.32 263.162 287.487 266.944 310.361 269.646C334.857 272.528 380.786 267.665 384.388 262.081C385.649 259.74 395.735 132.039 394.654 130.778C393.574 129.518 363.134 127.536 342.421 127.356L325.671 127.176V138.884C325.671 149.15 326.031 150.591 329.093 150.591C332.695 150.591 332.875 155.634 329.453 219.034L328.373 241.548L322.789 242.088C319.727 242.449 316.305 241.548 315.404 240.287C313.963 238.666 314.144 208.047 316.125 134.381C318.466 44.6843 319.367 30.4554 321.708 28.4741C325.311 25.5923 329.633 25.7724 333.596 28.6542C336.658 30.9957 336.838 33.5173 335.037 74.2229C334.136 97.8177 333.596 117.45 333.776 117.63C334.136 118.351 394.474 121.953 395.195 121.413C395.915 120.512 401.318 49.1872 401.318 38.5605C401.318 26.8531 397.176 19.2884 386.909 12.6242C374.301 4.15884 358.451 0.916807 328.373 0.196354C313.603 -0.163872 299.374 0.0162408 296.853 0.376467Z"/>
<path d="M144.657 2.89795C130.968 5.05931 116.019 9.56214 107.734 13.7047C98.0077 18.5678 88.4617 30.0951 87.2009 38.2001C85.9401 45.4047 104.132 220.655 107.734 237.946C112.777 261.541 131.869 273.068 165.91 273.068C192.927 273.068 216.522 266.404 228.59 255.597C240.837 244.43 240.837 245.511 238.496 132.579C236.335 32.7967 236.335 32.6166 232.192 25.0519C223.366 9.56214 207.336 2.89795 176.177 1.99738C164.83 1.63716 150.601 1.99738 144.657 2.89795ZM167.171 35.3183C169.333 36.5791 170.773 55.6711 175.636 136.542C181.22 230.021 181.4 236.325 178.518 238.306C173.835 241.908 168.972 241.008 167.351 236.505C166.631 234.344 163.389 193.998 160.147 146.989C156.905 99.979 153.843 56.0314 153.302 49.3672C152.222 37.8399 152.402 37.1195 156.544 35.4985C162.128 33.157 163.929 33.157 167.171 35.3183Z"/>
<path d="M455.533 14.9655C435.72 89.7125 393.934 271.807 396.095 273.788C396.996 274.689 450.129 280.633 450.85 279.912C451.03 279.552 452.651 270.906 454.272 260.46C455.893 250.193 457.514 241.368 457.874 241.188C458.234 240.828 461.656 241.008 465.439 241.728L472.643 242.809L471.202 255.597C470.482 262.801 469.942 271.807 469.942 275.77L469.761 282.974L496.238 286.937C513.529 289.458 523.255 290.179 523.976 289.098C525.957 285.676 530.82 127.897 531 63.9563V17.6672L525.236 16.5865C517.492 15.3257 463.277 8.30133 459.855 8.30133C458.414 8.30133 456.433 11.1831 455.533 14.9655ZM480.388 150.771C477.326 187.874 474.625 218.133 474.444 218.313C474.444 218.493 471.202 218.133 467.6 217.593C461.656 216.872 460.936 216.332 461.656 212.91C462.197 210.929 467.06 182.831 472.463 150.591C477.867 118.351 482.91 89.7125 483.45 87.0108C486.332 72.962 485.611 89.3523 480.388 150.771Z"/>
<path d="M30.4652 14.7853C14.255 17.1268 0.56641 19.4682 0.0260699 20.0086C-0.51427 20.5489 7.41072 74.0426 17.6772 138.883C30.6453 221.195 35.6885 257.578 34.4277 258.839C33.347 259.919 29.2044 261.18 25.0618 261.721C20.9192 262.261 17.3169 263.342 16.7766 264.062C15.876 265.503 19.6584 287.837 21.0993 289.638C22.5402 291.259 63.2458 284.415 71.3509 280.993C80.5367 277.21 89.3623 268.205 91.5236 260.46C92.9645 255.597 90.2628 228.22 78.9157 134.02C70.9907 68.0988 64.5066 13.1643 64.5066 12.0836C64.5066 9.74212 66.3078 9.56201 30.4652 14.7853Z"/>
<path d="M203.194 295.042C200.672 300.986 192.747 438.052 189.505 530.45L188.244 565.392L200.672 564.311C207.517 563.591 217.783 563.05 223.547 563.05H233.813V521.624H246.421V531.35C246.421 536.574 246.961 545.76 247.502 551.523L248.582 562.33L270.016 561.97C281.903 561.97 291.99 561.429 292.35 560.889C293.25 559.988 284.425 461.647 278.841 409.954C272.718 354.479 266.233 299.365 265.333 295.042C264.432 291.079 264.072 291.079 234.714 291.079C205.535 291.079 204.815 291.079 203.194 295.042ZM240.117 424.363C241.558 452.641 243.359 480.739 243.899 486.862L244.98 498.21H233.813L233.993 429.226C234.173 388.341 234.714 362.945 235.614 366.727C236.515 370.149 238.496 396.085 240.117 424.363Z"/>
<path d="M305.138 320.077C304.598 336.287 303.157 387.259 302.256 433.368C301.356 479.477 300.275 527.207 300.095 539.635L299.554 562.149L321.168 563.05C333.055 563.59 343.142 563.77 343.502 563.59C344.222 563.05 350.526 471.552 350.707 457.864L350.887 452.641L364.215 453.901L377.363 455.162L378.624 449.399C379.164 446.337 379.705 439.853 379.705 434.989V426.164H368.538C362.234 426.164 356.29 425.443 355.029 424.723C353.408 423.642 353.588 411.935 355.93 373.031L358.992 322.599L395.375 323.679L396.635 310.891C397.356 303.687 397.536 297.563 396.996 297.023C395.555 295.582 368.898 293.42 334.496 291.799L306.219 290.539L305.138 320.077Z"/>
<path d="M401.679 429.946C394.474 502.712 388.53 563.59 388.71 565.211C388.71 567.553 390.151 568.453 393.754 568.453C396.455 568.453 413.206 570.435 430.857 572.956C448.688 575.298 463.638 577.099 463.818 576.739C464.178 576.378 465.439 570.615 466.519 563.951C468.861 549.722 468.681 549.361 452.471 547.74C446.527 547.02 440.583 545.939 439.502 545.219C438.062 544.318 439.142 531.53 443.645 499.29C446.887 474.795 449.949 454.442 450.309 454.082C450.669 453.901 456.433 454.442 463.097 455.342C469.761 456.423 475.705 456.783 476.065 456.423C476.606 455.883 477.506 450.659 478.047 444.716L479.307 433.729L467.24 432.468C460.756 431.748 454.812 430.487 454.272 429.586C453.371 427.965 465.799 334.126 467.06 332.865C467.42 332.505 474.985 333.226 483.99 334.306C492.996 335.567 500.921 336.468 501.641 336.468C503.082 336.288 508.306 311.072 507.225 309.991C506.324 309.09 442.744 300.265 428.155 299.004L414.647 297.923L401.679 429.946Z"/>
<path d="M84.4992 303.687C50.4578 312.873 44.514 324.04 53.6998 362.404C58.743 384.198 67.3884 400.588 83.5986 419.86C103.411 443.455 112.417 456.603 119.261 471.553C126.646 487.403 132.589 510.637 134.21 528.468L135.291 541.437H129.708C122.863 541.437 123.224 542.697 119.261 507.215C117.64 492.806 115.839 480.558 115.118 480.018C113.858 478.577 74.9532 483.62 73.3322 485.241C70.9907 487.583 82.3378 550.802 86.1202 556.926C91.7037 565.572 100.529 569.174 119.441 569.894C146.638 570.975 168.972 562.69 175.276 549.181C177.978 543.598 178.338 539.635 177.438 524.326C175.456 493.166 168.972 466.149 158.166 443.275C155.284 437.331 144.297 421.121 133.85 407.252C112.957 379.515 105.572 366.186 101.43 347.995C98.0077 333.046 98.9082 328.903 105.933 328.903C108.814 328.903 111.516 329.623 112.057 330.344C112.597 331.244 113.858 339.169 114.938 347.995C115.839 356.821 117.28 366.907 117.82 370.329L118.721 376.813L140.334 374.652C152.222 373.571 162.308 372.13 163.029 371.59C163.569 370.869 163.209 359.342 161.948 345.834C159.606 317.015 157.265 311.612 144.117 305.128C132.229 299.364 103.591 298.644 84.4992 303.687Z"/>
</mask>
<path d="M296.853 0.376467C272.898 5.05941 257.048 16.0463 254.166 30.0952C253.445 34.4179 253.085 82.5081 253.626 137.082C254.886 247.672 254.346 243.349 267.674 255.417C276.32 263.162 287.487 266.944 310.361 269.646C334.857 272.528 380.786 267.665 384.388 262.081C385.649 259.74 395.735 132.039 394.654 130.778C393.574 129.518 363.134 127.536 342.421 127.356L325.671 127.176V138.884C325.671 149.15 326.031 150.591 329.093 150.591C332.695 150.591 332.875 155.634 329.453 219.034L328.373 241.548L322.789 242.088C319.727 242.449 316.305 241.548 315.404 240.287C313.963 238.666 314.144 208.047 316.125 134.381C318.466 44.6843 319.367 30.4554 321.708 28.4741C325.311 25.5923 329.633 25.7724 333.596 28.6542C336.658 30.9957 336.838 33.5173 335.037 74.2229C334.136 97.8177 333.596 117.45 333.776 117.63C334.136 118.351 394.474 121.953 395.195 121.413C395.915 120.512 401.318 49.1872 401.318 38.5605C401.318 26.8531 397.176 19.2884 386.909 12.6242C374.301 4.15884 358.451 0.916807 328.373 0.196354C313.603 -0.163872 299.374 0.0162408 296.853 0.376467Z" stroke="white" stroke-width="2" mask="url(#path-1-inside-1_912:1499)"/>
<path d="M144.657 2.89795C130.968 5.05931 116.019 9.56214 107.734 13.7047C98.0077 18.5678 88.4617 30.0951 87.2009 38.2001C85.9401 45.4047 104.132 220.655 107.734 237.946C112.777 261.541 131.869 273.068 165.91 273.068C192.927 273.068 216.522 266.404 228.59 255.597C240.837 244.43 240.837 245.511 238.496 132.579C236.335 32.7967 236.335 32.6166 232.192 25.0519C223.366 9.56214 207.336 2.89795 176.177 1.99738C164.83 1.63716 150.601 1.99738 144.657 2.89795ZM167.171 35.3183C169.333 36.5791 170.773 55.6711 175.636 136.542C181.22 230.021 181.4 236.325 178.518 238.306C173.835 241.908 168.972 241.008 167.351 236.505C166.631 234.344 163.389 193.998 160.147 146.989C156.905 99.979 153.843 56.0314 153.302 49.3672C152.222 37.8399 152.402 37.1195 156.544 35.4985C162.128 33.157 163.929 33.157 167.171 35.3183Z" stroke="white" stroke-width="2" mask="url(#path-1-inside-1_912:1499)"/>
<path d="M455.533 14.9655C435.72 89.7125 393.934 271.807 396.095 273.788C396.996 274.689 450.129 280.633 450.85 279.912C451.03 279.552 452.651 270.906 454.272 260.46C455.893 250.193 457.514 241.368 457.874 241.188C458.234 240.828 461.656 241.008 465.439 241.728L472.643 242.809L471.202 255.597C470.482 262.801 469.942 271.807 469.942 275.77L469.761 282.974L496.238 286.937C513.529 289.458 523.255 290.179 523.976 289.098C525.957 285.676 530.82 127.897 531 63.9563V17.6672L525.236 16.5865C517.492 15.3257 463.277 8.30133 459.855 8.30133C458.414 8.30133 456.433 11.1831 455.533 14.9655ZM480.388 150.771C477.326 187.874 474.625 218.133 474.444 218.313C474.444 218.493 471.202 218.133 467.6 217.593C461.656 216.872 460.936 216.332 461.656 212.91C462.197 210.929 467.06 182.831 472.463 150.591C477.867 118.351 482.91 89.7125 483.45 87.0108C486.332 72.962 485.611 89.3523 480.388 150.771Z" stroke="white" stroke-width="2" mask="url(#path-1-inside-1_912:1499)"/>
<path d="M30.4652 14.7853C14.255 17.1268 0.56641 19.4682 0.0260699 20.0086C-0.51427 20.5489 7.41072 74.0426 17.6772 138.883C30.6453 221.195 35.6885 257.578 34.4277 258.839C33.347 259.919 29.2044 261.18 25.0618 261.721C20.9192 262.261 17.3169 263.342 16.7766 264.062C15.876 265.503 19.6584 287.837 21.0993 289.638C22.5402 291.259 63.2458 284.415 71.3509 280.993C80.5367 277.21 89.3623 268.205 91.5236 260.46C92.9645 255.597 90.2628 228.22 78.9157 134.02C70.9907 68.0988 64.5066 13.1643 64.5066 12.0836C64.5066 9.74212 66.3078 9.56201 30.4652 14.7853Z" stroke="white" stroke-width="2" mask="url(#path-1-inside-1_912:1499)"/>
<path d="M203.194 295.042C200.672 300.986 192.747 438.052 189.505 530.45L188.244 565.392L200.672 564.311C207.517 563.591 217.783 563.05 223.547 563.05H233.813V521.624H246.421V531.35C246.421 536.574 246.961 545.76 247.502 551.523L248.582 562.33L270.016 561.97C281.903 561.97 291.99 561.429 292.35 560.889C293.25 559.988 284.425 461.647 278.841 409.954C272.718 354.479 266.233 299.365 265.333 295.042C264.432 291.079 264.072 291.079 234.714 291.079C205.535 291.079 204.815 291.079 203.194 295.042ZM240.117 424.363C241.558 452.641 243.359 480.739 243.899 486.862L244.98 498.21H233.813L233.993 429.226C234.173 388.341 234.714 362.945 235.614 366.727C236.515 370.149 238.496 396.085 240.117 424.363Z" stroke="white" stroke-width="2" mask="url(#path-1-inside-1_912:1499)"/>
<path d="M305.138 320.077C304.598 336.287 303.157 387.259 302.256 433.368C301.356 479.477 300.275 527.207 300.095 539.635L299.554 562.149L321.168 563.05C333.055 563.59 343.142 563.77 343.502 563.59C344.222 563.05 350.526 471.552 350.707 457.864L350.887 452.641L364.215 453.901L377.363 455.162L378.624 449.399C379.164 446.337 379.705 439.853 379.705 434.989V426.164H368.538C362.234 426.164 356.29 425.443 355.029 424.723C353.408 423.642 353.588 411.935 355.93 373.031L358.992 322.599L395.375 323.679L396.635 310.891C397.356 303.687 397.536 297.563 396.996 297.023C395.555 295.582 368.898 293.42 334.496 291.799L306.219 290.539L305.138 320.077Z" stroke="white" stroke-width="2" mask="url(#path-1-inside-1_912:1499)"/>
<path d="M401.679 429.946C394.474 502.712 388.53 563.59 388.71 565.211C388.71 567.553 390.151 568.453 393.754 568.453C396.455 568.453 413.206 570.435 430.857 572.956C448.688 575.298 463.638 577.099 463.818 576.739C464.178 576.378 465.439 570.615 466.519 563.951C468.861 549.722 468.681 549.361 452.471 547.74C446.527 547.02 440.583 545.939 439.502 545.219C438.062 544.318 439.142 531.53 443.645 499.29C446.887 474.795 449.949 454.442 450.309 454.082C450.669 453.901 456.433 454.442 463.097 455.342C469.761 456.423 475.705 456.783 476.065 456.423C476.606 455.883 477.506 450.659 478.047 444.716L479.307 433.729L467.24 432.468C460.756 431.748 454.812 430.487 454.272 429.586C453.371 427.965 465.799 334.126 467.06 332.865C467.42 332.505 474.985 333.226 483.99 334.306C492.996 335.567 500.921 336.468 501.641 336.468C503.082 336.288 508.306 311.072 507.225 309.991C506.324 309.09 442.744 300.265 428.155 299.004L414.647 297.923L401.679 429.946Z" stroke="white" stroke-width="2" mask="url(#path-1-inside-1_912:1499)"/>
<path d="M84.4992 303.687C50.4578 312.873 44.514 324.04 53.6998 362.404C58.743 384.198 67.3884 400.588 83.5986 419.86C103.411 443.455 112.417 456.603 119.261 471.553C126.646 487.403 132.589 510.637 134.21 528.468L135.291 541.437H129.708C122.863 541.437 123.224 542.697 119.261 507.215C117.64 492.806 115.839 480.558 115.118 480.018C113.858 478.577 74.9532 483.62 73.3322 485.241C70.9907 487.583 82.3378 550.802 86.1202 556.926C91.7037 565.572 100.529 569.174 119.441 569.894C146.638 570.975 168.972 562.69 175.276 549.181C177.978 543.598 178.338 539.635 177.438 524.326C175.456 493.166 168.972 466.149 158.166 443.275C155.284 437.331 144.297 421.121 133.85 407.252C112.957 379.515 105.572 366.186 101.43 347.995C98.0077 333.046 98.9082 328.903 105.933 328.903C108.814 328.903 111.516 329.623 112.057 330.344C112.597 331.244 113.858 339.169 114.938 347.995C115.839 356.821 117.28 366.907 117.82 370.329L118.721 376.813L140.334 374.652C152.222 373.571 162.308 372.13 163.029 371.59C163.569 370.869 163.209 359.342 161.948 345.834C159.606 317.015 157.265 311.612 144.117 305.128C132.229 299.364 103.591 298.644 84.4992 303.687Z" stroke="white" stroke-width="2" mask="url(#path-1-inside-1_912:1499)"/>
</svg>
