<svg width="1920" height="238" viewBox="0 0 1920 238" fill="none" xmlns="http://www.w3.org/2000/svg">
<mask id="mask0" style="mask-type:alpha" maskUnits="userSpaceOnUse" x="0" y="0" width="1920" height="238">
<rect width="1920" height="238" fill="#C4C4C4"/>
</mask>
<g mask="url(#mask0)">
<path d="M225.006 225.376H223.897V226.486H225.006V225.376ZM225.006 75.2619H226.116V74.152H225.006V75.2619ZM135.937 75.2619H134.827V76.3718H135.937V75.2619ZM135.937 18.9344V17.8245H134.827V18.9344H135.937ZM392.879 18.9344H393.989V17.8245H392.879V18.9344ZM392.879 75.2619V76.3718H393.989V75.2619H392.879ZM303.809 75.2619V74.152H302.7V75.2619H303.809ZM303.809 225.376V226.486H304.919V225.376H303.809ZM226.116 225.376V75.2619H223.897V225.376H226.116ZM225.006 74.152H135.937V76.3718H225.006V74.152ZM137.047 75.2619V18.9344H134.827V75.2619H137.047ZM135.937 20.0443H392.879V17.8245H135.937V20.0443ZM391.769 18.9344V75.2619H393.989V18.9344H391.769ZM392.879 74.152H303.809V76.3718H392.879V74.152ZM302.7 75.2619V225.376H304.919V75.2619H302.7ZM303.809 224.266H225.006V226.486H303.809V224.266ZM413.291 18.9344V17.8245H412.181V18.9344H413.291ZM641.653 18.9344H642.763V17.8245H641.653V18.9344ZM641.653 69.4349V70.5448H642.763V69.4349H641.653ZM490.984 69.4349V68.325H489.874V69.4349H490.984ZM490.984 95.2401H489.874V96.35H490.984V95.2401ZM638.601 95.2401H639.711V94.1302H638.601V95.2401ZM638.601 145.463V146.573H639.711V145.463H638.601ZM490.984 145.463V144.353H489.874V145.463H490.984ZM490.984 173.766H489.874V174.875H490.984V173.766ZM643.873 173.766H644.983V172.656H643.873V173.766ZM643.873 225.376V226.486H644.983V225.376H643.873ZM413.291 225.376H412.181V226.486H413.291V225.376ZM413.291 20.0443H641.653V17.8245H413.291V20.0443ZM640.543 18.9344V69.4349H642.763V18.9344H640.543ZM641.653 68.325H490.984V70.5448H641.653V68.325ZM489.874 69.4349V95.2401H492.094V69.4349H489.874ZM490.984 96.35H638.601V94.1302H490.984V96.35ZM637.491 95.2401V145.463H639.711V95.2401H637.491ZM638.601 144.353H490.984V146.573H638.601V144.353ZM489.874 145.463V173.766H492.094V145.463H489.874ZM490.984 174.875H643.873V172.656H490.984V174.875ZM642.763 173.766V225.376H644.983V173.766H642.763ZM643.873 224.266H413.291V226.486H643.873V224.266ZM414.401 225.376V18.9344H412.181V225.376H414.401ZM837.839 140.469V141.578H839.616L838.836 139.982L837.839 140.469ZM803.154 69.4349L804.152 68.9479L803.142 66.8804L802.152 68.9574L803.154 69.4349ZM769.302 140.469L768.3 139.991L767.544 141.578H769.302V140.469ZM879.183 225.376L878.183 225.859L878.486 226.486H879.183V225.376ZM863.089 192.079L864.088 191.596L863.785 190.969H863.089V192.079ZM745.162 192.079V190.969H744.46L744.159 191.603L745.162 192.079ZM729.346 225.376V226.486H730.047L730.348 225.852L729.346 225.376ZM649.433 225.376L648.438 224.884L647.646 226.486H649.433V225.376ZM751.544 18.9344V17.8245H750.855L750.549 18.4423L751.544 18.9344ZM857.539 18.9344L858.523 18.4201L858.212 17.8245H857.539V18.9344ZM965.477 225.376V226.486H967.31L966.461 224.862L965.477 225.376ZM838.836 139.982L804.152 68.9479L802.157 69.9219L836.841 140.956L838.836 139.982ZM802.152 68.9574L768.3 139.991L770.304 140.946L804.156 69.9124L802.152 68.9574ZM769.302 141.578H837.839V139.359H769.302V141.578ZM880.182 224.893L864.088 191.596L862.09 192.562L878.183 225.859L880.182 224.893ZM863.089 190.969H745.162V193.189H863.089V190.969ZM744.159 191.603L728.343 224.9L730.348 225.852L746.165 192.555L744.159 191.603ZM729.346 224.266H649.433V226.486H729.346V224.266ZM650.428 225.868L752.539 19.4265L750.549 18.4423L648.438 224.884L650.428 225.868ZM751.544 20.0443H857.539V17.8245H751.544V20.0443ZM856.556 19.4486L964.494 225.89L966.461 224.862L858.523 18.4201L856.556 19.4486ZM965.477 224.266H879.183V226.486H965.477V224.266ZM955.826 153.232V152.123H954.717V153.232H955.826ZM1042.4 153.232L1043.51 153.148L1043.43 152.123H1042.4V153.232ZM1122.87 180.98L1123.01 182.08L1123.03 182.078L1123.04 182.076L1122.87 180.98ZM1138.41 176.54L1138.94 177.511L1138.96 177.499L1138.98 177.487L1138.41 176.54ZM1145.06 170.436L1144.11 169.877L1144.1 169.89L1144.09 169.904L1145.06 170.436ZM1143.95 153.51L1143.07 154.187L1143.1 154.225L1143.14 154.26L1143.95 153.51ZM1130.08 147.405L1129.81 148.481L1129.82 148.485L1129.84 148.488L1130.08 147.405ZM1098.45 144.076L1098.42 145.185L1098.42 145.185L1098.45 144.076ZM1060.16 142.966L1060.19 141.856L1060.19 141.856L1060.16 142.966ZM961.931 58.8908L962.977 59.262L962.981 59.2516L961.931 58.8908ZM973.03 41.6873L972.232 40.9159L972.232 40.9159L973.03 41.6873ZM994.118 27.8136L994.553 28.8349L994.553 28.8349L994.118 27.8136ZM1028.25 18.9344L1028.42 20.0308L1028.43 20.0288L1028.25 18.9344ZM1227.75 82.7537V83.8636H1228.86V82.7537H1227.75ZM1142.01 82.7537L1140.91 82.8793L1141.02 83.8636H1142.01V82.7537ZM1059.32 63.3304L1059.55 64.4165L1059.57 64.4136L1059.58 64.4104L1059.32 63.3304ZM1046.28 68.6025L1047.11 69.3449L1047.13 69.3255L1047.14 69.3053L1046.28 68.6025ZM1046.56 84.1411L1045.74 84.8877L1045.76 84.9072L1045.78 84.9259L1046.56 84.1411ZM1059.88 89.6906L1059.62 90.769L1059.63 90.7724L1059.65 90.7754L1059.88 89.6906ZM1088.74 92.1879L1088.76 91.0782L1088.75 91.0781L1088.74 92.1879ZM1125.92 93.0203L1125.95 91.9108L1125.94 91.9107L1125.92 93.0203ZM1209.72 109.391L1209.16 110.35L1209.17 110.355L1209.72 109.391ZM1232.19 179.87L1233.25 180.192L1233.26 180.183L1232.19 179.87ZM1221.09 198.738L1221.93 199.473L1221.93 199.467L1221.94 199.461L1221.09 198.738ZM1198.89 214.832L1199.37 215.837L1199.38 215.833L1198.89 214.832ZM1161.71 225.376L1161.9 226.471L1161.91 226.469L1161.71 225.376ZM1107.05 228.151H1081.8V230.371H1107.05V228.151ZM1081.8 228.151C1039.88 228.151 1008.62 222.05 987.878 209.988C967.226 197.979 956.936 180.032 956.936 156.007H954.717C954.717 180.818 965.422 199.498 986.762 211.907C1008.01 224.262 1039.74 230.371 1081.8 230.371V228.151ZM956.936 156.007V153.232H954.717V156.007H956.936ZM955.826 154.342H1042.4V152.123H955.826V154.342ZM1041.29 153.317C1042.06 163.404 1046.95 171.015 1055.87 176.05C1064.71 181.043 1077.47 183.477 1094.01 183.477V181.257C1077.62 181.257 1065.32 178.836 1056.96 174.117C1048.67 169.44 1044.22 162.484 1043.51 153.148L1041.29 153.317ZM1094.01 183.477H1096.51V181.257H1094.01V183.477ZM1096.51 183.477C1107.08 183.477 1115.92 183.014 1123.01 182.08L1122.72 179.88C1115.76 180.796 1107.02 181.257 1096.51 181.257V183.477ZM1123.04 182.076C1130.11 180.961 1135.44 179.457 1138.94 177.511L1137.87 175.57C1134.71 177.324 1129.69 178.78 1122.69 179.884L1123.04 182.076ZM1138.98 177.487C1142.38 175.412 1144.79 173.253 1146.04 170.967L1144.09 169.904C1143.12 171.689 1141.09 173.599 1137.83 175.593L1138.98 177.487ZM1146.02 170.995C1147.43 168.592 1148.12 165.899 1148.12 162.944H1145.9C1145.9 165.538 1145.29 167.84 1144.11 169.877L1146.02 170.995ZM1148.12 162.944V162.667H1145.9V162.944H1148.12ZM1148.12 162.667C1148.12 158.587 1147.04 155.238 1144.77 152.76L1143.14 154.26C1144.93 156.221 1145.9 158.977 1145.9 162.667H1148.12ZM1144.83 152.833C1143.74 151.416 1141.93 150.213 1139.55 149.164C1137.14 148.108 1134.06 147.164 1130.32 146.323L1129.84 148.488C1133.5 149.312 1136.43 150.218 1138.65 151.196C1140.89 152.183 1142.32 153.199 1143.07 154.187L1144.83 152.833ZM1130.36 146.33C1123.02 144.449 1112.38 143.337 1098.48 142.966L1098.42 145.185C1112.27 145.555 1122.71 146.662 1129.81 148.481L1130.36 146.33ZM1098.48 142.966L1060.19 141.856L1060.12 144.075L1098.42 145.185L1098.48 142.966ZM1060.19 141.856C1026.5 140.933 1001.41 135.303 984.779 125.094C968.228 114.936 959.989 100.218 959.989 80.8114H957.769C957.769 100.991 966.409 116.425 983.618 126.986C1000.74 137.495 1026.29 143.148 1060.13 144.075L1060.19 141.856ZM959.989 80.8114V78.3141H957.769V80.8114H959.989ZM959.989 78.3141C959.989 71.2033 960.991 64.8575 962.977 59.262L960.885 58.5197C958.801 64.3931 957.769 70.9962 957.769 78.3141H959.989ZM962.981 59.2516C964.952 53.5173 968.551 47.9181 973.828 42.4587L972.232 40.9159C966.78 46.5557 962.98 52.4254 960.881 58.53L962.981 59.2516ZM973.828 42.4588C979.069 37.0371 985.965 32.4891 994.553 28.8349L993.683 26.7923C984.882 30.5374 977.72 35.2386 972.232 40.9159L973.828 42.4588ZM994.553 28.8349C1003.13 25.1839 1014.41 22.2427 1028.42 20.0307L1028.07 17.8381C1013.97 20.0657 1002.49 23.0439 993.683 26.7923L994.553 28.8349ZM1028.43 20.0288C1042.6 17.6368 1059 16.4371 1077.64 16.4371V14.2173C1058.91 14.2173 1042.38 15.4224 1028.06 17.84L1028.43 20.0288ZM1077.64 16.4371H1102.33V14.2173H1077.64V16.4371ZM1102.33 16.4371C1144.08 16.4371 1175.22 21.8692 1195.89 32.6136C1206.2 37.9774 1213.88 44.6494 1218.98 52.605C1224.08 60.5558 1226.64 69.8517 1226.64 80.5339H1228.86C1228.86 69.4806 1226.2 59.7578 1220.85 51.4069C1215.5 43.0609 1207.5 36.1482 1196.91 30.6441C1175.77 19.6529 1144.2 14.2173 1102.33 14.2173V16.4371ZM1226.64 80.5339V82.7537H1228.86V80.5339H1226.64ZM1227.75 81.6438H1142.01V83.8636H1227.75V81.6438ZM1143.12 82.6281C1142.23 74.8312 1137.31 69.0654 1128.72 65.297C1120.19 61.5521 1107.94 59.7232 1092.07 59.7232V61.943C1107.83 61.943 1119.72 63.7676 1127.83 67.3296C1135.89 70.868 1140.13 76.0625 1140.91 82.8793L1143.12 82.6281ZM1092.07 59.7232H1089.29V61.943H1092.07V59.7232ZM1089.29 59.7232C1076.31 59.7232 1066.22 60.5559 1059.07 62.2504L1059.58 64.4104C1066.48 62.7752 1076.37 61.943 1089.29 61.943V59.7232ZM1059.1 62.2443C1055.55 62.9914 1052.63 63.8169 1050.38 64.7293C1048.15 65.6309 1046.43 66.6651 1045.42 67.8996L1047.14 69.3053C1047.8 68.505 1049.09 67.6431 1051.21 66.7873C1053.3 65.9424 1056.07 65.1493 1059.55 64.4165L1059.1 62.2443ZM1045.46 67.86C1043.57 69.9632 1042.68 72.7503 1042.68 76.0943H1044.9C1044.9 73.1489 1045.67 70.9414 1047.11 69.3449L1045.46 67.86ZM1042.68 76.0943V76.3718H1044.9V76.0943H1042.68ZM1042.68 76.3718C1042.68 79.7501 1043.68 82.6192 1045.74 84.8877L1047.38 83.3945C1045.74 81.5933 1044.9 79.2828 1044.9 76.3718H1042.68ZM1045.78 84.9259C1046.94 86.0921 1048.71 87.1308 1050.99 88.0791C1053.28 89.0339 1056.16 89.9286 1059.62 90.769L1060.14 88.6121C1056.75 87.7877 1053.99 86.9251 1051.84 86.03C1049.68 85.1284 1048.21 84.2248 1047.35 83.3563L1045.78 84.9259ZM1059.65 90.7754C1066.6 92.2782 1076.3 93.1122 1088.72 93.2976L1088.75 91.0781C1076.39 90.8935 1066.85 90.0626 1060.11 88.6057L1059.65 90.7754ZM1088.71 93.2975L1125.89 94.1299L1125.94 91.9107L1088.76 91.0782L1088.71 93.2975ZM1125.89 94.1297C1164.88 95.2387 1192.58 100.694 1209.16 110.35L1210.27 108.432C1193.19 98.4804 1165.02 93.0217 1125.95 91.9108L1125.89 94.1297ZM1209.17 110.355C1225.62 119.758 1233.86 134.632 1233.86 155.175H1236.08C1236.08 133.911 1227.48 118.263 1210.27 108.428L1209.17 110.355ZM1233.86 155.175V159.059H1236.08V155.175H1233.86ZM1233.86 159.059C1233.86 166.554 1232.94 173.384 1231.13 179.557L1233.26 180.183C1235.14 173.778 1236.08 166.733 1236.08 159.059H1233.86ZM1231.13 179.548C1229.34 185.465 1225.73 191.621 1220.25 198.016L1221.94 199.461C1227.55 192.907 1231.35 186.484 1233.25 180.192L1231.13 179.548ZM1220.26 198.004C1214.83 204.16 1207.56 209.442 1198.41 213.831L1199.38 215.833C1208.73 211.343 1216.26 205.895 1221.93 199.473L1220.26 198.004ZM1198.42 213.827C1189.48 218.023 1177.2 221.516 1161.52 224.283L1161.91 226.469C1177.68 223.686 1190.18 220.15 1199.37 215.837L1198.42 213.827ZM1161.53 224.281C1146.07 226.858 1127.91 228.151 1107.05 228.151V230.371C1128 230.371 1146.28 229.073 1161.9 226.471L1161.53 224.281ZM1252.76 18.9344V17.8245H1251.65V18.9344H1252.76ZM1481.12 18.9344H1482.23V17.8245H1481.12V18.9344ZM1481.12 69.4349V70.5448H1482.23V69.4349H1481.12ZM1330.45 69.4349V68.325H1329.34V69.4349H1330.45ZM1330.45 95.2401H1329.34V96.35H1330.45V95.2401ZM1478.07 95.2401H1479.18V94.1302H1478.07V95.2401ZM1478.07 145.463V146.573H1479.18V145.463H1478.07ZM1330.45 145.463V144.353H1329.34V145.463H1330.45ZM1330.45 173.766H1329.34V174.875H1330.45V173.766ZM1483.34 173.766H1484.45V172.656H1483.34V173.766ZM1483.34 225.376V226.486H1484.45V225.376H1483.34ZM1252.76 225.376H1251.65V226.486H1252.76V225.376ZM1252.76 20.0443H1481.12V17.8245H1252.76V20.0443ZM1480.01 18.9344V69.4349H1482.23V18.9344H1480.01ZM1481.12 68.325H1330.45V70.5448H1481.12V68.325ZM1329.34 69.4349V95.2401H1331.56V69.4349H1329.34ZM1330.45 96.35H1478.07V94.1302H1330.45V96.35ZM1476.96 95.2401V145.463H1479.18V95.2401H1476.96ZM1478.07 144.353H1330.45V146.573H1478.07V144.353ZM1329.34 145.463V173.766H1331.56V145.463H1329.34ZM1330.45 174.875H1483.34V172.656H1330.45V174.875ZM1482.23 173.766V225.376H1484.45V173.766H1482.23ZM1483.34 224.266H1252.76V226.486H1483.34V224.266ZM1253.87 225.376V18.9344H1251.65V225.376H1253.87ZM1584.92 69.1574V68.0475H1583.81V69.1574H1584.92ZM1584.92 104.674H1583.81V105.784H1584.92V104.674ZM1584.92 154.62V153.51H1583.81V154.62H1584.92ZM1584.92 225.376V226.486H1586.03V225.376H1584.92ZM1506.12 225.376H1505.01V226.486H1506.12V225.376ZM1506.12 18.9344V17.8245H1505.01V18.9344H1506.12ZM1765.28 108.004L1764.61 107.12L1764.6 107.127L1764.59 107.134L1765.28 108.004ZM1751.96 116.328L1751.5 115.319L1751.49 115.323L1751.48 115.327L1751.96 116.328ZM1738.92 121.045L1738.65 119.969L1738.68 122.128L1738.92 121.045ZM1770 138.249L1769.17 138.987L1769.18 138.996L1770 138.249ZM1785.26 223.989H1786.37V223.709L1786.24 223.462L1785.26 223.989ZM1785.26 225.376V226.486H1786.37V225.376H1785.26ZM1704.79 225.376L1703.97 226.118L1704.3 226.486H1704.79V225.376ZM1692.58 163.499L1691.82 164.307L1691.84 164.319L1691.85 164.33L1692.58 163.499ZM1583.81 69.1574V104.674H1586.03V69.1574H1583.81ZM1584.92 105.784H1675.38V103.564H1584.92V105.784ZM1675.38 105.784C1683.44 105.784 1689.69 104.29 1693.94 101.125C1698.26 97.9139 1700.35 93.1094 1700.35 86.9158H1698.13C1698.13 92.5612 1696.25 96.6359 1692.62 99.3442C1688.91 102.098 1683.23 103.564 1675.38 103.564V105.784ZM1700.35 86.9158V86.6384H1698.13V86.9158H1700.35ZM1700.35 86.6384C1700.35 80.5306 1698.25 75.7945 1693.93 72.6323C1689.68 69.5172 1683.44 68.0475 1675.38 68.0475V70.2673C1683.23 70.2673 1688.92 71.7111 1692.62 74.423C1696.26 77.0878 1698.13 81.0921 1698.13 86.6384H1700.35ZM1675.38 68.0475H1584.92V70.2673H1675.38V68.0475ZM1583.81 154.62V225.376H1586.03V154.62H1583.81ZM1584.92 224.266H1506.12V226.486H1584.92V224.266ZM1507.23 225.376V18.9344H1505.01V225.376H1507.23ZM1506.12 20.0443H1693.69V17.8245H1506.12V20.0443ZM1693.69 20.0443C1722.57 20.0443 1744.04 24.4555 1758.25 33.1313C1772.38 41.7526 1779.43 54.6334 1779.43 71.9322H1781.65C1781.65 53.899 1774.23 40.2809 1759.41 31.2364C1744.68 22.2462 1722.72 17.8245 1693.69 17.8245V20.0443ZM1779.43 71.9322V74.9844H1781.65V71.9322H1779.43ZM1779.43 74.9844C1779.43 81.8638 1778.08 88.078 1775.38 93.6467L1777.38 94.6136C1780.24 88.7134 1781.65 82.1637 1781.65 74.9844H1779.43ZM1775.38 93.6467C1772.68 99.2394 1769.08 103.721 1764.61 107.12L1765.95 108.888C1770.73 105.257 1774.54 100.49 1777.38 94.6136L1775.38 93.6467ZM1764.59 107.134C1760.21 110.602 1755.85 113.327 1751.5 115.319L1752.43 117.337C1756.96 115.26 1761.47 112.435 1765.97 108.874L1764.59 107.134ZM1751.48 115.327C1747.3 117.331 1743.02 118.877 1738.65 119.969L1739.19 122.122C1743.71 120.994 1748.12 119.395 1752.44 117.329L1751.48 115.327ZM1738.68 122.128C1751.63 125.046 1761.77 130.681 1769.17 138.987L1770.83 137.51C1763.06 128.798 1752.48 122.964 1739.17 119.963L1738.68 122.128ZM1769.18 138.996C1776.55 147.086 1780.27 157.442 1780.27 170.158H1782.49C1782.49 156.977 1778.62 146.06 1770.82 137.501L1769.18 138.996ZM1780.27 170.158V200.681H1782.49V170.158H1780.27ZM1780.27 200.681C1780.27 211.448 1781.56 219.452 1784.28 224.515L1786.24 223.462C1783.78 218.907 1782.49 211.371 1782.49 200.681H1780.27ZM1784.15 223.989V225.376H1786.37V223.989H1784.15ZM1785.26 224.266H1704.79V226.486H1785.26V224.266ZM1705.62 224.633C1704.96 223.9 1704.39 222.737 1704 221.034C1703.61 219.339 1703.41 217.187 1703.41 214.554H1701.19C1701.19 217.287 1701.4 219.62 1701.84 221.533C1702.28 223.437 1702.96 225.002 1703.97 226.118L1705.62 224.633ZM1703.41 214.554V190.414H1701.19V214.554H1703.41ZM1703.41 190.414C1703.41 178.022 1700.12 168.689 1693.32 162.668L1691.85 164.33C1698 169.778 1701.19 178.388 1701.19 190.414H1703.41ZM1693.34 162.691C1686.74 156.476 1675.65 153.51 1660.4 153.51V155.73C1675.48 155.73 1685.85 158.683 1691.82 164.307L1693.34 162.691ZM1660.4 153.51H1584.92V155.73H1660.4V153.51Z" fill="#DC0032"/>
</g>
</svg>
