<svg width="1920" height="226" viewBox="0 0 1920 226" fill="none" xmlns="http://www.w3.org/2000/svg">
<mask id="mask0" style="mask-type:alpha" maskUnits="userSpaceOnUse" x="0" y="0" width="1920" height="226">
<rect width="1920" height="226" fill="#C4C4C4"/>
</mask>
<g mask="url(#mask0)">
<path d="M234.722 220H232.503V222.22H234.722V220ZM234.722 69.8859H236.942V67.6661H234.722V69.8859ZM145.653 69.8859H143.433V72.1057H145.653V69.8859ZM145.653 13.5584V11.3386H143.433V13.5584H145.653ZM402.595 13.5584H404.815V11.3386H402.595V13.5584ZM402.595 69.8859V72.1057H404.815V69.8859H402.595ZM313.525 69.8859V67.6661H311.306V69.8859H313.525ZM313.525 220V222.22H315.745V220H313.525ZM236.942 220V69.8859H232.503V220H236.942ZM234.722 67.6661H145.653V72.1057H234.722V67.6661ZM147.873 69.8859V13.5584H143.433V69.8859H147.873ZM145.653 15.7782H402.595V11.3386H145.653V15.7782ZM400.375 13.5584V69.8859H404.815V13.5584H400.375ZM402.595 67.6661H313.525V72.1057H402.595V67.6661ZM311.306 69.8859V220H315.745V69.8859H311.306ZM313.525 217.78H234.722V222.22H313.525V217.78ZM551.653 135.093V137.312H555.208L553.648 134.119L551.653 135.093ZM516.969 64.0589L518.964 63.0849L516.945 58.95L514.965 63.1039L516.969 64.0589ZM483.117 135.093L481.113 134.138L479.6 137.312H483.117V135.093ZM592.997 220L590.999 220.966L591.605 222.22H592.997V220ZM576.904 186.703L578.902 185.737L578.296 184.483H576.904V186.703ZM458.977 186.703V184.483H457.574L456.972 185.751L458.977 186.703ZM443.161 220V222.22H444.564L445.166 220.952L443.161 220ZM363.248 220L361.258 219.016L359.673 222.22H363.248V220ZM465.359 13.5584V11.3386H463.98L463.369 12.5743L465.359 13.5584ZM571.354 13.5584L573.321 12.5299L572.698 11.3386H571.354V13.5584ZM679.292 220V222.22H682.958L681.259 218.971L679.292 220ZM553.648 134.119L518.964 63.0849L514.974 65.0329L549.659 136.067L553.648 134.119ZM514.965 63.1039L481.113 134.138L485.121 136.048L518.973 65.0139L514.965 63.1039ZM483.117 137.312H551.653V132.873H483.117V137.312ZM594.996 219.034L578.902 185.737L574.905 187.669L590.999 220.966L594.996 219.034ZM576.904 184.483H458.977V188.923H576.904V184.483ZM456.972 185.751L441.155 219.048L445.166 220.952L460.982 187.655L456.972 185.751ZM443.161 217.78H363.248V222.22H443.161V217.78ZM365.237 220.984L467.348 14.5426L463.369 12.5743L361.258 219.016L365.237 220.984ZM465.359 15.7782H571.354V11.3386H465.359V15.7782ZM569.387 14.5869L677.325 221.029L681.259 218.971L573.321 12.5299L569.387 14.5869ZM679.292 217.78H592.997V222.22H679.292V217.78ZM688.288 220H686.068V222.22H688.288V220ZM688.288 13.5584V11.3386H686.068V13.5584H688.288ZM941.346 26.8772L939.987 28.6325L940.002 28.6446L940.018 28.6564L941.346 26.8772ZM947.728 90.974L949.213 92.624L949.224 92.6138L949.235 92.6036L947.728 90.974ZM923.31 104.015L922.814 101.852L922.805 106.177L923.31 104.015ZM938.571 109.287L937.61 111.289L937.625 111.296L937.641 111.303L938.571 109.287ZM953.555 118.444L952.223 120.22L952.238 120.231L952.253 120.242L953.555 118.444ZM966.041 134.26L964.012 135.162L964.023 135.185L964.034 135.208L966.041 134.26ZM767.091 60.4517V58.2319H764.871V60.4517H767.091ZM767.091 89.5866H764.871V91.8064H767.091V89.5866ZM767.091 135.925V133.705H764.871V135.925H767.091ZM767.091 171.442H764.871V173.662H767.091V171.442ZM690.508 220V13.5584H686.068V220H690.508ZM688.288 15.7782H882.521V11.3386H688.288V15.7782ZM882.521 15.7782C910.162 15.7782 929.129 20.2265 939.987 28.6325L942.705 25.122C930.624 15.7695 910.375 11.3386 882.521 11.3386V15.7782ZM940.018 28.6564C951.151 36.9621 956.607 47.5129 956.607 60.4517H961.046C961.046 46.0129 954.848 34.1808 942.673 25.098L940.018 28.6564ZM956.607 60.4517V63.504H961.046V60.4517H956.607ZM956.607 63.504C956.607 74.4482 953.101 82.98 946.22 89.3444L949.235 92.6036C957.153 85.2792 961.046 75.4977 961.046 63.504H956.607ZM946.243 89.324C939.097 95.7549 931.292 99.9088 922.814 101.852L923.806 106.179C933.086 104.052 941.559 99.5119 949.213 92.624L946.243 89.324ZM922.805 106.177C928.215 107.439 933.147 109.146 937.61 111.289L939.531 107.286C934.746 104.989 929.504 103.181 923.814 101.854L922.805 106.177ZM937.641 111.303C942.281 113.445 947.142 116.409 952.223 120.22L954.886 116.668C949.608 112.71 944.48 109.57 939.501 107.272L937.641 111.303ZM952.253 120.242C957.269 123.875 961.195 128.823 964.012 135.162L968.069 133.359C964.967 126.378 960.569 120.783 954.857 116.646L952.253 120.242ZM964.034 135.208C967.018 141.528 968.538 148.781 968.538 157.013H972.978C972.978 148.227 971.353 140.311 968.048 133.312L964.034 135.208ZM968.538 157.013V160.343H972.978V157.013H968.538ZM968.538 160.343C968.538 179.607 961.553 193.784 947.722 203.254C933.74 212.828 912.489 217.78 883.631 217.78V222.22C912.857 222.22 935.17 217.229 950.23 206.917C965.442 196.502 972.978 180.85 972.978 160.343H968.538ZM883.631 217.78H688.288V222.22H883.631V217.78ZM858.658 58.2319H767.091V62.6715H858.658V58.2319ZM764.871 60.4517V89.5866H769.311V60.4517H764.871ZM767.091 91.8064H858.658V87.3668H767.091V91.8064ZM858.658 91.8064C865.871 91.8064 871.674 90.5851 875.728 87.8115C879.933 84.9342 881.966 80.5898 881.966 75.1579H877.526C877.526 79.3452 876.045 82.2151 873.221 84.1474C870.245 86.1834 865.503 87.3668 858.658 87.3668V91.8064ZM881.966 75.1579V74.603H877.526V75.1579H881.966ZM881.966 74.603C881.966 69.2454 879.918 64.9695 875.711 62.1463C871.661 59.4284 865.866 58.2319 858.658 58.2319V62.6715C865.509 62.6715 870.258 63.8336 873.237 65.8328C876.059 67.7266 877.526 70.5263 877.526 74.603H881.966ZM863.653 133.705H767.091V138.145H863.653V133.705ZM764.871 135.925V171.442H769.311V135.925H764.871ZM767.091 173.662H863.653V169.222H767.091V173.662ZM863.653 173.662C871.995 173.662 878.653 172.157 883.272 168.797C888.022 165.343 890.29 160.171 890.29 153.683H885.851C885.851 159.035 884.049 162.742 880.66 165.207C877.14 167.767 871.589 169.222 863.653 169.222V173.662ZM890.29 153.683V152.851H885.851V153.683H890.29ZM890.29 152.851C890.29 146.599 887.989 141.631 883.231 138.332C878.62 135.136 871.98 133.705 863.653 133.705V138.145C871.604 138.145 877.173 139.535 880.701 141.981C884.082 144.324 885.851 147.819 885.851 152.851H890.29ZM987.441 13.5584V11.3386H985.222V13.5584H987.441ZM1215.8 13.5584H1218.02V11.3386H1215.8V13.5584ZM1215.8 64.0589V66.2787H1218.02V64.0589H1215.8ZM1065.13 64.0589V61.8391H1062.91V64.0589H1065.13ZM1065.13 89.8641H1062.91V92.0839H1065.13V89.8641ZM1212.75 89.8641H1214.97V87.6443H1212.75V89.8641ZM1212.75 140.087V142.307H1214.97V140.087H1212.75ZM1065.13 140.087V137.867H1062.91V140.087H1065.13ZM1065.13 168.39H1062.91V170.609H1065.13V168.39ZM1218.02 168.39H1220.24V166.17H1218.02V168.39ZM1218.02 220V222.22H1220.24V220H1218.02ZM987.441 220H985.222V222.22H987.441V220ZM987.441 15.7782H1215.8V11.3386H987.441V15.7782ZM1213.58 13.5584V64.0589H1218.02V13.5584H1213.58ZM1215.8 61.8391H1065.13V66.2787H1215.8V61.8391ZM1062.91 64.0589V89.8641H1067.35V64.0589H1062.91ZM1065.13 92.0839H1212.75V87.6443H1065.13V92.0839ZM1210.53 89.8641V140.087H1214.97V89.8641H1210.53ZM1212.75 137.867H1065.13V142.307H1212.75V137.867ZM1062.91 140.087V168.39H1067.35V140.087H1062.91ZM1065.13 170.609H1218.02V166.17H1065.13V170.609ZM1215.8 168.39V220H1220.24V168.39H1215.8ZM1218.02 217.78H987.441V222.22H1218.02V217.78ZM989.661 220V13.5584H985.222V220H989.661ZM1240.8 13.5584V11.3386H1238.58V13.5584H1240.8ZM1319.6 13.5584H1321.82V11.3386H1319.6V13.5584ZM1319.6 160.898H1317.38V163.118H1319.6V160.898ZM1462.78 160.898H1465V158.678H1462.78V160.898ZM1462.78 220V222.22H1465V220H1462.78ZM1240.8 220H1238.58V222.22H1240.8V220ZM1240.8 15.7782H1319.6V11.3386H1240.8V15.7782ZM1317.38 13.5584V160.898H1321.82V13.5584H1317.38ZM1319.6 163.118H1462.78V158.678H1319.6V163.118ZM1460.56 160.898V220H1465V160.898H1460.56ZM1462.78 217.78H1240.8V222.22H1462.78V217.78ZM1243.02 220V13.5584H1238.58V220H1243.02ZM1657.49 135.093V137.312H1661.04L1659.48 134.119L1657.49 135.093ZM1622.81 64.0589L1624.8 63.0849L1622.78 58.95L1620.8 63.1039L1622.81 64.0589ZM1588.95 135.093L1586.95 134.138L1585.44 137.312H1588.95V135.093ZM1698.83 220L1696.83 220.966L1697.44 222.22H1698.83V220ZM1682.74 186.703L1684.74 185.737L1684.13 184.483H1682.74V186.703ZM1564.81 186.703V184.483H1563.41L1562.81 185.751L1564.81 186.703ZM1549 220V222.22H1550.4L1551 220.952L1549 220ZM1469.08 220L1467.09 219.016L1465.51 222.22H1469.08V220ZM1571.19 13.5584V11.3386H1569.82L1569.21 12.5743L1571.19 13.5584ZM1677.19 13.5584L1679.16 12.5299L1678.53 11.3386H1677.19V13.5584ZM1785.13 220V222.22H1788.79L1787.1 218.971L1785.13 220ZM1659.48 134.119L1624.8 63.0849L1620.81 65.0329L1655.5 136.067L1659.48 134.119ZM1620.8 63.1039L1586.95 134.138L1590.96 136.048L1624.81 65.0139L1620.8 63.1039ZM1588.95 137.312H1657.49V132.873H1588.95V137.312ZM1700.83 219.034L1684.74 185.737L1680.74 187.669L1696.83 220.966L1700.83 219.034ZM1682.74 184.483H1564.81V188.923H1682.74V184.483ZM1562.81 185.751L1546.99 219.048L1551 220.952L1566.82 187.655L1562.81 185.751ZM1549 217.78H1469.08V222.22H1549V217.78ZM1471.07 220.984L1573.18 14.5426L1569.21 12.5743L1467.09 219.016L1471.07 220.984ZM1571.19 15.7782H1677.19V11.3386H1571.19V15.7782ZM1675.22 14.5869L1783.16 221.029L1787.1 218.971L1679.16 12.5299L1675.22 14.5869ZM1785.13 217.78H1698.83V222.22H1785.13V217.78Z" fill="#DC0032"/>
</g>
</svg>
