<svg width="1920" height="300" viewBox="0 0 1920 300" fill="none" xmlns="http://www.w3.org/2000/svg">
<mask id="mask0" style="mask-type:alpha" maskUnits="userSpaceOnUse" x="0" y="0" width="1920" height="300">
<rect width="1920" height="300" fill="#C4C4C4"/>
</mask>
<g mask="url(#mask0)">
<path d="M422.752 292.863V68.4767H334.363V12.5796H589.342V68.4767H500.953V292.863H422.752Z" stroke="#DC0032" stroke-width="2.20284" stroke-linecap="round" stroke-linejoin="round"/>
<path d="M687.523 12.5796V217.444H609.598V12.5796H687.523Z" stroke="#DC0032" stroke-width="2.20284" stroke-linecap="round" stroke-linejoin="round"/>
<path d="M713.931 217.444V12.5796H821.32L884.101 127.678L947.983 12.5796H1050.97V217.444H973.591V89.679L901.724 217.444H861.797L790.205 89.679V217.444H713.931Z" stroke="#DC0032" stroke-width="2.20284" stroke-linecap="round" stroke-linejoin="round"/>
<path d="M1077.49 12.5796H1304.1V62.6942H1154.59V88.3022H1301.07V138.141H1154.59V166.228H1306.31V217.444H1077.49V12.5796Z" stroke="#DC0032" stroke-width="2.20284" stroke-linecap="round" stroke-linejoin="round"/>
<path d="M1446.49 221.299H1471.54C1554.88 221.299 1596.55 197.067 1596.55 148.605V145.851H1510.64C1509.17 165.126 1492.1 174.764 1459.43 174.764H1456.95C1446.49 174.764 1437.77 174.305 1430.79 173.387C1423.81 172.285 1418.67 170.817 1415.37 168.981C1412.07 166.962 1409.86 164.943 1408.76 162.923C1407.48 160.721 1406.83 158.242 1406.83 155.489V155.213C1406.83 151.359 1407.84 148.33 1409.86 146.127C1411.7 143.74 1416.29 141.721 1423.63 140.069C1430.79 138.233 1441.25 137.132 1455.02 136.765L1493.02 135.663C1560.02 133.828 1593.52 113.268 1593.52 73.9838V71.5056C1593.52 64.3463 1592.52 57.9214 1590.5 52.2307C1588.48 46.3565 1584.81 40.6658 1579.48 35.1587C1574.16 29.6516 1567.18 25.0624 1558.55 21.391C1549.93 17.7196 1538.64 14.7825 1524.69 12.5796C1510.55 10.1932 1494.21 9 1475.67 9H1451.17C1368.19 9 1326.71 30.5695 1326.71 73.7084V75.9113H1411.79C1413.44 61.4092 1429.96 54.1582 1461.35 54.1582H1464.11C1476.96 54.1582 1486.87 54.9843 1493.85 56.6364C1500.82 58.105 1505.14 59.8489 1506.79 61.8682C1508.44 63.7039 1509.27 66.182 1509.27 69.3027V69.5781C1509.27 72.6988 1508.35 75.2688 1506.51 77.288C1504.49 79.3073 1500.09 81.143 1493.3 82.7951C1486.5 84.2637 1476.96 85.0897 1464.66 85.2733L1427.76 86.0994C1389.03 87.2008 1361.31 92.6161 1344.6 102.345C1327.9 111.891 1319.55 127.035 1319.55 147.779V151.634C1319.55 159.16 1320.46 166.044 1322.3 172.285C1324.14 178.343 1327.81 184.585 1333.31 191.01C1338.82 197.251 1346.16 202.575 1355.34 206.98C1364.34 211.202 1376.64 214.69 1392.24 217.444C1407.66 220.014 1425.74 221.299 1446.49 221.299Z" stroke="#DC0032" stroke-width="2.20284" stroke-linecap="round" stroke-linejoin="round"/>
</g>
</svg>
