<svg width="1920" height="227" viewBox="0 0 1920 227" fill="none" xmlns="http://www.w3.org/2000/svg">
<mask id="mask0" style="mask-type:alpha" maskUnits="userSpaceOnUse" x="0" y="0" width="1920" height="227">
<rect width="1920" height="227" fill="#C4C4C4"/>
</mask>
<g mask="url(#mask0)">
<path d="M423.186 215.348V66.381H334.797V10.4839H589.776V66.381H501.387V215.348H423.186Z" stroke="#DC0032" stroke-width="2.20284" stroke-linecap="round" stroke-linejoin="round"/>
<path d="M687.957 10.4839V215.348H610.031V10.4839H687.957Z" stroke="#DC0032" stroke-width="2.20284" stroke-linecap="round" stroke-linejoin="round"/>
<path d="M714.365 215.348V10.4839H821.754L884.534 125.582L948.417 10.4839H1051.4V215.348H974.025V87.5833L902.157 215.348H862.231L790.638 87.5833V215.348H714.365Z" stroke="#DC0032" stroke-width="2.20284" stroke-linecap="round" stroke-linejoin="round"/>
<path d="M1306.74 10.4839H1080.12V60.5985H1229.64V86.2065H1083.15V136.046H1229.64V164.132H1077.92V215.348H1306.74V10.4839Z" stroke="#DC0032" stroke-width="2.20284" stroke-linecap="round" stroke-linejoin="round"/>
<path d="M1470.05 219.203H1444.99C1361.65 219.203 1319.98 194.972 1319.98 146.509V143.756H1405.89C1407.36 163.031 1424.43 172.668 1457.11 172.668H1459.59C1470.05 172.668 1478.77 172.209 1485.74 171.291C1492.72 170.19 1497.86 168.721 1501.16 166.885C1504.47 164.866 1506.67 162.847 1507.77 160.828C1509.06 158.625 1509.7 156.147 1509.7 153.393V153.118C1509.7 149.263 1508.69 146.234 1506.67 144.031C1504.84 141.645 1500.25 139.625 1492.9 137.973C1485.74 136.138 1475.28 135.036 1461.51 134.669L1423.51 133.568C1356.51 131.732 1323.01 111.172 1323.01 71.8881V69.4099C1323.01 62.2506 1324.02 55.8257 1326.04 50.135C1328.06 44.2608 1331.73 38.5701 1337.05 33.063C1342.38 27.5559 1349.35 22.9667 1357.98 19.2953C1366.61 15.6239 1377.9 12.6867 1391.85 10.4839C1405.98 8.0975 1422.32 6.9043 1440.86 6.9043H1465.37C1548.34 6.9043 1589.83 28.4738 1589.83 71.6127V73.8155H1504.74C1503.09 59.3135 1486.57 52.0625 1455.18 52.0625H1452.43C1439.58 52.0625 1429.66 52.8886 1422.69 54.5407C1415.71 56.0093 1411.4 57.7532 1409.75 59.7724C1408.09 61.6081 1407.27 64.0863 1407.27 67.207V67.4824C1407.27 70.6031 1408.19 73.173 1410.02 75.1923C1412.04 77.2116 1416.45 79.0473 1423.24 80.6994C1430.03 82.168 1439.58 82.994 1451.88 83.1776L1488.77 84.0037C1527.51 85.1051 1555.23 90.5204 1571.93 100.25C1588.63 109.795 1596.99 124.94 1596.99 145.683V149.538C1596.99 157.065 1596.07 163.948 1594.23 170.19C1592.4 176.248 1588.73 182.489 1583.22 188.914C1577.71 195.155 1570.37 200.479 1561.19 204.884C1552.2 209.107 1539.9 212.594 1524.29 215.348C1508.87 217.918 1490.79 219.203 1470.05 219.203Z" stroke="#DC0032" stroke-width="2.20284" stroke-linecap="round" stroke-linejoin="round"/>
</g>
</svg>
