<svg width="65" height="65" viewBox="0 0 65 65" fill="none" xmlns="http://www.w3.org/2000/svg">
<circle cx="32.5" cy="32.5" r="31.85" stroke="white" stroke-width="1.3"/>
<path d="M33.15 22.75C33.15 22.391 32.859 22.1 32.5 22.1C32.141 22.1 31.85 22.391 31.85 22.75L33.15 22.75ZM32.0404 42.7096C32.2942 42.9635 32.7058 42.9635 32.9596 42.7096L37.0962 38.573C37.35 38.3192 37.35 37.9076 37.0962 37.6538C36.8424 37.4 36.4308 37.4 36.177 37.6538L32.5 41.3308L28.823 37.6538C28.5692 37.4 28.1576 37.4 27.9038 37.6538C27.65 37.9076 27.65 38.3192 27.9038 38.573L32.0404 42.7096ZM31.85 22.75L31.85 42.25L33.15 42.25L33.15 22.75L31.85 22.75Z" fill="white"/>
</svg>
