<svg width="48" height="48" viewBox="0 0 48 48" fill="none" xmlns="http://www.w3.org/2000/svg">
<path d="M24.2401 13.4184C27.7646 13.4184 28.1821 13.4319 29.574 13.4954C30.861 13.5541 31.5599 13.7691 32.025 13.9499C32.6412 14.1893 33.0809 14.4754 33.5428 14.9372C34.0047 15.3992 34.2907 15.8389 34.5302 16.455C34.711 16.9202 34.926 17.6191 34.9847 18.9061C35.0482 20.298 35.0617 20.7155 35.0617 24.24C35.0617 27.7645 35.0482 28.182 34.9847 29.5739C34.926 30.8609 34.711 31.5598 34.5302 32.0249C34.2907 32.6411 34.0047 33.0808 33.5428 33.5427C33.0809 34.0046 32.6412 34.2907 32.025 34.5301C31.5599 34.7109 30.861 34.9259 29.574 34.9846C28.1823 35.0481 27.7648 35.0616 24.2401 35.0616C20.7152 35.0616 20.2978 35.0481 18.9061 34.9846C17.6191 34.9259 16.9202 34.7109 16.4551 34.5301C15.8389 34.2907 15.3992 34.0046 14.9373 33.5427C14.4754 33.0808 14.1893 32.6411 13.9499 32.0249C13.7691 31.5598 13.5541 30.8609 13.4954 29.5739C13.4319 28.182 13.4184 27.7645 13.4184 24.24C13.4184 20.7155 13.4319 20.298 13.4954 18.9061C13.5541 17.6191 13.7691 16.9202 13.9499 16.455C14.1893 15.8389 14.4754 15.3992 14.9373 14.9373C15.3992 14.4754 15.8389 14.1893 16.4551 13.9499C16.9202 13.7691 17.6191 13.5541 18.9061 13.4954C20.298 13.4319 20.7155 13.4184 24.2401 13.4184ZM24.2401 11.04C20.6551 11.04 20.2056 11.0552 18.7977 11.1195C17.3927 11.1836 16.4332 11.4067 15.5935 11.733C14.7255 12.0703 13.9894 12.5217 13.2555 13.2555C12.5217 13.9894 12.0703 14.7255 11.733 15.5935C11.4067 16.4331 11.1836 17.3927 11.1195 18.7977C11.0552 20.2056 11.04 20.6551 11.04 24.24C11.04 27.8249 11.0552 28.2744 11.1195 29.6823C11.1836 31.0873 11.4067 32.0469 11.733 32.8865C12.0703 33.7545 12.5217 34.4906 13.2555 35.2245C13.9894 35.9583 14.7255 36.4097 15.5935 36.7469C16.4332 37.0733 17.3927 37.2964 18.7977 37.3605C20.2056 37.4248 20.6551 37.4399 24.2401 37.4399C27.8249 37.4399 28.2745 37.4248 29.6824 37.3605C31.0874 37.2964 32.0469 37.0733 32.8865 36.7469C33.7546 36.4097 34.4907 35.9583 35.2246 35.2245C35.9584 34.4906 36.4097 33.7545 36.7471 32.8865C37.0734 32.0469 37.2965 31.0873 37.3606 29.6823C37.4248 28.2744 37.44 27.8249 37.44 24.24C37.44 20.6551 37.4248 20.2056 37.3606 18.7977C37.2965 17.3927 37.0734 16.4331 36.7471 15.5935C36.4097 14.7255 35.9584 13.9894 35.2246 13.2555C34.4907 12.5217 33.7546 12.0703 32.8865 11.733C32.0469 11.4067 31.0874 11.1836 29.6824 11.1195C28.2745 11.0552 27.8249 11.04 24.2401 11.04Z" fill="white"/>
<path d="M24.2466 17.4677C20.5029 17.4677 17.4682 20.5024 17.4682 24.246C17.4682 27.9896 20.5029 31.0244 24.2466 31.0244C27.9901 31.0244 31.0249 27.9896 31.0249 24.246C31.0249 20.5024 27.9901 17.4677 24.2466 17.4677ZM24.2466 28.646C21.8165 28.646 19.8465 26.6761 19.8465 24.246C19.8465 21.816 21.8165 19.846 24.2466 19.846C26.6766 19.846 28.6465 21.816 28.6465 24.246C28.6465 26.6761 26.6766 28.646 24.2466 28.646Z" fill="white"/>
<path d="M32.8758 17.196C32.8758 18.0708 32.1666 18.78 31.2918 18.78C30.417 18.78 29.7078 18.0708 29.7078 17.196C29.7078 16.3212 30.417 15.612 31.2918 15.612C32.1666 15.612 32.8758 16.3212 32.8758 17.196Z" fill="white"/>
</svg>
