<svg width="48" height="48" viewBox="0 0 48 48" fill="none" xmlns="http://www.w3.org/2000/svg">
<path fill-rule="evenodd" clip-rule="evenodd" d="M37.4772 15.1755C36.4876 15.6332 35.4226 15.9415 34.3056 16.0806C35.446 15.3688 36.3216 14.2422 36.7334 12.8999C35.6676 13.5594 34.4842 14.0367 33.2272 14.2955C32.2197 13.1782 30.7832 12.4795 29.1961 12.4795C26.1465 12.4795 23.6739 15.054 23.6739 18.2292C23.6739 18.6795 23.7232 19.1185 23.8174 19.5398C19.2274 19.3007 15.1586 17.0111 12.4347 13.5323C11.9592 14.3814 11.6873 15.3688 11.6873 16.4226C11.6873 18.417 12.6608 20.1769 14.1439 21.2082C13.2377 21.1783 12.3872 20.9196 11.6416 20.4889V20.5608C11.6416 23.3474 13.5463 25.6706 16.071 26.2003C15.6081 26.3311 15.12 26.4021 14.6167 26.4021C14.2605 26.4021 13.9142 26.3656 13.5768 26.2984C14.2793 28.5824 16.3196 30.2452 18.7357 30.2919C16.8462 31.8332 14.4651 32.7534 11.8775 32.7534C11.4307 32.7534 10.9911 32.7263 10.5596 32.6721C13.0035 34.3031 15.906 35.256 19.0246 35.256C29.1818 35.256 34.7363 26.4946 34.7363 18.8971C34.7363 18.6477 34.7318 18.3992 34.7201 18.1535C35.8004 17.3408 36.737 16.3282 37.4772 15.1755Z" fill="white"/>
</svg>
