<svg width="1920" height="820" viewBox="0 0 1920 820" fill="none" xmlns="http://www.w3.org/2000/svg">
<path d="M206.702 813.3L206.133 815.446L206.138 815.447L206.702 813.3ZM172.277 798.9L170.993 800.711L171.004 800.719L171.015 800.726L172.277 798.9ZM152.252 778.2L154.12 777.001L154.12 777.001L152.252 778.2ZM142.352 756.15L140.185 756.632L140.185 756.632L142.352 756.15ZM142.127 707.325L139.962 706.833L139.957 706.857L139.952 706.88L142.127 707.325ZM151.802 685.725L153.676 686.914L153.681 686.906L153.686 686.898L151.802 685.725ZM171.377 665.475L172.631 667.306L172.639 667.301L171.377 665.475ZM206.027 651.3L206.57 653.452L206.578 653.45L206.585 653.448L206.027 651.3ZM305.477 648.15L305.135 650.343L305.139 650.344L305.477 648.15ZM334.727 655.125L333.965 657.21L333.978 657.215L334.727 655.125ZM355.652 665.475L354.41 667.315L354.436 667.333L354.463 667.35L355.652 665.475ZM370.052 677.4L371.742 675.961L371.742 675.961L370.052 677.4ZM378.377 690.45L376.354 691.364L376.372 691.404L376.391 691.443L378.377 690.45ZM382.652 702.6L380.462 702.965L380.47 703.009L380.479 703.053L382.652 702.6ZM383.777 716.1V718.32H385.997V716.1H383.777ZM317.402 716.1L315.275 716.734L315.747 718.32H317.402V716.1ZM208.727 746.475L206.643 747.239L206.654 747.269L206.666 747.299L208.727 746.475ZM217.277 759.75L215.624 761.232L215.638 761.247L215.652 761.263L217.277 759.75ZM234.827 770.1L234.125 772.206L234.137 772.21L234.827 770.1ZM287.027 771.45L287.533 773.611L287.554 773.606L287.576 773.601L287.027 771.45ZM312.002 757.725L313.767 759.07L313.767 759.07L312.002 757.725ZM316.277 750.975L318.383 751.677L318.383 751.677L316.277 750.975ZM317.627 746.475V744.255H315.931L315.485 745.891L317.627 746.475ZM383.777 746.475H385.997V744.255H383.777V746.475ZM381.527 765.825L383.661 766.435L383.663 766.427L383.666 766.419L381.527 765.825ZM371.627 783.825L373.383 785.182L373.391 785.173L373.398 785.163L371.627 783.825ZM351.827 801.375L353 803.259L353.01 803.253L351.827 801.375ZM317.852 813.975L317.345 811.814L317.34 811.815L317.852 813.975ZM267.227 816.93H258.452V821.37H267.227V816.93ZM258.452 816.93C238.942 816.93 221.889 814.993 207.266 811.153L206.138 815.447C221.215 819.407 238.662 821.37 258.452 821.37V816.93ZM207.271 811.154C192.704 807.29 181.499 802.573 173.539 797.074L171.015 800.726C179.555 806.627 191.3 811.51 206.133 815.446L207.271 811.154ZM173.561 797.089C165.526 791.392 159.056 784.695 154.12 777.001L150.383 779.399C155.648 787.605 162.527 794.708 170.993 800.711L173.561 797.089ZM154.12 777.001C149.113 769.196 145.946 762.089 144.519 755.668L140.185 756.632C141.758 763.711 145.191 771.304 150.383 779.399L154.12 777.001ZM144.519 755.668C143.056 749.086 142.322 742.198 142.322 735H137.882C137.882 742.502 138.648 749.714 140.185 756.632L144.519 755.668ZM142.322 735V728.475H137.882V735H142.322ZM142.322 728.475C142.322 721.108 142.985 714.208 144.302 707.77L139.952 706.88C138.569 713.642 137.882 720.842 137.882 728.475H142.322ZM144.291 707.817C145.719 701.536 148.816 694.573 153.676 686.914L149.928 684.536C144.888 692.477 141.535 699.914 139.962 706.833L144.291 707.817ZM153.686 686.898C158.466 679.221 164.772 672.691 172.631 667.306L170.122 663.644C161.781 669.359 155.037 676.329 149.917 684.552L153.686 686.898ZM172.639 667.301C180.587 661.81 191.856 657.168 206.57 653.452L205.483 649.148C190.498 652.932 178.666 657.74 170.115 663.649L172.639 667.301ZM206.585 653.448C221.359 649.607 238.639 647.67 258.452 647.67V643.23C238.364 643.23 220.694 645.193 205.468 649.152L206.585 653.448ZM258.452 647.67H267.227V643.23H258.452V647.67ZM267.227 647.67C281.083 647.67 293.717 648.564 305.135 650.343L305.819 645.957C294.136 644.136 281.27 643.23 267.227 643.23V647.67ZM305.139 650.344C316.75 652.13 326.347 654.426 333.965 657.21L335.489 653.04C327.507 650.124 317.603 647.77 305.814 645.956L305.139 650.344ZM333.978 657.215C341.782 660.012 348.586 663.384 354.41 667.315L356.894 663.635C350.718 659.466 343.572 655.938 335.476 653.035L333.978 657.215ZM354.463 667.35C360.489 671.171 365.098 675.008 368.362 678.839L371.742 675.961C368.105 671.692 363.114 667.579 356.841 663.6L354.463 667.35ZM368.362 678.839C371.683 682.738 374.343 686.912 376.354 691.364L380.4 689.536C378.21 684.688 375.321 680.162 371.742 675.961L368.362 678.839ZM376.391 691.443C378.577 695.814 379.909 699.648 380.462 702.965L384.841 702.235C384.194 698.352 382.677 694.086 380.362 689.457L376.391 691.443ZM380.479 703.053C381.2 706.514 381.557 709.887 381.557 713.175H385.997C385.997 709.563 385.604 705.886 384.825 702.147L380.479 703.053ZM381.557 713.175V716.1H385.997V713.175H381.557ZM383.777 713.88H317.402V718.32H383.777V713.88ZM319.529 715.466C316.772 706.221 310.408 699.352 300.732 694.85C291.133 690.383 278.262 688.23 262.277 688.23V692.67C277.941 692.67 290.083 694.792 298.859 698.875C307.558 702.923 312.932 708.879 315.275 716.734L319.529 715.466ZM262.277 688.23C243.411 688.23 228.867 691.514 218.987 698.418C208.961 705.423 204.032 715.947 204.032 729.6H208.472C208.472 717.153 212.88 708.102 221.53 702.057C230.324 695.911 243.792 692.67 262.277 692.67V688.23ZM204.032 729.6V732.3H208.472V729.6H204.032ZM204.032 732.3C204.032 737.502 204.9 742.486 206.643 747.239L210.811 745.711C209.254 741.464 208.472 736.998 208.472 732.3H204.032ZM206.666 747.299C208.58 752.085 211.585 756.727 215.624 761.232L218.93 758.268C215.168 754.073 212.474 749.865 210.788 745.651L206.666 747.299ZM215.652 761.263C220.029 765.964 226.243 769.579 234.125 772.206L235.529 767.994C228.111 765.521 222.624 762.236 218.901 758.237L215.652 761.263ZM234.137 772.21C242.215 774.851 251.683 776.145 262.502 776.145V771.705C252.02 771.705 243.039 770.449 235.517 767.99L234.137 772.21ZM262.502 776.145C271.927 776.145 280.278 775.309 287.533 773.611L286.521 769.289C279.676 770.891 271.677 771.705 262.502 771.705V776.145ZM287.576 773.601C294.701 771.782 300.257 769.771 304.12 767.517L301.883 763.683C298.546 765.629 293.453 767.518 286.478 769.299L287.576 773.601ZM304.12 767.517C307.958 765.279 311.182 762.464 313.767 759.07L310.236 756.38C308.021 759.286 305.246 761.721 301.883 763.683L304.12 767.517ZM313.767 759.07C316.14 755.956 317.799 753.429 318.383 751.677L314.171 750.273C313.855 751.221 312.663 753.194 310.236 756.38L313.767 759.07ZM318.383 751.677C318.848 750.281 319.31 748.741 319.768 747.059L315.485 745.891C315.044 747.509 314.606 748.969 314.171 750.273L318.383 751.677ZM317.627 748.695H383.777V744.255H317.627V748.695ZM381.557 746.475V750.075H385.997V746.475H381.557ZM381.557 750.075C381.557 754.955 380.839 760.005 379.388 765.231L383.666 766.419C385.214 760.845 385.997 755.395 385.997 750.075H381.557ZM379.392 765.215C377.997 770.098 374.871 775.848 369.856 782.487L373.398 785.163C378.582 778.302 382.056 772.052 383.661 766.435L379.392 765.215ZM369.87 782.468C364.951 788.834 358.556 794.515 350.644 799.497L353.01 803.253C361.298 798.035 368.102 792.016 373.383 785.182L369.87 782.468ZM350.653 799.491C342.996 804.259 331.935 808.39 317.345 811.814L318.359 816.136C333.169 812.66 344.758 808.391 353 803.259L350.653 799.491ZM317.34 811.815C302.997 815.216 286.3 816.93 267.227 816.93V821.37C286.553 821.37 303.607 819.634 318.364 816.135L317.34 811.815ZM566.246 648.6L565.868 650.787L565.884 650.79L565.899 650.792L566.246 648.6ZM597.071 656.475L596.247 658.536L596.269 658.545L596.292 658.553L597.071 656.475ZM618.897 668.4L617.531 670.15L617.554 670.168L617.578 670.186L618.897 668.4ZM633.747 682.575L635.522 681.243L635.522 681.243L633.747 682.575ZM642.296 698.325L640.214 699.092L640.222 699.116L640.232 699.14L642.296 698.325ZM646.571 713.85L644.37 714.134L644.374 714.169L644.38 714.203L646.571 713.85ZM646.571 749.85L644.38 749.497L644.374 749.531L644.37 749.566L646.571 749.85ZM642.296 765.6L640.225 764.803L640.219 764.818L640.214 764.833L642.296 765.6ZM633.747 781.575L631.951 780.269L631.944 780.279L633.747 781.575ZM619.121 795.975L617.776 794.209L617.776 794.209L619.121 795.975ZM597.296 808.125L598.121 810.186L598.121 810.186L597.296 808.125ZM566.471 816L566.124 813.808L566.109 813.81L566.093 813.813L566.471 816ZM474.671 816L475.045 813.812L475.034 813.81L475.023 813.808L474.671 816ZM443.846 808.125L443.022 810.186L443.035 810.191L443.846 808.125ZM422.021 795.975L420.676 797.741L420.676 797.741L422.021 795.975ZM407.171 781.575L405.35 782.844L405.372 782.876L405.396 782.907L407.171 781.575ZM398.621 765.6L396.532 766.35L396.544 766.383L396.557 766.415L398.621 765.6ZM394.346 749.85L392.145 750.134L392.149 750.169L392.155 750.203L394.346 749.85ZM394.346 713.85L392.155 713.497L392.149 713.531L392.145 713.566L394.346 713.85ZM398.621 698.325L396.557 697.51L396.547 697.534L396.539 697.558L398.621 698.325ZM407.171 682.575L405.396 681.243L405.382 681.261L405.369 681.279L407.171 682.575ZM422.021 668.4L423.34 670.186L423.353 670.176L423.367 670.166L422.021 668.4ZM443.846 656.475L444.638 658.549L444.648 658.545L444.658 658.541L443.846 656.475ZM474.671 648.6L475.023 650.792L475.034 650.79L475.045 650.788L474.671 648.6ZM578.846 716.325L576.795 717.174L576.801 717.187L576.806 717.199L578.846 716.325ZM569.621 703.725L568.081 705.323L568.095 705.336L568.109 705.35L569.621 703.725ZM550.721 694.05L551.331 691.916L551.331 691.916L550.721 694.05ZM489.971 694.05L489.362 691.916L489.362 691.916L489.971 694.05ZM471.071 703.725L472.612 705.323L472.612 705.323L471.071 703.725ZM462.071 716.325L460.02 715.476L460.013 715.495L460.005 715.513L462.071 716.325ZM462.296 746.925L460.235 747.749L460.24 747.762L460.245 747.774L462.296 746.925ZM471.296 759.975L469.7 761.517L469.713 761.531L469.727 761.545L471.296 759.975ZM490.196 770.1L489.552 772.224L489.562 772.227L490.196 770.1ZM550.721 770.325L551.331 772.459L551.344 772.456L551.356 772.452L550.721 770.325ZM569.846 760.2L571.416 761.77L571.416 761.77L569.846 760.2ZM578.846 747.375L580.898 748.224L580.903 748.212L580.908 748.199L578.846 747.375ZM515.621 647.67H525.746V643.23H515.621V647.67ZM525.746 647.67C540.494 647.67 553.865 648.713 565.868 650.787L566.625 646.413C554.327 644.287 540.698 643.23 525.746 643.23V647.67ZM565.899 650.792C578.095 652.726 588.198 655.316 596.247 658.536L597.896 654.414C589.445 651.034 578.998 648.374 566.594 646.408L565.899 650.792ZM596.292 658.553C604.512 661.636 611.583 665.508 617.531 670.15L620.262 666.65C613.91 661.692 606.431 657.614 597.851 654.397L596.292 658.553ZM617.578 670.186C623.754 674.744 628.533 679.323 631.971 683.907L635.522 681.243C631.76 676.227 626.639 671.356 620.215 666.614L617.578 670.186ZM631.971 683.907C635.44 688.532 638.187 693.592 640.214 699.092L644.379 697.558C642.206 691.658 639.253 686.218 635.522 681.243L631.971 683.907ZM640.232 699.14C642.434 704.718 643.799 709.712 644.37 714.134L648.773 713.566C648.144 708.688 646.659 703.332 644.361 697.51L640.232 699.14ZM644.38 714.203C645.11 718.727 645.477 723.484 645.477 728.475H649.916C649.916 723.266 649.533 718.273 648.763 713.497L644.38 714.203ZM645.477 728.475V735.225H649.916V728.475H645.477ZM645.477 735.225C645.477 740.216 645.11 744.973 644.38 749.497L648.763 750.203C649.533 745.427 649.916 740.434 649.916 735.225H645.477ZM644.37 749.566C643.799 753.993 642.431 759.067 640.225 764.803L644.368 766.397C646.662 760.433 648.144 755.007 648.773 750.134L644.37 749.566ZM640.214 764.833C638.185 770.339 635.432 775.483 631.951 780.269L635.542 782.881C639.261 777.767 642.208 772.261 644.379 766.367L640.214 764.833ZM631.944 780.279C628.657 784.852 623.957 789.5 617.776 794.209L620.467 797.741C626.886 792.85 631.936 787.898 635.549 782.871L631.944 780.279ZM617.776 794.209C611.654 798.874 604.558 802.83 596.472 806.064L598.121 810.186C606.535 806.82 613.989 802.676 620.467 797.741L617.776 794.209ZM596.472 806.064C588.423 809.284 578.32 811.874 566.124 813.808L566.819 818.192C579.223 816.226 589.67 813.566 598.121 810.186L596.472 806.064ZM566.093 813.813C554.092 815.887 540.646 816.93 525.746 816.93V821.37C540.847 821.37 554.551 820.313 566.85 818.187L566.093 813.813ZM525.746 816.93H515.621V821.37H525.746V816.93ZM515.621 816.93C500.723 816.93 487.2 815.887 475.045 813.812L474.298 818.188C486.743 820.313 500.52 821.37 515.621 821.37V816.93ZM475.023 813.808C462.978 811.875 452.867 809.284 444.658 806.059L443.035 810.191C451.626 813.566 462.065 816.225 474.32 818.192L475.023 813.808ZM444.671 806.064C436.585 802.83 429.489 798.874 423.367 794.209L420.676 797.741C427.154 802.676 434.608 806.82 443.022 810.186L444.671 806.064ZM423.367 794.209C417.181 789.496 412.393 784.837 408.947 780.243L405.396 782.907C409.15 787.913 414.262 792.854 420.676 797.741L423.367 794.209ZM408.993 780.306C405.643 775.499 402.874 770.327 400.686 764.785L396.557 766.415C398.869 772.273 401.8 777.751 405.35 782.844L408.993 780.306ZM400.711 764.85C398.643 759.091 397.261 753.977 396.538 749.497L392.155 750.203C392.932 755.023 394.4 760.409 396.532 766.35L400.711 764.85ZM396.548 749.566C395.961 745.018 395.666 740.238 395.666 735.225H391.227C391.227 740.412 391.532 745.382 392.145 750.134L396.548 749.566ZM395.666 735.225V728.475H391.227V735.225H395.666ZM395.666 728.475C395.666 723.462 395.961 718.682 396.548 714.134L392.145 713.566C391.532 718.318 391.227 723.288 391.227 728.475H395.666ZM396.538 714.203C397.26 709.728 398.64 704.695 400.704 699.092L396.539 697.558C394.403 703.355 392.933 708.672 392.155 713.497L396.538 714.203ZM400.686 699.14C402.871 693.604 405.635 688.516 408.974 683.871L405.369 681.279C401.808 686.234 398.872 691.646 396.557 697.51L400.686 699.14ZM408.947 683.907C412.385 679.323 417.164 674.744 423.34 670.186L420.703 666.614C414.279 671.356 409.158 676.227 405.396 681.243L408.947 683.907ZM423.367 670.166C429.48 665.508 436.564 661.632 444.638 658.549L443.055 654.401C434.629 657.618 427.163 661.692 420.676 666.634L423.367 670.166ZM444.658 658.541C452.867 655.316 462.978 652.725 475.023 650.792L474.32 646.408C462.065 648.375 451.626 651.034 443.035 654.409L444.658 658.541ZM475.045 650.788C487.2 648.713 500.723 647.67 515.621 647.67V643.23C500.52 643.23 486.743 644.287 474.298 646.412L475.045 650.788ZM583.766 733.2V730.05H579.327V733.2H583.766ZM583.766 730.05C583.766 724.825 582.815 719.949 580.887 715.451L576.806 717.199C578.478 721.101 579.327 725.375 579.327 730.05H583.766ZM580.898 715.476C578.948 710.765 575.658 706.312 571.134 702.1L568.109 705.35C572.285 709.238 575.145 713.185 576.795 717.174L580.898 715.476ZM571.162 702.127C566.603 697.73 559.921 694.37 551.331 691.916L550.112 696.184C558.322 698.53 564.24 701.62 568.081 705.323L571.162 702.127ZM551.331 691.916C542.679 689.443 532.413 688.23 520.571 688.23V692.67C532.13 692.67 541.964 693.857 550.112 696.184L551.331 691.916ZM520.571 688.23C508.436 688.23 498.018 689.442 489.362 691.916L490.581 696.184C498.725 693.858 508.707 692.67 520.571 692.67V688.23ZM489.362 691.916C480.772 694.37 474.09 697.73 469.531 702.127L472.612 705.323C476.453 701.62 482.371 698.53 490.581 696.184L489.362 691.916ZM469.531 702.127C465.162 706.34 461.961 710.785 460.02 715.476L464.123 717.174C465.781 713.165 468.581 709.21 472.612 705.323L469.531 702.127ZM460.005 715.513C458.244 719.996 457.377 724.849 457.377 730.05H461.816C461.816 725.351 462.599 721.054 464.138 717.137L460.005 715.513ZM457.377 730.05V732.75H461.816V730.05H457.377ZM457.377 732.75C457.377 737.976 458.328 742.982 460.235 747.749L464.358 746.101C462.665 741.868 461.816 737.424 461.816 732.75H457.377ZM460.245 747.774C462.177 752.443 465.359 757.021 469.7 761.517L472.893 758.433C468.834 754.229 466.016 750.107 464.348 746.076L460.245 747.774ZM469.727 761.545C474.279 766.097 480.957 769.615 489.552 772.224L490.841 767.976C482.636 765.485 476.714 762.253 472.866 758.405L469.727 761.545ZM489.562 772.227C498.37 774.854 508.719 776.145 520.571 776.145V771.705C509.024 771.705 499.122 770.446 490.831 767.973L489.562 772.227ZM520.571 776.145C532.413 776.145 542.679 774.932 551.331 772.459L550.112 768.191C541.964 770.518 532.13 771.705 520.571 771.705V776.145ZM551.356 772.452C560.096 769.846 566.857 766.329 571.416 761.77L568.277 758.63C564.436 762.471 558.447 765.704 550.087 768.198L551.356 772.452ZM571.416 761.77C575.77 757.415 578.961 752.904 580.898 748.224L576.795 746.526C575.132 750.546 572.323 754.585 568.277 758.63L571.416 761.77ZM580.908 748.199C582.815 743.432 583.766 738.426 583.766 733.2H579.327C579.327 737.874 578.478 742.318 576.785 746.551L580.908 748.199ZM663.622 648.6V646.38H661.402V648.6H663.622ZM735.172 648.6L736.725 647.014L736.078 646.38H735.172V648.6ZM832.372 743.775L830.819 745.361L834.592 749.055V743.775H832.372ZM832.372 648.6V646.38H830.152V648.6H832.372ZM895.822 648.6H898.042V646.38H895.822V648.6ZM895.822 816V818.22H898.042V816H895.822ZM831.922 816L830.379 817.595L831.024 818.22H831.922V816ZM727.072 714.525L728.616 712.93L724.852 709.287V714.525H727.072ZM727.072 816V818.22H729.292V816H727.072ZM663.622 816H661.402V818.22H663.622V816ZM663.622 650.82H735.172V646.38H663.622V650.82ZM733.619 650.186L830.819 745.361L833.925 742.189L736.725 647.014L733.619 650.186ZM834.592 743.775V648.6H830.152V743.775H834.592ZM832.372 650.82H895.822V646.38H832.372V650.82ZM893.602 648.6V816H898.042V648.6H893.602ZM895.822 813.78H831.922V818.22H895.822V813.78ZM833.466 814.405L728.616 712.93L725.529 716.12L830.379 817.595L833.466 814.405ZM724.852 714.525V816H729.292V714.525H724.852ZM727.072 813.78H663.622V818.22H727.072V813.78ZM665.842 816V648.6H661.402V816H665.842ZM984.456 816H982.237V818.22H984.456V816ZM984.456 694.275H986.676V692.055H984.456V694.275ZM912.231 694.275H910.012V696.495H912.231V694.275ZM912.231 648.6V646.38H910.012V648.6H912.231ZM1120.58 648.6H1122.8V646.38H1120.58V648.6ZM1120.58 694.275V696.495H1122.8V694.275H1120.58ZM1048.36 694.275V692.055H1046.14V694.275H1048.36ZM1048.36 816V818.22H1050.58V816H1048.36ZM986.676 816V694.275H982.237V816H986.676ZM984.456 692.055H912.231V696.495H984.456V692.055ZM914.451 694.275V648.6H910.012V694.275H914.451ZM912.231 650.82H1120.58V646.38H912.231V650.82ZM1118.36 648.6V694.275H1122.8V648.6H1118.36ZM1120.58 692.055H1048.36V696.495H1120.58V692.055ZM1046.14 694.275V816H1050.58V694.275H1046.14ZM1048.36 813.78H984.456V818.22H1048.36V813.78ZM1241.45 747.15V749.37H1245L1243.45 746.176L1241.45 747.15ZM1213.33 689.55L1215.32 688.576L1213.3 684.441L1211.32 688.595L1213.33 689.55ZM1185.88 747.15L1183.87 746.195L1182.36 749.37H1185.88V747.15ZM1274.98 816L1272.98 816.966L1273.58 818.22H1274.98V816ZM1261.93 789L1263.92 788.034L1263.32 786.78H1261.93V789ZM1166.3 789V786.78H1164.9L1164.3 788.048L1166.3 789ZM1153.48 816V818.22H1154.88L1155.48 816.952L1153.48 816ZM1088.68 816L1086.69 815.016L1085.1 818.22H1088.68V816ZM1171.48 648.6V646.38H1170.1L1169.49 647.616L1171.48 648.6ZM1257.43 648.6L1259.39 647.571L1258.77 646.38H1257.43V648.6ZM1344.95 816V818.22H1348.62L1346.92 814.971L1344.95 816ZM1243.45 746.176L1215.32 688.576L1211.33 690.524L1239.46 748.124L1243.45 746.176ZM1211.32 688.595L1183.87 746.195L1187.88 748.105L1215.33 690.505L1211.32 688.595ZM1185.88 749.37H1241.45V744.93H1185.88V749.37ZM1276.97 815.034L1263.92 788.034L1259.93 789.966L1272.98 816.966L1276.97 815.034ZM1261.93 786.78H1166.3V791.22H1261.93V786.78ZM1164.3 788.048L1151.47 815.048L1155.48 816.952L1168.31 789.952L1164.3 788.048ZM1153.48 813.78H1088.68V818.22H1153.48V813.78ZM1090.67 816.984L1173.47 649.584L1169.49 647.616L1086.69 815.016L1090.67 816.984ZM1171.48 650.82H1257.43V646.38H1171.48V650.82ZM1255.46 649.629L1342.98 817.029L1346.92 814.971L1259.39 647.571L1255.46 649.629ZM1344.95 813.78H1274.98V818.22H1344.95V813.78ZM1384.58 816H1382.36V818.22H1384.58V816ZM1384.58 694.275H1386.8V692.055H1384.58V694.275ZM1312.35 694.275H1310.13V696.495H1312.35V694.275ZM1312.35 648.6V646.38H1310.13V648.6H1312.35ZM1520.7 648.6H1522.92V646.38H1520.7V648.6ZM1520.7 694.275V696.495H1522.92V694.275H1520.7ZM1448.48 694.275V692.055H1446.26V694.275H1448.48ZM1448.48 816V818.22H1450.7V816H1448.48ZM1386.8 816V694.275H1382.36V816H1386.8ZM1384.58 692.055H1312.35V696.495H1384.58V692.055ZM1314.57 694.275V648.6H1310.13V694.275H1314.57ZM1312.35 650.82H1520.7V646.38H1312.35V650.82ZM1518.48 648.6V694.275H1522.92V648.6H1518.48ZM1520.7 692.055H1448.48V696.495H1520.7V692.055ZM1446.26 694.275V816H1450.7V694.275H1446.26ZM1448.48 813.78H1384.58V818.22H1448.48V813.78ZM1698.5 648.6L1698.12 650.787L1698.13 650.79L1698.15 650.792L1698.5 648.6ZM1729.32 656.475L1728.5 658.536L1728.52 658.545L1728.54 658.553L1729.32 656.475ZM1751.15 668.4L1749.78 670.15L1749.81 670.168L1749.83 670.186L1751.15 668.4ZM1766 682.575L1767.77 681.243L1767.77 681.243L1766 682.575ZM1774.55 698.325L1772.46 699.092L1772.47 699.116L1772.48 699.14L1774.55 698.325ZM1778.82 713.85L1776.62 714.134L1776.63 714.169L1776.63 714.203L1778.82 713.85ZM1778.82 749.85L1776.63 749.497L1776.63 749.531L1776.62 749.566L1778.82 749.85ZM1774.55 765.6L1772.48 764.803L1772.47 764.818L1772.46 764.833L1774.55 765.6ZM1766 781.575L1764.2 780.269L1764.19 780.279L1766 781.575ZM1751.37 795.975L1750.03 794.209L1750.03 794.209L1751.37 795.975ZM1729.55 808.125L1730.37 810.186L1730.37 810.186L1729.55 808.125ZM1698.72 816L1698.37 813.808L1698.36 813.81L1698.34 813.813L1698.72 816ZM1606.92 816L1607.3 813.812L1607.29 813.81L1607.27 813.808L1606.92 816ZM1576.1 808.125L1575.27 810.186L1575.29 810.191L1576.1 808.125ZM1554.27 795.975L1552.93 797.741L1552.93 797.741L1554.27 795.975ZM1539.42 781.575L1537.6 782.844L1537.62 782.876L1537.65 782.907L1539.42 781.575ZM1530.87 765.6L1528.78 766.35L1528.79 766.383L1528.81 766.415L1530.87 765.6ZM1526.6 749.85L1524.4 750.134L1524.4 750.169L1524.41 750.203L1526.6 749.85ZM1526.6 713.85L1524.41 713.497L1524.4 713.531L1524.4 713.566L1526.6 713.85ZM1530.87 698.325L1528.81 697.51L1528.8 697.534L1528.79 697.558L1530.87 698.325ZM1539.42 682.575L1537.65 681.243L1537.63 681.261L1537.62 681.279L1539.42 682.575ZM1554.27 668.4L1555.59 670.186L1555.6 670.176L1555.62 670.166L1554.27 668.4ZM1576.1 656.475L1576.89 658.549L1576.9 658.545L1576.91 658.541L1576.1 656.475ZM1606.92 648.6L1607.27 650.792L1607.29 650.79L1607.3 650.788L1606.92 648.6ZM1711.1 716.325L1709.05 717.174L1709.05 717.187L1709.06 717.199L1711.1 716.325ZM1701.87 703.725L1700.33 705.323L1700.35 705.336L1700.36 705.35L1701.87 703.725ZM1682.97 694.05L1683.58 691.916L1683.58 691.916L1682.97 694.05ZM1622.22 694.05L1621.61 691.916L1621.61 691.916L1622.22 694.05ZM1603.32 703.725L1604.86 705.323L1604.86 705.323L1603.32 703.725ZM1594.32 716.325L1592.27 715.476L1592.26 715.495L1592.26 715.513L1594.32 716.325ZM1594.55 746.925L1592.49 747.749L1592.49 747.762L1592.5 747.774L1594.55 746.925ZM1603.55 759.975L1601.95 761.517L1601.96 761.531L1601.98 761.545L1603.55 759.975ZM1622.45 770.1L1621.8 772.224L1621.81 772.227L1622.45 770.1ZM1682.97 770.325L1683.58 772.459L1683.59 772.456L1683.61 772.452L1682.97 770.325ZM1702.1 760.2L1703.67 761.77L1703.67 761.77L1702.1 760.2ZM1711.1 747.375L1713.15 748.224L1713.15 748.212L1713.16 748.199L1711.1 747.375ZM1647.87 647.67H1658V643.23H1647.87V647.67ZM1658 647.67C1672.75 647.67 1686.12 648.713 1698.12 650.787L1698.88 646.413C1686.58 644.287 1672.95 643.23 1658 643.23V647.67ZM1698.15 650.792C1710.35 652.726 1720.45 655.316 1728.5 658.536L1730.15 654.414C1721.7 651.034 1711.25 648.374 1698.85 646.408L1698.15 650.792ZM1728.54 658.553C1736.76 661.636 1743.83 665.508 1749.78 670.15L1752.51 666.65C1746.16 661.692 1738.68 657.614 1730.1 654.397L1728.54 658.553ZM1749.83 670.186C1756.01 674.744 1760.78 679.323 1764.22 683.907L1767.77 681.243C1764.01 676.227 1758.89 671.356 1752.47 666.614L1749.83 670.186ZM1764.22 683.907C1767.69 688.532 1770.44 693.592 1772.46 699.092L1776.63 697.558C1774.46 691.658 1771.5 686.218 1767.77 681.243L1764.22 683.907ZM1772.48 699.14C1774.68 704.718 1776.05 709.712 1776.62 714.134L1781.02 713.566C1780.39 708.688 1778.91 703.332 1776.61 697.51L1772.48 699.14ZM1776.63 714.203C1777.36 718.727 1777.73 723.484 1777.73 728.475H1782.17C1782.17 723.266 1781.78 718.273 1781.01 713.497L1776.63 714.203ZM1777.73 728.475V735.225H1782.17V728.475H1777.73ZM1777.73 735.225C1777.73 740.216 1777.36 744.973 1776.63 749.497L1781.01 750.203C1781.78 745.427 1782.17 740.434 1782.17 735.225H1777.73ZM1776.62 749.566C1776.05 753.993 1774.68 759.067 1772.48 764.803L1776.62 766.397C1778.91 760.433 1780.4 755.007 1781.02 750.134L1776.62 749.566ZM1772.46 764.833C1770.44 770.339 1767.68 775.483 1764.2 780.269L1767.79 782.881C1771.51 777.767 1774.46 772.261 1776.63 766.367L1772.46 764.833ZM1764.19 780.279C1760.91 784.852 1756.21 789.5 1750.03 794.209L1752.72 797.741C1759.14 792.85 1764.19 787.898 1767.8 782.871L1764.19 780.279ZM1750.03 794.209C1743.9 798.874 1736.81 802.83 1728.72 806.064L1730.37 810.186C1738.79 806.82 1746.24 802.676 1752.72 797.741L1750.03 794.209ZM1728.72 806.064C1720.67 809.284 1710.57 811.874 1698.37 813.808L1699.07 818.192C1711.47 816.226 1721.92 813.566 1730.37 810.186L1728.72 806.064ZM1698.34 813.813C1686.34 815.887 1672.9 816.93 1658 816.93V821.37C1673.1 821.37 1686.8 820.313 1699.1 818.187L1698.34 813.813ZM1658 816.93H1647.87V821.37H1658V816.93ZM1647.87 816.93C1632.97 816.93 1619.45 815.887 1607.3 813.812L1606.55 818.188C1618.99 820.313 1632.77 821.37 1647.87 821.37V816.93ZM1607.27 813.808C1595.23 811.875 1585.12 809.284 1576.91 806.059L1575.29 810.191C1583.88 813.566 1594.32 816.225 1606.57 818.192L1607.27 813.808ZM1576.92 806.064C1568.84 802.83 1561.74 798.874 1555.62 794.209L1552.93 797.741C1559.4 802.676 1566.86 806.82 1575.27 810.186L1576.92 806.064ZM1555.62 794.209C1549.43 789.496 1544.64 784.837 1541.2 780.243L1537.65 782.907C1541.4 787.913 1546.51 792.854 1552.93 797.741L1555.62 794.209ZM1541.24 780.306C1537.89 775.499 1535.12 770.327 1532.94 764.785L1528.81 766.415C1531.12 772.273 1534.05 777.751 1537.6 782.844L1541.24 780.306ZM1532.96 764.85C1530.89 759.091 1529.51 753.977 1528.79 749.497L1524.41 750.203C1525.18 755.023 1526.65 760.409 1528.78 766.35L1532.96 764.85ZM1528.8 749.566C1528.21 745.018 1527.92 740.238 1527.92 735.225H1523.48C1523.48 740.412 1523.78 745.382 1524.4 750.134L1528.8 749.566ZM1527.92 735.225V728.475H1523.48V735.225H1527.92ZM1527.92 728.475C1527.92 723.462 1528.21 718.682 1528.8 714.134L1524.4 713.566C1523.78 718.318 1523.48 723.288 1523.48 728.475H1527.92ZM1528.79 714.203C1529.51 709.728 1530.89 704.695 1532.96 699.092L1528.79 697.558C1526.65 703.355 1525.18 708.672 1524.41 713.497L1528.79 714.203ZM1532.94 699.14C1535.12 693.604 1537.89 688.516 1541.22 683.871L1537.62 681.279C1534.06 686.234 1531.12 691.646 1528.81 697.51L1532.94 699.14ZM1541.2 683.907C1544.64 679.323 1549.41 674.744 1555.59 670.186L1552.95 666.614C1546.53 671.356 1541.41 676.227 1537.65 681.243L1541.2 683.907ZM1555.62 670.166C1561.73 665.508 1568.82 661.632 1576.89 658.549L1575.31 654.401C1566.88 657.618 1559.41 661.692 1552.93 666.634L1555.62 670.166ZM1576.91 658.541C1585.12 655.316 1595.23 652.725 1607.27 650.792L1606.57 646.408C1594.32 648.375 1583.88 651.034 1575.29 654.409L1576.91 658.541ZM1607.3 650.788C1619.45 648.713 1632.97 647.67 1647.87 647.67V643.23C1632.77 643.23 1618.99 644.287 1606.55 646.412L1607.3 650.788ZM1716.02 733.2V730.05H1711.58V733.2H1716.02ZM1716.02 730.05C1716.02 724.825 1715.07 719.949 1713.14 715.451L1709.06 717.199C1710.73 721.101 1711.58 725.375 1711.58 730.05H1716.02ZM1713.15 715.476C1711.2 710.765 1707.91 706.312 1703.39 702.1L1700.36 705.35C1704.54 709.238 1707.4 713.185 1709.05 717.174L1713.15 715.476ZM1703.41 702.127C1698.85 697.73 1692.17 694.37 1683.58 691.916L1682.36 696.184C1690.57 698.53 1696.49 701.62 1700.33 705.323L1703.41 702.127ZM1683.58 691.916C1674.93 689.443 1664.66 688.23 1652.82 688.23V692.67C1664.38 692.67 1674.22 693.857 1682.36 696.184L1683.58 691.916ZM1652.82 688.23C1640.69 688.23 1630.27 689.442 1621.61 691.916L1622.83 696.184C1630.98 693.858 1640.96 692.67 1652.82 692.67V688.23ZM1621.61 691.916C1613.02 694.37 1606.34 697.73 1601.78 702.127L1604.86 705.323C1608.7 701.62 1614.62 698.53 1622.83 696.184L1621.61 691.916ZM1601.78 702.127C1597.41 706.34 1594.21 710.785 1592.27 715.476L1596.37 717.174C1598.03 713.165 1600.83 709.21 1604.86 705.323L1601.78 702.127ZM1592.26 715.513C1590.5 719.996 1589.63 724.849 1589.63 730.05H1594.07C1594.07 725.351 1594.85 721.054 1596.39 717.137L1592.26 715.513ZM1589.63 730.05V732.75H1594.07V730.05H1589.63ZM1589.63 732.75C1589.63 737.976 1590.58 742.982 1592.49 747.749L1596.61 746.101C1594.92 741.868 1594.07 737.424 1594.07 732.75H1589.63ZM1592.5 747.774C1594.43 752.443 1597.61 757.021 1601.95 761.517L1605.14 758.433C1601.09 754.229 1598.27 750.107 1596.6 746.076L1592.5 747.774ZM1601.98 761.545C1606.53 766.097 1613.21 769.615 1621.8 772.224L1623.09 767.976C1614.89 765.485 1608.97 762.253 1605.12 758.405L1601.98 761.545ZM1621.81 772.227C1630.62 774.854 1640.97 776.145 1652.82 776.145V771.705C1641.27 771.705 1631.37 770.446 1623.08 767.973L1621.81 772.227ZM1652.82 776.145C1664.66 776.145 1674.93 774.932 1683.58 772.459L1682.36 768.191C1674.22 770.518 1664.38 771.705 1652.82 771.705V776.145ZM1683.61 772.452C1692.35 769.846 1699.11 766.329 1703.67 761.77L1700.53 758.63C1696.69 762.471 1690.7 765.704 1682.34 768.198L1683.61 772.452ZM1703.67 761.77C1708.02 757.415 1711.21 752.904 1713.15 748.224L1709.05 746.526C1707.38 750.546 1704.57 754.585 1700.53 758.63L1703.67 761.77ZM1713.16 748.199C1715.07 743.432 1716.02 738.426 1716.02 733.2H1711.58C1711.58 737.874 1710.73 742.318 1709.04 746.551L1713.16 748.199Z" fill="#DC0032"/>
<path d="M249 353H-23V527H248.958C251.981 527.1 255.066 527.15 258.213 527.15H266.988C286.188 527.15 303.063 525.425 317.613 521.975C332.313 518.525 343.638 514.325 351.588 509.375C359.688 504.275 366.288 498.425 371.388 491.825C376.488 485.075 379.788 479.075 381.288 473.825C382.788 468.425 383.538 463.175 383.538 458.075V454.475H317.388C316.938 456.125 316.488 457.625 316.038 458.975C315.588 460.325 314.163 462.575 311.763 465.725C309.363 468.875 306.363 471.5 302.763 473.6C299.163 475.7 293.838 477.65 286.788 479.45C279.738 481.1 271.563 481.925 262.263 481.925C251.613 481.925 242.388 480.65 234.588 478.1C226.938 475.55 221.088 472.1 217.038 467.75C213.138 463.4 210.288 458.975 208.488 454.475C206.838 449.975 206.013 445.25 206.013 440.3V437.6C206.013 411.5 224.688 398.45 262.038 398.45C293.688 398.45 312.063 407 317.163 424.1H383.538V421.175C383.538 417.725 383.163 414.2 382.413 410.6C381.813 407 380.388 402.95 378.138 398.45C376.038 393.8 373.263 389.45 369.813 385.4C366.363 381.35 361.563 377.375 355.413 373.475C349.413 369.425 342.438 365.975 334.488 363.125C326.688 360.275 316.938 357.95 305.238 356.15C293.688 354.35 280.938 353.45 266.988 353.45H258.213C254.867 353.45 251.592 353.505 248.385 353.614L249 353Z" fill="#DC0032"/>
<path fill-rule="evenodd" clip-rule="evenodd" d="M1649 353H1921V527H1667.37C1664.24 527.1 1661.03 527.15 1657.76 527.15H1647.63C1632.63 527.15 1618.98 526.1 1606.68 524C1594.53 522.05 1584.26 519.425 1575.86 516.125C1567.61 512.825 1560.33 508.775 1554.03 503.975C1547.73 499.175 1542.78 494.375 1539.18 489.575C1535.73 484.625 1532.88 479.3 1530.63 473.6C1528.53 467.75 1527.11 462.5 1526.36 457.85C1525.76 453.2 1525.46 448.325 1525.46 443.225V436.475C1525.46 431.375 1525.76 426.5 1526.36 421.85C1527.11 417.2 1528.53 412.025 1530.63 406.325C1532.88 400.625 1535.73 395.375 1539.18 390.575C1542.78 385.775 1547.73 381.05 1554.03 376.4C1560.33 371.6 1567.61 367.625 1575.86 364.475C1584.26 361.175 1594.53 358.55 1606.68 356.6C1618.98 354.5 1632.63 353.45 1647.63 353.45H1649.45L1649 353ZM1713.56 438.05V441.2C1713.56 446.15 1712.66 450.875 1710.86 455.375C1709.06 459.725 1706.06 464 1701.86 468.2C1697.66 472.4 1691.28 475.775 1682.73 478.325C1674.33 480.725 1664.28 481.925 1652.58 481.925C1640.88 481.925 1630.76 480.65 1622.21 478.1C1613.81 475.55 1607.51 472.175 1603.31 467.975C1599.11 463.625 1596.11 459.275 1594.31 454.925C1592.51 450.425 1591.61 445.7 1591.61 440.75V438.05C1591.61 433.1 1592.43 428.525 1594.08 424.325C1595.88 419.975 1598.88 415.775 1603.08 411.725C1607.28 407.675 1613.58 404.45 1621.98 402.05C1630.38 399.65 1640.58 398.45 1652.58 398.45C1664.28 398.45 1674.33 399.65 1682.73 402.05C1691.13 404.45 1697.43 407.675 1701.63 411.725C1705.98 415.775 1709.06 419.975 1710.86 424.325C1712.66 428.525 1713.56 433.1 1713.56 438.05Z" fill="#DC0032"/>
<path fill-rule="evenodd" clip-rule="evenodd" d="M525.507 353.45H515.382C500.382 353.45 486.732 354.5 474.432 356.6C462.282 358.55 452.007 361.175 443.607 364.475C435.357 367.625 428.082 371.6 421.782 376.4C415.482 381.05 410.532 385.775 406.932 390.575C403.482 395.375 400.632 400.625 398.382 406.325C396.282 412.025 394.857 417.2 394.107 421.85C393.507 426.5 393.207 431.375 393.207 436.475V443.225C393.207 448.325 393.507 453.2 394.107 457.85C394.857 462.5 396.282 467.75 398.382 473.6C400.632 479.3 403.482 484.625 406.932 489.575C410.532 494.375 415.482 499.175 421.782 503.975C428.082 508.775 435.357 512.825 443.607 516.125C452.007 519.425 462.282 522.05 474.432 524C486.732 526.1 500.382 527.15 515.382 527.15H525.507C540.507 527.15 554.082 526.1 566.232 524C578.532 522.05 588.807 519.425 597.057 516.125C605.307 512.825 612.582 508.775 618.882 503.975C625.182 499.175 630.057 494.375 633.507 489.575C637.107 484.625 639.957 479.3 642.057 473.6C644.307 467.75 645.732 462.5 646.332 457.85C647.082 453.2 647.457 448.325 647.457 443.225V436.475C647.457 431.375 647.082 426.5 646.332 421.85C645.732 417.2 644.307 412.025 642.057 406.325C639.957 400.625 637.107 395.375 633.507 390.575C629.907 385.775 624.957 381.05 618.657 376.4C612.507 371.6 605.232 367.625 596.832 364.475C588.582 361.175 578.307 358.55 566.007 356.6C553.857 354.5 540.357 353.45 525.507 353.45ZM581.307 438.05V441.2C581.307 446.15 580.407 450.875 578.607 455.375C576.807 459.725 573.807 464 569.607 468.2C565.407 472.4 559.032 475.775 550.482 478.325C542.082 480.725 532.032 481.925 520.332 481.925C508.632 481.925 498.507 480.65 489.957 478.1C481.557 475.55 475.257 472.175 471.057 467.975C466.857 463.625 463.857 459.275 462.057 454.925C460.257 450.425 459.357 445.7 459.357 440.75V438.05C459.357 433.1 460.182 428.525 461.832 424.325C463.632 419.975 466.632 415.775 470.832 411.725C475.032 407.675 481.332 404.45 489.732 402.05C498.132 399.65 508.332 398.45 520.332 398.45C532.032 398.45 542.082 399.65 550.482 402.05C558.882 404.45 565.182 407.675 569.382 411.725C573.732 415.775 576.807 419.975 578.607 424.325C580.407 428.525 581.307 433.1 581.307 438.05Z" fill="#DC0032"/>
<path d="M734.933 356.6H663.383V524H726.833V422.525L831.683 524H895.583V356.6H832.133V451.775L734.933 356.6Z" fill="#DC0032"/>
<path d="M984.217 402.275V524H1048.12V402.275H1120.34V356.6H911.992V402.275H984.217Z" fill="#DC0032"/>
<path fill-rule="evenodd" clip-rule="evenodd" d="M1261.69 497L1274.74 524H1344.71L1257.19 356.6H1171.24L1088.44 524H1153.24L1166.06 497H1261.69ZM1213.09 397.55L1241.21 455.15H1185.64L1213.09 397.55Z" fill="#DC0032"/>
<path d="M1384.34 402.275V524H1448.24V402.275H1520.46V356.6H1312.11V402.275H1384.34Z" fill="#DC0032"/>
<path d="M206.463 229.3L205.893 231.446L205.899 231.447L206.463 229.3ZM172.038 214.9L170.754 216.711L170.765 216.719L170.776 216.726L172.038 214.9ZM152.013 194.2L153.881 193.001L153.881 193.001L152.013 194.2ZM142.113 172.15L139.946 172.632L139.946 172.632L142.113 172.15ZM141.888 123.325L139.723 122.833L139.718 122.857L139.713 122.88L141.888 123.325ZM151.563 101.725L153.437 102.914L153.442 102.906L153.447 102.898L151.563 101.725ZM171.138 81.475L172.392 83.3062L172.399 83.3013L171.138 81.475ZM205.788 67.3L206.331 69.4522L206.339 69.4503L206.346 69.4484L205.788 67.3ZM305.238 64.15L304.896 66.3433L304.9 66.344L305.238 64.15ZM334.488 71.125L333.726 73.21L333.739 73.2146L334.488 71.125ZM355.413 81.475L354.171 83.3149L354.197 83.3326L354.224 83.3496L355.413 81.475ZM369.813 93.4L371.503 91.9605L371.503 91.9605L369.813 93.4ZM378.138 106.45L376.115 107.364L376.133 107.404L376.152 107.443L378.138 106.45ZM382.413 118.6L380.223 118.965L380.23 119.009L380.24 119.053L382.413 118.6ZM383.538 132.1V134.32H385.757V132.1H383.538ZM317.163 132.1L315.035 132.734L315.508 134.32H317.163V132.1ZM208.488 162.475L206.404 163.239L206.415 163.269L206.427 163.299L208.488 162.475ZM217.038 175.75L215.385 177.232L215.399 177.247L215.413 177.263L217.038 175.75ZM234.588 186.1L233.886 188.206L233.898 188.21L234.588 186.1ZM286.788 187.45L287.294 189.611L287.315 189.606L287.337 189.601L286.788 187.45ZM311.763 173.725L313.528 175.07L313.528 175.07L311.763 173.725ZM316.038 166.975L318.144 167.677L318.144 167.677L316.038 166.975ZM317.388 162.475V160.255H315.692L315.246 161.891L317.388 162.475ZM383.538 162.475H385.757V160.255H383.538V162.475ZM381.288 181.825L383.422 182.435L383.424 182.427L383.427 182.419L381.288 181.825ZM371.388 199.825L373.144 201.182L373.152 201.173L373.159 201.163L371.388 199.825ZM351.588 217.375L352.761 219.259L352.77 219.253L351.588 217.375ZM317.613 229.975L317.105 227.814L317.101 227.815L317.613 229.975ZM266.988 232.93H258.213V237.37H266.988V232.93ZM258.213 232.93C238.703 232.93 221.65 230.993 207.027 227.153L205.899 231.447C220.976 235.407 238.423 237.37 258.213 237.37V232.93ZM207.032 227.154C192.465 223.29 181.259 218.573 173.299 213.074L170.776 216.726C179.316 222.627 191.06 227.51 205.893 231.446L207.032 227.154ZM173.322 213.089C165.287 207.392 158.817 200.695 153.881 193.001L150.144 195.399C155.409 203.605 162.288 210.708 170.754 216.711L173.322 213.089ZM153.881 193.001C148.874 185.196 145.706 178.089 144.28 171.668L139.946 172.632C141.519 179.711 144.951 187.304 150.144 195.399L153.881 193.001ZM144.28 171.668C142.817 165.086 142.082 158.198 142.082 151H137.643C137.643 158.502 138.408 165.714 139.946 172.632L144.28 171.668ZM142.082 151V144.475H137.643V151H142.082ZM142.082 144.475C142.082 137.108 142.746 130.208 144.062 123.77L139.713 122.88C138.33 129.642 137.643 136.842 137.643 144.475H142.082ZM144.052 123.817C145.48 117.536 148.577 110.573 153.437 102.914L149.688 100.536C144.649 108.477 141.296 115.914 139.723 122.833L144.052 123.817ZM153.447 102.898C158.227 95.2213 164.533 88.6913 172.392 83.3062L169.883 79.6438C161.542 85.3587 154.798 92.3287 149.678 100.552L153.447 102.898ZM172.399 83.3013C180.348 77.8096 191.617 73.168 206.331 69.4522L205.244 65.1477C190.258 68.932 178.427 73.7404 169.876 79.6487L172.399 83.3013ZM206.346 69.4484C221.12 65.6071 238.4 63.6698 258.213 63.6698V59.2302C238.125 59.2302 220.455 61.1929 205.229 65.1516L206.346 69.4484ZM258.213 63.6698H266.988V59.2302H258.213V63.6698ZM266.988 63.6698C280.844 63.6698 293.478 64.5639 304.896 66.3433L305.58 61.9567C293.897 60.1361 281.031 59.2302 266.988 59.2302V63.6698ZM304.9 66.344C316.511 68.1303 326.108 70.4264 333.726 73.21L335.25 69.04C327.268 66.1236 317.364 63.7697 305.575 61.956L304.9 66.344ZM333.739 73.2146C341.543 76.0123 348.347 79.3838 354.171 83.3149L356.655 79.6351C350.478 75.4662 343.333 71.9377 335.237 69.0354L333.739 73.2146ZM354.224 83.3496C360.25 87.1712 364.859 91.0082 368.123 94.8395L371.503 91.9605C367.866 87.6917 362.875 83.5788 356.601 79.6004L354.224 83.3496ZM368.123 94.8395C371.443 98.7375 374.104 102.912 376.115 107.364L380.161 105.536C377.971 100.688 375.082 96.1625 371.503 91.9605L368.123 94.8395ZM376.152 107.443C378.338 111.814 379.67 115.648 380.223 118.965L384.602 118.235C383.955 114.352 382.438 110.086 380.123 105.457L376.152 107.443ZM380.24 119.053C380.961 122.514 381.318 125.887 381.318 129.175H385.757C385.757 125.563 385.365 121.886 384.586 118.147L380.24 119.053ZM381.318 129.175V132.1H385.757V129.175H381.318ZM383.538 129.88H317.163V134.32H383.538V129.88ZM319.29 131.466C316.533 122.221 310.169 115.352 300.493 110.85C290.893 106.383 278.023 104.23 262.038 104.23V108.67C277.702 108.67 289.844 110.792 298.62 114.875C307.318 118.923 312.693 124.879 315.035 132.734L319.29 131.466ZM262.038 104.23C243.172 104.23 228.628 107.514 218.747 114.418C208.722 121.423 203.793 131.947 203.793 145.6H208.232C208.232 133.153 212.641 124.102 221.29 118.057C230.085 111.911 243.553 108.67 262.038 108.67V104.23ZM203.793 145.6V148.3H208.232V145.6H203.793ZM203.793 148.3C203.793 153.502 204.661 158.486 206.404 163.239L210.572 161.711C209.014 157.464 208.232 152.998 208.232 148.3H203.793ZM206.427 163.299C208.341 168.085 211.346 172.727 215.385 177.232L218.69 174.268C214.929 170.073 212.235 165.865 210.549 161.651L206.427 163.299ZM215.413 177.263C219.79 181.964 226.004 185.579 233.886 188.206L235.29 183.994C227.872 181.521 222.385 178.236 218.662 174.237L215.413 177.263ZM233.898 188.21C241.976 190.851 251.444 192.145 262.263 192.145V187.705C251.781 187.705 242.8 186.449 235.277 183.99L233.898 188.21ZM262.263 192.145C271.687 192.145 280.039 191.309 287.294 189.611L286.282 185.289C279.437 186.891 271.438 187.705 262.263 187.705V192.145ZM287.337 189.601C294.462 187.782 300.018 185.771 303.881 183.517L301.644 179.683C298.307 181.629 293.214 183.518 286.239 185.299L287.337 189.601ZM303.881 183.517C307.719 181.279 310.943 178.464 313.528 175.07L309.997 172.38C307.782 175.286 305.006 177.721 301.644 179.683L303.881 183.517ZM313.528 175.07C315.901 171.956 317.56 169.429 318.144 167.677L313.932 166.273C313.616 167.221 312.424 169.194 309.997 172.38L313.528 175.07ZM318.144 167.677C318.609 166.281 319.071 164.741 319.529 163.059L315.246 161.891C314.805 163.509 314.367 164.969 313.932 166.273L318.144 167.677ZM317.388 164.695H383.538V160.255H317.388V164.695ZM381.318 162.475V166.075H385.757V162.475H381.318ZM381.318 166.075C381.318 170.955 380.6 176.005 379.149 181.231L383.427 182.419C384.975 176.845 385.757 171.395 385.757 166.075H381.318ZM379.153 181.215C377.758 186.098 374.632 191.848 369.617 198.487L373.159 201.163C378.343 194.302 381.817 188.052 383.422 182.435L379.153 181.215ZM369.631 198.468C364.712 204.834 358.317 210.515 350.405 215.497L352.77 219.253C361.059 214.035 367.863 208.016 373.144 201.182L369.631 198.468ZM350.414 215.491C342.757 220.259 331.696 224.39 317.105 227.814L318.12 232.136C332.93 228.66 344.519 224.391 352.761 219.259L350.414 215.491ZM317.101 227.815C302.758 231.216 286.061 232.93 266.988 232.93V237.37C286.314 237.37 303.367 235.634 318.125 232.135L317.101 227.815ZM566.007 64.6L565.629 66.7874L565.645 66.79L565.66 66.7924L566.007 64.6ZM596.832 72.475L596.008 74.536L596.03 74.545L596.053 74.5535L596.832 72.475ZM618.657 84.4L617.292 86.1499L617.315 86.1683L617.339 86.186L618.657 84.4ZM633.507 98.575L635.283 97.2431L635.283 97.2431L633.507 98.575ZM642.057 114.325L639.974 115.092L639.983 115.116L639.993 115.14L642.057 114.325ZM646.332 129.85L644.131 130.134L644.135 130.169L644.141 130.203L646.332 129.85ZM646.332 165.85L644.141 165.497L644.135 165.531L644.131 165.566L646.332 165.85ZM642.057 181.6L639.986 180.803L639.98 180.818L639.974 180.833L642.057 181.6ZM633.507 197.575L631.712 196.269L631.705 196.279L633.507 197.575ZM618.882 211.975L617.537 210.209L617.537 210.209L618.882 211.975ZM597.057 224.125L597.882 226.186L597.882 226.186L597.057 224.125ZM566.232 232L565.885 229.808L565.87 229.81L565.854 229.813L566.232 232ZM474.432 232L474.806 229.812L474.795 229.81L474.784 229.808L474.432 232ZM443.607 224.125L442.783 226.186L442.796 226.191L443.607 224.125ZM421.782 211.975L420.437 213.741L420.437 213.741L421.782 211.975ZM406.932 197.575L405.111 198.844L405.133 198.876L405.157 198.907L406.932 197.575ZM398.382 181.6L396.293 182.35L396.305 182.383L396.318 182.415L398.382 181.6ZM394.107 165.85L391.906 166.134L391.91 166.169L391.916 166.203L394.107 165.85ZM394.107 129.85L391.916 129.497L391.91 129.531L391.906 129.566L394.107 129.85ZM398.382 114.325L396.318 113.51L396.308 113.534L396.299 113.558L398.382 114.325ZM406.932 98.575L405.157 97.2431L405.143 97.2611L405.13 97.2794L406.932 98.575ZM421.782 84.4L423.101 86.186L423.114 86.1759L423.128 86.1657L421.782 84.4ZM443.607 72.475L444.399 74.5488L444.409 74.545L444.419 74.5411L443.607 72.475ZM474.432 64.6L474.784 66.7917L474.795 66.79L474.806 66.7881L474.432 64.6ZM578.607 132.325L576.556 133.174L576.562 133.187L576.567 133.199L578.607 132.325ZM569.382 119.725L567.842 121.323L567.856 121.336L567.87 121.35L569.382 119.725ZM550.482 110.05L551.092 107.916L551.092 107.916L550.482 110.05ZM489.732 110.05L489.123 107.916L489.123 107.916L489.732 110.05ZM470.832 119.725L472.373 121.323L472.373 121.323L470.832 119.725ZM461.832 132.325L459.781 131.476L459.774 131.495L459.766 131.513L461.832 132.325ZM462.057 162.925L459.996 163.749L460.001 163.762L460.006 163.774L462.057 162.925ZM471.057 175.975L469.46 177.517L469.474 177.531L469.488 177.545L471.057 175.975ZM489.957 186.1L489.313 188.224L489.323 188.227L489.957 186.1ZM550.482 186.325L551.092 188.459L551.105 188.456L551.117 188.452L550.482 186.325ZM569.607 176.2L571.177 177.77L571.177 177.77L569.607 176.2ZM578.607 163.375L580.659 164.224L580.664 164.212L580.668 164.199L578.607 163.375ZM515.382 63.6698H525.507V59.2302H515.382V63.6698ZM525.507 63.6698C540.255 63.6698 553.626 64.7128 565.629 66.7874L566.385 62.4126C554.088 60.2872 540.459 59.2302 525.507 59.2302V63.6698ZM565.66 66.7924C577.856 68.726 587.959 71.3164 596.008 74.536L597.657 70.414C589.206 67.0335 578.759 64.374 566.355 62.4076L565.66 66.7924ZM596.053 74.5535C604.273 77.636 611.344 81.5075 617.292 86.1499L620.023 82.6501C613.671 77.6925 606.192 73.614 597.612 70.3965L596.053 74.5535ZM617.339 86.186C623.515 90.7445 628.294 95.3231 631.732 99.9069L635.283 97.2431C631.521 92.2269 626.4 87.3555 619.976 82.614L617.339 86.186ZM631.732 99.9069C635.201 104.532 637.948 109.592 639.974 115.092L644.14 113.558C641.967 107.658 639.014 102.218 635.283 97.2431L631.732 99.9069ZM639.993 115.14C642.195 120.718 643.56 125.712 644.131 130.134L648.534 129.566C647.905 124.688 646.42 119.332 644.122 113.51L639.993 115.14ZM644.141 130.203C644.871 134.727 645.238 139.484 645.238 144.475H649.677C649.677 139.266 649.294 134.273 648.524 129.497L644.141 130.203ZM645.238 144.475V151.225H649.677V144.475H645.238ZM645.238 151.225C645.238 156.216 644.871 160.973 644.141 165.497L648.524 166.203C649.294 161.427 649.677 156.434 649.677 151.225H645.238ZM644.131 165.566C643.56 169.993 642.192 175.067 639.986 180.803L644.129 182.397C646.423 176.433 647.905 171.007 648.534 166.134L644.131 165.566ZM639.974 180.833C637.946 186.339 635.193 191.483 631.712 196.269L635.303 198.881C639.022 193.767 641.969 188.261 644.14 182.367L639.974 180.833ZM631.705 196.279C628.418 200.852 623.718 205.5 617.537 210.209L620.228 213.741C626.647 208.85 631.697 203.898 635.31 198.871L631.705 196.279ZM617.537 210.209C611.415 214.874 604.319 218.83 596.233 222.064L597.882 226.186C606.296 222.82 613.75 218.676 620.228 213.741L617.537 210.209ZM596.233 222.064C588.184 225.284 578.081 227.874 565.885 229.808L566.58 234.192C578.984 232.226 589.431 229.566 597.882 226.186L596.233 222.064ZM565.854 229.813C553.853 231.887 540.407 232.93 525.507 232.93V237.37C540.608 237.37 554.312 236.313 566.61 234.187L565.854 229.813ZM525.507 232.93H515.382V237.37H525.507V232.93ZM515.382 232.93C500.483 232.93 486.961 231.887 474.806 229.812L474.059 234.188C486.504 236.313 500.281 237.37 515.382 237.37V232.93ZM474.784 229.808C462.739 227.875 452.628 225.284 444.419 222.059L442.796 226.191C451.387 229.566 461.826 232.225 474.081 234.192L474.784 229.808ZM444.432 222.064C436.346 218.83 429.25 214.874 423.128 210.209L420.437 213.741C426.915 218.676 434.369 222.82 442.783 226.186L444.432 222.064ZM423.128 210.209C416.942 205.496 412.153 200.837 408.708 196.243L405.157 198.907C408.911 203.913 414.023 208.854 420.437 213.741L423.128 210.209ZM408.754 196.306C405.404 191.499 402.635 186.327 400.447 180.785L396.318 182.415C398.63 188.273 401.561 193.751 405.111 198.844L408.754 196.306ZM400.472 180.85C398.404 175.091 397.021 169.977 396.299 165.497L391.916 166.203C392.693 171.023 394.161 176.409 396.293 182.35L400.472 180.85ZM396.309 165.566C395.722 161.018 395.427 156.238 395.427 151.225H390.988C390.988 156.412 391.293 161.382 391.906 166.134L396.309 165.566ZM395.427 151.225V144.475H390.988V151.225H395.427ZM395.427 144.475C395.427 139.462 395.722 134.682 396.309 130.134L391.906 129.566C391.293 134.318 390.988 139.288 390.988 144.475H395.427ZM396.299 130.203C397.021 125.728 398.401 120.695 400.465 115.092L396.299 113.558C394.163 119.355 392.694 124.672 391.916 129.497L396.299 130.203ZM400.447 115.14C402.632 109.604 405.396 104.516 408.735 99.8705L405.13 97.2794C401.569 102.234 398.632 107.646 396.318 113.51L400.447 115.14ZM408.708 99.9069C412.146 95.3231 416.925 90.7445 423.101 86.186L420.464 82.614C414.04 87.3555 408.919 92.2269 405.157 97.2431L408.708 99.9069ZM423.128 86.1657C429.241 81.5081 436.325 77.6317 444.399 74.5488L442.816 70.4012C434.39 73.6183 426.924 77.6919 420.437 82.6343L423.128 86.1657ZM444.419 74.5411C452.628 71.316 462.739 68.7249 474.784 66.7917L474.081 62.4082C461.826 64.3751 451.387 67.0339 442.796 70.4089L444.419 74.5411ZM474.806 66.7881C486.961 64.7129 500.483 63.6698 515.382 63.6698V59.2302C500.281 59.2302 486.504 60.2871 474.059 62.4119L474.806 66.7881ZM583.527 149.2V146.05H579.088V149.2H583.527ZM583.527 146.05C583.527 140.825 582.576 135.949 580.648 131.451L576.567 133.199C578.239 137.101 579.088 141.375 579.088 146.05H583.527ZM580.659 131.476C578.709 126.765 575.419 122.312 570.895 118.1L567.87 121.35C572.046 125.238 574.906 129.185 576.556 133.174L580.659 131.476ZM570.923 118.127C566.363 113.73 559.682 110.37 551.092 107.916L549.873 112.184C558.083 114.53 564.001 117.62 567.842 121.323L570.923 118.127ZM551.092 107.916C542.44 105.443 532.174 104.23 520.332 104.23V108.67C531.891 108.67 541.725 109.857 549.873 112.184L551.092 107.916ZM520.332 104.23C508.197 104.23 497.779 105.442 489.123 107.916L490.342 112.184C498.486 109.858 508.468 108.67 520.332 108.67V104.23ZM489.123 107.916C480.533 110.37 473.851 113.73 469.292 118.127L472.373 121.323C476.213 117.62 482.132 114.53 490.342 112.184L489.123 107.916ZM469.292 118.127C464.923 122.34 461.722 126.785 459.781 131.476L463.884 133.174C465.542 129.165 468.342 125.21 472.373 121.323L469.292 118.127ZM459.766 131.513C458.005 135.996 457.138 140.849 457.138 146.05H461.577C461.577 141.351 462.359 137.054 463.898 133.137L459.766 131.513ZM457.138 146.05V148.75H461.577V146.05H457.138ZM457.138 148.75C457.138 153.976 458.089 158.982 459.996 163.749L464.118 162.101C462.426 157.868 461.577 153.424 461.577 148.75H457.138ZM460.006 163.774C461.938 168.443 465.119 173.021 469.46 177.517L472.654 174.433C468.595 170.229 465.776 166.107 464.109 162.076L460.006 163.774ZM469.488 177.545C474.04 182.097 480.718 185.615 489.313 188.224L490.602 183.976C482.397 181.485 476.475 178.253 472.627 174.405L469.488 177.545ZM489.323 188.227C498.131 190.854 508.48 192.145 520.332 192.145V187.705C508.785 187.705 498.883 186.446 490.592 183.973L489.323 188.227ZM520.332 192.145C532.174 192.145 542.44 190.932 551.092 188.459L549.873 184.191C541.725 186.518 531.891 187.705 520.332 187.705V192.145ZM551.117 188.452C559.857 185.846 566.618 182.329 571.177 177.77L568.038 174.63C564.197 178.471 558.208 181.704 549.848 184.198L551.117 188.452ZM571.177 177.77C575.531 173.415 578.722 168.904 580.659 164.224L576.556 162.526C574.893 166.546 572.083 170.585 568.038 174.63L571.177 177.77ZM580.668 164.199C582.576 159.432 583.527 154.426 583.527 149.2H579.088C579.088 153.874 578.239 158.318 576.546 162.551L580.668 164.199ZM663.383 64.6V62.3802H661.163V64.6H663.383ZM734.933 64.6L736.486 63.0139L735.839 62.3802H734.933V64.6ZM832.133 159.775L830.58 161.361L834.353 165.055V159.775H832.133ZM832.133 64.6V62.3802H829.913V64.6H832.133ZM895.583 64.6H897.803V62.3802H895.583V64.6ZM895.583 232V234.22H897.803V232H895.583ZM831.683 232L830.139 233.595L830.785 234.22H831.683V232ZM726.833 130.525L728.377 128.93L724.613 125.287V130.525H726.833ZM726.833 232V234.22H729.053V232H726.833ZM663.383 232H661.163V234.22H663.383V232ZM663.383 66.8198H734.933V62.3802H663.383V66.8198ZM733.38 66.1861L830.58 161.361L833.686 158.189L736.486 63.0139L733.38 66.1861ZM834.353 159.775V64.6H829.913V159.775H834.353ZM832.133 66.8198H895.583V62.3802H832.133V66.8198ZM893.363 64.6V232H897.803V64.6H893.363ZM895.583 229.78H831.683V234.22H895.583V229.78ZM833.227 230.405L728.377 128.93L725.289 132.12L830.139 233.595L833.227 230.405ZM724.613 130.525V232H729.053V130.525H724.613ZM726.833 229.78H663.383V234.22H726.833V229.78ZM665.603 232V64.6H661.163V232H665.603ZM984.217 232H981.998V234.22H984.217V232ZM984.217 110.275H986.437V108.055H984.217V110.275ZM911.992 110.275H909.773V112.495H911.992V110.275ZM911.992 64.6V62.3802H909.773V64.6H911.992ZM1120.34 64.6H1122.56V62.3802H1120.34V64.6ZM1120.34 110.275V112.495H1122.56V110.275H1120.34ZM1048.12 110.275V108.055H1045.9V110.275H1048.12ZM1048.12 232V234.22H1050.34V232H1048.12ZM986.437 232V110.275H981.998V232H986.437ZM984.217 108.055H911.992V112.495H984.217V108.055ZM914.212 110.275V64.6H909.773V110.275H914.212ZM911.992 66.8198H1120.34V62.3802H911.992V66.8198ZM1118.12 64.6V110.275H1122.56V64.6H1118.12ZM1120.34 108.055H1048.12V112.495H1120.34V108.055ZM1045.9 110.275V232H1050.34V110.275H1045.9ZM1048.12 229.78H984.217V234.22H1048.12V229.78ZM1241.21 163.15V165.37H1244.77L1243.21 162.176L1241.21 163.15ZM1213.09 105.55L1215.08 104.576L1213.06 100.441L1211.08 104.595L1213.09 105.55ZM1185.64 163.15L1183.63 162.195L1182.12 165.37H1185.64V163.15ZM1274.74 232L1272.74 232.966L1273.34 234.22H1274.74V232ZM1261.69 205L1263.68 204.034L1263.08 202.78H1261.69V205ZM1166.06 205V202.78H1164.66L1164.06 204.048L1166.06 205ZM1153.24 232V234.22H1154.64L1155.24 232.952L1153.24 232ZM1088.44 232L1086.45 231.016L1084.86 234.22H1088.44V232ZM1171.24 64.6V62.3802H1169.86L1169.25 63.6158L1171.24 64.6ZM1257.19 64.6L1259.15 63.5715L1258.53 62.3802H1257.19V64.6ZM1344.71 232V234.22H1348.38L1346.68 230.971L1344.71 232ZM1243.21 162.176L1215.08 104.576L1211.09 106.524L1239.22 164.124L1243.21 162.176ZM1211.08 104.595L1183.63 162.195L1187.64 164.105L1215.09 106.505L1211.08 104.595ZM1185.64 165.37H1241.21V160.93H1185.64V165.37ZM1276.73 231.034L1263.68 204.034L1259.69 205.966L1272.74 232.966L1276.73 231.034ZM1261.69 202.78H1166.06V207.22H1261.69V202.78ZM1164.06 204.048L1151.23 231.048L1155.24 232.952L1168.07 205.952L1164.06 204.048ZM1153.24 229.78H1088.44V234.22H1153.24V229.78ZM1090.43 232.984L1173.23 65.5842L1169.25 63.6158L1086.45 231.016L1090.43 232.984ZM1171.24 66.8198H1257.19V62.3802H1171.24V66.8198ZM1255.22 65.6285L1342.74 233.029L1346.68 230.971L1259.15 63.5715L1255.22 65.6285ZM1344.71 229.78H1274.74V234.22H1344.71V229.78ZM1384.34 232H1382.12V234.22H1384.34V232ZM1384.34 110.275H1386.56V108.055H1384.34V110.275ZM1312.11 110.275H1309.89V112.495H1312.11V110.275ZM1312.11 64.6V62.3802H1309.89V64.6H1312.11ZM1520.46 64.6H1522.68V62.3802H1520.46V64.6ZM1520.46 110.275V112.495H1522.68V110.275H1520.46ZM1448.24 110.275V108.055H1446.02V110.275H1448.24ZM1448.24 232V234.22H1450.46V232H1448.24ZM1386.56 232V110.275H1382.12V232H1386.56ZM1384.34 108.055H1312.11V112.495H1384.34V108.055ZM1314.33 110.275V64.6H1309.89V110.275H1314.33ZM1312.11 66.8198H1520.46V62.3802H1312.11V66.8198ZM1518.24 64.6V110.275H1522.68V64.6H1518.24ZM1520.46 108.055H1448.24V112.495H1520.46V108.055ZM1446.02 110.275V232H1450.46V110.275H1446.02ZM1448.24 229.78H1384.34V234.22H1448.24V229.78ZM1698.26 64.6L1697.88 66.7874L1697.9 66.79L1697.91 66.7924L1698.26 64.6ZM1729.08 72.475L1728.26 74.536L1728.28 74.545L1728.3 74.5535L1729.08 72.475ZM1750.91 84.4L1749.54 86.1499L1749.57 86.1683L1749.59 86.186L1750.91 84.4ZM1765.76 98.575L1767.53 97.2431L1767.53 97.2431L1765.76 98.575ZM1774.31 114.325L1772.23 115.092L1772.23 115.116L1772.24 115.14L1774.31 114.325ZM1778.58 129.85L1776.38 130.134L1776.39 130.169L1776.39 130.203L1778.58 129.85ZM1778.58 165.85L1776.39 165.497L1776.39 165.531L1776.38 165.566L1778.58 165.85ZM1774.31 181.6L1772.24 180.803L1772.23 180.818L1772.23 180.833L1774.31 181.6ZM1765.76 197.575L1763.96 196.269L1763.96 196.279L1765.76 197.575ZM1751.13 211.975L1749.79 210.209L1749.79 210.209L1751.13 211.975ZM1729.31 224.125L1730.13 226.186L1730.13 226.186L1729.31 224.125ZM1698.48 232L1698.14 229.808L1698.12 229.81L1698.11 229.813L1698.48 232ZM1606.68 232L1607.06 229.812L1607.05 229.81L1607.04 229.808L1606.68 232ZM1575.86 224.125L1575.03 226.186L1575.05 226.191L1575.86 224.125ZM1554.03 211.975L1552.69 213.741L1552.69 213.741L1554.03 211.975ZM1539.18 197.575L1537.36 198.844L1537.38 198.876L1537.41 198.907L1539.18 197.575ZM1530.63 181.6L1528.54 182.35L1528.56 182.383L1528.57 182.415L1530.63 181.6ZM1526.36 165.85L1524.16 166.134L1524.16 166.169L1524.17 166.203L1526.36 165.85ZM1526.36 129.85L1524.17 129.497L1524.16 129.531L1524.16 129.566L1526.36 129.85ZM1530.63 114.325L1528.57 113.51L1528.56 113.534L1528.55 113.558L1530.63 114.325ZM1539.18 98.575L1537.41 97.2431L1537.39 97.2611L1537.38 97.2794L1539.18 98.575ZM1554.03 84.4L1555.35 86.186L1555.37 86.1759L1555.38 86.1657L1554.03 84.4ZM1575.86 72.475L1576.65 74.5488L1576.66 74.545L1576.67 74.5411L1575.86 72.475ZM1606.68 64.6L1607.04 66.7917L1607.05 66.79L1607.06 66.7881L1606.68 64.6ZM1710.86 132.325L1708.81 133.174L1708.81 133.187L1708.82 133.199L1710.86 132.325ZM1701.63 119.725L1700.09 121.323L1700.11 121.336L1700.12 121.35L1701.63 119.725ZM1682.73 110.05L1683.34 107.916L1683.34 107.916L1682.73 110.05ZM1621.98 110.05L1621.37 107.916L1621.37 107.916L1621.98 110.05ZM1603.08 119.725L1604.62 121.323L1604.62 121.323L1603.08 119.725ZM1594.08 132.325L1592.03 131.476L1592.02 131.495L1592.02 131.513L1594.08 132.325ZM1594.31 162.925L1592.25 163.749L1592.25 163.762L1592.26 163.774L1594.31 162.925ZM1603.31 175.975L1601.71 177.517L1601.73 177.531L1601.74 177.545L1603.31 175.975ZM1622.21 186.1L1621.56 188.224L1621.57 188.227L1622.21 186.1ZM1682.73 186.325L1683.34 188.459L1683.36 188.456L1683.37 188.452L1682.73 186.325ZM1701.86 176.2L1703.43 177.77L1703.43 177.77L1701.86 176.2ZM1710.86 163.375L1712.91 164.224L1712.91 164.212L1712.92 164.199L1710.86 163.375ZM1647.63 63.6698H1657.76V59.2302H1647.63V63.6698ZM1657.76 63.6698C1672.51 63.6698 1685.88 64.7128 1697.88 66.7874L1698.64 62.4126C1686.34 60.2872 1672.71 59.2302 1657.76 59.2302V63.6698ZM1697.91 66.7924C1710.11 68.726 1720.21 71.3164 1728.26 74.536L1729.91 70.414C1721.46 67.0335 1711.01 64.374 1698.61 62.4076L1697.91 66.7924ZM1728.3 74.5535C1736.52 77.636 1743.59 81.5075 1749.54 86.1499L1752.27 82.6501C1745.92 77.6925 1738.44 73.614 1729.86 70.3965L1728.3 74.5535ZM1749.59 86.186C1755.77 90.7445 1760.54 95.3231 1763.98 99.9069L1767.53 97.2431C1763.77 92.2269 1758.65 87.3555 1752.23 82.614L1749.59 86.186ZM1763.98 99.9069C1767.45 104.532 1770.2 109.592 1772.23 115.092L1776.39 113.558C1774.22 107.658 1771.27 102.218 1767.53 97.2431L1763.98 99.9069ZM1772.24 115.14C1774.45 120.718 1775.81 125.712 1776.38 130.134L1780.78 129.566C1780.16 124.688 1778.67 119.332 1776.37 113.51L1772.24 115.14ZM1776.39 130.203C1777.12 134.727 1777.49 139.484 1777.49 144.475H1781.93C1781.93 139.266 1781.55 134.273 1780.77 129.497L1776.39 130.203ZM1777.49 144.475V151.225H1781.93V144.475H1777.49ZM1777.49 151.225C1777.49 156.216 1777.12 160.973 1776.39 165.497L1780.77 166.203C1781.55 161.427 1781.93 156.434 1781.93 151.225H1777.49ZM1776.38 165.566C1775.81 169.993 1774.44 175.067 1772.24 180.803L1776.38 182.397C1778.67 176.433 1780.16 171.007 1780.78 166.134L1776.38 165.566ZM1772.23 180.833C1770.2 186.339 1767.44 191.483 1763.96 196.269L1767.55 198.881C1771.27 193.767 1774.22 188.261 1776.39 182.367L1772.23 180.833ZM1763.96 196.279C1760.67 200.852 1755.97 205.5 1749.79 210.209L1752.48 213.741C1758.9 208.85 1763.95 203.898 1767.56 198.871L1763.96 196.279ZM1749.79 210.209C1743.67 214.874 1736.57 218.83 1728.48 222.064L1730.13 226.186C1738.55 222.82 1746 218.676 1752.48 213.741L1749.79 210.209ZM1728.48 222.064C1720.44 225.284 1710.33 227.874 1698.14 229.808L1698.83 234.192C1711.23 232.226 1721.68 229.566 1730.13 226.186L1728.48 222.064ZM1698.11 229.813C1686.1 231.887 1672.66 232.93 1657.76 232.93V237.37C1672.86 237.37 1686.56 236.313 1698.86 234.187L1698.11 229.813ZM1657.76 232.93H1647.63V237.37H1657.76V232.93ZM1647.63 232.93C1632.73 232.93 1619.21 231.887 1607.06 229.812L1606.31 234.188C1618.76 236.313 1632.53 237.37 1647.63 237.37V232.93ZM1607.04 229.808C1594.99 227.875 1584.88 225.284 1576.67 222.059L1575.05 226.191C1583.64 229.566 1594.08 232.225 1606.33 234.192L1607.04 229.808ZM1576.68 222.064C1568.6 218.83 1561.5 214.874 1555.38 210.209L1552.69 213.741C1559.17 218.676 1566.62 222.82 1575.03 226.186L1576.68 222.064ZM1555.38 210.209C1549.19 205.496 1544.4 200.837 1540.96 196.243L1537.41 198.907C1541.16 203.913 1546.27 208.854 1552.69 213.741L1555.38 210.209ZM1541 196.306C1537.65 191.499 1534.89 186.327 1532.7 180.785L1528.57 182.415C1530.88 188.273 1533.81 193.751 1537.36 198.844L1541 196.306ZM1532.72 180.85C1530.66 175.091 1529.27 169.977 1528.55 165.497L1524.17 166.203C1524.94 171.023 1526.41 176.409 1528.54 182.35L1532.72 180.85ZM1528.56 165.566C1527.97 161.018 1527.68 156.238 1527.68 151.225H1523.24C1523.24 156.412 1523.54 161.382 1524.16 166.134L1528.56 165.566ZM1527.68 151.225V144.475H1523.24V151.225H1527.68ZM1527.68 144.475C1527.68 139.462 1527.97 134.682 1528.56 130.134L1524.16 129.566C1523.54 134.318 1523.24 139.288 1523.24 144.475H1527.68ZM1528.55 130.203C1529.27 125.728 1530.65 120.695 1532.72 115.092L1528.55 113.558C1526.41 119.355 1524.95 124.672 1524.17 129.497L1528.55 130.203ZM1532.7 115.14C1534.88 109.604 1537.65 104.516 1540.99 99.8705L1537.38 97.2794C1533.82 102.234 1530.88 107.646 1528.57 113.51L1532.7 115.14ZM1540.96 99.9069C1544.4 95.3231 1549.18 90.7445 1555.35 86.186L1552.72 82.614C1546.29 87.3555 1541.17 92.2269 1537.41 97.2431L1540.96 99.9069ZM1555.38 86.1657C1561.49 81.5081 1568.58 77.6317 1576.65 74.5488L1575.07 70.4012C1566.64 73.6183 1559.18 77.6919 1552.69 82.6343L1555.38 86.1657ZM1576.67 74.5411C1584.88 71.316 1594.99 68.7249 1607.04 66.7917L1606.33 62.4082C1594.08 64.3751 1583.64 67.0339 1575.05 70.4089L1576.67 74.5411ZM1607.06 66.7881C1619.21 64.7129 1632.73 63.6698 1647.63 63.6698V59.2302C1632.53 59.2302 1618.76 60.2871 1606.31 62.4119L1607.06 66.7881ZM1715.78 149.2V146.05H1711.34V149.2H1715.78ZM1715.78 146.05C1715.78 140.825 1714.83 135.949 1712.9 131.451L1708.82 133.199C1710.49 137.101 1711.34 141.375 1711.34 146.05H1715.78ZM1712.91 131.476C1710.96 126.765 1707.67 122.312 1703.15 118.1L1700.12 121.35C1704.3 125.238 1707.16 129.185 1708.81 133.174L1712.91 131.476ZM1703.17 118.127C1698.61 113.73 1691.93 110.37 1683.34 107.916L1682.12 112.184C1690.33 114.53 1696.25 117.62 1700.09 121.323L1703.17 118.127ZM1683.34 107.916C1674.69 105.443 1664.42 104.23 1652.58 104.23V108.67C1664.14 108.67 1673.98 109.857 1682.12 112.184L1683.34 107.916ZM1652.58 104.23C1640.45 104.23 1630.03 105.442 1621.37 107.916L1622.59 112.184C1630.74 109.858 1640.72 108.67 1652.58 108.67V104.23ZM1621.37 107.916C1612.78 110.37 1606.1 113.73 1601.54 118.127L1604.62 121.323C1608.46 117.62 1614.38 114.53 1622.59 112.184L1621.37 107.916ZM1601.54 118.127C1597.17 122.34 1593.97 126.785 1592.03 131.476L1596.13 133.174C1597.79 129.165 1600.59 125.21 1604.62 121.323L1601.54 118.127ZM1592.02 131.513C1590.26 135.996 1589.39 140.849 1589.39 146.05H1593.83C1593.83 141.351 1594.61 137.054 1596.15 133.137L1592.02 131.513ZM1589.39 146.05V148.75H1593.83V146.05H1589.39ZM1589.39 148.75C1589.39 153.976 1590.34 158.982 1592.25 163.749L1596.37 162.101C1594.68 157.868 1593.83 153.424 1593.83 148.75H1589.39ZM1592.26 163.774C1594.19 168.443 1597.37 173.021 1601.71 177.517L1604.91 174.433C1600.85 170.229 1598.03 166.107 1596.36 162.076L1592.26 163.774ZM1601.74 177.545C1606.29 182.097 1612.97 185.615 1621.56 188.224L1622.85 183.976C1614.65 181.485 1608.73 178.253 1604.88 174.405L1601.74 177.545ZM1621.57 188.227C1630.38 190.854 1640.73 192.145 1652.58 192.145V187.705C1641.04 187.705 1631.13 186.446 1622.84 183.973L1621.57 188.227ZM1652.58 192.145C1664.42 192.145 1674.69 190.932 1683.34 188.459L1682.12 184.191C1673.98 186.518 1664.14 187.705 1652.58 187.705V192.145ZM1683.37 188.452C1692.11 185.846 1698.87 182.329 1703.43 177.77L1700.29 174.63C1696.45 178.471 1690.46 181.704 1682.1 184.198L1683.37 188.452ZM1703.43 177.77C1707.78 173.415 1710.97 168.904 1712.91 164.224L1708.81 162.526C1707.14 166.546 1704.33 170.585 1700.29 174.63L1703.43 177.77ZM1712.92 164.199C1714.83 159.432 1715.78 154.426 1715.78 149.2H1711.34C1711.34 153.874 1710.49 158.318 1708.8 162.551L1712.92 164.199Z" fill="#DC0032"/>
</svg>
