<svg width="1920" height="1080" viewBox="0 0 1920 1080" fill="none" xmlns="http://www.w3.org/2000/svg">
<path d="M818.563 230.975V244.155C818.563 645.17 818.563 1046.18 818.751 1447.2C818.751 1456.61 818.925 1458.87 818.925 1458.87C756.796 1458.31 682.82 1458.5 620.691 1458.87C612.595 1458.87 609.583 1458.8 609.583 1458.8C609.772 946.14 609.772 412.768 609.583 -99.891C609.583 -99.891 612.219 -100.01 620.126 -99.8166C683.197 -99.4395 755.761 -99.4395 818.831 -99.8166C818.831 -99.8166 820.446 -97.5573 824.587 -91.9086C914.204 30.8429 1004.01 153.407 1094 275.971C1095.32 277.665 1096.64 279.359 1098.52 281.619C1100.97 277.665 1100.03 273.9 1100.03 270.511V-99.3452C1100.03 -99.3452 1098.52 -99.4394 1111.7 -99.4394C1173.83 -99.4394 1247.01 -99.2559 1309.14 -99.6281C1309.14 -99.6281 1308.63 -96.9922 1308.63 -88.7087C1308.44 423.762 1308.44 936.045 1308.63 1448.52C1308.63 1457.37 1308.39 1459.25 1308.39 1459.25C1245.88 1458.87 1172.89 1458.87 1110.38 1459.25C1101.34 1459.25 1099.84 1459.1 1099.84 1459.1C1100.03 1180.46 1100.03 890.861 1100.21 612.221C1100.21 602.431 1097.58 595.089 1091.74 587.369C1001.75 470.077 911.945 352.408 822.14 234.928C821.387 233.798 820.634 233.233 818.563 230.974L818.563 230.975Z" stroke="#DC0032"/>
<path d="M1544.41 767.732C1544.41 541.431 1544.41 303.591 1544.6 77.29C1544.6 77.29 1541.59 77.1609 1532.36 77.1609C1469.86 77.538 1407.54 77.3494 1345.03 77.538C1338.26 77.538 1336 77.3941 1336 77.3941C1336.37 24.1141 1336.37 -37.8713 1336 -91.1514C1336 -98.1175 1335.91 -100 1335.91 -100C1563.15 -99.8164 1807.76 -99.6726 2035 -99.8611C2035 -99.8611 2035.04 -99.0587 2032.41 -91.9046C2011.7 -37.6827 1991.18 16.7273 1971.03 71.1372C1968.77 76.9739 1968.45 77.3505 1968.45 77.3505C1902.93 77.162 1818.52 77.5391 1753 77.162C1753 77.162 1753.02 79.2326 1753.02 87.7051C1753.21 540.495 1753.21 993.096 1753.21 1445.89C1753.21 1459.63 1753.24 1458.31 1753.24 1458.31C1691.67 1458.31 1617.66 1458.12 1556.1 1458.69C1545.74 1458.69 1544.23 1458.41 1544.23 1458.41C1544.42 1232.29 1544.42 994.035 1544.42 767.734L1544.41 767.732Z" stroke="#DC0032"/>
<path d="M-116 -99.8165H-105.08C120.467 -99.8165 357.26 -99.8164 582.808 -100C582.808 -100 582.861 -97.3643 582.67 -88.7037C582.294 -36.3649 582.294 16.1624 582.67 68.5017C582.67 76.0325 582.577 77.5384 582.577 77.5384C520.071 77.1613 448.622 77.5385 386.116 77.1614C376.703 77.1614 374.444 77.5783 374.444 77.5783C374.632 479.158 374.632 892.181 374.632 1293.76C374.632 1344.97 374.5 1407.51 374.82 1458.72C374.82 1458.72 373.126 1458.87 363.712 1458.87C301.583 1458.5 239.454 1458.5 177.325 1458.87C168.476 1458.87 166.029 1458.37 166.029 1458.37C166.217 1005.96 166.217 530.311 166.217 77.8978C166.217 77.8978 166.217 77.7191 153.226 77.7191C88.6496 77.7191 14.9493 77.5306 -49.6273 77.9028C-49.6273 77.9028 -50.1055 76.0206 -52.553 69.6187C-72.3213 16.3386 -92.4662 -36.7539 -112.423 -90.034C-113.741 -93.0459 -114.682 -96.0587 -116 -99.8243L-116 -99.8165Z" stroke="#DC0032"/>
</svg>
