<svg width="1920" height="834" viewBox="0 0 1920 834" fill="none" xmlns="http://www.w3.org/2000/svg">
<path d="M414.345 816H412.125V818.22H414.345V816ZM414.345 665.886H416.565V663.666H414.345V665.886ZM325.275 665.886H323.056V668.106H325.275V665.886ZM325.275 609.558V607.339H323.056V609.558H325.275ZM582.217 609.558H584.437V607.339H582.217V609.558ZM582.217 665.886V668.106H584.437V665.886H582.217ZM493.148 665.886V663.666H490.928V665.886H493.148ZM493.148 816V818.22H495.368V816H493.148ZM416.565 816V665.886H412.125V816H416.565ZM414.345 663.666H325.275V668.106H414.345V663.666ZM327.495 665.886V609.558H323.056V665.886H327.495ZM325.275 611.778H582.217V607.339H325.275V611.778ZM579.998 609.558V665.886H584.437V609.558H579.998ZM582.217 663.666H493.148V668.106H582.217V663.666ZM490.928 665.886V816H495.368V665.886H490.928ZM493.148 813.78H414.345V818.22H493.148V813.78ZM681.155 609.558H683.375V607.339H681.155V609.558ZM681.155 816V818.22H683.375V816H681.155ZM602.629 816H600.409V818.22H602.629V816ZM602.629 609.558V607.339H600.409V609.558H602.629ZM678.935 609.558V816H683.375V609.558H678.935ZM681.155 813.78H602.629V818.22H681.155V813.78ZM604.849 816V609.558H600.409V816H604.849ZM602.629 611.778H681.155V607.339H602.629V611.778ZM707.766 816H705.547V818.22H707.766V816ZM707.766 609.558V607.339H705.547V609.558H707.766ZM815.982 609.558L817.93 608.495L817.299 607.339H815.982V609.558ZM879.246 725.543L877.297 726.606L879.229 730.148L881.187 726.62L879.246 725.543ZM943.62 609.558V607.339H942.314L941.679 608.481L943.62 609.558ZM1047.4 609.558H1049.62V607.339H1047.4V609.558ZM1047.4 816V818.22H1049.62V816H1047.4ZM969.425 816H967.206V818.22H969.425V816ZM969.425 687.251H971.645V678.777L967.491 686.163L969.425 687.251ZM897.004 816V818.22H898.303L898.939 817.088L897.004 816ZM856.771 816L854.834 817.085L855.47 818.22H856.771V816ZM784.627 687.251L786.563 686.166L782.407 678.749V687.251H784.627ZM784.627 816V818.22H786.847V816H784.627ZM709.986 816V609.558H705.547V816H709.986ZM707.766 611.778H815.982V607.339H707.766V611.778ZM814.033 610.621L877.297 726.606L881.195 724.48L817.93 608.495L814.033 610.621ZM881.187 726.62L945.561 610.636L941.679 608.481L877.305 724.466L881.187 726.62ZM943.62 611.778H1047.4V607.339H943.62V611.778ZM1045.18 609.558V816H1049.62V609.558H1045.18ZM1047.4 813.78H969.425V818.22H1047.4V813.78ZM971.645 816V687.251H967.206V816H971.645ZM967.491 686.163L895.07 814.912L898.939 817.088L971.36 688.34L967.491 686.163ZM897.004 813.78H856.771V818.22H897.004V813.78ZM858.707 814.915L786.563 686.166L782.69 688.337L854.834 817.085L858.707 814.915ZM782.407 687.251V816H786.847V687.251H782.407ZM784.627 813.78H707.766V818.22H784.627V813.78ZM1074.12 609.558V607.339H1071.9V609.558H1074.12ZM1302.48 609.558H1304.7V607.339H1302.48V609.558ZM1302.48 660.059V662.279H1304.7V660.059H1302.48ZM1151.81 660.059V657.839H1149.59V660.059H1151.81ZM1151.81 685.864H1149.59V688.084H1151.81V685.864ZM1299.43 685.864H1301.65V683.644H1299.43V685.864ZM1299.43 736.087V738.307H1301.65V736.087H1299.43ZM1151.81 736.087V733.867H1149.59V736.087H1151.81ZM1151.81 764.39H1149.59V766.609H1151.81V764.39ZM1304.7 764.39H1306.92V762.17H1304.7V764.39ZM1304.7 816V818.22H1306.92V816H1304.7ZM1074.12 816H1071.9V818.22H1074.12V816ZM1074.12 611.778H1302.48V607.339H1074.12V611.778ZM1300.26 609.558V660.059H1304.7V609.558H1300.26ZM1302.48 657.839H1151.81V662.279H1302.48V657.839ZM1149.59 660.059V685.864H1154.03V660.059H1149.59ZM1151.81 688.084H1299.43V683.644H1151.81V688.084ZM1297.21 685.864V736.087H1301.65V685.864H1297.21ZM1299.43 733.867H1151.81V738.307H1299.43V733.867ZM1149.59 736.087V764.39H1154.03V736.087H1149.59ZM1151.81 766.609H1304.7V762.17H1151.81V766.609ZM1302.48 764.39V816H1306.92V764.39H1302.48ZM1304.7 813.78H1074.12V818.22H1304.7V813.78ZM1076.34 816V609.558H1071.9V816H1076.34ZM1318.05 743.856V741.637H1315.83V743.856H1318.05ZM1404.62 743.856L1406.83 743.688L1406.67 741.637H1404.62V743.856ZM1485.09 771.604L1485.37 773.805L1485.4 773.801L1485.43 773.797L1485.09 771.604ZM1500.62 767.164L1501.7 769.105L1501.74 769.082L1501.78 769.058L1500.62 767.164ZM1507.28 761.06L1505.37 759.941L1505.35 759.969L1505.33 759.997L1507.28 761.06ZM1506.17 744.134L1504.41 745.487L1504.47 745.563L1504.54 745.634L1506.17 744.134ZM1492.3 738.029L1491.75 740.18L1491.78 740.188L1491.81 740.195L1492.3 738.029ZM1460.67 734.7L1460.6 736.919L1460.61 736.919L1460.67 734.7ZM1422.38 733.59L1422.44 731.371L1422.44 731.371L1422.38 733.59ZM1324.15 649.515L1326.24 650.257L1326.25 650.247L1326.25 650.236L1324.15 649.515ZM1335.25 632.311L1333.65 630.769L1333.65 630.769L1335.25 632.311ZM1356.34 618.438L1357.21 620.48L1357.21 620.48L1356.34 618.438ZM1390.47 609.558L1390.81 611.751L1390.82 611.749L1390.84 611.747L1390.47 609.558ZM1589.97 673.378V675.598H1592.19V673.378H1589.97ZM1504.23 673.378L1502.03 673.629L1502.25 675.598H1504.23V673.378ZM1421.54 653.954L1422 656.127L1422.03 656.121L1422.05 656.114L1421.54 653.954ZM1408.5 659.226L1410.15 660.711L1410.19 660.673L1410.22 660.632L1408.5 659.226ZM1408.78 674.765L1407.14 676.258L1407.17 676.297L1407.21 676.335L1408.78 674.765ZM1422.1 680.315L1421.57 682.472L1421.6 682.478L1421.63 682.484L1422.1 680.315ZM1450.96 682.812L1451.01 680.593L1451 680.592L1450.99 680.592L1450.96 682.812ZM1488.14 683.644L1488.2 681.425L1488.19 681.425L1488.14 683.644ZM1571.93 700.015L1570.82 701.934L1570.83 701.938L1570.83 701.943L1571.93 700.015ZM1594.41 770.494L1596.53 771.138L1596.54 771.129L1596.54 771.12L1594.41 770.494ZM1583.31 789.362L1584.98 790.831L1584.99 790.819L1585 790.807L1583.31 789.362ZM1561.11 805.456L1562.06 807.465L1562.07 807.461L1562.07 807.457L1561.11 805.456ZM1523.93 816L1524.3 818.19L1524.31 818.188L1524.32 818.186L1523.93 816ZM1469.27 817.665H1444.02V822.104H1469.27V817.665ZM1444.02 817.665C1402.17 817.665 1371.15 811.568 1350.65 799.652C1330.35 787.843 1320.26 770.264 1320.26 746.631H1315.83C1315.83 771.834 1326.74 790.881 1348.42 803.49C1369.92 815.992 1401.89 822.104 1444.02 822.104V817.665ZM1320.26 746.631V743.856H1315.83V746.631H1320.26ZM1318.05 746.076H1404.62V741.637H1318.05V746.076ZM1402.4 744.025C1403.2 754.488 1408.3 762.427 1417.54 767.641C1426.63 772.771 1439.61 775.211 1456.23 775.211V770.772C1439.92 770.772 1427.84 768.356 1419.72 763.775C1411.75 759.277 1407.51 752.648 1406.83 743.688L1402.4 744.025ZM1456.23 775.211H1458.73V770.772H1456.23V775.211ZM1458.73 775.211C1469.32 775.211 1478.22 774.747 1485.37 773.805L1484.8 769.403C1477.9 770.311 1469.21 770.772 1458.73 770.772V775.211ZM1485.43 773.797C1492.53 772.675 1498.03 771.147 1501.7 769.105L1499.55 765.224C1496.56 766.881 1491.69 768.313 1484.74 769.411L1485.43 773.797ZM1501.78 769.058C1505.24 766.943 1507.85 764.659 1509.23 762.123L1505.33 759.997C1504.5 761.531 1502.66 763.316 1499.47 765.27L1501.78 769.058ZM1509.2 762.178C1510.71 759.592 1511.45 756.703 1511.45 753.568H1507.01C1507.01 755.982 1506.45 758.088 1505.37 759.941L1509.2 762.178ZM1511.45 753.568V753.291H1507.01V753.568H1511.45ZM1511.45 753.291C1511.45 749.017 1510.32 745.371 1507.81 742.634L1504.54 745.634C1506.1 747.336 1507.01 749.795 1507.01 753.291H1511.45ZM1507.93 742.78C1506.68 741.148 1504.66 739.852 1502.21 738.772C1499.72 737.676 1496.56 736.714 1492.79 735.864L1491.81 740.195C1495.43 741.01 1498.29 741.897 1500.42 742.836C1502.6 743.792 1503.82 744.715 1504.41 745.487L1507.93 742.78ZM1492.85 735.879C1485.39 733.967 1474.65 732.852 1460.73 732.481L1460.61 736.919C1474.43 737.287 1484.78 738.392 1491.75 740.18L1492.85 735.879ZM1460.73 732.481L1422.44 731.371L1422.31 735.809L1460.6 736.919L1460.73 732.481ZM1422.44 731.371C1388.83 730.45 1363.97 724.83 1347.58 714.772C1331.36 704.816 1323.32 690.456 1323.32 671.435H1318.88C1318.88 692.001 1327.72 707.793 1345.26 718.556C1362.63 729.215 1388.41 734.88 1422.31 735.809L1422.44 731.371ZM1323.32 671.435V668.938H1318.88V671.435H1323.32ZM1323.32 668.938C1323.32 661.931 1324.31 655.714 1326.24 650.257L1322.06 648.773C1319.92 654.785 1318.88 661.517 1318.88 668.938H1323.32ZM1326.25 650.236C1328.16 644.687 1331.65 639.223 1336.84 633.854L1333.65 630.769C1328.11 636.498 1324.21 642.503 1322.05 648.793L1326.25 650.236ZM1336.84 633.854C1341.96 628.56 1348.73 624.089 1357.21 620.48L1355.47 616.395C1346.56 620.186 1339.26 624.963 1333.65 630.769L1336.84 633.854ZM1357.21 620.48C1365.67 616.878 1376.85 613.955 1390.81 611.751L1390.12 607.366C1375.96 609.601 1364.39 612.598 1355.47 616.395L1357.21 620.48ZM1390.84 611.747C1404.93 609.368 1421.26 608.171 1439.86 608.171V603.731C1421.08 603.731 1404.49 604.939 1390.1 607.37L1390.84 611.747ZM1439.86 608.171H1464.55V603.731H1439.86V608.171ZM1464.55 608.171C1506.24 608.171 1537.16 613.601 1557.59 624.222C1567.77 629.516 1575.29 636.068 1580.26 643.828C1585.23 651.579 1587.75 660.661 1587.75 671.158H1592.19C1592.19 659.919 1589.48 649.983 1584 641.432C1578.52 632.891 1570.36 625.858 1559.64 620.283C1538.26 609.169 1506.48 603.731 1464.55 603.731V608.171ZM1587.75 671.158V673.378H1592.19V671.158H1587.75ZM1589.97 671.158H1504.23V675.598H1589.97V671.158ZM1506.44 673.126C1505.49 664.84 1500.24 658.788 1491.39 654.905C1482.65 651.068 1470.21 649.237 1454.29 649.237V653.677C1469.99 653.677 1481.7 655.499 1489.6 658.97C1497.4 662.393 1501.3 667.302 1502.03 673.629L1506.44 673.126ZM1454.29 649.237H1451.51V653.677H1454.29V649.237ZM1451.51 649.237C1438.5 649.237 1428.31 650.07 1421.03 651.794L1422.05 656.114C1428.83 654.509 1438.62 653.677 1451.51 653.677V649.237ZM1421.09 651.782C1417.5 652.537 1414.52 653.378 1412.18 654.324C1409.89 655.249 1407.97 656.369 1406.78 657.821L1410.22 660.632C1410.7 660.049 1411.78 659.273 1413.84 658.44C1415.85 657.629 1418.55 656.852 1422 656.127L1421.09 651.782ZM1406.85 657.742C1404.73 660.098 1403.78 663.175 1403.78 666.718H1408.22C1408.22 663.972 1408.94 662.055 1410.15 660.711L1406.85 657.742ZM1403.78 666.718V666.996H1408.22V666.718H1403.78ZM1403.78 666.996C1403.78 670.608 1404.86 673.756 1407.14 676.258L1410.42 673.272C1409 671.704 1408.22 669.673 1408.22 666.996H1403.78ZM1407.21 676.335C1408.52 677.65 1410.45 678.756 1412.78 679.728C1415.14 680.712 1418.09 681.623 1421.57 682.472L1422.62 678.158C1419.27 677.341 1416.57 676.495 1414.49 675.63C1412.38 674.751 1411.07 673.915 1410.35 673.195L1407.21 676.335ZM1421.63 682.484C1428.69 684.01 1438.48 684.846 1450.92 685.031L1450.99 680.592C1438.65 680.408 1429.2 679.579 1422.57 678.145L1421.63 682.484ZM1450.91 685.031L1488.09 685.864L1488.19 681.425L1451.01 680.593L1450.91 685.031ZM1488.07 685.863C1527.04 686.971 1554.49 692.425 1570.82 701.934L1573.05 698.097C1555.71 687.998 1527.3 682.537 1488.2 681.425L1488.07 685.863ZM1570.83 701.943C1586.91 711.13 1594.97 725.616 1594.97 745.799H1599.4C1599.4 724.175 1590.62 708.139 1573.04 698.088L1570.83 701.943ZM1594.97 745.799V749.683H1599.4V745.799H1594.97ZM1594.97 749.683C1594.97 757.088 1594.06 763.811 1592.28 769.868L1596.54 771.12C1598.46 764.599 1599.4 757.447 1599.4 749.683H1594.97ZM1592.29 769.85C1590.55 775.579 1587.04 781.602 1581.63 787.918L1585 790.807C1590.68 784.174 1594.57 777.618 1596.53 771.138L1592.29 769.85ZM1581.65 787.894C1576.33 793.917 1569.19 799.116 1560.15 803.455L1562.07 807.457C1571.53 802.917 1579.19 797.387 1584.98 790.831L1581.65 787.894ZM1560.17 803.446C1551.36 807.584 1539.18 811.056 1523.55 813.814L1524.32 818.186C1540.13 815.395 1552.74 811.837 1562.06 807.465L1560.17 803.446ZM1523.57 813.81C1508.18 816.375 1490.09 817.665 1469.27 817.665V822.104C1490.26 822.104 1508.61 820.805 1524.3 818.19L1523.57 813.81Z" fill="#DC0032"/>
<path d="M414.106 286H411.886V288.22H414.106V286ZM414.106 135.886H416.326V133.666H414.106V135.886ZM325.036 135.886H322.817V138.106H325.036V135.886ZM325.036 79.5584V77.3386H322.817V79.5584H325.036ZM581.978 79.5584H584.198V77.3386H581.978V79.5584ZM581.978 135.886V138.106H584.198V135.886H581.978ZM492.909 135.886V133.666H490.689V135.886H492.909ZM492.909 286V288.22H495.129V286H492.909ZM416.326 286V135.886H411.886V286H416.326ZM414.106 133.666H325.036V138.106H414.106V133.666ZM327.256 135.886V79.5584H322.817V135.886H327.256ZM325.036 81.7782H581.978V77.3386H325.036V81.7782ZM579.759 79.5584V135.886H584.198V79.5584H579.759ZM581.978 133.666H492.909V138.106H581.978V133.666ZM490.689 135.886V286H495.129V135.886H490.689ZM492.909 283.78H414.106V288.22H492.909V283.78ZM680.916 79.5584H683.135V77.3386H680.916V79.5584ZM680.916 286V288.22H683.135V286H680.916ZM602.39 286H600.17V288.22H602.39V286ZM602.39 79.5584V77.3386H600.17V79.5584H602.39ZM678.696 79.5584V286H683.135V79.5584H678.696ZM680.916 283.78H602.39V288.22H680.916V283.78ZM604.61 286V79.5584H600.17V286H604.61ZM602.39 81.7782H680.916V77.3386H602.39V81.7782ZM707.527 286H705.307V288.22H707.527V286ZM707.527 79.5584V77.3386H705.307V79.5584H707.527ZM815.743 79.5584L817.691 78.4955L817.06 77.3386H815.743V79.5584ZM879.007 195.543L877.058 196.606L878.99 200.148L880.948 196.62L879.007 195.543ZM943.381 79.5584V77.3386H942.075L941.44 78.4812L943.381 79.5584ZM1047.16 79.5584H1049.38V77.3386H1047.16V79.5584ZM1047.16 286V288.22H1049.38V286H1047.16ZM969.186 286H966.967V288.22H969.186V286ZM969.186 157.251H971.406V148.777L967.252 156.163L969.186 157.251ZM896.765 286V288.22H898.064L898.7 287.088L896.765 286ZM856.532 286L854.595 287.085L855.231 288.22H856.532V286ZM784.388 157.251L786.324 156.166L782.168 148.749V157.251H784.388ZM784.388 286V288.22H786.608V286H784.388ZM709.747 286V79.5584H705.307V286H709.747ZM707.527 81.7782H815.743V77.3386H707.527V81.7782ZM813.794 80.6214L877.058 196.606L880.956 194.48L817.691 78.4955L813.794 80.6214ZM880.948 196.62L945.322 80.6357L941.44 78.4812L877.066 194.466L880.948 196.62ZM943.381 81.7782H1047.16V77.3386H943.381V81.7782ZM1044.94 79.5584V286H1049.38V79.5584H1044.94ZM1047.16 283.78H969.186V288.22H1047.16V283.78ZM971.406 286V157.251H966.967V286H971.406ZM967.252 156.163L894.831 284.912L898.7 287.088L971.121 158.34L967.252 156.163ZM896.765 283.78H856.532V288.22H896.765V283.78ZM858.468 284.915L786.324 156.166L782.451 158.337L854.595 287.085L858.468 284.915ZM782.168 157.251V286H786.608V157.251H782.168ZM784.388 283.78H707.527V288.22H784.388V283.78ZM1073.88 79.5584V77.3386H1071.66V79.5584H1073.88ZM1302.24 79.5584H1304.46V77.3386H1302.24V79.5584ZM1302.24 130.059V132.279H1304.46V130.059H1302.24ZM1151.57 130.059V127.839H1149.35V130.059H1151.57ZM1151.57 155.864H1149.35V158.084H1151.57V155.864ZM1299.19 155.864H1301.41V153.644H1299.19V155.864ZM1299.19 206.087V208.307H1301.41V206.087H1299.19ZM1151.57 206.087V203.867H1149.35V206.087H1151.57ZM1151.57 234.39H1149.35V236.609H1151.57V234.39ZM1304.46 234.39H1306.68V232.17H1304.46V234.39ZM1304.46 286V288.22H1306.68V286H1304.46ZM1073.88 286H1071.66V288.22H1073.88V286ZM1073.88 81.7782H1302.24V77.3386H1073.88V81.7782ZM1300.02 79.5584V130.059H1304.46V79.5584H1300.02ZM1302.24 127.839H1151.57V132.279H1302.24V127.839ZM1149.35 130.059V155.864H1153.79V130.059H1149.35ZM1151.57 158.084H1299.19V153.644H1151.57V158.084ZM1296.97 155.864V206.087H1301.41V155.864H1296.97ZM1299.19 203.867H1151.57V208.307H1299.19V203.867ZM1149.35 206.087V234.39H1153.79V206.087H1149.35ZM1151.57 236.609H1304.46V232.17H1151.57V236.609ZM1302.24 234.39V286H1306.68V234.39H1302.24ZM1304.46 283.78H1073.88V288.22H1304.46V283.78ZM1076.1 286V79.5584H1071.66V286H1076.1ZM1317.81 213.856V211.637H1315.59V213.856H1317.81ZM1404.38 213.856L1406.59 213.688L1406.44 211.637H1404.38V213.856ZM1484.85 241.604L1485.14 243.805L1485.16 243.801L1485.19 243.797L1484.85 241.604ZM1500.38 237.164L1501.46 239.105L1501.5 239.082L1501.54 239.058L1500.38 237.164ZM1507.04 231.06L1505.13 229.941L1505.11 229.969L1505.1 229.997L1507.04 231.06ZM1505.93 214.134L1504.17 215.487L1504.23 215.563L1504.3 215.634L1505.93 214.134ZM1492.06 208.029L1491.51 210.18L1491.54 210.188L1491.57 210.195L1492.06 208.029ZM1460.43 204.7L1460.36 206.919L1460.37 206.919L1460.43 204.7ZM1422.14 203.59L1422.2 201.371L1422.2 201.371L1422.14 203.59ZM1323.91 119.515L1326 120.257L1326.01 120.247L1326.01 120.236L1323.91 119.515ZM1335.01 102.311L1333.41 100.769L1335.01 102.311ZM1356.1 88.4376L1356.97 90.4802L1356.1 88.4376ZM1390.23 79.5584L1390.57 81.751L1390.58 81.7492L1390.6 81.7472L1390.23 79.5584ZM1589.73 143.378V145.598H1591.95V143.378H1589.73ZM1503.99 143.378L1501.79 143.629L1502.01 145.598H1503.99V143.378ZM1421.3 123.954L1421.76 126.127L1421.79 126.121L1421.82 126.114L1421.3 123.954ZM1408.26 129.226L1409.91 130.711L1409.95 130.673L1409.98 130.632L1408.26 129.226ZM1408.54 144.765L1406.9 146.258L1406.93 146.297L1406.97 146.335L1408.54 144.765ZM1421.86 150.315L1421.33 152.472L1421.36 152.478L1421.39 152.484L1421.86 150.315ZM1450.72 152.812L1450.77 150.593L1450.76 150.592L1450.75 150.592L1450.72 152.812ZM1487.9 153.644L1487.96 151.425L1487.95 151.425L1487.9 153.644ZM1571.7 170.015L1570.58 171.934L1570.59 171.938L1570.59 171.943L1571.7 170.015ZM1594.17 240.494L1596.3 241.138L1596.3 241.129L1596.3 241.12L1594.17 240.494ZM1583.07 259.362L1584.74 260.831L1584.75 260.819L1584.76 260.807L1583.07 259.362ZM1560.87 275.456L1561.82 277.465L1561.83 277.461L1561.83 277.457L1560.87 275.456ZM1523.69 286L1524.06 288.19L1524.07 288.188L1524.08 288.186L1523.69 286ZM1469.03 287.665H1443.78V292.104H1469.03V287.665ZM1443.78 287.665C1401.93 287.665 1370.91 281.568 1350.42 269.652C1330.11 257.844 1320.03 240.264 1320.03 216.631H1315.59C1315.59 241.834 1326.5 260.881 1348.18 273.49C1369.68 285.992 1401.65 292.104 1443.78 292.104V287.665ZM1320.03 216.631V213.856H1315.59V216.631H1320.03ZM1317.81 216.076H1404.38V211.637H1317.81V216.076ZM1402.16 214.025C1402.96 224.488 1408.06 232.427 1417.3 237.641C1426.39 242.771 1439.37 245.211 1455.99 245.211V240.772C1439.68 240.772 1427.6 238.356 1419.48 233.775C1411.51 229.277 1407.27 222.648 1406.59 213.688L1402.16 214.025ZM1455.99 245.211H1458.49V240.772H1455.99V245.211ZM1458.49 245.211C1469.08 245.211 1477.98 244.747 1485.14 243.805L1484.56 239.403C1477.66 240.311 1468.97 240.772 1458.49 240.772V245.211ZM1485.19 243.797C1492.3 242.675 1497.79 241.147 1501.46 239.105L1499.31 235.224C1496.32 236.881 1491.46 238.313 1484.5 239.411L1485.19 243.797ZM1501.54 239.058C1505 236.943 1507.61 234.659 1508.99 232.123L1505.1 229.997C1504.26 231.531 1502.43 233.316 1499.23 235.27L1501.54 239.058ZM1508.96 232.178C1510.47 229.592 1511.21 226.703 1511.21 223.568H1506.77C1506.77 225.982 1506.21 228.088 1505.13 229.941L1508.96 232.178ZM1511.21 223.568V223.291H1506.77V223.568H1511.21ZM1511.21 223.291C1511.21 219.017 1510.08 215.371 1507.57 212.634L1504.3 215.634C1505.86 217.336 1506.77 219.795 1506.77 223.291H1511.21ZM1507.69 212.78C1506.44 211.148 1504.43 209.852 1501.97 208.772C1499.48 207.676 1496.32 206.714 1492.55 205.864L1491.57 210.195C1495.2 211.01 1498.05 211.897 1500.18 212.836C1502.36 213.792 1503.58 214.715 1504.17 215.487L1507.69 212.78ZM1492.61 205.879C1485.15 203.967 1474.41 202.852 1460.49 202.481L1460.37 206.919C1474.19 207.287 1484.54 208.392 1491.51 210.18L1492.61 205.879ZM1460.49 202.481L1422.2 201.371L1422.07 205.809L1460.36 206.919L1460.49 202.481ZM1422.2 201.371C1388.59 200.45 1363.73 194.83 1347.34 184.772C1331.12 174.816 1323.08 160.456 1323.08 141.435H1318.64C1318.64 162.001 1327.48 177.793 1345.02 188.556C1362.39 199.215 1388.17 204.88 1422.08 205.809L1422.2 201.371ZM1323.08 141.435V138.938H1318.64V141.435H1323.08ZM1323.08 138.938C1323.08 131.931 1324.07 125.714 1326 120.257L1321.82 118.773C1319.68 124.785 1318.64 131.517 1318.64 138.938H1323.08ZM1326.01 120.236C1327.92 114.687 1331.42 109.223 1336.61 103.854L1333.41 100.769C1327.87 106.498 1323.97 112.503 1321.81 118.793L1326.01 120.236ZM1336.61 103.854C1341.72 98.5603 1348.49 94.0889 1356.97 90.4802L1355.23 86.3951C1346.32 90.1856 1339.03 94.9634 1333.41 100.769L1336.61 103.854ZM1356.97 90.4802C1365.43 86.878 1376.61 83.9552 1390.57 81.751L1389.88 77.3658C1375.72 79.6012 1364.15 82.5979 1355.23 86.3951L1356.97 90.4802ZM1390.6 81.7472C1404.69 79.368 1421.02 78.171 1439.62 78.171V73.7314C1420.84 73.7314 1404.25 74.9392 1389.86 77.3696L1390.6 81.7472ZM1439.62 78.171H1464.31V73.7314H1439.62V78.171ZM1464.31 78.171C1506 78.171 1536.92 83.6014 1557.35 94.2224C1567.53 99.516 1575.05 106.068 1580.02 113.828C1584.99 121.579 1587.51 130.661 1587.51 141.158H1591.95C1591.95 129.919 1589.24 119.983 1583.76 111.432C1578.29 102.891 1570.12 95.8576 1559.4 90.2834C1538.02 79.1688 1506.24 73.7314 1464.31 73.7314V78.171ZM1587.51 141.158V143.378H1591.95V141.158H1587.51ZM1589.73 141.158H1503.99V145.598H1589.73V141.158ZM1506.2 143.126C1505.25 134.84 1500 128.788 1491.15 124.905C1482.41 121.068 1469.98 119.237 1454.05 119.237V123.677C1469.75 123.677 1481.46 125.499 1489.36 128.97C1497.16 132.393 1501.07 137.302 1501.79 143.629L1506.2 143.126ZM1454.05 119.237H1451.27V123.677H1454.05V119.237ZM1451.27 119.237C1438.26 119.237 1428.07 120.07 1420.79 121.794L1421.82 126.114C1428.6 124.509 1438.38 123.677 1451.27 123.677V119.237ZM1420.85 121.782C1417.26 122.537 1414.28 123.378 1411.94 124.324C1409.65 125.249 1407.73 126.369 1406.54 127.821L1409.98 130.632C1410.46 130.049 1411.54 129.273 1413.6 128.44C1415.61 127.629 1418.32 126.852 1421.76 126.127L1420.85 121.782ZM1406.61 127.742C1404.49 130.098 1403.55 133.175 1403.55 136.718H1407.99C1407.99 133.972 1408.7 132.055 1409.91 130.711L1406.61 127.742ZM1403.55 136.718V136.996H1407.99V136.718H1403.55ZM1403.55 136.996C1403.55 140.608 1404.62 143.756 1406.9 146.258L1410.18 143.272C1408.76 141.704 1407.99 139.673 1407.99 136.996H1403.55ZM1406.97 146.335C1408.29 147.65 1410.21 148.756 1412.54 149.728C1414.91 150.712 1417.85 151.623 1421.33 152.472L1422.38 148.158C1419.03 147.341 1416.33 146.495 1414.25 145.63C1412.14 144.751 1410.83 143.915 1410.11 143.195L1406.97 146.335ZM1421.39 152.484C1428.45 154.01 1438.24 154.846 1450.68 155.031L1450.75 150.592C1438.41 150.408 1428.96 149.579 1422.33 148.145L1421.39 152.484ZM1450.67 155.031L1487.85 155.864L1487.95 151.425L1450.77 150.593L1450.67 155.031ZM1487.84 155.863C1526.8 156.971 1554.25 162.425 1570.58 171.934L1572.81 168.097C1555.47 157.998 1527.06 152.537 1487.96 151.425L1487.84 155.863ZM1570.59 171.943C1586.67 181.13 1594.73 195.616 1594.73 215.799H1599.17C1599.17 194.175 1590.39 178.139 1572.8 168.088L1570.59 171.943ZM1594.73 215.799V219.683H1599.17V215.799H1594.73ZM1594.73 219.683C1594.73 227.088 1593.82 233.811 1592.04 239.868L1596.3 241.12C1598.22 234.599 1599.17 227.447 1599.17 219.683H1594.73ZM1592.05 239.85C1590.31 245.579 1586.8 251.602 1581.39 257.918L1584.76 260.807C1590.44 254.174 1594.33 247.618 1596.3 241.138L1592.05 239.85ZM1581.41 257.894C1576.09 263.917 1568.95 269.116 1559.91 273.455L1561.83 277.457C1571.29 272.917 1578.95 267.387 1584.74 260.831L1581.41 257.894ZM1559.93 273.447C1551.12 277.584 1538.94 281.056 1523.31 283.814L1524.08 288.186C1539.9 285.395 1552.5 281.837 1561.82 277.465L1559.93 273.447ZM1523.33 283.81C1507.94 286.375 1489.85 287.665 1469.03 287.665V292.104C1490.02 292.104 1508.37 290.805 1524.06 288.19L1523.33 283.81Z" fill="#DC0032"/>
<path d="M414.106 552.376V402.262H-40V345.934H581.978V402.262H492.909V552.376H414.106Z" fill="#DC0032"/>
<path d="M680.916 345.934V552.376H602.39V345.934H680.916Z" fill="#DC0032"/>
<path d="M707.527 552.376V345.934H815.743L879.007 461.919L943.381 345.934H1047.16V552.376H969.187V423.627L896.766 552.376H856.532L784.388 423.627V552.376H707.527Z" fill="#DC0032"/>
<path d="M1073.88 345.934H1302.24V396.435H1151.57V422.24H1299.19V472.463H1151.57V500.766H1304.46V552.376H1073.88V345.934Z" fill="#DC0032"/>
<path d="M1469.03 556.261H1443.78C1359.8 556.261 1317.81 531.843 1317.81 483.007V480.232H1404.38C1405.86 499.656 1423.06 509.367 1455.99 509.367H1458.49C1469.03 509.367 1477.82 508.905 1484.85 507.98C1491.88 506.87 1497.06 505.39 1500.38 503.54C1503.71 501.505 1505.93 499.471 1507.04 497.436C1508.34 495.216 1508.99 492.719 1508.99 489.944V489.667C1508.99 485.782 1507.97 482.73 1505.93 480.51C1504.08 478.105 1499.46 476.07 1492.06 474.405C1484.85 472.556 1474.3 471.446 1460.43 471.076L1422.14 469.966C1354.62 468.116 1320.86 447.398 1320.86 407.811V405.314C1320.86 398.1 1321.88 391.625 1323.91 385.891C1325.95 379.971 1329.65 374.237 1335.01 368.687C1340.37 363.138 1347.4 358.513 1356.1 354.814C1364.79 351.114 1376.17 348.154 1390.23 345.934C1404.47 343.53 1420.93 342.327 1439.62 342.327H1464.31C1547.93 342.327 1589.73 364.063 1589.73 407.534V409.754H1503.99C1502.33 395.14 1485.68 387.833 1454.05 387.833H1451.27C1438.32 387.833 1428.33 388.666 1421.3 390.33C1414.27 391.81 1409.93 393.568 1408.26 395.602C1406.6 397.452 1405.77 399.95 1405.77 403.094V403.372C1405.77 406.516 1406.69 409.106 1408.54 411.141C1410.58 413.176 1415.01 415.026 1421.86 416.691C1428.7 418.17 1438.32 419.003 1450.72 419.188L1487.9 420.02C1526.93 421.13 1554.86 426.587 1571.7 436.391C1588.53 446.01 1596.95 461.272 1596.95 482.175V486.059C1596.95 493.644 1596.02 500.581 1594.17 506.87C1592.32 512.974 1588.62 519.264 1583.07 525.738C1577.52 532.028 1570.12 537.392 1560.87 541.832C1551.81 546.086 1539.42 549.601 1523.69 552.376C1508.15 554.966 1489.93 556.261 1469.03 556.261Z" fill="#DC0032"/>
</svg>
