<svg width="1920" height="1080" viewBox="0 0 1920 1080" fill="none" xmlns="http://www.w3.org/2000/svg">
<mask id="mask0" style="mask-type:alpha" maskUnits="userSpaceOnUse" x="0" y="0" width="1920" height="1080">
<rect width="1920" height="1080" fill="#C4C4C4"/>
</mask>
<g mask="url(#mask0)">
<path d="M225.006 681.376H222.787V683.596H225.006V681.376ZM225.006 531.262H227.226V529.042H225.006V531.262ZM135.937 531.262H133.717V533.482H135.937V531.262ZM135.937 474.934V472.715H133.717V474.934H135.937ZM392.879 474.934H395.099V472.715H392.879V474.934ZM392.879 531.262V533.482H395.099V531.262H392.879ZM303.809 531.262V529.042H301.59V531.262H303.809ZM303.809 681.376V683.596H306.029V681.376H303.809ZM227.226 681.376V531.262H222.787V681.376H227.226ZM225.006 529.042H135.937V533.482H225.006V529.042ZM138.157 531.262V474.934H133.717V531.262H138.157ZM135.937 477.154H392.879V472.715H135.937V477.154ZM390.659 474.934V531.262H395.099V474.934H390.659ZM392.879 529.042H303.809V533.482H392.879V529.042ZM301.59 531.262V681.376H306.029V531.262H301.59ZM303.809 679.156H225.006V683.596H303.809V679.156ZM413.291 474.934V472.715H411.071V474.934H413.291ZM641.653 474.934H643.873V472.715H641.653V474.934ZM641.653 525.435V527.655H643.873V525.435H641.653ZM490.984 525.435V523.215H488.764V525.435H490.984ZM490.984 551.24H488.764V553.46H490.984V551.24ZM638.601 551.24H640.82V549.02H638.601V551.24ZM638.601 601.463V603.683H640.82V601.463H638.601ZM490.984 601.463V599.243H488.764V601.463H490.984ZM490.984 629.766H488.764V631.985H490.984V629.766ZM643.873 629.766H646.092V627.546H643.873V629.766ZM643.873 681.376V683.596H646.092V681.376H643.873ZM413.291 681.376H411.071V683.596H413.291V681.376ZM413.291 477.154H641.653V472.715H413.291V477.154ZM639.433 474.934V525.435H643.873V474.934H639.433ZM641.653 523.215H490.984V527.655H641.653V523.215ZM488.764 525.435V551.24H493.204V525.435H488.764ZM490.984 553.46H638.601V549.02H490.984V553.46ZM636.381 551.24V601.463H640.82V551.24H636.381ZM638.601 599.243H490.984V603.683H638.601V599.243ZM488.764 601.463V629.766H493.204V601.463H488.764ZM490.984 631.985H643.873V627.546H490.984V631.985ZM641.653 629.766V681.376H646.092V629.766H641.653ZM643.873 679.156H413.291V683.596H643.873V679.156ZM415.511 681.376V474.934H411.071V681.376H415.511ZM837.839 596.469V598.688H841.393L839.833 595.495L837.839 596.469ZM803.154 525.435L805.149 524.461L803.13 520.326L801.15 524.48L803.154 525.435ZM769.302 596.469L767.298 595.514L765.785 598.688H769.302V596.469ZM879.183 681.376L877.184 682.342L877.79 683.596H879.183V681.376ZM863.089 648.079L865.088 647.113L864.482 645.859H863.089V648.079ZM745.162 648.079V645.859H743.759L743.157 647.127L745.162 648.079ZM729.346 681.376V683.596H730.749L731.351 682.328L729.346 681.376ZM649.433 681.376L647.443 680.392L645.859 683.596H649.433V681.376ZM751.544 474.934V472.715H750.165L749.554 473.95L751.544 474.934ZM857.539 474.934L859.507 473.906L858.884 472.715H857.539V474.934ZM965.477 681.376V683.596H969.143L967.444 680.347L965.477 681.376ZM839.833 595.495L805.149 524.461L801.16 526.409L835.844 597.443L839.833 595.495ZM801.15 524.48L767.298 595.514L771.306 597.424L805.158 526.39L801.15 524.48ZM769.302 598.688H837.839V594.249H769.302V598.688ZM881.181 680.41L865.088 647.113L861.09 649.045L877.184 682.342L881.181 680.41ZM863.089 645.859H745.162V650.299H863.089V645.859ZM743.157 647.127L727.341 680.424L731.351 682.328L747.167 649.031L743.157 647.127ZM729.346 679.156H649.433V683.596H729.346V679.156ZM651.423 682.36L753.534 475.919L749.554 473.95L647.443 680.392L651.423 682.36ZM751.544 477.154H857.539V472.715H751.544V477.154ZM855.572 475.963L963.51 682.405L967.444 680.347L859.507 473.906L855.572 475.963ZM965.477 679.156H879.183V683.596H965.477V679.156ZM955.826 609.232V607.013H953.607V609.232H955.826ZM1042.4 609.232L1044.61 609.064L1044.46 607.013H1042.4V609.232ZM1122.87 636.98L1123.16 639.181L1123.18 639.177L1123.21 639.173L1122.87 636.98ZM1138.41 632.54L1139.48 634.481L1139.52 634.458L1139.56 634.434L1138.41 632.54ZM1145.06 626.436L1143.15 625.317L1143.13 625.345L1143.12 625.373L1145.06 626.436ZM1143.95 609.51L1142.2 610.863L1142.25 610.939L1142.32 611.01L1143.95 609.51ZM1130.08 603.405L1129.53 605.556L1129.56 605.564L1129.59 605.571L1130.08 603.405ZM1098.45 600.076L1098.38 602.295L1098.39 602.295L1098.45 600.076ZM1060.16 598.966L1060.22 596.747L1060.22 596.747L1060.16 598.966ZM961.931 514.891L964.023 515.633L964.027 515.623L964.03 515.612L961.931 514.891ZM973.03 497.687L971.434 496.145L973.03 497.687ZM994.118 483.814L994.987 485.856L994.118 483.814ZM1028.25 474.934L1028.59 477.127L1028.61 477.125L1028.62 477.123L1028.25 474.934ZM1227.75 538.754V540.973H1229.97V538.754H1227.75ZM1142.01 538.754L1139.81 539.005L1140.03 540.973H1142.01V538.754ZM1059.32 519.33L1059.78 521.503L1059.81 521.497L1059.84 521.49L1059.32 519.33ZM1046.28 524.602L1047.93 526.087L1047.97 526.049L1048 526.008L1046.28 524.602ZM1046.56 540.141L1044.92 541.634L1044.95 541.673L1044.99 541.711L1046.56 540.141ZM1059.88 545.691L1059.35 547.847L1059.38 547.854L1059.41 547.86L1059.88 545.691ZM1088.74 548.188L1088.79 545.969L1088.78 545.968L1088.77 545.968L1088.74 548.188ZM1125.92 549.02L1125.98 546.801L1125.97 546.801L1125.92 549.02ZM1209.72 565.391L1208.6 567.309L1208.61 567.314L1208.61 567.319L1209.72 565.391ZM1232.19 635.87L1234.32 636.514L1234.32 636.505L1234.32 636.496L1232.19 635.87ZM1221.09 654.738L1222.76 656.207L1222.77 656.195L1222.78 656.183L1221.09 654.738ZM1198.89 670.832L1199.84 672.841L1199.85 672.837L1199.86 672.833L1198.89 670.832ZM1161.71 681.376L1162.08 683.566L1162.09 683.564L1162.1 683.562L1161.71 681.376ZM1107.05 683.041H1081.8V687.48H1107.05V683.041ZM1081.8 683.041C1039.95 683.041 1008.93 676.944 988.436 665.028C968.128 653.219 958.046 635.64 958.046 612.007H953.607C953.607 637.21 964.52 656.257 986.204 668.866C1007.7 681.368 1039.67 687.48 1081.8 687.48V683.041ZM958.046 612.007V609.232H953.607V612.007H958.046ZM955.826 611.452H1042.4V607.013H955.826V611.452ZM1040.19 609.401C1040.98 619.864 1046.08 627.803 1055.32 633.017C1064.41 638.147 1077.39 640.587 1094.01 640.587V636.148C1077.7 636.148 1065.62 633.732 1057.5 629.151C1049.53 624.653 1045.29 618.024 1044.61 609.064L1040.19 609.401ZM1094.01 640.587H1096.51V636.148H1094.01V640.587ZM1096.51 640.587C1107.11 640.587 1116 640.123 1123.16 639.181L1122.58 634.779C1115.68 635.687 1107 636.148 1096.51 636.148V640.587ZM1123.21 639.173C1130.32 638.051 1135.81 636.523 1139.48 634.481L1137.33 630.6C1134.34 632.257 1129.48 633.689 1122.52 634.787L1123.21 639.173ZM1139.56 634.434C1143.02 632.319 1145.63 630.035 1147.01 627.499L1143.12 625.373C1142.28 626.906 1140.45 628.692 1137.25 630.646L1139.56 634.434ZM1146.98 627.554C1148.49 624.968 1149.23 622.079 1149.23 618.944H1144.79C1144.79 621.358 1144.23 623.464 1143.15 625.317L1146.98 627.554ZM1149.23 618.944V618.667H1144.79V618.944H1149.23ZM1149.23 618.667C1149.23 614.393 1148.1 610.747 1145.59 608.01L1142.32 611.01C1143.88 612.712 1144.79 615.171 1144.79 618.667H1149.23ZM1145.71 608.156C1144.46 606.524 1142.45 605.228 1139.99 604.148C1137.5 603.052 1134.35 602.09 1130.57 601.24L1129.59 605.571C1133.22 606.386 1136.07 607.273 1138.2 608.212C1140.38 609.168 1141.6 610.091 1142.2 610.863L1145.71 608.156ZM1130.63 601.255C1123.17 599.343 1112.43 598.228 1098.51 597.857L1098.39 602.295C1112.21 602.663 1122.56 603.768 1129.53 605.556L1130.63 601.255ZM1098.51 597.857L1060.22 596.747L1060.09 601.185L1098.38 602.295L1098.51 597.857ZM1060.22 596.747C1026.61 595.826 1001.75 590.206 985.359 580.148C969.137 570.192 961.098 555.832 961.098 536.811H956.659C956.659 557.377 965.5 573.169 983.037 583.932C1000.41 594.591 1026.19 600.256 1060.1 601.185L1060.22 596.747ZM961.098 536.811V534.314H956.659V536.811H961.098ZM961.098 534.314C961.098 527.307 962.087 521.09 964.023 515.633L959.839 514.148C957.705 520.161 956.659 526.893 956.659 534.314H961.098ZM964.03 515.612C965.938 510.063 969.436 504.599 974.626 499.23L971.434 496.145C965.895 501.874 961.994 507.879 959.832 514.169L964.03 515.612ZM974.626 499.23C979.743 493.936 986.507 489.465 994.987 485.856L993.249 481.771C984.341 485.562 977.046 490.339 971.434 496.145L974.626 499.23ZM994.987 485.856C1003.45 482.254 1014.63 479.331 1028.59 477.127L1027.9 472.742C1013.74 474.977 1002.17 477.974 993.249 481.771L994.987 485.856ZM1028.62 477.123C1042.71 474.744 1059.04 473.547 1077.64 473.547V469.107C1058.86 469.107 1042.27 470.315 1027.88 472.746L1028.62 477.123ZM1077.64 473.547H1102.33V469.107H1077.64V473.547ZM1102.33 473.547C1144.02 473.547 1174.95 478.977 1195.37 489.598C1205.56 494.892 1213.07 501.444 1218.04 509.204C1223.01 516.955 1225.53 526.037 1225.53 536.534H1229.97C1229.97 525.295 1227.26 515.359 1221.78 506.808C1216.31 498.267 1208.14 491.234 1197.42 485.659C1176.04 474.545 1144.26 469.107 1102.33 469.107V473.547ZM1225.53 536.534V538.754H1229.97V536.534H1225.53ZM1227.75 536.534H1142.01V540.973H1227.75V536.534ZM1144.22 538.502C1143.27 530.216 1138.02 524.164 1129.17 520.281C1120.43 516.444 1108 514.613 1092.07 514.613V519.053C1107.77 519.053 1119.48 520.875 1127.39 524.346C1135.19 527.769 1139.09 532.678 1139.81 539.005L1144.22 538.502ZM1092.07 514.613H1089.29V519.053H1092.07V514.613ZM1089.29 514.613C1076.28 514.613 1066.09 515.446 1058.81 517.17L1059.84 521.49C1066.62 519.885 1076.4 519.053 1089.29 519.053V514.613ZM1058.87 517.158C1055.28 517.913 1052.3 518.754 1049.96 519.7C1047.67 520.625 1045.75 521.745 1044.57 523.197L1048 526.008C1048.48 525.425 1049.56 524.649 1051.62 523.816C1053.63 523.005 1056.34 522.228 1059.78 521.503L1058.87 517.158ZM1044.63 523.117C1042.51 525.474 1041.57 528.551 1041.57 532.094H1046.01C1046.01 529.348 1046.72 527.431 1047.93 526.087L1044.63 523.117ZM1041.57 532.094V532.372H1046.01V532.094H1041.57ZM1041.57 532.372C1041.57 535.984 1042.64 539.132 1044.92 541.634L1048.2 538.648C1046.78 537.08 1046.01 535.049 1046.01 532.372H1041.57ZM1044.99 541.711C1046.31 543.026 1048.23 544.132 1050.56 545.104C1052.93 546.088 1055.87 546.999 1059.35 547.847L1060.4 543.534C1057.05 542.717 1054.35 541.871 1052.27 541.006C1050.16 540.127 1048.85 539.291 1048.13 538.571L1044.99 541.711ZM1059.41 547.86C1066.47 549.386 1076.26 550.222 1088.7 550.407L1088.77 545.968C1076.43 545.784 1066.98 544.955 1060.35 543.521L1059.41 547.86ZM1088.69 550.407L1125.87 551.24L1125.97 546.801L1088.79 545.969L1088.69 550.407ZM1125.86 551.239C1164.82 552.347 1192.27 557.801 1208.6 567.309L1210.83 563.473C1193.49 553.374 1165.08 547.913 1125.98 546.801L1125.86 551.239ZM1208.61 567.319C1224.69 576.506 1232.75 590.992 1232.75 611.175H1237.19C1237.19 589.551 1228.41 573.515 1210.82 563.464L1208.61 567.319ZM1232.75 611.175V615.059H1237.19V611.175H1232.75ZM1232.75 615.059C1232.75 622.464 1231.84 629.187 1230.06 635.244L1234.32 636.496C1236.24 629.975 1237.19 622.823 1237.19 615.059H1232.75ZM1230.07 635.226C1228.33 640.955 1224.82 646.978 1219.41 653.294L1222.78 656.183C1228.46 649.549 1232.35 642.994 1234.32 636.514L1230.07 635.226ZM1219.43 653.27C1214.11 659.292 1206.97 664.492 1197.93 668.831L1199.86 672.833C1209.31 668.293 1216.97 662.763 1222.76 656.207L1219.43 653.27ZM1197.95 668.822C1189.14 672.96 1176.96 676.432 1161.33 679.19L1162.1 683.562C1177.92 680.771 1190.52 677.213 1199.84 672.841L1197.95 668.822ZM1161.35 679.186C1145.96 681.751 1127.87 683.041 1107.05 683.041V687.48C1128.04 687.48 1146.39 686.181 1162.08 683.566L1161.35 679.186ZM1252.76 474.934V472.715H1250.54V474.934H1252.76ZM1481.12 474.934H1483.34V472.715H1481.12V474.934ZM1481.12 525.435V527.655H1483.34V525.435H1481.12ZM1330.45 525.435V523.215H1328.24V525.435H1330.45ZM1330.45 551.24H1328.24V553.46H1330.45V551.24ZM1478.07 551.24H1480.29V549.02H1478.07V551.24ZM1478.07 601.463V603.683H1480.29V601.463H1478.07ZM1330.45 601.463V599.243H1328.24V601.463H1330.45ZM1330.45 629.766H1328.24V631.985H1330.45V629.766ZM1483.34 629.766H1485.56V627.546H1483.34V629.766ZM1483.34 681.376V683.596H1485.56V681.376H1483.34ZM1252.76 681.376H1250.54V683.596H1252.76V681.376ZM1252.76 477.154H1481.12V472.715H1252.76V477.154ZM1478.9 474.934V525.435H1483.34V474.934H1478.9ZM1481.12 523.215H1330.45V527.655H1481.12V523.215ZM1328.24 525.435V551.24H1332.67V525.435H1328.24ZM1330.45 553.46H1478.07V549.02H1330.45V553.46ZM1475.85 551.24V601.463H1480.29V551.24H1475.85ZM1478.07 599.243H1330.45V603.683H1478.07V599.243ZM1328.24 601.463V629.766H1332.67V601.463H1328.24ZM1330.45 631.985H1483.34V627.546H1330.45V631.985ZM1481.12 629.766V681.376H1485.56V629.766H1481.12ZM1483.34 679.156H1252.76V683.596H1483.34V679.156ZM1254.98 681.376V474.934H1250.54V681.376H1254.98ZM1584.92 525.157V522.938H1582.7V525.157H1584.92ZM1584.92 560.674H1582.7V562.894H1584.92V560.674ZM1584.92 610.62V608.4H1582.7V610.62H1584.92ZM1584.92 681.376V683.596H1587.14V681.376H1584.92ZM1506.12 681.376H1503.9V683.596H1506.12V681.376ZM1506.12 474.934V472.715H1503.9V474.934H1506.12ZM1765.28 564.004L1763.94 562.237L1763.92 562.25L1763.9 562.264L1765.28 564.004ZM1751.96 572.328L1751.04 570.31L1751.02 570.318L1751.01 570.326L1751.96 572.328ZM1738.92 577.045L1738.38 574.892L1738.43 579.211L1738.92 577.045ZM1770 594.249L1768.34 595.726L1768.35 595.735L1768.36 595.744L1770 594.249ZM1785.26 679.989H1787.48V679.429L1787.22 678.936L1785.26 679.989ZM1785.26 681.376V683.596H1787.48V681.376H1785.26ZM1704.79 681.376L1703.14 682.861L1703.8 683.596H1704.79V681.376ZM1692.58 619.499L1691.06 621.115L1691.09 621.138L1691.11 621.161L1692.58 619.499ZM1582.7 525.157V560.674H1587.14V525.157H1582.7ZM1584.92 562.894H1675.38V558.454H1584.92V562.894ZM1675.38 562.894C1683.55 562.894 1690.07 561.386 1694.6 558.015C1699.26 554.553 1701.46 549.383 1701.46 542.916H1697.02C1697.02 548.287 1695.25 551.997 1691.95 554.454C1688.53 557.002 1683.12 558.454 1675.38 558.454V562.894ZM1701.46 542.916V542.638H1697.02V542.916H1701.46ZM1701.46 542.638C1701.46 536.25 1699.25 531.148 1694.59 527.737C1690.06 524.42 1683.54 522.938 1675.38 522.938V527.377C1683.13 527.377 1688.54 528.808 1691.97 531.318C1695.26 533.734 1697.02 537.373 1697.02 542.638H1701.46ZM1675.38 522.938H1584.92V527.377H1675.38V522.938ZM1582.7 610.62V681.376H1587.14V610.62H1582.7ZM1584.92 679.156H1506.12V683.596H1584.92V679.156ZM1508.34 681.376V474.934H1503.9V681.376H1508.34ZM1506.12 477.154H1693.69V472.715H1506.12V477.154ZM1693.69 477.154C1722.49 477.154 1743.72 481.56 1757.67 490.079C1771.46 498.488 1778.32 511.001 1778.32 527.932H1782.76C1782.76 509.532 1775.16 495.545 1759.99 486.289C1745 477.142 1722.8 472.715 1693.69 472.715V477.154ZM1778.32 527.932V530.984H1782.76V527.932H1778.32ZM1778.32 530.984C1778.32 537.714 1777 543.76 1774.38 549.163L1778.38 551.097C1781.31 545.031 1782.76 538.314 1782.76 530.984H1778.32ZM1774.38 549.163C1771.75 554.614 1768.26 558.953 1763.94 562.237L1766.63 565.771C1771.55 562.025 1775.47 557.115 1778.38 551.097L1774.38 549.163ZM1763.9 562.264C1759.58 565.685 1755.29 568.36 1751.04 570.31L1752.89 574.346C1757.51 572.227 1762.1 569.352 1766.66 565.744L1763.9 562.264ZM1751.01 570.326C1746.88 572.298 1742.67 573.819 1738.38 574.892L1739.46 579.199C1744.05 578.052 1748.54 576.428 1752.92 574.331L1751.01 570.326ZM1738.43 579.211C1751.2 582.088 1761.12 587.622 1768.34 595.726L1771.66 592.772C1763.71 583.857 1752.91 577.922 1739.41 574.88L1738.43 579.211ZM1768.36 595.744C1775.51 603.598 1779.16 613.674 1779.16 626.158H1783.6C1783.6 612.745 1779.65 601.548 1771.64 592.754L1768.36 595.744ZM1779.16 626.158V656.681H1783.6V626.158H1779.16ZM1779.16 656.681C1779.16 667.487 1780.44 675.724 1783.31 681.041L1787.22 678.936C1784.9 674.634 1783.6 667.332 1783.6 656.681H1779.16ZM1783.04 679.989V681.376H1787.48V679.989H1783.04ZM1785.26 679.156H1704.79V683.596H1785.26V679.156ZM1706.44 679.891C1705.96 679.35 1705.45 678.386 1705.08 676.784C1704.72 675.199 1704.52 673.137 1704.52 670.554H1700.08C1700.08 673.337 1700.29 675.76 1700.76 677.782C1701.22 679.787 1701.97 681.552 1703.14 682.861L1706.44 679.891ZM1704.52 670.554V646.414H1700.08V670.554H1704.52ZM1704.52 646.414C1704.52 633.84 1701.18 624.144 1694.06 617.837L1691.11 621.161C1696.94 626.323 1700.08 634.571 1700.08 646.414H1704.52ZM1694.11 617.883C1687.19 611.372 1675.74 608.4 1660.4 608.4V612.84C1675.39 612.84 1685.4 615.787 1691.06 621.115L1694.11 617.883ZM1660.4 608.4H1584.92V612.84H1660.4V608.4Z" fill="#DC0032"/>
<mask id="path-3-inside-1" fill="white">
<path d="M224.938 948.362V798.248H-138V741.921H392.81V798.248H303.741V948.362H224.938ZM413.222 741.921H641.584L605.079 792.421H490.915V818.226H546.809V868.449H490.915V896.752H643.804L605.079 948.362H413.222V741.921ZM837.77 863.455L803.085 792.421L769.233 863.455H837.77ZM879.114 948.362L863.02 915.065H745.093L729.277 948.362H649.364L751.475 741.921H857.471L965.408 948.362H879.114ZM1106.98 952.247H1081.73C997.749 952.247 955.758 925.054 955.758 876.219H1042.33C1043.81 895.642 1061.01 905.354 1093.94 905.354H1096.44C1106.98 905.354 1115.77 904.891 1122.8 903.966C1129.83 902.856 1135.01 901.376 1138.34 899.527C1141.67 897.492 1143.89 895.457 1145 893.422C1146.29 891.202 1146.94 888.705 1146.94 885.93V885.653C1146.94 881.768 1145.92 878.716 1143.89 876.496C1142.04 874.091 1137.41 872.057 1130.01 870.392C1122.8 868.542 1112.25 867.432 1098.38 867.062L1060.09 865.952C992.569 864.102 958.81 843.384 958.81 803.798V801.3C958.81 794.086 959.827 787.612 961.862 781.877C963.897 775.958 967.596 770.223 972.961 764.674C978.325 759.124 985.355 754.5 994.049 750.8C1002.74 747.1 1014.12 744.14 1028.18 741.921C1042.42 739.516 1058.89 738.313 1077.57 738.313H1102.26C1185.88 738.313 1221.02 758.569 1221.02 776.905L1141.94 805.74C1140.28 791.126 1123.63 783.819 1092 783.819H1089.22C1076.27 783.819 1066.29 784.652 1059.26 786.317C1052.23 787.797 1047.88 789.554 1046.21 791.589C1044.55 793.439 1043.72 795.936 1043.72 799.081V799.358C1043.72 802.503 1044.64 805.093 1046.49 807.127C1048.53 809.162 1052.97 811.012 1059.81 812.677C1066.66 814.157 1076.27 814.989 1088.67 815.174L1125.85 816.007C1164.88 817.116 1192.81 822.573 1209.65 832.378C1226.48 841.997 1234.9 857.258 1234.9 878.161V882.046C1234.9 889.63 1233.97 896.567 1232.12 902.856C1230.27 908.961 1226.57 915.25 1221.02 921.725C1215.47 928.014 1208.07 933.379 1198.83 937.818C1189.76 942.073 1177.37 945.587 1161.64 948.362C1146.11 950.952 1127.88 952.247 1106.98 952.247ZM1252.69 741.921H1481.06V792.421H1330.39V818.226H1387V868.449H1330.39V896.752H1483.27L1442.5 948.362H1252.69V741.921ZM1706.39 792.144V827.66H1615.93C1600.02 827.66 1592.07 821.741 1592.07 809.902V809.625C1592.07 797.971 1600.02 792.144 1615.93 792.144H1706.39ZM1706.39 877.606V948.362H2104V741.921H1597.62C1539.72 741.921 1510.77 759.587 1510.77 794.918V797.971C1510.77 805 1512.16 811.382 1514.93 817.116C1517.71 822.851 1521.41 827.476 1526.03 830.99C1530.47 834.505 1534.91 837.28 1539.35 839.314C1543.6 841.349 1547.95 842.922 1552.39 844.032C1539.26 846.991 1528.9 852.726 1521.31 861.235C1513.73 869.559 1509.94 880.196 1509.94 893.145V923.667C1509.94 934.396 1508.64 942.165 1506.05 946.975V948.362H1586.52C1588.18 946.512 1589.02 942.905 1589.02 937.541V913.4C1589.02 901.191 1592.25 892.22 1598.73 886.485C1605.02 880.566 1615.75 877.606 1630.92 877.606H1706.39Z"/>
</mask>
<path d="M224.938 948.362V798.248H-138V741.921H392.81V798.248H303.741V948.362H224.938ZM413.222 741.921H641.584L605.079 792.421H490.915V818.226H546.809V868.449H490.915V896.752H643.804L605.079 948.362H413.222V741.921ZM837.77 863.455L803.085 792.421L769.233 863.455H837.77ZM879.114 948.362L863.02 915.065H745.093L729.277 948.362H649.364L751.475 741.921H857.471L965.408 948.362H879.114ZM1106.98 952.247H1081.73C997.749 952.247 955.758 925.054 955.758 876.219H1042.33C1043.81 895.642 1061.01 905.354 1093.94 905.354H1096.44C1106.98 905.354 1115.77 904.891 1122.8 903.966C1129.83 902.856 1135.01 901.376 1138.34 899.527C1141.67 897.492 1143.89 895.457 1145 893.422C1146.29 891.202 1146.94 888.705 1146.94 885.93V885.653C1146.94 881.768 1145.92 878.716 1143.89 876.496C1142.04 874.091 1137.41 872.057 1130.01 870.392C1122.8 868.542 1112.25 867.432 1098.38 867.062L1060.09 865.952C992.569 864.102 958.81 843.384 958.81 803.798V801.3C958.81 794.086 959.827 787.612 961.862 781.877C963.897 775.958 967.596 770.223 972.961 764.674C978.325 759.124 985.355 754.5 994.049 750.8C1002.74 747.1 1014.12 744.14 1028.18 741.921C1042.42 739.516 1058.89 738.313 1077.57 738.313H1102.26C1185.88 738.313 1221.02 758.569 1221.02 776.905L1141.94 805.74C1140.28 791.126 1123.63 783.819 1092 783.819H1089.22C1076.27 783.819 1066.29 784.652 1059.26 786.317C1052.23 787.797 1047.88 789.554 1046.21 791.589C1044.55 793.439 1043.72 795.936 1043.72 799.081V799.358C1043.72 802.503 1044.64 805.093 1046.49 807.127C1048.53 809.162 1052.97 811.012 1059.81 812.677C1066.66 814.157 1076.27 814.989 1088.67 815.174L1125.85 816.007C1164.88 817.116 1192.81 822.573 1209.65 832.378C1226.48 841.997 1234.9 857.258 1234.9 878.161V882.046C1234.9 889.63 1233.97 896.567 1232.12 902.856C1230.27 908.961 1226.57 915.25 1221.02 921.725C1215.47 928.014 1208.07 933.379 1198.83 937.818C1189.76 942.073 1177.37 945.587 1161.64 948.362C1146.11 950.952 1127.88 952.247 1106.98 952.247ZM1252.69 741.921H1481.06V792.421H1330.39V818.226H1387V868.449H1330.39V896.752H1483.27L1442.5 948.362H1252.69V741.921ZM1706.39 792.144V827.66H1615.93C1600.02 827.66 1592.07 821.741 1592.07 809.902V809.625C1592.07 797.971 1600.02 792.144 1615.93 792.144H1706.39ZM1706.39 877.606V948.362H2104V741.921H1597.62C1539.72 741.921 1510.77 759.587 1510.77 794.918V797.971C1510.77 805 1512.16 811.382 1514.93 817.116C1517.71 822.851 1521.41 827.476 1526.03 830.99C1530.47 834.505 1534.91 837.28 1539.35 839.314C1543.6 841.349 1547.95 842.922 1552.39 844.032C1539.26 846.991 1528.9 852.726 1521.31 861.235C1513.73 869.559 1509.94 880.196 1509.94 893.145V923.667C1509.94 934.396 1508.64 942.165 1506.05 946.975V948.362H1586.52C1588.18 946.512 1589.02 942.905 1589.02 937.541V913.4C1589.02 901.191 1592.25 892.22 1598.73 886.485C1605.02 880.566 1615.75 877.606 1630.92 877.606H1706.39Z" fill="#DC0032" stroke="#DC0032" stroke-width="4.4396" mask="url(#path-3-inside-1)"/>
<path d="M225.006 415H222.787V417.22H225.006V415ZM225.006 264.886H227.226V262.666H225.006V264.886ZM135.937 264.886H133.717V267.106H135.937V264.886ZM135.937 208.558V206.339H133.717V208.558H135.937ZM392.879 208.558H395.099V206.339H392.879V208.558ZM392.879 264.886V267.106H395.099V264.886H392.879ZM303.809 264.886V262.666H301.59V264.886H303.809ZM303.809 415V417.22H306.029V415H303.809ZM227.226 415V264.886H222.787V415H227.226ZM225.006 262.666H135.937V267.106H225.006V262.666ZM138.157 264.886V208.558H133.717V264.886H138.157ZM135.937 210.778H392.879V206.339H135.937V210.778ZM390.659 208.558V264.886H395.099V208.558H390.659ZM392.879 262.666H303.809V267.106H392.879V262.666ZM301.59 264.886V415H306.029V264.886H301.59ZM303.809 412.78H225.006V417.22H303.809V412.78ZM413.291 208.558V206.339H411.071V208.558H413.291ZM641.653 208.558H643.873V206.339H641.653V208.558ZM641.653 259.059V261.279H643.873V259.059H641.653ZM490.984 259.059V256.839H488.764V259.059H490.984ZM490.984 284.864H488.764V287.084H490.984V284.864ZM638.601 284.864H640.82V282.644H638.601V284.864ZM638.601 335.087V337.307H640.82V335.087H638.601ZM490.984 335.087V332.867H488.764V335.087H490.984ZM490.984 363.39H488.764V365.609H490.984V363.39ZM643.873 363.39H646.092V361.17H643.873V363.39ZM643.873 415V417.22H646.092V415H643.873ZM413.291 415H411.071V417.22H413.291V415ZM413.291 210.778H641.653V206.339H413.291V210.778ZM639.433 208.558V259.059H643.873V208.558H639.433ZM641.653 256.839H490.984V261.279H641.653V256.839ZM488.764 259.059V284.864H493.204V259.059H488.764ZM490.984 287.084H638.601V282.644H490.984V287.084ZM636.381 284.864V335.087H640.82V284.864H636.381ZM638.601 332.867H490.984V337.307H638.601V332.867ZM488.764 335.087V363.39H493.204V335.087H488.764ZM490.984 365.609H643.873V361.17H490.984V365.609ZM641.653 363.39V415H646.092V363.39H641.653ZM643.873 412.78H413.291V417.22H643.873V412.78ZM415.511 415V208.558H411.071V415H415.511ZM837.839 330.093V332.312H841.393L839.833 329.119L837.839 330.093ZM803.154 259.059L805.149 258.085L803.13 253.95L801.15 258.104L803.154 259.059ZM769.302 330.093L767.298 329.138L765.785 332.312H769.302V330.093ZM879.183 415L877.184 415.966L877.79 417.22H879.183V415ZM863.089 381.703L865.088 380.737L864.482 379.483H863.089V381.703ZM745.162 381.703V379.483H743.759L743.157 380.751L745.162 381.703ZM729.346 415V417.22H730.749L731.351 415.952L729.346 415ZM649.433 415L647.443 414.016L645.859 417.22H649.433V415ZM751.544 208.558V206.339H750.165L749.554 207.574L751.544 208.558ZM857.539 208.558L859.507 207.53L858.884 206.339H857.539V208.558ZM965.477 415V417.22H969.143L967.444 413.971L965.477 415ZM839.833 329.119L805.149 258.085L801.16 260.033L835.844 331.067L839.833 329.119ZM801.15 258.104L767.298 329.138L771.306 331.048L805.158 260.014L801.15 258.104ZM769.302 332.312H837.839V327.873H769.302V332.312ZM881.181 414.034L865.088 380.737L861.09 382.669L877.184 415.966L881.181 414.034ZM863.089 379.483H745.162V383.923H863.089V379.483ZM743.157 380.751L727.341 414.048L731.351 415.952L747.167 382.655L743.157 380.751ZM729.346 412.78H649.433V417.22H729.346V412.78ZM651.423 415.984L753.534 209.543L749.554 207.574L647.443 414.016L651.423 415.984ZM751.544 210.778H857.539V206.339H751.544V210.778ZM855.572 209.587L963.51 416.029L967.444 413.971L859.507 207.53L855.572 209.587ZM965.477 412.78H879.183V417.22H965.477V412.78ZM955.826 342.856V340.637H953.607V342.856H955.826ZM1042.4 342.856L1044.61 342.688L1044.46 340.637H1042.4V342.856ZM1122.87 370.604L1123.16 372.805L1123.18 372.801L1123.21 372.797L1122.87 370.604ZM1138.41 366.164L1139.48 368.105L1139.52 368.082L1139.56 368.058L1138.41 366.164ZM1145.06 360.06L1143.15 358.941L1143.13 358.969L1143.12 358.997L1145.06 360.06ZM1143.95 343.134L1142.2 344.487L1142.25 344.563L1142.32 344.634L1143.95 343.134ZM1130.08 337.029L1129.53 339.18L1129.56 339.188L1129.59 339.195L1130.08 337.029ZM1098.45 333.7L1098.38 335.919L1098.39 335.919L1098.45 333.7ZM1060.16 332.59L1060.22 330.371L1060.22 330.371L1060.16 332.59ZM961.931 248.515L964.023 249.257L964.027 249.247L964.03 249.236L961.931 248.515ZM973.03 231.311L971.434 229.769L973.03 231.311ZM994.118 217.438L994.987 219.48L994.118 217.438ZM1028.25 208.558L1028.59 210.751L1028.61 210.749L1028.62 210.747L1028.25 208.558ZM1227.75 272.378V274.598H1229.97V272.378H1227.75ZM1142.01 272.378L1139.81 272.629L1140.03 274.598H1142.01V272.378ZM1059.32 252.954L1059.78 255.127L1059.81 255.121L1059.84 255.114L1059.32 252.954ZM1046.28 258.226L1047.93 259.711L1047.97 259.673L1048 259.632L1046.28 258.226ZM1046.56 273.765L1044.92 275.258L1044.95 275.297L1044.99 275.335L1046.56 273.765ZM1059.88 279.315L1059.35 281.472L1059.38 281.478L1059.41 281.484L1059.88 279.315ZM1088.74 281.812L1088.79 279.593L1088.78 279.592L1088.77 279.592L1088.74 281.812ZM1125.92 282.644L1125.98 280.425L1125.97 280.425L1125.92 282.644ZM1209.72 299.015L1208.6 300.934L1208.61 300.938L1208.61 300.943L1209.72 299.015ZM1232.19 369.494L1234.32 370.138L1234.32 370.129L1234.32 370.12L1232.19 369.494ZM1221.09 388.362L1222.76 389.831L1222.77 389.819L1222.78 389.807L1221.09 388.362ZM1198.89 404.456L1199.84 406.465L1199.85 406.461L1199.86 406.457L1198.89 404.456ZM1161.71 415L1162.08 417.19L1162.09 417.188L1162.1 417.186L1161.71 415ZM1107.05 416.665H1081.8V421.104H1107.05V416.665ZM1081.8 416.665C1039.95 416.665 1008.93 410.568 988.436 398.652C968.128 386.844 958.046 369.264 958.046 345.631H953.607C953.607 370.834 964.52 389.881 986.204 402.49C1007.7 414.992 1039.67 421.104 1081.8 421.104V416.665ZM958.046 345.631V342.856H953.607V345.631H958.046ZM955.826 345.076H1042.4V340.637H955.826V345.076ZM1040.19 343.025C1040.98 353.488 1046.08 361.427 1055.32 366.641C1064.41 371.771 1077.39 374.211 1094.01 374.211V369.772C1077.7 369.772 1065.62 367.356 1057.5 362.775C1049.53 358.277 1045.29 351.648 1044.61 342.688L1040.19 343.025ZM1094.01 374.211H1096.51V369.772H1094.01V374.211ZM1096.51 374.211C1107.11 374.211 1116 373.747 1123.16 372.805L1122.58 368.403C1115.68 369.311 1107 369.772 1096.51 369.772V374.211ZM1123.21 372.797C1130.32 371.675 1135.81 370.147 1139.48 368.105L1137.33 364.224C1134.34 365.881 1129.48 367.313 1122.52 368.411L1123.21 372.797ZM1139.56 368.058C1143.02 365.943 1145.63 363.659 1147.01 361.123L1143.12 358.997C1142.28 360.531 1140.45 362.316 1137.25 364.27L1139.56 368.058ZM1146.98 361.178C1148.49 358.592 1149.23 355.703 1149.23 352.568H1144.79C1144.79 354.982 1144.23 357.088 1143.15 358.941L1146.98 361.178ZM1149.23 352.568V352.291H1144.79V352.568H1149.23ZM1149.23 352.291C1149.23 348.017 1148.1 344.371 1145.59 341.634L1142.32 344.634C1143.88 346.336 1144.79 348.795 1144.79 352.291H1149.23ZM1145.71 341.78C1144.46 340.148 1142.45 338.852 1139.99 337.772C1137.5 336.676 1134.35 335.714 1130.57 334.864L1129.59 339.195C1133.22 340.01 1136.07 340.897 1138.2 341.836C1140.38 342.792 1141.6 343.715 1142.2 344.487L1145.71 341.78ZM1130.63 334.879C1123.17 332.967 1112.43 331.852 1098.51 331.481L1098.39 335.919C1112.21 336.287 1122.56 337.392 1129.53 339.18L1130.63 334.879ZM1098.51 331.481L1060.22 330.371L1060.09 334.809L1098.38 335.919L1098.51 331.481ZM1060.22 330.371C1026.61 329.45 1001.75 323.83 985.359 313.772C969.137 303.816 961.098 289.456 961.098 270.435H956.659C956.659 291.001 965.5 306.793 983.037 317.556C1000.41 328.215 1026.19 333.88 1060.1 334.809L1060.22 330.371ZM961.098 270.435V267.938H956.659V270.435H961.098ZM961.098 267.938C961.098 260.931 962.087 254.714 964.023 249.257L959.839 247.773C957.705 253.785 956.659 260.517 956.659 267.938H961.098ZM964.03 249.236C965.938 243.687 969.436 238.223 974.626 232.854L971.434 229.769C965.895 235.498 961.994 241.503 959.832 247.793L964.03 249.236ZM974.626 232.854C979.743 227.56 986.507 223.089 994.987 219.48L993.249 215.395C984.341 219.186 977.046 223.963 971.434 229.769L974.626 232.854ZM994.987 219.48C1003.45 215.878 1014.63 212.955 1028.59 210.751L1027.9 206.366C1013.74 208.601 1002.17 211.598 993.249 215.395L994.987 219.48ZM1028.62 210.747C1042.71 208.368 1059.04 207.171 1077.64 207.171V202.731C1058.86 202.731 1042.27 203.939 1027.88 206.37L1028.62 210.747ZM1077.64 207.171H1102.33V202.731H1077.64V207.171ZM1102.33 207.171C1144.02 207.171 1174.95 212.601 1195.37 223.222C1205.56 228.516 1213.07 235.068 1218.04 242.828C1223.01 250.579 1225.53 259.661 1225.53 270.158H1229.97C1229.97 258.919 1227.26 248.983 1221.78 240.432C1216.31 231.891 1208.14 224.858 1197.42 219.283C1176.04 208.169 1144.26 202.731 1102.33 202.731V207.171ZM1225.53 270.158V272.378H1229.97V270.158H1225.53ZM1227.75 270.158H1142.01V274.598H1227.75V270.158ZM1144.22 272.126C1143.27 263.84 1138.02 257.788 1129.17 253.905C1120.43 250.068 1108 248.237 1092.07 248.237V252.677C1107.77 252.677 1119.48 254.499 1127.39 257.97C1135.19 261.393 1139.09 266.302 1139.81 272.629L1144.22 272.126ZM1092.07 248.237H1089.29V252.677H1092.07V248.237ZM1089.29 248.237C1076.28 248.237 1066.09 249.07 1058.81 250.794L1059.84 255.114C1066.62 253.509 1076.4 252.677 1089.29 252.677V248.237ZM1058.87 250.782C1055.28 251.537 1052.3 252.378 1049.96 253.324C1047.67 254.249 1045.75 255.369 1044.57 256.821L1048 259.632C1048.48 259.049 1049.56 258.273 1051.62 257.44C1053.63 256.629 1056.34 255.852 1059.78 255.127L1058.87 250.782ZM1044.63 256.742C1042.51 259.098 1041.57 262.175 1041.57 265.718H1046.01C1046.01 262.972 1046.72 261.055 1047.93 259.711L1044.63 256.742ZM1041.57 265.718V265.996H1046.01V265.718H1041.57ZM1041.57 265.996C1041.57 269.608 1042.64 272.756 1044.92 275.258L1048.2 272.272C1046.78 270.704 1046.01 268.673 1046.01 265.996H1041.57ZM1044.99 275.335C1046.31 276.65 1048.23 277.756 1050.56 278.728C1052.93 279.712 1055.87 280.623 1059.35 281.472L1060.4 277.158C1057.05 276.341 1054.35 275.495 1052.27 274.63C1050.16 273.751 1048.85 272.915 1048.13 272.195L1044.99 275.335ZM1059.41 281.484C1066.47 283.01 1076.26 283.846 1088.7 284.031L1088.77 279.592C1076.43 279.408 1066.98 278.579 1060.35 277.145L1059.41 281.484ZM1088.69 284.031L1125.87 284.864L1125.97 280.425L1088.79 279.593L1088.69 284.031ZM1125.86 284.863C1164.82 285.971 1192.27 291.425 1208.6 300.934L1210.83 297.097C1193.49 286.998 1165.08 281.537 1125.98 280.425L1125.86 284.863ZM1208.61 300.943C1224.69 310.13 1232.75 324.616 1232.75 344.799H1237.19C1237.19 323.175 1228.41 307.139 1210.82 297.088L1208.61 300.943ZM1232.75 344.799V348.683H1237.19V344.799H1232.75ZM1232.75 348.683C1232.75 356.088 1231.84 362.811 1230.06 368.868L1234.32 370.12C1236.24 363.599 1237.19 356.447 1237.19 348.683H1232.75ZM1230.07 368.85C1228.33 374.579 1224.82 380.602 1219.41 386.918L1222.78 389.807C1228.46 383.174 1232.35 376.618 1234.32 370.138L1230.07 368.85ZM1219.43 386.894C1214.11 392.917 1206.97 398.116 1197.93 402.455L1199.86 406.457C1209.31 401.917 1216.97 396.387 1222.76 389.831L1219.43 386.894ZM1197.95 402.447C1189.14 406.584 1176.96 410.056 1161.33 412.814L1162.1 417.186C1177.92 414.395 1190.52 410.837 1199.84 406.465L1197.95 402.447ZM1161.35 412.81C1145.96 415.375 1127.87 416.665 1107.05 416.665V421.104C1128.04 421.104 1146.39 419.805 1162.08 417.19L1161.35 412.81ZM1252.76 208.558V206.339H1250.54V208.558H1252.76ZM1481.12 208.558H1483.34V206.339H1481.12V208.558ZM1481.12 259.059V261.279H1483.34V259.059H1481.12ZM1330.45 259.059V256.839H1328.24V259.059H1330.45ZM1330.45 284.864H1328.24V287.084H1330.45V284.864ZM1478.07 284.864H1480.29V282.644H1478.07V284.864ZM1478.07 335.087V337.307H1480.29V335.087H1478.07ZM1330.45 335.087V332.867H1328.24V335.087H1330.45ZM1330.45 363.39H1328.24V365.609H1330.45V363.39ZM1483.34 363.39H1485.56V361.17H1483.34V363.39ZM1483.34 415V417.22H1485.56V415H1483.34ZM1252.76 415H1250.54V417.22H1252.76V415ZM1252.76 210.778H1481.12V206.339H1252.76V210.778ZM1478.9 208.558V259.059H1483.34V208.558H1478.9ZM1481.12 256.839H1330.45V261.279H1481.12V256.839ZM1328.24 259.059V284.864H1332.67V259.059H1328.24ZM1330.45 287.084H1478.07V282.644H1330.45V287.084ZM1475.85 284.864V335.087H1480.29V284.864H1475.85ZM1478.07 332.867H1330.45V337.307H1478.07V332.867ZM1328.24 335.087V363.39H1332.67V335.087H1328.24ZM1330.45 365.609H1483.34V361.17H1330.45V365.609ZM1481.12 363.39V415H1485.56V363.39H1481.12ZM1483.34 412.78H1252.76V417.22H1483.34V412.78ZM1254.98 415V208.558H1250.54V415H1254.98ZM1584.92 258.781V256.562H1582.7V258.781H1584.92ZM1584.92 294.298H1582.7V296.518H1584.92V294.298ZM1584.92 344.244V342.024H1582.7V344.244H1584.92ZM1584.92 415V417.22H1587.14V415H1584.92ZM1506.12 415H1503.9V417.22H1506.12V415ZM1506.12 208.558V206.339H1503.9V208.558H1506.12ZM1765.28 297.628L1763.94 295.861L1763.92 295.874L1763.9 295.888L1765.28 297.628ZM1751.96 305.952L1751.04 303.934L1751.02 303.942L1751.01 303.95L1751.96 305.952ZM1738.92 310.669L1738.38 308.516L1738.43 312.835L1738.92 310.669ZM1770 327.873L1768.34 329.35L1768.35 329.359L1768.36 329.368L1770 327.873ZM1785.26 413.613H1787.48V413.053L1787.22 412.56L1785.26 413.613ZM1785.26 415V417.22H1787.48V415H1785.26ZM1704.79 415L1703.14 416.485L1703.8 417.22H1704.79V415ZM1692.58 353.123L1691.06 354.739L1691.09 354.762L1691.11 354.785L1692.58 353.123ZM1582.7 258.781V294.298H1587.14V258.781H1582.7ZM1584.92 296.518H1675.38V292.078H1584.92V296.518ZM1675.38 296.518C1683.55 296.518 1690.07 295.01 1694.6 291.639C1699.26 288.177 1701.46 283.007 1701.46 276.54H1697.02C1697.02 281.911 1695.25 285.621 1691.95 288.078C1688.53 290.626 1683.12 292.078 1675.38 292.078V296.518ZM1701.46 276.54V276.262H1697.02V276.54H1701.46ZM1701.46 276.262C1701.46 269.874 1699.25 264.772 1694.59 261.361C1690.06 258.044 1683.54 256.562 1675.38 256.562V261.001C1683.13 261.001 1688.54 262.432 1691.97 264.942C1695.26 267.358 1697.02 270.997 1697.02 276.262H1701.46ZM1675.38 256.562H1584.92V261.001H1675.38V256.562ZM1582.7 344.244V415H1587.14V344.244H1582.7ZM1584.92 412.78H1506.12V417.22H1584.92V412.78ZM1508.34 415V208.558H1503.9V415H1508.34ZM1506.12 210.778H1693.69V206.339H1506.12V210.778ZM1693.69 210.778C1722.49 210.778 1743.72 215.184 1757.67 223.703C1771.46 232.112 1778.32 244.625 1778.32 261.556H1782.76C1782.76 243.156 1775.16 229.169 1759.99 219.913C1745 210.766 1722.8 206.339 1693.69 206.339V210.778ZM1778.32 261.556V264.608H1782.76V261.556H1778.32ZM1778.32 264.608C1778.32 271.338 1777 277.384 1774.38 282.787L1778.38 284.721C1781.31 278.655 1782.76 271.938 1782.76 264.608H1778.32ZM1774.38 282.787C1771.75 288.238 1768.26 292.577 1763.94 295.861L1766.63 299.395C1771.55 295.649 1775.47 290.739 1778.38 284.721L1774.38 282.787ZM1763.9 295.888C1759.58 299.309 1755.29 301.984 1751.04 303.934L1752.89 307.97C1757.51 305.851 1762.1 302.976 1766.66 299.368L1763.9 295.888ZM1751.01 303.95C1746.88 305.922 1742.67 307.443 1738.38 308.516L1739.46 312.823C1744.05 311.676 1748.54 310.052 1752.92 307.955L1751.01 303.95ZM1738.43 312.835C1751.2 315.712 1761.12 321.246 1768.34 329.35L1771.66 326.396C1763.71 317.481 1752.91 311.546 1739.41 308.504L1738.43 312.835ZM1768.36 329.368C1775.51 337.222 1779.16 347.298 1779.16 359.782H1783.6C1783.6 346.369 1779.65 335.172 1771.64 326.378L1768.36 329.368ZM1779.16 359.782V390.305H1783.6V359.782H1779.16ZM1779.16 390.305C1779.16 401.111 1780.44 409.348 1783.31 414.665L1787.22 412.56C1784.9 408.258 1783.6 400.956 1783.6 390.305H1779.16ZM1783.04 413.613V415H1787.48V413.613H1783.04ZM1785.26 412.78H1704.79V417.22H1785.26V412.78ZM1706.44 413.515C1705.96 412.974 1705.45 412.01 1705.08 410.408C1704.72 408.823 1704.52 406.761 1704.52 404.178H1700.08C1700.08 406.961 1700.29 409.384 1700.76 411.406C1701.22 413.411 1701.97 415.177 1703.14 416.485L1706.44 413.515ZM1704.52 404.178V380.038H1700.08V404.178H1704.52ZM1704.52 380.038C1704.52 367.464 1701.18 357.768 1694.06 351.461L1691.11 354.785C1696.94 359.947 1700.08 368.195 1700.08 380.038H1704.52ZM1694.11 351.507C1687.19 344.996 1675.74 342.024 1660.4 342.024V346.464C1675.39 346.464 1685.4 349.411 1691.06 354.739L1694.11 351.507ZM1660.4 342.024H1584.92V346.464H1660.4V342.024Z" fill="#DC0032"/>
</g>
</svg>
