<svg width="1920" height="1080" viewBox="0 0 1920 1080" fill="none" xmlns="http://www.w3.org/2000/svg">
<path d="M414.831 703.474V493.477H0V437.58H581.42V493.477H493.031V703.474H414.831Z" fill="#DC0032"/>
<path d="M679.602 437.58V642.444H601.676V437.58H679.602Z" fill="#DC0032"/>
<path d="M706.01 642.444V437.58H813.398L876.179 552.678L940.062 437.58H1043.04V642.444H965.67V514.679L893.802 642.444H853.875L782.283 514.679V642.444H706.01Z" fill="#DC0032"/>
<path d="M1069.56 437.58H1296.18V487.694H1146.66V513.302H1293.15V563.141H1146.66V591.228H1298.38V642.444H1069.56V437.58Z" fill="#DC0032"/>
<path d="M1461.69 646.299H1436.64C1353.3 646.299 1311.62 622.067 1311.62 573.605V570.851H1397.54C1399 590.126 1416.08 599.764 1448.75 599.764H1451.23C1461.69 599.764 1470.41 599.305 1477.39 598.387C1484.36 597.285 1489.5 595.817 1492.81 593.981C1496.11 591.962 1498.32 589.943 1499.42 587.923C1500.7 585.721 1501.34 583.242 1501.34 580.489V580.213C1501.34 576.358 1500.33 573.33 1498.32 571.127C1496.48 568.74 1491.89 566.721 1484.55 565.069C1477.39 563.233 1466.93 562.132 1453.16 561.765L1415.16 560.663C1348.16 558.828 1314.65 538.268 1314.65 498.984V496.506C1314.65 489.346 1315.66 482.921 1317.68 477.231C1319.7 471.356 1323.37 465.666 1328.7 460.159C1334.02 454.652 1341 450.062 1349.62 446.391C1358.25 442.72 1369.54 439.782 1383.49 437.58C1397.63 435.193 1413.97 434 1432.51 434H1457.01C1539.99 434 1581.47 455.569 1581.47 498.708V500.911H1496.39C1494.74 486.409 1478.21 479.158 1446.82 479.158H1444.07C1431.22 479.158 1421.31 479.984 1414.33 481.636C1407.36 483.105 1403.04 484.849 1401.39 486.868C1399.74 488.704 1398.91 491.182 1398.91 494.303V494.578C1398.91 497.699 1399.83 500.269 1401.67 502.288C1403.69 504.307 1408.09 506.143 1414.88 507.795C1421.68 509.264 1431.22 510.09 1443.52 510.273L1480.42 511.099C1519.15 512.201 1546.87 517.616 1563.57 527.345C1580.28 536.891 1588.63 552.035 1588.63 572.779V576.634C1588.63 584.16 1587.71 591.044 1585.88 597.285C1584.04 603.343 1580.37 609.585 1574.86 616.01C1569.36 622.251 1562.01 627.574 1552.84 631.98C1543.84 636.202 1531.54 639.69 1515.94 642.444C1500.52 645.014 1482.44 646.299 1461.69 646.299Z" fill="#DC0032"/>
<path d="M492.922 759.381V907.247H416.924V759.381C416.924 758.773 416.431 758.28 415.823 758.28H328.535V704.585H581.311V758.28H494.023C493.415 758.28 492.922 758.773 492.922 759.381ZM878.134 819.117L941.702 704.585H1042.93V907.247H967.763V780.583C967.763 780.082 967.425 779.645 966.941 779.518C966.456 779.391 965.947 779.607 965.702 780.043L894.15 907.247H855.513L784.236 780.045C783.991 779.608 783.482 779.391 782.997 779.518C782.512 779.644 782.174 780.082 782.174 780.583V907.247H708.103V704.585H813.736L876.204 819.11C876.397 819.462 876.766 819.682 877.167 819.684C877.569 819.685 877.939 819.468 878.134 819.117ZM1223.38 753.599C1223.38 752.99 1222.89 752.497 1222.28 752.497H1073.86V704.585H1298.27V907.247H1071.66V858.233H1222.28C1222.89 858.233 1223.38 857.74 1223.38 857.132V829.046C1223.38 828.437 1222.89 827.944 1222.28 827.944H1076.89V780.308H1222.28C1222.89 780.308 1223.38 779.815 1223.38 779.207V753.599ZM1478.52 865.383L1478.55 865.379C1485.56 864.272 1490.86 862.78 1494.34 860.848C1494.35 860.841 1494.36 860.833 1494.38 860.825C1497.74 858.771 1500.13 856.633 1501.37 854.371C1502.75 851.989 1503.44 849.321 1503.44 846.393V846.118C1503.44 842.089 1502.38 838.778 1500.15 836.322C1499.07 834.931 1497.28 833.75 1494.93 832.719C1492.55 831.672 1489.5 830.736 1485.8 829.902C1478.52 828.038 1467.96 826.935 1454.18 826.568L1416.18 825.467L1416.18 825.467C1382.75 824.551 1357.86 818.963 1341.35 808.832C1324.92 798.752 1316.75 784.147 1316.75 764.888V762.41C1316.75 755.353 1317.74 749.056 1319.71 743.503L1319.72 743.493C1321.67 737.803 1325.24 732.246 1330.48 726.829C1335.68 721.448 1342.53 716.935 1351.05 713.309C1359.56 709.686 1370.75 706.767 1384.66 704.572L1384.67 704.57C1398.73 702.196 1415 701.006 1433.5 701.006H1458C1499.43 701.006 1530.33 706.396 1550.84 717.059C1561.08 722.381 1568.7 729.002 1573.76 736.897C1578.82 744.787 1581.36 754.012 1581.36 764.613V765.714H1498.34C1497.17 758.47 1492.35 753.073 1484.19 749.492C1475.73 745.776 1463.57 743.961 1447.82 743.961H1445.06C1432.19 743.961 1422.18 744.786 1415.08 746.466C1411.57 747.206 1408.68 748.025 1406.44 748.929C1404.24 749.818 1402.55 750.838 1401.55 752.054C1399.68 754.139 1398.8 756.898 1398.8 760.207V760.482C1398.8 763.835 1399.8 766.682 1401.84 768.933C1401.85 768.946 1401.87 768.959 1401.88 768.971C1403.04 770.128 1404.79 771.159 1407.05 772.1C1409.33 773.048 1412.19 773.936 1415.61 774.77L1415.64 774.776C1422.54 776.267 1432.17 777.095 1444.49 777.279C1444.49 777.279 1444.49 777.279 1444.5 777.279L1481.38 778.105C1481.38 778.105 1481.38 778.105 1481.38 778.105C1520.08 779.205 1547.56 784.619 1564.01 794.201L1564.02 794.206C1580.35 803.537 1588.52 818.297 1588.52 838.683V842.538C1588.52 849.973 1587.62 856.748 1585.82 862.873C1584.04 868.742 1580.46 874.848 1575.02 881.191C1569.64 887.296 1562.43 892.534 1553.36 896.888C1544.49 901.051 1532.3 904.517 1516.74 907.262C1501.4 909.819 1483.38 911.102 1462.69 911.102H1437.63C1396.03 911.102 1365.01 905.048 1344.42 893.077C1323.93 881.16 1313.72 863.351 1313.72 839.509V837.857H1397.52C1398.53 847.363 1403.34 854.574 1411.89 859.399C1420.67 864.354 1433.33 866.769 1449.74 866.769H1452.22C1462.71 866.769 1471.48 866.31 1478.52 865.383ZM679.492 704.585V907.247H603.769V704.585H679.492Z" stroke="#DC0032" stroke-width="2.20284" stroke-linecap="round" stroke-linejoin="round"/>
<path d="M494.488 227.477V450.762H418.49V227.477C418.49 226.868 417.997 226.375 417.389 226.375H330.101V172.681H582.877V226.375H495.59C494.981 226.375 494.488 226.868 494.488 227.477ZM879.701 287.212L943.268 172.681H1044.5V375.342H969.329V248.679C969.329 248.178 968.991 247.74 968.507 247.614C968.023 247.487 967.513 247.703 967.268 248.139L895.716 375.342H857.079L785.802 248.141C785.557 247.703 785.048 247.487 784.563 247.613C784.078 247.74 783.74 248.178 783.74 248.679V375.342H709.67V172.681H815.303L877.771 287.205C877.963 287.558 878.332 287.778 878.734 287.779C879.135 287.781 879.506 287.564 879.701 287.212ZM1149.22 326.329H1299.84V375.342H1073.22V172.681H1297.64V220.593H1149.22C1148.61 220.593 1148.12 221.086 1148.12 221.694V247.302C1148.12 247.911 1148.61 248.404 1149.22 248.404H1294.61V296.04H1149.22C1148.61 296.04 1148.12 296.533 1148.12 297.141V325.228C1148.12 325.836 1148.61 326.329 1149.22 326.329ZM1506.29 305.953H1590.09V307.605C1590.09 331.447 1579.88 349.256 1559.38 361.173C1538.8 373.143 1507.78 379.197 1466.18 379.197H1441.12C1420.42 379.197 1402.41 377.915 1387.06 375.358C1371.51 372.613 1359.32 369.147 1350.45 364.985C1341.38 360.631 1334.17 355.392 1328.78 349.287C1323.35 342.944 1319.77 336.837 1317.99 330.969C1316.19 324.844 1315.28 318.069 1315.28 310.634V306.779C1315.28 286.393 1323.46 271.633 1339.79 262.302L1339.8 262.297C1356.25 252.715 1383.73 247.301 1422.43 246.2C1422.43 246.2 1422.43 246.2 1422.43 246.2L1459.31 245.375C1459.31 245.375 1459.31 245.375 1459.32 245.375C1471.64 245.19 1481.27 244.363 1488.17 242.872L1488.19 242.865C1491.62 242.031 1494.48 241.143 1496.75 240.196C1499.01 239.255 1500.77 238.224 1501.93 237.067L1501.94 237.051L1501.96 237.029C1504.01 234.778 1505 231.931 1505 228.578V228.303C1505 224.994 1504.13 222.234 1502.26 220.149C1501.26 218.933 1499.56 217.914 1497.36 217.025C1495.13 216.12 1492.24 215.302 1488.72 214.561C1481.62 212.882 1471.62 212.057 1458.74 212.057H1455.99C1440.24 212.057 1428.08 213.872 1419.61 217.588C1411.46 221.168 1406.64 226.566 1405.47 233.81H1322.44V232.708C1322.44 222.108 1324.99 212.883 1330.05 204.993C1335.11 197.098 1342.73 190.477 1352.97 185.154C1373.47 174.492 1404.38 169.101 1445.8 169.101H1470.31C1488.81 169.101 1505.08 170.292 1519.14 172.666L1519.15 172.668C1533.05 174.863 1544.25 177.781 1552.76 181.404C1561.28 185.031 1568.13 189.544 1573.33 194.924C1578.56 200.342 1582.14 205.898 1584.09 211.589L1584.09 211.599C1586.07 217.152 1587.06 223.449 1587.06 230.506V232.984C1587.06 252.243 1578.88 266.848 1562.46 276.928C1545.95 287.059 1521.05 292.646 1487.63 293.562L1487.63 293.562L1449.63 294.664C1435.85 295.031 1425.29 296.134 1418.01 297.998C1414.31 298.832 1411.25 299.767 1408.88 300.814C1406.53 301.845 1404.74 303.027 1403.66 304.417C1401.42 306.873 1400.37 310.184 1400.37 314.213V314.489C1400.37 317.416 1401.05 320.085 1402.44 322.466C1403.68 324.729 1406.07 326.867 1409.43 328.921C1409.45 328.929 1409.46 328.937 1409.47 328.944C1412.95 330.875 1418.24 332.368 1425.26 333.475C1425.26 333.476 1425.27 333.478 1425.28 333.479C1432.32 334.405 1441.09 334.865 1451.59 334.865H1454.06C1470.48 334.865 1483.14 332.45 1491.92 327.495C1500.46 322.669 1505.28 315.458 1506.29 305.953ZM681.059 172.681V375.342H605.336V172.681H681.059Z" stroke="#DC0032" stroke-width="2.20284" stroke-linecap="round" stroke-linejoin="round"/>
</svg>
