<svg width="1920" height="737" viewBox="0 0 1920 737" fill="none" xmlns="http://www.w3.org/2000/svg">
<path d="M312.415 586.886V735.89H235.832V586.886V585.776H234.722H146.762V531.668H401.485V585.776H313.525H312.415V586.886ZM551.653 653.203H553.43L552.65 651.606L517.966 580.572L516.956 578.505L515.966 580.582L482.115 651.615L481.358 653.203H483.116H551.653ZM570.681 531.668L677.459 735.89H593.693L577.902 703.22L577.599 702.593H576.903H458.976H458.275L457.974 703.227L442.458 735.89H365.034L466.047 531.668H570.681ZM883.63 735.89H689.398V531.668H882.52C910.215 531.668 929.502 536.112 940.666 544.755L940.674 544.761L940.681 544.767C952.075 553.267 957.716 564.138 957.716 577.452V580.504C957.716 591.707 954.115 600.55 946.98 607.154C939.709 613.696 931.738 617.945 923.061 619.934L923.057 622.096C928.536 623.375 933.546 625.107 938.09 627.288L938.098 627.292L938.105 627.295C942.83 629.476 947.758 632.484 952.888 636.332L952.896 636.338L952.903 636.343C958.094 640.102 962.138 645.212 965.026 651.711L965.031 651.723L965.037 651.734C968.101 658.224 969.648 665.643 969.648 674.013V677.343C969.648 696.918 962.525 711.464 948.349 721.17C934.097 730.928 912.581 735.89 883.63 735.89ZM767.091 576.342H765.981V577.452V606.587V607.697H767.091H858.658C865.779 607.697 871.316 606.485 875.1 603.896C878.96 601.255 880.856 597.279 880.856 592.158V591.603C880.856 586.566 878.953 582.659 875.092 580.068C871.31 577.53 865.776 576.342 858.658 576.342H767.091ZM767.091 651.815H765.981V652.925V688.442V689.552H767.091H863.652C871.893 689.552 878.274 688.059 882.618 684.9C887.028 681.693 889.18 676.887 889.18 670.684V669.851C889.18 663.904 887.012 659.304 882.598 656.244C878.257 653.236 871.885 651.815 863.652 651.815H767.091ZM1065.13 686.5H1216.91V735.89H988.551V531.668H1214.69V579.949H1065.13H1064.02V581.059V606.864V607.974H1065.13H1211.64V655.977H1065.13H1064.02V657.087V685.39V686.5H1065.13ZM1319.6 679.008H1461.67V735.89H1241.91V531.668H1318.49V677.898V679.008H1319.6ZM1657.49 653.203H1659.27L1658.49 651.606L1623.8 580.572L1622.79 578.505L1621.8 580.582L1587.95 651.615L1587.19 653.203H1588.95H1657.49ZM1676.52 531.668L1783.3 735.89H1699.53L1683.74 703.22L1683.44 702.593H1682.74H1564.81H1564.11L1563.81 703.227L1548.29 735.89H1470.87L1571.88 531.668H1676.52Z" stroke="#DC0032" stroke-width="2.2198"/>
<path d="M234.722 472V321.886H-0.5V265.558H402.595V321.886H313.525V472H234.722Z" fill="#DC0032"/>
<path d="M551.653 387.093L516.969 316.059L483.117 387.093H551.653ZM592.997 472L576.904 438.703H458.977L443.16 472H363.248L465.359 265.558H571.354L679.292 472H592.997Z" fill="#DC0032"/>
<path d="M688.288 472V265.558H882.521C910.268 265.558 929.877 269.998 941.346 278.877C953 287.571 958.827 298.763 958.827 312.452V315.504C958.827 326.973 955.127 336.13 947.728 342.974C940.328 349.633 932.189 353.981 923.31 356.015C928.859 357.31 933.946 359.068 938.571 361.287C943.38 363.507 948.375 366.559 953.555 370.444C958.919 374.329 963.081 379.601 966.041 386.26C969.186 392.92 970.758 400.504 970.758 409.013V412.343C970.758 452.114 941.716 472 883.631 472H688.288ZM858.658 312.452H767.091V341.587H858.658C872.717 341.587 879.746 336.777 879.746 327.158V326.603C879.746 317.169 872.717 312.452 858.658 312.452ZM863.653 387.925H767.091V423.442H863.653C879.931 423.442 888.07 417.522 888.07 405.683V404.851C888.07 393.567 879.931 387.925 863.653 387.925Z" fill="#DC0032"/>
<path d="M987.441 265.558H1215.8V316.059H1065.13V341.864H1212.75V392.087H1065.13V420.39H1218.02V472H987.441V265.558Z" fill="#DC0032"/>
<path d="M1240.8 265.558H1319.6V412.898H1462.78V472H1240.8V265.558Z" fill="#DC0032"/>
<path d="M1657.49 387.093L1622.81 316.059L1588.95 387.093H1657.49ZM1698.83 472L1682.74 438.703H1564.81L1549 472H1469.08L1571.19 265.558L1920 264.5V470.942L1698.83 472Z" fill="#DC0032"/>
<path d="M312.415 56.8861V205.89H235.832V56.8861V55.7762H234.722H146.762V1.66849H401.485V55.7762H313.525H312.415V56.8861ZM551.653 123.203H553.43L552.65 121.606L517.966 50.5721L516.956 48.5046L515.966 50.5816L482.115 121.615L481.358 123.203H483.116H551.653ZM570.681 1.66849L677.459 205.89H593.693L577.902 173.22L577.599 172.593H576.903H458.976H458.275L457.974 173.227L442.458 205.89H365.034L466.047 1.66849H570.681ZM883.63 205.89H689.398V1.66849H882.52C910.215 1.66849 929.502 6.11246 940.666 14.755L940.674 14.7611L940.681 14.767C952.075 23.2669 957.716 34.1381 957.716 47.4519V50.5041C957.716 61.7075 954.115 70.5498 946.98 77.1536C939.709 83.6962 931.738 87.9453 923.061 89.9337L923.057 92.0964C928.536 93.3749 933.546 95.1069 938.09 97.2882L938.098 97.2918L938.105 97.2953C942.83 99.4761 947.758 102.484 952.888 106.332L952.896 106.338L952.903 106.343C958.094 110.102 962.138 115.212 965.026 121.711L965.031 121.723L965.037 121.734C968.101 128.224 969.648 135.643 969.648 144.013V147.343C969.648 166.918 962.525 181.464 948.349 191.17C934.097 200.928 912.581 205.89 883.63 205.89ZM767.091 46.342H765.981V47.4519V76.5868V77.6967H767.091H858.658C865.779 77.6967 871.316 76.4848 875.1 73.8956C878.96 71.2546 880.856 67.2788 880.856 62.1581V61.6031C880.856 56.5658 878.953 52.659 875.092 50.0681C871.31 47.5299 865.776 46.342 858.658 46.342H767.091ZM767.091 121.815H765.981V122.925V158.442V159.552H767.091H863.652C871.893 159.552 878.274 158.059 882.618 154.9C887.028 151.693 889.18 146.887 889.18 140.684V139.851C889.18 133.904 887.012 129.304 882.598 126.244C878.257 123.236 871.885 121.815 863.652 121.815H767.091ZM1065.13 156.5H1216.91V205.89H988.551V1.66849H1214.69V49.9492H1065.13H1064.02V51.0591V76.8643V77.9742H1065.13H1211.64V125.977H1065.13H1064.02V127.087V155.39V156.5H1065.13ZM1319.6 149.008H1461.67V205.89H1241.91V1.66849H1318.49V147.898V149.008H1319.6ZM1657.49 123.203H1659.27L1658.49 121.606L1623.8 50.5721L1622.79 48.5046L1621.8 50.5816L1587.95 121.615L1587.19 123.203H1588.95H1657.49ZM1676.52 1.66849L1783.3 205.89H1699.53L1683.74 173.22L1683.44 172.593H1682.74H1564.81H1564.11L1563.81 173.227L1548.29 205.89H1470.87L1571.88 1.66849H1676.52Z" stroke="#DC0032" stroke-width="2.2198"/>
</svg>
