<svg width="531" height="577" viewBox="0 0 531 577" fill="none" xmlns="http://www.w3.org/2000/svg">
<path d="M296.853 0.591799C272.898 5.27474 257.048 16.2617 254.166 30.3105C253.445 34.6332 253.085 82.7234 253.626 137.298C254.886 247.887 254.346 243.565 267.674 255.632C276.32 263.377 287.487 267.159 310.361 269.861C334.857 272.743 380.786 267.88 384.388 262.296C385.649 259.955 395.735 132.255 394.654 130.994C393.574 129.733 363.134 127.752 342.421 127.572L325.671 127.392V139.099C325.671 149.365 326.031 150.806 329.093 150.806C332.695 150.806 332.875 155.849 329.453 219.249L328.373 241.763L322.789 242.304C319.727 242.664 316.305 241.763 315.404 240.503C313.963 238.882 314.144 208.262 316.125 134.596C318.466 44.8997 319.367 30.6707 321.708 28.6895C325.311 25.8077 329.633 25.9878 333.596 28.8696C336.658 31.2111 336.838 33.7326 335.037 74.4382C334.136 98.0331 333.596 117.665 333.776 117.846C334.136 118.566 394.474 122.168 395.195 121.628C395.915 120.727 401.318 49.4025 401.318 38.7758C401.318 27.0684 397.176 19.5037 386.909 12.8395C374.301 4.37418 358.451 1.13214 328.373 0.411686C313.603 0.0514596 299.374 0.231573 296.853 0.591799Z" fill="#DC0032"/>
<path d="M144.657 3.11328C130.968 5.27464 116.019 9.77747 107.734 13.9201C98.0077 18.7831 88.4617 30.3104 87.2009 38.4155C85.9401 45.62 104.132 220.87 107.734 238.161C112.777 261.756 131.869 273.283 165.91 273.283C192.927 273.283 216.522 266.619 228.59 255.812C240.837 244.645 240.837 245.726 238.496 132.795C236.335 33.0121 236.335 32.832 232.192 25.2672C223.366 9.77747 207.336 3.11328 176.177 2.21271C164.83 1.85249 150.601 2.21271 144.657 3.11328ZM167.171 35.5337C169.333 36.7945 170.773 55.8865 175.636 136.757C181.22 230.236 181.4 236.54 178.518 238.521C173.835 242.124 168.972 241.223 167.351 236.72C166.631 234.559 163.389 194.213 160.147 147.204C156.905 100.194 153.843 56.2467 153.302 49.5825C152.222 38.0553 152.402 37.3348 156.544 35.7138C162.128 33.3723 163.929 33.3723 167.171 35.5337Z" fill="#DC0032"/>
<path d="M455.533 15.1808C435.72 89.9279 393.934 272.022 396.095 274.004C396.996 274.904 450.129 280.848 450.85 280.127C451.03 279.767 452.651 271.122 454.272 260.675C455.893 250.409 457.514 241.583 457.874 241.403C458.234 241.043 461.656 241.223 465.439 241.943L472.643 243.024L471.202 255.812C470.482 263.017 469.942 272.022 469.942 275.985L469.761 283.189L496.238 287.152C513.529 289.673 523.255 290.394 523.976 289.313C525.957 285.891 530.82 128.112 531 64.1717V17.8825L525.236 16.8019C517.492 15.5411 463.277 8.51666 459.855 8.51666C458.414 8.51666 456.433 11.3985 455.533 15.1808ZM480.388 150.986C477.326 188.09 474.625 218.349 474.444 218.529C474.444 218.709 471.202 218.349 467.6 217.808C461.656 217.088 460.936 216.547 461.656 213.125C462.197 211.144 467.06 183.046 472.463 150.806C477.867 118.566 482.91 89.9279 483.45 87.2262C486.332 73.1773 485.611 89.5676 480.388 150.986Z" fill="#DC0032"/>
<path d="M30.4652 15.0006C14.255 17.3421 0.56641 19.6836 0.0260699 20.2239C-0.51427 20.7643 7.41072 74.2579 17.6772 139.099C30.6453 221.41 35.6885 257.793 34.4277 259.054C33.347 260.135 29.2044 261.396 25.0618 261.936C20.9192 262.476 17.3169 263.557 16.7766 264.277C15.876 265.718 19.6584 288.052 21.0993 289.853C22.5402 291.475 63.2458 284.63 71.3509 281.208C80.5367 277.426 89.3623 268.42 91.5236 260.675C92.9645 255.812 90.2628 228.435 78.9157 134.236C70.9907 68.3142 64.5066 13.3796 64.5066 12.2989C64.5066 9.95745 66.3078 9.77734 30.4652 15.0006Z" fill="#DC0032"/>
<path d="M203.194 295.257C200.672 301.201 192.747 438.267 189.505 530.665L188.244 565.607L200.672 564.526C207.517 563.806 217.783 563.266 223.547 563.266H233.813V521.84H246.421V531.566C246.421 536.789 246.961 545.975 247.502 551.738L248.582 562.545L270.016 562.185C281.903 562.185 291.99 561.645 292.35 561.104C293.25 560.204 284.425 461.862 278.841 410.169C272.718 354.695 266.233 299.58 265.333 295.257C264.432 291.295 264.072 291.295 234.714 291.295C205.535 291.295 204.815 291.295 203.194 295.257ZM240.117 424.579C241.558 452.856 243.359 480.954 243.899 487.078L244.98 498.425H233.813L233.993 429.442C234.173 388.556 234.714 363.16 235.614 366.942C236.515 370.364 238.496 396.301 240.117 424.579Z" fill="#DC0032"/>
<path d="M305.138 320.293C304.598 336.503 303.157 387.475 302.256 433.584C301.356 479.693 300.275 527.423 300.095 539.851L299.554 562.365L321.168 563.265C333.055 563.806 343.142 563.986 343.502 563.806C344.222 563.265 350.526 471.768 350.707 458.079L350.887 452.856L364.215 454.117L377.363 455.377L378.624 449.614C379.164 446.552 379.705 440.068 379.705 435.205V426.379H368.538C362.234 426.379 356.29 425.659 355.029 424.938C353.408 423.858 353.588 412.15 355.93 373.246L358.992 322.814L395.375 323.895L396.635 311.107C397.356 303.902 397.536 297.778 396.996 297.238C395.555 295.797 368.898 293.636 334.496 292.015L306.219 290.754L305.138 320.293Z" fill="#DC0032"/>
<path d="M401.679 430.162C394.474 502.928 388.53 563.806 388.71 565.427C388.71 567.768 390.151 568.669 393.754 568.669C396.455 568.669 413.206 570.65 430.857 573.172C448.688 575.513 463.638 577.314 463.818 576.954C464.178 576.594 465.439 570.83 466.519 564.166C468.861 549.937 468.681 549.577 452.471 547.956C446.527 547.235 440.583 546.155 439.502 545.434C438.062 544.534 439.142 531.746 443.645 499.505C446.887 475.01 449.949 454.657 450.309 454.297C450.669 454.117 456.433 454.657 463.097 455.558C469.761 456.638 475.705 456.999 476.065 456.638C476.606 456.098 477.506 450.875 478.047 444.931L479.307 433.944L467.24 432.683C460.756 431.963 454.812 430.702 454.272 429.802C453.371 428.18 465.799 334.341 467.06 333.081C467.42 332.72 474.985 333.441 483.99 334.522C492.996 335.782 500.921 336.683 501.641 336.683C503.082 336.503 508.306 311.287 507.225 310.206C506.324 309.306 442.744 300.48 428.155 299.219L414.647 298.139L401.679 430.162Z" fill="#DC0032"/>
<path d="M84.4992 303.902C50.4578 313.088 44.514 324.255 53.6998 362.619C58.743 384.413 67.3884 400.803 83.5986 420.076C103.411 443.67 112.417 456.819 119.261 471.768C126.646 487.618 132.589 510.853 134.21 528.684L135.291 541.652H129.708C122.863 541.652 123.224 542.913 119.261 507.43C117.64 493.021 115.839 480.774 115.118 480.233C113.858 478.792 74.9532 483.836 73.3322 485.457C70.9907 487.798 82.3378 551.018 86.1202 557.142C91.7037 565.787 100.529 569.389 119.441 570.11C146.638 571.19 168.972 562.905 175.276 549.397C177.978 543.813 178.338 539.851 177.438 524.541C175.456 493.382 168.972 466.365 158.166 443.49C155.284 437.546 144.297 421.336 133.85 407.468C112.957 379.73 105.572 366.402 101.43 348.21C98.0077 333.261 98.9082 329.118 105.933 329.118C108.814 329.118 111.516 329.839 112.057 330.559C112.597 331.46 113.858 339.385 114.938 348.21C115.839 357.036 117.28 367.122 117.82 370.544L118.721 377.028L140.334 374.867C152.222 373.786 162.308 372.345 163.029 371.805C163.569 371.085 163.209 359.557 161.948 346.049C159.606 317.231 157.265 311.827 144.117 305.343C132.229 299.58 103.591 298.859 84.4992 303.902Z" fill="#DC0032"/>
</svg>
