<svg width="571" height="617" viewBox="0 0 571 617" fill="none" xmlns="http://www.w3.org/2000/svg">
<g filter="url(#filter0_d)">
<path d="M316.853 20.5918C292.898 25.2747 277.048 36.2617 274.166 50.3105C273.445 54.6332 273.085 102.723 273.626 157.298C274.886 267.887 274.346 263.565 287.674 275.632C296.32 283.377 307.487 287.159 330.361 289.861C354.857 292.743 400.786 287.88 404.388 282.296C405.649 279.955 415.735 152.255 414.654 150.994C413.574 149.733 383.134 147.752 362.421 147.572L345.671 147.392V159.099C345.671 169.365 346.031 170.806 349.093 170.806C352.695 170.806 352.875 175.849 349.453 239.249L348.373 261.763L342.789 262.304C339.727 262.664 336.305 261.763 335.404 260.503C333.963 258.882 334.144 228.262 336.125 154.596C338.466 64.8997 339.367 50.6707 341.708 48.6895C345.311 45.8077 349.633 45.9878 353.596 48.8696C356.658 51.2111 356.838 53.7326 355.037 94.4382C354.136 118.033 353.596 137.665 353.776 137.846C354.136 138.566 414.474 142.168 415.195 141.628C415.915 140.727 421.318 69.4025 421.318 58.7758C421.318 47.0684 417.176 39.5037 406.909 32.8395C394.301 24.3742 378.451 21.1321 348.373 20.4117C333.603 20.0515 319.374 20.2316 316.853 20.5918Z" fill="url(#paint0_linear)" shape-rendering="crispEdges"/>
<path d="M164.657 23.1133C150.968 25.2746 136.019 29.7775 127.734 33.9201C118.008 38.7831 108.462 50.3104 107.201 58.4155C105.94 65.62 124.132 240.87 127.734 258.161C132.777 281.756 151.869 293.283 185.91 293.283C212.927 293.283 236.522 286.619 248.59 275.812C260.837 264.645 260.837 265.726 258.496 152.795C256.335 53.0121 256.335 52.832 252.192 45.2672C243.366 29.7775 227.336 23.1133 196.177 22.2127C184.83 21.8525 170.601 22.2127 164.657 23.1133ZM187.171 55.5337C189.333 56.7945 190.773 75.8865 195.636 156.757C201.22 250.236 201.4 256.54 198.518 258.521C193.835 262.124 188.972 261.223 187.351 256.72C186.631 254.559 183.389 214.213 180.147 167.204C176.905 120.194 173.843 76.2467 173.302 69.5825C172.222 58.0553 172.402 57.3348 176.544 55.7138C182.128 53.3723 183.929 53.3723 187.171 55.5337Z" fill="url(#paint1_linear)" shape-rendering="crispEdges"/>
<path d="M475.533 35.1808C455.72 109.928 413.934 292.022 416.095 294.004C416.996 294.904 470.129 300.848 470.85 300.127C471.03 299.767 472.651 291.122 474.272 280.675C475.893 270.409 477.514 261.583 477.874 261.403C478.234 261.043 481.656 261.223 485.439 261.943L492.643 263.024L491.202 275.812C490.482 283.017 489.942 292.022 489.942 295.985L489.761 303.189L516.238 307.152C533.529 309.673 543.255 310.394 543.976 309.313C545.957 305.891 550.82 148.112 551 84.1717V37.8825L545.236 36.8019C537.492 35.5411 483.277 28.5167 479.855 28.5167C478.414 28.5167 476.433 31.3985 475.533 35.1808ZM500.388 170.986C497.326 208.09 494.625 238.349 494.444 238.529C494.444 238.709 491.202 238.349 487.6 237.808C481.656 237.088 480.936 236.547 481.656 233.125C482.197 231.144 487.06 203.046 492.463 170.806C497.867 138.566 502.91 109.928 503.45 107.226C506.332 93.1773 505.611 109.568 500.388 170.986Z" fill="url(#paint2_linear)" shape-rendering="crispEdges"/>
<path d="M50.4652 35.0006C34.255 37.3421 20.5664 39.6836 20.0261 40.2239C19.4857 40.7643 27.4107 94.2579 37.6772 159.099C50.6453 241.41 55.6885 277.793 54.4277 279.054C53.347 280.135 49.2044 281.396 45.0618 281.936C40.9192 282.476 37.3169 283.557 36.7766 284.277C35.876 285.718 39.6584 308.052 41.0993 309.853C42.5402 311.475 83.2458 304.63 91.3509 301.208C100.537 297.426 109.362 288.42 111.524 280.675C112.965 275.812 110.263 248.435 98.9157 154.236C90.9907 88.3142 84.5066 33.3796 84.5066 32.2989C84.5066 29.9575 86.3078 29.7773 50.4652 35.0006Z" fill="url(#paint3_linear)" shape-rendering="crispEdges"/>
<path d="M223.194 315.257C220.672 321.201 212.747 458.267 209.505 550.665L208.244 585.607L220.672 584.526C227.517 583.806 237.783 583.266 243.547 583.266H253.813V541.84H266.421V551.566C266.421 556.789 266.961 565.975 267.502 571.738L268.582 582.545L290.016 582.185C301.903 582.185 311.99 581.645 312.35 581.104C313.25 580.204 304.425 481.862 298.841 430.169C292.718 374.695 286.233 319.58 285.333 315.257C284.432 311.295 284.072 311.295 254.714 311.295C225.535 311.295 224.815 311.295 223.194 315.257ZM260.117 444.579C261.558 472.856 263.359 500.954 263.899 507.078L264.98 518.425H253.813L253.993 449.442C254.173 408.556 254.714 383.16 255.614 386.942C256.515 390.364 258.496 416.301 260.117 444.579Z" fill="url(#paint4_linear)" shape-rendering="crispEdges"/>
<path d="M325.138 340.293C324.598 356.503 323.157 407.475 322.256 453.584C321.356 499.693 320.275 547.423 320.095 559.851L319.554 582.365L341.168 583.265C353.055 583.806 363.142 583.986 363.502 583.806C364.223 583.265 370.526 491.768 370.707 478.079L370.887 472.856L384.215 474.117L397.363 475.377L398.624 469.614C399.164 466.552 399.705 460.068 399.705 455.205V446.379H388.538C382.234 446.379 376.29 445.659 375.029 444.938C373.408 443.858 373.588 432.15 375.93 393.246L378.992 342.814L415.375 343.895L416.635 331.107C417.356 323.902 417.536 317.778 416.996 317.238C415.555 315.797 388.898 313.636 354.496 312.015L326.219 310.754L325.138 340.293Z" fill="url(#paint5_linear)" shape-rendering="crispEdges"/>
<path d="M421.679 450.162C414.474 522.927 408.53 583.806 408.71 585.427C408.71 587.768 410.151 588.669 413.754 588.669C416.455 588.669 433.206 590.65 450.857 593.172C468.688 595.513 483.638 597.314 483.818 596.954C484.178 596.594 485.439 590.83 486.519 584.166C488.861 569.937 488.681 569.577 472.471 567.956C466.527 567.235 460.583 566.155 459.502 565.434C458.061 564.534 459.142 551.746 463.645 519.505C466.887 495.01 469.949 474.657 470.309 474.297C470.669 474.117 476.433 474.657 483.097 475.558C489.761 476.638 495.705 476.999 496.065 476.638C496.606 476.098 497.506 470.875 498.047 464.931L499.307 453.944L487.24 452.683C480.756 451.963 474.812 450.702 474.272 449.802C473.371 448.18 485.799 354.341 487.06 353.081C487.42 352.72 494.985 353.441 503.99 354.522C512.996 355.782 520.921 356.683 521.641 356.683C523.082 356.503 528.306 331.287 527.225 330.206C526.324 329.306 462.744 320.48 448.155 319.219L434.647 318.139L421.679 450.162Z" fill="url(#paint6_linear)" shape-rendering="crispEdges"/>
<path d="M104.499 323.902C70.4578 333.088 64.514 344.255 73.6998 382.619C78.743 404.413 87.3884 420.803 103.599 440.076C123.411 463.67 132.417 476.819 139.261 491.768C146.646 507.618 152.589 530.853 154.21 548.684L155.291 561.652H149.708C142.863 561.652 143.224 562.913 139.261 527.43C137.64 513.021 135.839 500.774 135.118 500.233C133.858 498.792 94.9532 503.836 93.3322 505.457C90.9907 507.798 102.338 571.018 106.12 577.142C111.704 585.787 120.529 589.389 139.441 590.11C166.638 591.19 188.972 582.905 195.276 569.397C197.978 563.813 198.338 559.851 197.438 544.541C195.456 513.382 188.972 486.365 178.166 463.49C175.284 457.546 164.297 441.336 153.85 427.468C132.957 399.73 125.572 386.402 121.43 368.21C118.008 353.261 118.908 349.118 125.933 349.118C128.814 349.118 131.516 349.839 132.057 350.559C132.597 351.46 133.858 359.385 134.938 368.21C135.839 377.036 137.28 387.122 137.82 390.544L138.721 397.028L160.334 394.867C172.222 393.786 182.308 392.345 183.029 391.805C183.569 391.085 183.209 379.557 181.948 366.049C179.606 337.231 177.265 331.827 164.117 325.343C152.229 319.58 123.591 318.859 104.499 323.902Z" fill="url(#paint7_linear)" shape-rendering="crispEdges"/>
</g>
<defs>
<filter id="filter0_d" x="0" y="0.215332" width="571" height="616.785" filterUnits="userSpaceOnUse" color-interpolation-filters="sRGB">
<feFlood flood-opacity="0" result="BackgroundImageFix"/>
<feColorMatrix in="SourceAlpha" type="matrix" values="0 0 0 0 0 0 0 0 0 0 0 0 0 0 0 0 0 0 127 0" result="hardAlpha"/>
<feOffset/>
<feGaussianBlur stdDeviation="10"/>
<feComposite in2="hardAlpha" operator="out"/>
<feColorMatrix type="matrix" values="0 0 0 0 0.862745 0 0 0 0 0 0 0 0 0 0.196078 0 0 0 0.4 0"/>
<feBlend mode="normal" in2="BackgroundImageFix" result="effect1_dropShadow"/>
<feBlend mode="normal" in="SourceGraphic" in2="effect1_dropShadow" result="shape"/>
</filter>
<linearGradient id="paint0_linear" x1="285.5" y1="20.2153" x2="286" y2="641" gradientUnits="userSpaceOnUse">
<stop stop-color="#DC0032"/>
<stop offset="1" stop-color="#DC0032" stop-opacity="0.5"/>
</linearGradient>
<linearGradient id="paint1_linear" x1="285.5" y1="20.2153" x2="286" y2="641" gradientUnits="userSpaceOnUse">
<stop stop-color="#DC0032"/>
<stop offset="1" stop-color="#DC0032" stop-opacity="0.5"/>
</linearGradient>
<linearGradient id="paint2_linear" x1="285.5" y1="20.2153" x2="286" y2="641" gradientUnits="userSpaceOnUse">
<stop stop-color="#DC0032"/>
<stop offset="1" stop-color="#DC0032" stop-opacity="0.5"/>
</linearGradient>
<linearGradient id="paint3_linear" x1="285.5" y1="20.2153" x2="286" y2="641" gradientUnits="userSpaceOnUse">
<stop stop-color="#DC0032"/>
<stop offset="1" stop-color="#DC0032" stop-opacity="0.5"/>
</linearGradient>
<linearGradient id="paint4_linear" x1="285.5" y1="20.2153" x2="286" y2="641" gradientUnits="userSpaceOnUse">
<stop stop-color="#DC0032"/>
<stop offset="1" stop-color="#DC0032" stop-opacity="0.5"/>
</linearGradient>
<linearGradient id="paint5_linear" x1="285.5" y1="20.2153" x2="286" y2="641" gradientUnits="userSpaceOnUse">
<stop stop-color="#DC0032"/>
<stop offset="1" stop-color="#DC0032" stop-opacity="0.5"/>
</linearGradient>
<linearGradient id="paint6_linear" x1="285.5" y1="20.2153" x2="286" y2="641" gradientUnits="userSpaceOnUse">
<stop stop-color="#DC0032"/>
<stop offset="1" stop-color="#DC0032" stop-opacity="0.5"/>
</linearGradient>
<linearGradient id="paint7_linear" x1="285.5" y1="20.2153" x2="286" y2="641" gradientUnits="userSpaceOnUse">
<stop stop-color="#DC0032"/>
<stop offset="1" stop-color="#DC0032" stop-opacity="0.5"/>
</linearGradient>
</defs>
</svg>
