<svg width="211" height="57" viewBox="0 0 211 57" fill="none" xmlns="http://www.w3.org/2000/svg">
<path d="M64.6452 1.08789H60.4912V56.9846H64.6452V1.08789Z" fill="#ED145B"/>
<path d="M36.7543 27.8389H16.4863V31.6733H36.7543V27.8389Z" fill="#ED145B"/>
<path d="M0.988281 1.08789V56.9846H5.1423V31.6724V27.838V4.92237H48.1889V1.08789" fill="#ED145B"/>
<path d="M189.495 0.859375H156.399V56.7561H160.553V35.9175V32.083V4.69386H189.175C199.195 4.69386 206.042 9.41849 206.042 18.2058V18.3656C206.042 26.6508 199.012 32.0602 188.65 32.0602H175.595V35.8947H188.445C200.108 35.8947 210.242 29.8234 210.242 18.0917V17.9548C210.242 7.13606 201.774 0.859375 189.495 0.859375Z" fill="#ED145B"/>
<path d="M132.251 32.0834L112.873 0.654297H108.878L74.3682 56.9618H78.682L110.819 5.19633L127.549 32.0834" fill="#ED145B"/>
<path d="M138.642 42.4219H133.985L143.024 56.961H147.589" fill="#ED145B"/>
</svg>
