<svg width="110" height="92" viewBox="0 0 110 92" fill="none" xmlns="http://www.w3.org/2000/svg">
<path d="M48.1471 31.1079V31.7554C48.1471 51.4573 48.1471 71.1592 48.1563 90.8611C48.1563 91.3236 48.1649 91.4346 48.1649 91.4346C45.1125 91.4068 41.478 91.4161 38.4256 91.4346C38.0279 91.4346 37.8799 91.4309 37.8799 91.4309C37.8891 66.244 37.8891 40.0394 37.8799 14.8524C37.8799 14.8524 38.0094 14.8465 38.3979 14.856C41.4965 14.8745 45.0616 14.8745 48.1603 14.856C48.1603 14.856 48.2396 14.967 48.4431 15.2445C52.8459 21.2753 57.2581 27.2969 61.6794 33.3185C61.7442 33.4017 61.8089 33.485 61.9014 33.596C62.0217 33.4017 61.9754 33.2167 61.9754 33.0502V14.8792C61.9754 14.8792 61.9014 14.8746 62.5489 14.8746C65.6013 14.8746 69.197 14.8836 72.2494 14.8653C72.2494 14.8653 72.2241 14.9948 72.2241 15.4018C72.2148 40.5795 72.2149 65.748 72.2241 90.9258C72.2241 91.3605 72.2124 91.4531 72.2124 91.4531C69.1414 91.4345 65.5551 91.4345 62.4841 91.4531C62.0402 91.4531 61.9662 91.4457 61.9662 91.4457C61.9754 77.7561 61.9754 63.5281 61.9847 49.8385C61.9847 49.3575 61.8552 48.9968 61.5684 48.6175C57.1471 42.855 52.7349 37.0739 48.3228 31.302C48.2858 31.2465 48.2488 31.2188 48.1471 31.1078L48.1471 31.1079Z" fill="#C92237"/>
<path d="M85.8853 57.4784C85.8853 46.3602 85.8853 34.6752 85.8945 23.557C85.8945 23.557 85.7465 23.5506 85.2933 23.5506C82.2224 23.5691 79.1607 23.5599 76.0898 23.5691C75.7568 23.5691 75.6458 23.5621 75.6458 23.5621C75.6643 20.9444 75.6643 17.8991 75.6458 15.2814C75.6458 14.9392 75.6416 14.8467 75.6416 14.8467C86.806 14.8557 98.8234 14.8628 109.988 14.8535C109.988 14.8535 109.99 14.8929 109.861 15.2444C108.843 17.9083 107.835 20.5815 106.845 23.2547C106.734 23.5414 106.718 23.5599 106.718 23.5599C103.499 23.5507 99.352 23.5692 96.1331 23.5507C96.1331 23.5507 96.1343 23.6524 96.1343 24.0686C96.1435 46.3142 96.1435 68.5506 96.1435 90.7962C96.1435 91.4714 96.1448 91.4066 96.1448 91.4066C93.1201 91.4066 89.4839 91.3974 86.4593 91.4252C85.9505 91.4252 85.8765 91.4113 85.8765 91.4113C85.8858 80.3024 85.8858 68.5967 85.8858 57.4785L85.8853 57.4784Z" fill="#C92237"/>
<path d="M0.140632 14.8557H0.677117C11.7583 14.8557 23.3919 14.8557 34.4731 14.8467C34.4731 14.8467 34.4757 14.9762 34.4664 15.4017C34.4479 17.9731 34.4479 20.5538 34.4664 23.1252C34.4664 23.4952 34.4618 23.5692 34.4618 23.5692C31.3909 23.5506 27.8806 23.5692 24.8097 23.5506C24.3472 23.5506 24.2362 23.5711 24.2362 23.5711C24.2454 43.3008 24.2454 63.5926 24.2454 83.3223C24.2454 85.8382 24.2389 88.9108 24.2547 91.4267C24.2547 91.4267 24.1714 91.4343 23.7089 91.4343C20.6565 91.4158 17.6041 91.4158 14.5517 91.4343C14.117 91.4343 13.9967 91.4098 13.9967 91.4098C14.006 69.1827 14.006 45.8139 14.006 23.5868C14.006 23.5868 14.006 23.578 13.3677 23.578C10.1951 23.578 6.57418 23.5688 3.40152 23.5871C3.40152 23.5871 3.37803 23.4946 3.25778 23.1801C2.28656 20.5624 1.29684 17.954 0.316368 15.3363C0.251624 15.1883 0.205371 15.0403 0.140625 14.8553L0.140632 14.8557Z" fill="#C92237"/>
<path d="M36.566 0.242188C36.3255 0.242188 36.2422 0.306687 36.2422 0.556434C36.2515 1.7774 36.2512 2.98933 36.2512 4.21031C36.2512 4.32131 36.2233 4.45049 36.3898 4.50599C36.8985 4.67248 37.1854 4.46919 37.1854 3.93271C37.1854 3.68296 37.1947 3.44254 37.1854 3.19281C37.1762 2.9893 37.2597 2.92465 37.454 2.93379C37.8054 2.94293 38.1661 2.93379 38.5176 2.93379C39.8403 2.93379 39.8585 2.93354 40.0065 4.24697C40.0343 4.48736 40.1641 4.54319 40.3398 4.49694C40.5526 4.45068 40.8763 4.70057 40.9688 4.33982C41.163 3.6276 40.8853 2.96124 40.2841 2.53574C40.8668 2.06401 41.1167 1.4537 40.8855 0.944968C40.6357 0.352988 40.0714 0.288306 39.5256 0.269803C38.5359 0.242056 37.5557 0.260661 36.566 0.242188H36.566ZM38.5543 0.905449C38.7763 0.905444 38.9984 0.908105 39.2204 0.917345C39.6922 0.935823 39.9513 1.18545 39.9513 1.57394C39.9513 1.97167 39.7014 2.20271 39.2204 2.21196C38.9244 2.22132 38.6375 2.21196 38.3415 2.21196H37.7868C37.1855 2.21196 37.1854 2.21203 37.1854 1.60155C37.1854 0.907825 37.1857 0.907822 37.8887 0.907822C38.1107 0.907822 38.3323 0.905382 38.5543 0.905382V0.905449Z" fill="#C92237"/>
<path d="M48.3775 3.90458C47.471 4.70931 46.4443 4.68156 45.4083 4.41332C44.4094 4.15433 43.9469 3.37734 43.9654 2.22113C43.9839 1.23142 44.5389 0.528429 45.5008 0.297188C46.3333 0.102943 47.1843 0.121442 48.0075 0.361935C48.4515 0.491432 48.8215 0.722674 49.0342 1.15741C49.1267 1.35166 49.1452 1.49965 48.84 1.4904C48.4607 1.4719 48.1278 1.4904 47.7948 1.18516C47.3045 0.741172 46.0003 0.778173 45.4823 1.18516C45.0013 1.5644 44.8626 2.07313 44.9736 2.66512C45.1031 3.36811 45.5656 3.73808 46.2223 3.83983C46.842 3.94157 47.4618 3.92309 47.9335 3.4051C48.0538 3.2756 48.1925 3.09062 48.1185 2.90562C48.0445 2.71137 47.8225 2.83161 47.6653 2.81313C47.4803 2.79463 47.2953 2.80399 47.1103 2.80399C46.953 2.80399 46.8883 2.72998 46.8883 2.58199C46.8883 2.4155 46.9438 2.32298 47.1288 2.33224C47.7485 2.3416 48.359 2.3416 48.9787 2.33224C49.2007 2.33224 49.2192 2.46174 49.2192 2.63749C49.2192 3.14623 49.2192 3.65496 49.2192 4.1637C49.2192 4.33019 49.2562 4.52443 48.9787 4.50594C48.766 4.48744 48.4977 4.59843 48.4607 4.23768C48.4515 4.13594 48.4145 4.03419 48.3775 3.90469V3.90458Z" fill="#C92237"/>
<path d="M71.7703 0.242191C71.5391 0.242191 71.4561 0.30669 71.4561 0.556437C71.4653 1.7774 71.4746 2.98933 71.4561 4.21031C71.4561 4.66355 71.7706 4.48749 71.9741 4.50599C72.1776 4.53376 72.4182 4.57104 72.3812 4.21031C72.3534 3.88655 72.3902 3.56272 72.3717 3.23899C72.3532 2.98 72.4551 2.92465 72.6864 2.93379C73.2136 2.9523 73.7314 2.92433 74.2586 2.94283C74.9338 2.96133 75.2297 3.26681 75.2389 3.95129C75.2389 4.06228 75.2482 4.16406 75.2389 4.27506C75.2297 4.45081 75.3037 4.55225 75.4794 4.50599C75.7106 4.44126 76.0529 4.6909 76.1731 4.35791C76.4136 3.71055 76.0996 2.94278 75.4708 2.53574C76.0254 2.12877 76.2749 1.5463 76.1269 1.01924C76.0067 0.575257 75.5443 0.288306 74.8228 0.269803C73.8053 0.242056 72.7878 0.260661 71.7703 0.242188L71.7703 0.242191ZM74.0229 0.911642C74.1848 0.910424 74.3467 0.912614 74.5086 0.926388C74.9526 0.963389 75.1837 1.21306 75.1652 1.60155C75.1467 1.98079 74.9061 2.2027 74.4529 2.21196C73.8516 2.22132 73.2503 2.20298 72.6583 2.22149C72.4271 2.23085 72.3904 2.12882 72.3812 1.92533C72.3349 0.907857 72.3348 0.908097 73.5372 0.917349C73.6991 0.917349 73.861 0.912796 74.0229 0.91165V0.911642Z" fill="#C92237"/>
<path d="M65.1327 0.233828C64.6321 0.23729 64.1305 0.260423 63.631 0.241923C63.3813 0.232683 63.4091 0.389886 63.4091 0.54713V2.35073C63.4091 2.9612 63.4089 3.58099 63.4182 4.19147C63.4182 4.31172 63.3536 4.50582 63.5848 4.49668C64.7503 4.45967 65.9343 4.64479 67.072 4.27479C67.6548 4.08056 68.1077 3.71038 68.2557 3.09064C68.5887 1.71242 68.1725 0.63933 66.6278 0.34334C66.1329 0.246215 65.6334 0.230359 65.1327 0.233828ZM65.0404 0.906605C65.1413 0.905386 65.2566 0.906402 65.3884 0.90758C65.6659 0.90758 65.9434 0.935609 66.2117 0.981857C66.9886 1.12986 67.3863 1.59199 67.3863 2.34123C67.3863 3.09046 67.0073 3.58097 66.2488 3.73821C65.6938 3.84921 65.1201 3.80276 64.5466 3.81201C64.3431 3.81201 64.3338 3.69196 64.3338 3.54395V2.35075V1.93461C64.3338 1.02813 64.334 0.914596 65.0404 0.906627V0.906605Z" fill="#C92237"/>
<path d="M24.9299 3.47909C24.9299 2.44311 24.9485 1.52739 24.9207 0.611664C24.9114 0.287924 25.0317 0.213924 25.3184 0.241676C25.5589 0.269424 25.8364 0.149178 25.8272 0.602417C25.7994 1.76788 25.8087 2.94259 25.8179 4.11731C25.8179 4.40405 25.7624 4.51504 25.4387 4.5243C25.0132 4.5243 24.7079 4.43181 24.4027 4.08957C23.5887 3.1461 22.7285 2.24886 21.7943 1.24065C21.7943 1.73089 21.7943 2.10087 21.7943 2.4801C21.7943 3.00735 21.7758 3.52534 21.8035 4.05256C21.822 4.3948 21.748 4.5243 21.3595 4.53355C20.9526 4.54269 20.9248 4.36706 20.9248 4.04333C20.9433 2.91486 20.9433 1.79563 20.9248 0.667164C20.9248 0.361925 20.9711 0.260175 21.3133 0.241676C21.8035 0.213924 22.1273 0.380426 22.451 0.750413C23.228 1.64764 24.0512 2.50786 24.9299 3.47909H24.9299Z" fill="#C92237"/>
<path d="M87.6433 3.47952C87.6433 2.42503 87.6618 1.50006 87.6341 0.575093C87.6248 0.242105 87.7821 0.223603 88.0226 0.25135C88.2261 0.279103 88.5406 0.103359 88.5313 0.556598C88.5128 1.77756 88.522 2.98926 88.5313 4.21024C88.5313 4.45997 88.4388 4.50622 88.2076 4.52472C87.7451 4.56172 87.4121 4.43224 87.0976 4.06224C86.2929 3.13728 85.4419 2.24928 84.5169 1.25032C84.5169 1.61106 84.5169 1.86081 84.5169 2.11055C84.5169 2.73954 84.4892 3.37775 84.5262 4.00674C84.5539 4.4415 84.4059 4.56172 83.9897 4.53398C83.74 4.51548 83.6475 4.46923 83.6475 4.20099C83.6567 2.99852 83.6567 1.79606 83.6475 0.593596C83.6475 0.32535 83.7307 0.279103 83.9805 0.25135C84.4799 0.214352 84.8314 0.353102 85.1644 0.75084C85.9321 1.64807 86.7646 2.50829 87.6433 3.47952Z" fill="#C92237"/>
<path d="M29.1291 2.38715C29.1291 1.78592 29.1383 1.18468 29.1198 0.583449C29.1106 0.324455 29.1938 0.241211 29.4621 0.241211C30.5258 0.250475 31.5895 0.250475 32.6532 0.241211C32.9122 0.241211 33.0047 0.305956 32.9955 0.574201C32.9955 0.823943 32.94 0.925693 32.6717 0.916446C31.9132 0.897943 31.164 0.925704 30.4055 0.907177C30.1003 0.897913 29.98 0.990427 30.0263 1.29567C30.0356 1.38817 30.0448 1.48066 30.0263 1.57316C29.9523 1.96165 30.1558 2.0264 30.498 2.01715C31.1918 1.99864 31.8855 2.02641 32.5792 2.00788C32.8567 1.99862 32.9122 2.10038 32.9122 2.35014C32.9122 2.59987 32.8567 2.70164 32.5885 2.69238C31.8762 2.67388 31.1733 2.71088 30.461 2.67387C30.1003 2.65537 30.017 2.78487 30.0355 3.11786C30.0725 3.93185 29.9246 3.80235 30.757 3.8116C31.423 3.82096 32.0797 3.82096 32.7457 3.8116C33.0232 3.80246 33.0695 3.92259 33.0787 4.16309C33.0787 4.42208 33.0047 4.50534 32.7365 4.50534C31.645 4.4962 30.5443 4.4962 29.4528 4.50534C29.2031 4.50534 29.1383 4.41282 29.1383 4.18158C29.1383 3.58961 29.1291 2.98838 29.1291 2.38713L29.1291 2.38715Z" fill="#C92237"/>
<path d="M13.8115 2.35066C13.8115 1.76791 13.8208 1.17593 13.8115 0.5932C13.8023 0.352707 13.8393 0.232456 14.126 0.241707C15.2082 0.260186 16.2812 0.260186 17.3634 0.241707C17.6594 0.241707 17.6779 0.371203 17.6779 0.602447C17.6872 0.852189 17.5947 0.916939 17.3542 0.907688C16.5957 0.898424 15.8465 0.916928 15.088 0.898425C14.792 0.889162 14.6533 0.96317 14.6995 1.27766C14.718 1.39791 14.718 1.52741 14.6995 1.64766C14.6625 1.93439 14.792 2.01764 15.0695 2.0084C15.791 1.98989 16.5217 2.01765 17.2432 1.99913C17.5114 1.98986 17.5762 2.09162 17.5762 2.34138C17.5762 2.60036 17.5022 2.69288 17.2339 2.68362C16.5217 2.66512 15.8187 2.69277 15.1065 2.67426C14.7827 2.6649 14.6533 2.75752 14.6903 3.09051C14.7088 3.19225 14.7088 3.30325 14.6903 3.41425C14.644 3.73798 14.7735 3.83972 15.0972 3.83049C15.8372 3.80273 16.5772 3.83049 17.3172 3.82113C17.5669 3.82113 17.7149 3.83049 17.7057 4.15412C17.6964 4.43161 17.6317 4.5241 17.3449 4.51484C16.2812 4.49634 15.2175 4.49634 14.1538 4.51484C13.8763 4.51484 13.7745 4.45012 13.7838 4.15412C13.83 3.55289 13.8115 2.95164 13.8115 2.35042V2.35066Z" fill="#C92237"/>
<path d="M95.9309 4.50614C95.6164 4.50614 95.3204 4.48764 95.0337 4.5155C94.7932 4.53401 94.636 4.43227 94.4787 4.27501C94.044 3.83102 93.6092 3.40555 93.1653 2.98007C93.0728 2.88756 93.008 2.74882 92.7953 2.74882C92.7953 3.2298 92.7675 3.70154 92.8045 4.16401C92.8323 4.56175 92.5825 4.52476 92.3328 4.5155C92.1015 4.50614 91.8426 4.59877 91.8518 4.17326C91.8796 2.97081 91.8703 1.76834 91.8518 0.565871C91.8425 0.121886 92.1385 0.269884 92.3513 0.251383C92.5733 0.232904 92.823 0.186632 92.7953 0.565871C92.7675 0.963611 92.786 1.36135 92.786 1.87008C93.267 1.45384 93.711 1.13936 94.0532 0.750872C94.5342 0.195889 95.117 0.205134 95.8292 0.28838C95.154 0.871116 94.5527 1.43535 93.9145 1.95333C93.674 2.14757 93.7202 2.24008 93.9052 2.42506C94.5712 3.09106 95.2279 3.78477 95.9309 4.50625V4.50614Z" fill="#C92237"/>
<path d="M56.786 0.30638C56.2957 0.953864 55.861 1.60134 55.3523 2.18409C54.9083 2.69282 54.7325 3.23855 54.788 3.90453C54.8435 4.50576 54.64 4.626 54.0388 4.50576C53.9278 4.47802 53.8723 4.44102 53.8723 4.33926C53.8723 4.29301 53.863 4.24677 53.8723 4.20052C54.0666 3.2293 53.6318 2.49857 53.0028 1.81409C52.5866 1.35161 52.2259 0.833618 51.8281 0.324883C52.6791 0.112139 52.8548 0.167637 53.3451 0.824368C53.6596 1.24061 53.9741 1.65684 54.2978 2.07308C54.3163 2.09158 54.3441 2.10084 54.3996 2.13785C54.714 1.7216 55.0655 1.3331 55.3338 0.889115C55.676 0.343383 56.0922 0.0936393 56.786 0.30638Z" fill="#C92237"/>
<path d="M79.3923 2.36874C79.3923 1.76751 79.4201 1.16628 79.3831 0.565045C79.3553 0.167307 79.5958 0.222809 79.8178 0.241309C80.0213 0.259788 80.3358 0.0933148 80.3265 0.537302C80.308 1.74902 80.308 2.96999 80.3265 4.19095C80.3358 4.63493 80.0305 4.47769 79.8178 4.4962C79.5865 4.5147 79.3646 4.55169 79.3831 4.17244C79.4201 3.57121 79.3923 2.96999 79.3923 2.36874Z" fill="#C92237"/>
</svg>
