<?xml version="1.0" standalone="no"?>
<!DOCTYPE svg PUBLIC "-//W3C//DTD SVG 1.1//EN" "http://www.w3.org/Graphics/SVG/1.1/DTD/svg11.dtd" >
<svg>
<metadata>
Created by FontForge 20120731 at Wed Sep 18 18:19:46 2019
 By www
Copyright (c) 2014 Commercial Type. All rights reserved. [wfr]
</metadata>
<defs>
<font id="Druk-WideMedium" horiz-adv-x="1445" >
  <font-face 
    font-family="Druk-WideMedium"
    font-weight="500"
    font-stretch="expanded"
    units-per-em="2048"
    panose-1="0 0 0 0 0 0 0 0 0 0"
    ascent="1638"
    descent="-410"
    x-height="1102"
    cap-height="1524"
    bbox="-227 -580 5120 2451"
    underline-thickness="102"
    underline-position="-204"
    unicode-range="U+000D-FB02"
  />
<missing-glyph horiz-adv-x="1007" 
d="M504 616l-342 -516h684zM504 797l344 516h-686zM100 1223v-1030l344 514zM907 193v1030l-344 -516zM0 1413h1008v-1413h-1008v1413z" />
    <glyph glyph-name=".notdef" horiz-adv-x="1007" 
d="M504 616l-342 -516h684zM504 797l344 516h-686zM100 1223v-1030l344 514zM907 193v1030l-344 -516zM0 1413h1008v-1413h-1008v1413z" />
    <glyph glyph-name=".null" horiz-adv-x="0" 
 />
    <glyph glyph-name="nonmarkingreturn" horiz-adv-x="681" 
 />
    <glyph glyph-name="NULL" horiz-adv-x="0" 
 />
    <glyph glyph-name="NULL" horiz-adv-x="0" 
 />
    <glyph glyph-name="CR" unicode="&#xd;" horiz-adv-x="630" 
 />
    <glyph glyph-name="space" unicode=" " horiz-adv-x="630" 
 />
    <glyph glyph-name="exclam" unicode="!" horiz-adv-x="655" 
d="M575 358v-358h-495v358h495zM49 1524h557l-141 -1061h-275z" />
    <glyph glyph-name="quotedbl" unicode="&#x22;" horiz-adv-x="993" 
d="M444 1524v-506h-372v506h372zM922 1524v-506h-373v506h373z" />
    <glyph glyph-name="numbersign" unicode="#" horiz-adv-x="1593" 
d="M719 0l121 440h-287l-121 -440h-293l121 440h-254l62 228h254l71 256h-256l64 227h254l102 373h295l-102 -373h286l103 373h295l-103 -373h256l-63 -227h-256l-72 -256h260l-63 -228h-258l-123 -440h-293zM903 668l70 256h-287l-70 -256h287z" />
    <glyph glyph-name="dollar" unicode="$" horiz-adv-x="1941" 
d="M1040 -154h-190v127q-815 18 -815 545v23h481q0 -88 74 -162t260 -92v338l-80 2q-715 20 -715 444v19q1 74 19 135t71 121q174 198 705 196v123h190v-123q361 -4 568 -106q241 -123 241 -367v-20h-479q-16 170 -330 188v-281l90 -2q414 -12 592 -114t179 -328v-29
q-1 -83 -19 -151t-74 -138q-180 -222 -768 -221v-127zM1417 457v8q0 73 -77 109t-300 44v-335q245 8 317 64q36 29 48 53t12 57zM530 1104v-2q0 -35 20 -60q20 -26 93 -48q74 -22 207 -29v276q-290 -7 -315 -100q-5 -14 -5 -37z" />
    <glyph glyph-name="percent" unicode="%" horiz-adv-x="2887" 
d="M2228 238q141 0 207 54t66 130v16q0 78 -65 129t-208 51q-142 0 -206 -51t-64 -129v-12q0 -80 64 -134t206 -54zM2255 -16h-51q-141 0 -249 30t-168 77q-60 45 -98 107q-63 102 -63 216v35q0 116 63 213q38 59 98 104t168 75t249 29h51q174 0 296 -43t178 -113
q103 -128 101 -265v-35q0 -119 -49 -197q-49 -79 -108 -125t-168 -78q-109 -30 -250 -30zM389 1098q1 -80 65 -134t204 -55q140 1 206 55t66 130v16q0 180 -270 180t-271 -180v-12zM2060 1524h406l-1643 -1524h-403zM684 657h-49q-141 0 -250 31t-169 76t-108 123t-51 198
v35q0 200 159 319q60 43 169 73t250 30h49q141 0 249 -30t168 -74t108 -120q48 -77 51 -198v-35q0 -141 -100 -268q-56 -72 -178 -116t-298 -44z" />
    <glyph glyph-name="ampersand" unicode="&#x26;" horiz-adv-x="2244" 
d="M977 -27q-944 0 -944 461v23q0 297 471 368q-203 152 -203 342v17q0 59 13 106q12 48 54 100q134 169 578 166h109q631 0 631 -362v-10q0 -283 -498 -375l416 -281q102 162 102 396h448q-12 -336 -212 -578q124 -35 317 -35l-127 -334q-287 0 -506 121
q-270 -125 -649 -125zM949 270q211 0 349 37l-614 400q-164 -61 -164 -195v-6q0 -98 109 -167t320 -69zM1268 1149q0 74 -60 112q-60 37 -204 37t-195 -30t-51 -85t50 -103t181 -136q279 84 279 205z" />
    <glyph glyph-name="quotesingle" unicode="'" horiz-adv-x="516" 
d="M444 1524v-506h-372v506h372z" />
    <glyph glyph-name="parenleft" unicode="(" horiz-adv-x="688" 
d="M72 686q0 538 372 969h250q-114 -189 -184 -441t-70 -519t70 -519t184 -444h-250q-372 416 -372 954z" />
    <glyph glyph-name="parenright" unicode=")" horiz-adv-x="688" 
d="M248 695q0 267 -70 518t-184 442h250q373 -445 373 -975t-373 -948h-250q114 192 184 444t70 519z" />
    <glyph glyph-name="asterisk" unicode="*" horiz-adv-x="923" 
d="M555 1288l201 168l125 -229l-267 -76l267 -78l-125 -227l-201 166l59 -238h-305l62 238l-199 -166l-129 227l262 78l-262 76l129 229l199 -168l-62 236h305z" />
    <glyph glyph-name="plus" unicode="+" horiz-adv-x="1275" 
d="M1198 489h-389v-360h-344v360h-387v283h387v361h344v-361h389v-283z" />
    <glyph glyph-name="comma" unicode="," horiz-adv-x="636" 
d="M72 0v358h493v-297q1 -57 -29 -132t-67 -130h-260q63 123 76 201h-213z" />
    <glyph glyph-name="hyphen" unicode="-" horiz-adv-x="813" 
d="M78 784h657v-352h-657v352z" />
    <glyph glyph-name="period" unicode="." horiz-adv-x="636" 
d="M565 358v-358h-493v358h493z" />
    <glyph glyph-name="slash" unicode="/" horiz-adv-x="962" 
d="M983 1655l-713 -1923h-346l711 1923h348z" />
    <glyph glyph-name="zero" unicode="0" horiz-adv-x="2256" 
d="M1702 754v28q0 149 -111 262q-59 60 -178 98t-271 38q-275 0 -421 -90q-166 -106 -166 -308v-24q0 -148 111 -270q59 -66 178 -104q118 -38 284 -38t285 38t178 101q111 119 111 269zM2202 797v-62q0 -94 -18 -183t-85 -199q-66 -109 -172 -189t-301 -135t-452 -56h-91
q-257 -1 -451 55t-300 135t-172 189t-85 200q-19 89 -20 183v62q0 94 20 183q19 89 85 198q66 108 172 186t300 132t451 54h91q258 0 452 -54t301 -132q106 -78 172 -186q67 -108 85 -198q18 -89 18 -183z" />
    <glyph glyph-name="one" unicode="1" horiz-adv-x="993" 
d="M395 944h-354v287q336 20 455 293h372v-1524h-473v944z" />
    <glyph glyph-name="two" unicode="2" horiz-adv-x="1988" 
d="M1919 0h-1860v172q0 209 73 333t232 222t443 158l356 73q141 27 184 56q42 30 42 68t-24 61t-113 40t-235 17q-147 0 -237 -22t-129 -59t-52 -67t-15 -67h-498v16q0 66 12 125q12 60 64 142t140 140q87 58 254 100t392 42h82q581 0 764 -199q58 -62 78 -127t20 -143v-4
q0 -95 -22 -159q-52 -149 -263 -225q-118 -42 -302 -72l-418 -70q-401 -74 -402 -191h965v197h469v-557z" />
    <glyph glyph-name="three" unicode="3" horiz-adv-x="1990" 
d="M1036 -27h-96q-329 0 -543 85q-254 105 -329 303q-35 88 -35 180v16h502q37 -231 448 -231q334 0 422 85q27 26 32 43t5 42q0 119 -213 118h-539v355h514q199 0 199 100q0 19 -6 35t-33 36q-87 63 -404 62q-317 0 -393 -100q-25 -33 -27 -41t-5 -33h-498v21q0 141 88 257
q35 44 101 91q216 153 681 153h86q639 0 824 -185q55 -56 70 -103t16 -105v-12q0 -109 -76 -177t-168 -87q102 -28 197 -116q94 -88 94 -257v-14q-1 -521 -914 -521z" />
    <glyph glyph-name="four" unicode="4" horiz-adv-x="1953" 
d="M1143 670v479l-559 -479h559zM1614 1530v-860h309v-355h-309v-315h-471v315h-1116v289l1073 926h514z" />
    <glyph glyph-name="five" unicode="5" horiz-adv-x="1916" 
d="M934 -27q-435 0 -662 147q-114 73 -164 181q-38 78 -38 162v14h503q41 -152 408 -151q237 0 315 52t78 134v12q0 82 -79 134t-333 52t-353 -73q-36 -26 -42 -49h-465v936h1665v-355h-1196v-272q180 141 543 141h19q437 0 599 -152q78 -75 110 -161t32 -199v-12
q0 -171 -97 -297q-185 -244 -747 -244h-96z" />
    <glyph glyph-name="six" unicode="6" horiz-adv-x="2031" 
d="M598 498v-6q0 -65 81 -115q91 -60 365 -62q442 0 443 170v9q1 32 -15 58t-59 54q-85 54 -369 56q-446 0 -446 -164zM1092 -31h-91q-225 0 -397 47t-273 121t-165 178q-63 105 -85 205t-22 215v49q0 237 115 421q66 103 166 177t265 121t378 47h82q246 0 422 -45t266 -119
q168 -138 168 -313v-8h-491q-27 43 -58 63q-109 70 -348 70q-125 0 -219 -28t-143 -66t-87 -106q-38 -67 -38 -156v-8q90 63 174 90q176 57 458 57h27q791 0 791 -471v-18q-1 -76 -19 -142t-76 -138t-153 -124q-94 -51 -260 -85t-387 -34z" />
    <glyph glyph-name="seven" unicode="7" horiz-adv-x="1935" 
d="M72 1524h1820v-322q-18 -20 -128 -141t-260 -318q-150 -196 -194 -352t-44 -373v-18h-547v193q0 180 82 320q81 139 329 375t266 258t19 34h-860v-314h-483v658z" />
    <glyph glyph-name="eight" unicode="8" horiz-adv-x="1982" 
d="M1448 463v6q0 33 -13 55t-57 48q-88 49 -390 50t-389 -51q-42 -25 -54 -47t-13 -55v-6q0 -84 112 -122t289 -38q463 0 508 117q7 18 7 43zM1407 1096v6q0 20 -5 36t-30 39q-77 68 -382 68t-383 -68q-25 -22 -29 -37t-5 -38v-6q0 -43 30 -71q82 -77 339 -77q353 0 430 71
q25 22 30 38t5 39zM1901 1139v-21q-1 -133 -101 -217t-211 -98q137 -23 243 -112t107 -230v-27q0 -60 -15 -114q-14 -54 -70 -122t-149 -115q-93 -48 -265 -81t-404 -33h-90q-905 0 -905 465v27q0 135 107 224q108 89 245 118q-121 20 -218 101t-97 214v21q0 135 86 221
q190 190 782 190h90q232 0 400 -30t255 -73q87 -41 137 -103t62 -107t11 -98z" />
    <glyph glyph-name="nine" unicode="9" horiz-adv-x="2031" 
d="M1061 -31h-82q-539 0 -757 225q-113 119 -111 252v9h493q5 -24 38 -52q100 -81 336 -81q274 0 392 94q49 39 87 106t38 156v6q-193 -147 -606 -147h-27q-463 0 -640 139t-177 334v18q0 78 15 142q14 64 70 139q56 74 150 124t260 84q167 34 394 33h90q950 0 950 -766v-49
q0 -117 -22 -218t-86 -205q-62 -104 -162 -177q-100 -74 -264 -120t-379 -46zM1434 1028v6q0 168 -444 168t-443 -168v-6q-1 -172 443 -172t444 172z" />
    <glyph glyph-name="colon" unicode=":" horiz-adv-x="641" 
d="M567 358v-358h-493v358h493zM567 991v-358h-493v358h493z" />
    <glyph glyph-name="semicolon" unicode=";" horiz-adv-x="641" 
d="M74 0v358h493v-297q1 -57 -29 -132t-67 -130h-260q63 123 76 201h-213zM567 991v-358h-493v358h493z" />
    <glyph glyph-name="less" unicode="&#x3c;" horiz-adv-x="1116" 
d="M1032 139l-954 318v325l954 322v-311l-647 -175l647 -169v-310z" />
    <glyph glyph-name="equal" unicode="=" horiz-adv-x="1212" 
d="M88 561h1036v-260h-1036v260zM88 967h1036v-262h-1036v262z" />
    <glyph glyph-name="greater" unicode="&#x3e;" horiz-adv-x="1116" 
d="M84 139v310l647 169l-647 175v311l954 -322v-325z" />
    <glyph glyph-name="question" unicode="?" horiz-adv-x="1742" 
d="M1024 358v-358h-494v358h494zM1004 494h-467v153q0 117 64 180q65 63 265 115l172 43q115 29 153 59t38 67q-1 36 -15 55q-14 18 -95 36t-209 18q-313 1 -373 -99q-21 -34 -23 -47t-6 -44h-467v25q0 185 69 272q30 39 88 82q179 133 629 133h115q518 0 678 -189
q50 -57 66 -113t16 -122v-14q0 -152 -92 -253t-301 -155l-170 -45q-90 -23 -113 -51t-22 -92v-14z" />
    <glyph glyph-name="at" unicode="@" horiz-adv-x="2721" 
d="M1614 578l4 38q10 96 -65 156t-222 62q-244 0 -262 -199l-4 -37q-14 -92 45 -166t199 -74q274 1 305 220zM1382 -330q-315 0 -556 54t-384 138q-143 85 -233 210t-122 250t-32 274v25q0 157 37 285t128 246q285 370 1123 370h27q597 0 896 -142q99 -47 164 -92
q116 -80 180 -222q56 -117 56 -339v-22q0 -196 -87 -345q-47 -84 -121 -145t-194 -99t-271 -38h-35q-270 0 -348 158q-158 -158 -447 -158h-30q-150 0 -260 48q-111 48 -167 126q-113 156 -88 350l15 103q18 169 142 287t351 118h31q311 0 498 -166l18 141h451l-92 -729
q-9 -80 71 -80q119 0 197 118t78 321v6q0 76 -3 120q-3 43 -23 113t-58 113q-37 43 -111 93q-213 144 -813 147h-27q-670 0 -868 -277q-65 -90 -89 -188t-24 -226v-24q0 -147 44 -264t149 -220q106 -102 315 -160t512 -59q668 0 1000 166l78 -221q-322 -164 -1078 -164z" />
    <glyph glyph-name="A" unicode="A" horiz-adv-x="2138" 
d="M1657 0l-144 279h-923l-137 -279h-486l770 1524h619l815 -1524h-514zM1337 623l-295 571l-282 -571h577z" />
    <glyph glyph-name="B" unicode="B" horiz-adv-x="2099" 
d="M1380 631h-786v-299h786q106 0 148 45q41 45 41 104v8q-1 142 -189 142zM1339 1202h-745v-248h745q166 0 166 123v4q0 121 -166 121zM117 0v1524h1304q303 0 430 -98t127 -250v-29q0 -142 -94 -216q-72 -57 -147 -81q95 -23 200 -99q57 -42 93 -116t34 -168v-29
q0 -438 -630 -438h-1317z" />
    <glyph glyph-name="C" unicode="C" horiz-adv-x="2230" 
d="M1159 -27h-84q-510 0 -772 216q-243 203 -248 548v60q0 98 19 186q18 88 83 197q65 108 169 186t298 131t451 53h84q252 0 445 -46t298 -112t172 -154q67 -87 86 -156t19 -132v-22h-506q-6 25 -15 44t-47 62t-92 72q-53 28 -159 52t-257 24t-267 -34t-173 -93
q-108 -110 -108 -269v-24q0 -149 115 -276q59 -66 176 -104t274 -38q469 0 553 264q2 4 2 6h506v-22q1 -68 -21 -140t-90 -160q-68 -89 -174 -157t-298 -115t-439 -47z" />
    <glyph glyph-name="D" unicode="D" horiz-adv-x="2248" 
d="M594 1163v-796h496q612 0 612 393v12q0 391 -612 391h-496zM117 0v1524h1009q433 0 673 -112q239 -112 320 -270q81 -157 83 -339v-62q0 -109 -25 -203t-97 -198q-73 -102 -188 -174q-116 -72 -312 -119t-452 -47h-1011z" />
    <glyph glyph-name="E" unicode="E" horiz-adv-x="1824" 
d="M117 1524h1605v-346h-1134v-226h1108v-348h-1108v-250h1155v-354h-1626v1524z" />
    <glyph glyph-name="F" unicode="F" horiz-adv-x="1775" 
d="M117 1524h1575v-346h-1100v-226h1073v-348h-1073v-604h-475v1524z" />
    <glyph glyph-name="G" unicode="G" horiz-adv-x="2295" 
d="M1114 -27h-43q-238 -1 -422 51t-294 131t-179 184q-121 182 -121 400v58q0 100 22 193q23 92 91 198t176 183q109 77 300 128t443 51h89q244 0 430 -41t291 -101t173 -143t92 -152q22 -69 23 -140v-2h-508q-76 217 -542 217q-580 0 -580 -412v-22q0 -168 142 -289
t456 -121t488 122q79 57 79 95v4h-598v289h1073v-854h-286q-14 123 -62 238q-229 -265 -733 -265z" />
    <glyph glyph-name="H" unicode="H" horiz-adv-x="2211" 
d="M117 0v1524h477v-555h1024v555h477v-1524h-477v600h-1024v-600h-477z" />
    <glyph glyph-name="I" unicode="I" horiz-adv-x="710" 
d="M594 1524v-1524h-477v1524h477z" />
    <glyph glyph-name="J" unicode="J" horiz-adv-x="1835" 
d="M938 -23h-115q-182 0 -326 41q-257 73 -380 263q-103 159 -103 356v12h484q4 -65 33 -121q29 -57 65 -90q36 -34 106 -58t164 -24h25q184 0 275 100t91 277v791h480v-803q0 -224 -95 -397q-55 -102 -141 -176q-85 -74 -231 -123q-146 -48 -332 -48z" />
    <glyph glyph-name="K" unicode="K" horiz-adv-x="1982" 
d="M594 0h-477v1524h477v-635l780 635h606l-876 -697l917 -827h-622l-805 719v-719z" />
    <glyph glyph-name="L" unicode="L" horiz-adv-x="1712" 
d="M117 1524h477v-1145h1059v-379h-1536v1524z" />
    <glyph glyph-name="M" unicode="M" horiz-adv-x="2619" 
d="M117 0v1524h678l526 -949l528 949h654v-1524h-471v1055l-600 -1055h-256l-601 1055v-1055h-458z" />
    <glyph glyph-name="N" unicode="N" horiz-adv-x="2209" 
d="M117 1524h532l973 -959v959h471v-1524h-471l-1034 1010v-1010h-471v1524z" />
    <glyph glyph-name="O" unicode="O" horiz-adv-x="2342" 
d="M1788 754v28q0 202 -176 310q-152 90 -441 90q-616 0 -616 -400v-24q0 -151 113 -271q61 -67 190 -105t312 -38q184 0 312 38t191 102q115 118 115 270zM1128 1550h89q561 0 823 -211q143 -115 203 -274q43 -115 45 -268v-62q0 -347 -247 -546q-268 -216 -824 -216h-89
q-554 0 -826 216q-206 166 -239 419q-8 61 -8 127v62q0 244 118 411q46 66 128 132q264 210 827 210z" />
    <glyph glyph-name="P" unicode="P" horiz-adv-x="2011" 
d="M594 1178v-328h657q221 0 222 160v6q0 162 -222 162h-657zM1260 508h-666v-508h-477v1524h1143q711 0 710 -496v-20q1 -500 -710 -500z" />
    <glyph glyph-name="Q" unicode="Q" horiz-adv-x="2340" 
d="M1788 754v28q0 400 -616 400t-617 -400v-24q0 -210 176 -321q153 -93 440 -93q183 0 311 37t191 101q115 118 115 272zM989 -317v294q-237 11 -413 71t-273 139q-95 79 -155 185t-76 189q-16 84 -17 174v62q0 349 248 543q166 131 464 183q163 28 361 27h89
q272 0 475 -53q204 -53 314 -131t178 -186t85 -197q18 -88 19 -186v-62q0 -88 -16 -169t-68 -182t-140 -178t-248 -139t-372 -83l237 -301h-692z" />
    <glyph glyph-name="R" unicode="R" horiz-adv-x="2084" 
d="M594 541v-541h-477v1524h1229q662 0 661 -396v-24q0 -242 -283 -334q129 -37 209 -124t80 -226v-223q0 -137 29 -187v-10h-486q-23 29 -22 96v176q0 140 -72 204t-245 65h-623zM594 1178v-299h723q98 0 145 41t47 108v2q0 66 -47 107t-145 41h-723z" />
    <glyph glyph-name="S" unicode="S" horiz-adv-x="2009" 
d="M930 -27q-228 0 -398 39t-262 94q-92 54 -146 134t-70 143q-15 63 -15 135v23h498q16 -242 452 -242h29q285 0 375 51q43 24 57 50t14 68t-24 71q-60 69 -375 75l-262 7q-743 20 -744 446v18q1 75 19 137t74 124q183 206 737 204h141q585 0 779 -213q106 -117 106 -268
v-20h-496q-4 25 -11 42t-34 46q-88 94 -395 94h-33q-172 0 -264 -22t-112 -45q-19 -24 -19 -64q-1 -40 21 -64q22 -25 103 -45t228 -22l256 -4q425 -8 615 -116t190 -337v-29q0 -85 -18 -151t-76 -136q-185 -224 -799 -223h-141z" />
    <glyph glyph-name="T" unicode="T" horiz-adv-x="1908" 
d="M713 0v1163h-656v361h1794v-361h-657v-1163h-481z" />
    <glyph glyph-name="U" unicode="U" horiz-adv-x="2156" 
d="M1122 -23h-73q-476 0 -717 228q-229 216 -234 579v740h480v-711q0 -167 94 -292q51 -69 156 -109q106 -40 252 -39q146 0 250 40t156 108q97 129 95 292v711h477v-740q0 -214 -106 -406q-64 -114 -162 -200t-272 -144t-396 -57z" />
    <glyph glyph-name="V" unicode="V" horiz-adv-x="2074" 
d="M1362 0h-594l-793 1524h541l561 -1121l527 1121h495z" />
    <glyph glyph-name="W" unicode="W" horiz-adv-x="2914" 
d="M1128 0h-526l-627 1524h521l393 -1049l340 1049h508l348 -1018l385 1018h469l-617 -1524h-481l-366 1020z" />
    <glyph glyph-name="X" unicode="X" horiz-adv-x="2076" 
d="M567 0h-587l757 770l-741 754h639l430 -447l430 447h586l-731 -744l747 -780h-600l-467 473z" />
    <glyph glyph-name="Y" unicode="Y" horiz-adv-x="1994" 
d="M770 0v590l-815 934h592l473 -561l481 561h539l-793 -934v-590h-477z" />
    <glyph glyph-name="Z" unicode="Z" horiz-adv-x="1869" 
d="M86 1524h1700v-279l-1045 -885h1059v-360h-1730v281l1017 890h-1001v353z" />
    <glyph glyph-name="bracketleft" unicode="[" horiz-adv-x="716" 
d="M117 -268v1923h571v-225h-219v-1471h219v-227h-571z" />
    <glyph glyph-name="backslash" unicode="\" horiz-adv-x="962" 
d="M694 -268l-714 1923h350l708 -1923h-344z" />
    <glyph glyph-name="bracketright" unicode="]" horiz-adv-x="716" 
d="M29 -268v227h219v1471h-219v225h571v-1923h-571z" />
    <glyph glyph-name="asciicircum" unicode="^" horiz-adv-x="1437" 
d="M1018 877l-297 387l-297 -387h-418l492 647h442l492 -647h-414z" />
    <glyph glyph-name="underscore" unicode="_" horiz-adv-x="1681" 
d="M6 -309v268h1669v-268h-1669z" />
    <glyph glyph-name="grave" unicode="`" 
d="M1053 1208h-441l-219 316h475z" />
    <glyph glyph-name="a" unicode="a" horiz-adv-x="1638" 
d="M571 -20h-26q-260 0 -386 102t-126 258v14q0 152 107 230q108 78 356 100l503 47q70 8 70 57q0 27 -13 43q-13 15 -81 31t-193 17h-10q-213 0 -263 -65q-23 -30 -26 -58h-424v4q0 53 9 95q8 42 47 97t105 92t193 63q128 26 304 26h112q506 0 625 -163q39 -52 47 -93
t8 -101v-422q0 -55 58 -55h59v-299h-371q-149 0 -174 152q-51 -64 -174 -118t-336 -54zM1069 489v35l-436 -67q-92 -14 -129 -36t-37 -67v-2q0 -51 47 -88t154 -37q176 0 288 80t113 182z" />
    <glyph glyph-name="b" unicode="b" horiz-adv-x="1867" 
d="M553 559v-8q0 -113 104 -200t293 -87h13q203 0 293 85t92 202v8q0 123 -90 204t-295 81h-13q-193 0 -295 -84t-102 -201zM96 1524h457v-576q227 180 551 180h37q352 0 513 -152t161 -401v-38q0 -233 -160 -393q-80 -79 -215 -125t-314 -46h-34q-204 1 -346 63t-199 120
q-16 -47 -29 -156h-422v1524z" />
    <glyph glyph-name="c" unicode="c" horiz-adv-x="1740" 
d="M926 -31h-113q-180 0 -320 36q-141 36 -223 92t-135 134q-90 132 -90 306v41q0 173 89 301q52 76 135 130t223 89t319 35h117q197 0 344 -37t226 -89t128 -123q48 -71 62 -125t14 -108v-6h-469q-47 199 -365 199h-6q-184 0 -267 -77t-83 -196v-14q0 -125 84 -210t266 -85
h6q315 0 365 203h469v-4q0 -57 -12 -111t-60 -128q-48 -73 -126 -125q-79 -52 -228 -90t-350 -38z" />
    <glyph glyph-name="d" unicode="d" horiz-adv-x="1861" 
d="M1307 1524h458v-1524h-454v168q-35 -50 -124 -99q-175 -96 -421 -96h-27q-348 0 -521 159t-173 409v39q0 242 164 396t512 152h33q354 0 553 -174v570zM1307 549v8q0 115 -113 199t-305 84h-10q-199 0 -283 -80t-84 -203v-8q0 -115 92 -200t279 -85h10q193 0 303 85
t111 200z" />
    <glyph glyph-name="e" unicode="e" horiz-adv-x="1742" 
d="M1694 389v-2q0 -51 -14 -101t-64 -110q-49 -60 -127 -103q-78 -44 -220 -74t-331 -30h-117q-428 0 -602 166t-174 397v46q0 228 157 381q176 172 607 174h125q766 0 766 -594v-76h-1206q45 -215 389 -215h2q231 0 316 81q38 35 42 60h451zM870 877h-2q-311 0 -366 -187
h737q-50 187 -369 187z" />
    <glyph glyph-name="f" unicode="f" horiz-adv-x="999" 
d="M954 1524v-271h-178q-51 0 -68 -20t-18 -70v-61h264v-303h-264v-799h-450v799h-211v303h211v131q0 291 383 291h331z" />
    <glyph glyph-name="g" unicode="g" horiz-adv-x="1878" 
d="M1008 -399h-146q-197 -1 -343 33t-221 79t-120 105t-55 100q-10 39 -10 76v6h460q25 -102 353 -102h6q393 0 393 317q-186 -166 -537 -166h-24q-365 -1 -542 147t-177 379v41q0 220 160 366t502 146h43q387 0 573 -174v148h459v-901q0 -70 -14 -140q-14 -71 -65 -157
q-50 -86 -130 -151t-226 -109t-339 -43zM899 842h-12q-203 0 -290 -70t-87 -176v-10q0 -106 91 -182t286 -74h12q203 0 309 74t107 180v8q-1 106 -107 178t-309 72z" />
    <glyph glyph-name="h" unicode="h" horiz-adv-x="1738" 
d="M96 0v1524h457v-606q209 209 543 208h14q266 0 401 -126t136 -304v-696h-461v545q0 131 -74 203t-224 72t-243 -83q-92 -82 -92 -217v-520h-457z" />
    <glyph glyph-name="i" unicode="i" horiz-adv-x="649" 
d="M553 1102v-1102h-457v1102h457zM553 1524v-316h-457v316h457z" />
    <glyph glyph-name="j" unicode="j" horiz-adv-x="649" 
d="M-53 -63h84q37 0 51 15t14 62v1088h457v-1202q0 -145 -57 -215t-152 -70h-397v322zM553 1524v-316h-457v316h457z" />
    <glyph glyph-name="k" unicode="k" horiz-adv-x="1538" 
d="M553 0h-457v1524h457v-862l446 440h506l-520 -498l584 -604h-537l-479 506v-506z" />
    <glyph glyph-name="l" unicode="l" horiz-adv-x="649" 
d="M553 1524v-1524h-457v1524h457z" />
    <glyph glyph-name="m" unicode="m" horiz-adv-x="2699" 
d="M553 0h-457v1102h453v-191q215 215 524 215h14q319 0 441 -219q219 219 555 219h16q254 0 381 -127t127 -303v-696h-461v545q0 274 -250 274q-145 0 -230 -84t-85 -215v-520h-461v545q0 274 -252 274q-145 0 -230 -84t-85 -215v-520z" />
    <glyph glyph-name="n" unicode="n" horiz-adv-x="1738" 
d="M96 0v1102h453v-189q213 213 547 213h14q268 0 402 -126t135 -304v-696h-461v545q0 131 -74 203t-224 72t-243 -83q-92 -82 -92 -217v-520h-457z" />
    <glyph glyph-name="o" unicode="o" horiz-adv-x="1814" 
d="M909 266q213 0 305 84t93 201v10q-1 119 -93 199t-303 80h-2q-215 0 -306 -79t-91 -200v-10q0 -117 92 -201t305 -84zM981 -31h-143q-184 0 -326 36t-229 91q-86 55 -142 133q-94 133 -96 310v36q0 172 95 306q111 156 369 218q142 34 327 34h145q788 0 788 -558v-36
q0 -570 -788 -570z" />
    <glyph glyph-name="p" unicode="p" horiz-adv-x="1859" 
d="M96 1102h457v-158q211 184 559 184h37q362 0 514 -157t152 -396v-38q0 -229 -156 -397q-156 -167 -524 -167h-33q-212 -1 -356 63t-193 120v-541h-457v1487zM553 559v-8q0 -115 106 -201t302 -86h10q201 0 289 84t88 203v8q0 123 -87 204t-290 81h-10q-201 0 -305 -84
t-103 -201z" />
    <glyph glyph-name="q" unicode="q" horiz-adv-x="1859" 
d="M1307 551v8q0 115 -112 198t-306 83h-10q-199 0 -283 -80t-84 -203v-8q0 -117 89 -202t282 -85h10q193 0 303 87t111 202zM1763 1102v-1487h-456v537q-33 -37 -82 -71t-174 -71t-283 -37h-16q-362 0 -535 158q-172 158 -172 410v39q0 242 166 396t516 152h29
q338 0 555 -176q27 50 39 150h413z" />
    <glyph glyph-name="r" unicode="r" horiz-adv-x="1505" 
d="M553 569v-569h-457v1102h453v-195q29 43 72 86t146 88t228 45h23q229 0 339 -133t109 -358v-64h-440q0 117 -56 191t-177 74h-2q-111 0 -175 -77t-63 -190z" />
    <glyph glyph-name="s" unicode="s" horiz-adv-x="1595" 
d="M827 -31h-84q-709 0 -708 391v13h471q0 -150 282 -150h5q119 1 185 17t83 36q16 20 16 52v4q0 48 -46 70t-195 26l-197 4q-346 8 -470 110t-124 234v12q0 56 13 102q14 46 58 93q139 147 625 150h82q690 0 690 -347v-14h-464q-8 40 -39 65q-57 46 -234 48h-2
q-156 -1 -209 -19t-53 -63v-4q0 -41 49 -63t182 -25l197 -4q466 -8 568 -159q46 -69 46 -188v-12q0 -84 -30 -146q-72 -151 -328 -203q-150 -30 -369 -30z" />
    <glyph glyph-name="t" unicode="t" horiz-adv-x="970" 
d="M911 0h-395q-272 0 -272 313v486h-215v303h215v321h450v-321h217v-303h-217v-400q0 -49 18 -73t74 -23h125v-303z" />
    <glyph glyph-name="u" unicode="u" horiz-adv-x="1716" 
d="M1620 1102v-1102h-453v190q-35 -33 -47 -44t-70 -52t-108 -60q-152 -57 -309 -59h-17q-262 1 -393 133t-131 308v686h461v-545q0 -127 71 -201q70 -74 216 -74t234 83q88 82 89 217v520h457z" />
    <glyph glyph-name="v" unicode="v" horiz-adv-x="1603" 
d="M539 0l-562 1102h492l354 -754l344 754h459l-539 -1102h-548z" />
    <glyph glyph-name="w" unicode="w" horiz-adv-x="2338" 
d="M909 0h-473l-456 1102h475l252 -705l247 705h480l256 -705l243 705h426l-426 -1102h-483l-270 729z" />
    <glyph glyph-name="x" unicode="x" horiz-adv-x="1619" 
d="M485 0h-508l576 559l-557 543h539l288 -289l289 289h512l-553 -535l571 -567h-516l-323 315z" />
    <glyph glyph-name="y" unicode="y" horiz-adv-x="1603" 
d="M244 -385v328h258q53 0 53 34q0 18 -51 117l-527 1008h492l354 -746l344 746h459l-577 -1176q-82 -164 -172 -238t-234 -73h-399z" />
    <glyph glyph-name="z" unicode="z" horiz-adv-x="1482" 
d="M1434 0h-1385v266l748 539h-748v297h1381v-256l-783 -541h787v-305z" />
    <glyph glyph-name="braceleft" unicode="{" horiz-adv-x="747" 
d="M463 -268q-361 0 -361 218q0 106 87 301q87 194 87 238q0 94 -92 95h-129v229h129q92 0 92 78q0 49 -87 237t-87 279q0 248 361 248h256v-225h-158q-90 0 -90 -80q0 -45 67 -210q66 -165 66 -241t-44 -125t-150 -74q106 -22 150 -66t44 -116t-66 -246t-67 -217
q0 -96 107 -96h141v-227h-256z" />
    <glyph glyph-name="bar" unicode="|" horiz-adv-x="780" 
d="M555 1655v-1923h-330v1923h330z" />
    <glyph glyph-name="braceright" unicode="}" horiz-adv-x="747" 
d="M29 -268v227h141q106 0 106 96q0 43 -65 217q-66 174 -66 246t43 116t150 66q-104 25 -149 74q-44 48 -44 124t66 242t65 210q0 80 -90 80h-157v225h256q360 0 360 -248q0 -91 -87 -279t-87 -237q0 -78 92 -78h129v-229h-129q-92 0 -92 -95q0 -45 87 -239t87 -300
q0 -218 -360 -218h-256z" />
    <glyph glyph-name="asciitilde" unicode="~" horiz-adv-x="1376" 
d="M397 487h-342v267q0 135 69 230t228 95q72 0 143 -19q71 -18 107 -36t164 -86q129 -68 162 -68q51 0 51 66v188h342v-313q-1 -117 -69 -200t-214 -83t-259 56q-46 23 -164 85t-162 62q-55 0 -56 -67v-177z" />
    <glyph glyph-name="nbspace" unicode="&#xa0;" horiz-adv-x="630" 
 />
    <glyph glyph-name="exclamdown" unicode="&#xa1;" horiz-adv-x="655" 
d="M68 743v359h495v-359h-495zM594 -422h-557l141 1061h275z" />
    <glyph glyph-name="cent" unicode="&#xa2;" horiz-adv-x="1755" 
d="M512 571v-14q0 -109 61 -187t199 -102v570q-136 -18 -198 -92t-62 -175zM977 -158h-205v127q-214 7 -364 61t-225 141q-138 160 -138 366v41q0 170 85 293q50 75 128 130t210 93t304 39v127h205v-127q314 -4 479 -95t213 -195q47 -104 47 -192v-6h-467q-34 114 -137 159
q-55 24 -135 34v-570q231 27 272 197h467v-4q0 -210 -174 -347t-565 -145v-127z" />
    <glyph glyph-name="sterling" unicode="&#xa3;" horiz-adv-x="1859" 
d="M1796 528v-528h-1759v322h104q104 0 159 33q54 34 54 116v6q0 59 -41 174h-276v219h196q-33 113 -32 193v14q0 181 141 313q76 72 226 112t362 40h84q625 0 726 -343q23 -78 23 -187v-17h-473q-18 225 -307 226q-317 0 -317 -238q0 -37 16 -113h713v-219h-666
q10 -66 10 -98q0 -147 -141 -231h713v206h485z" />
    <glyph glyph-name="yen" unicode="&#xa5;" horiz-adv-x="1943" 
d="M741 0v315h-546v181h546v112h-546v180h411l-651 736h588l450 -531l459 531h537l-631 -736h411v-180h-546v-112h546v-181h-546v-315h-482z" />
    <glyph glyph-name="brokenbar" unicode="&#xa6;" horiz-adv-x="780" 
d="M555 668v-936h-330v936h330zM555 1655v-864h-330v864h330z" />
    <glyph glyph-name="section" unicode="&#xa7;" horiz-adv-x="1867" 
d="M983 -428h-86q-799 0 -799 463v6h469q5 -35 15 -61t44 -59q71 -71 312 -73h14q285 0 285 111v4q0 33 -11 53q-12 20 -66 44t-159 40l-399 62q-313 47 -441 151t-128 258v19q0 114 80 184t202 96q-164 90 -163 289v21q0 122 62 200t232 126t455 48h84q193 0 335 -28
t219 -67q77 -40 122 -101q45 -62 57 -114t13 -118v-6h-467q-20 164 -324 164h-16q-252 0 -292 -49q-17 -20 -18 -53v-4q0 -47 44 -76t198 -51l408 -58q319 -47 441 -140t122 -253v-20q0 -215 -279 -295q158 -90 158 -281v-20q0 -412 -723 -412zM1362 514q0 59 -44 98
t-155 56q-506 76 -590 102q-76 -41 -75 -129q0 -59 44 -98t158 -58q543 -88 584 -100q78 45 78 129z" />
    <glyph glyph-name="dieresis" unicode="&#xa8;" 
d="M670 1524v-316h-441v316h441zM1214 1524v-316h-442v316h442z" />
    <glyph glyph-name="copyright" unicode="&#xa9;" horiz-adv-x="2385" 
d="M1227 301h-53q-166 0 -291 32t-195 78q-70 47 -113 111t-55 118t-12 112v34q0 98 33 171t81 115t118 79q143 76 434 78h53q172 0 301 -29q130 -29 196 -70t106 -97t49 -96t9 -83v-10h-391q-39 143 -299 143q-176 0 -243 -55t-66 -152v-16q-1 -92 69 -157t242 -64
q260 0 297 157h393v-12q0 -45 -10 -88t-51 -100q-41 -56 -108 -98t-195 -72t-299 -29zM309 774v-24q0 -243 177 -405q92 -85 266 -133t415 -48h52q481 0 681 181q177 162 177 405v24q0 433 -443 543q-172 43 -415 43h-52q-489 0 -682 -169q-94 -83 -135 -183t-41 -234z
M1225 -23h-64q-1106 0 -1106 758v58q0 123 30 227t106 204q77 99 199 169q122 69 320 111t453 42h60q255 0 453 -42t320 -112t198 -168q76 -100 107 -204q30 -104 30 -227v-58q0 -758 -1106 -758z" />
    <glyph glyph-name="ordfeminine" unicode="&#xaa;" horiz-adv-x="1165" 
d="M408 776h-19q-184 0 -268 68t-84 172v10q0 100 84 154t256 69l311 29q39 2 39 33q0 53 -172 53h-16q-170 0 -170 -74h-314v4q0 47 12 81q11 34 51 76q85 89 388 87h80q305 0 393 -78q43 -38 57 -72t15 -81v-271q0 -37 36 -37h41v-208h-256q-104 -1 -116 110
q-113 -125 -348 -125zM360 1024q0 -70 117 -70t183 50t67 118v13l-264 -41q-57 -10 -80 -26t-23 -44z" />
    <glyph glyph-name="guillemotleft" unicode="&#xab;" horiz-adv-x="1105" 
d="M827 588l234 -348h-330l-244 348l252 344h334zM369 588l243 -348h-329l-254 348l256 344h333z" />
    <glyph glyph-name="registered" unicode="&#xae;" horiz-adv-x="1331" 
d="M559 1044v-141h-192v436h421q195 0 195 -108v-4q0 -41 -30 -66t-66 -31q102 -20 102 -98v-80q0 -27 12 -43v-6h-192q-14 14 -14 35v43q-1 35 -15 49t-49 14h-172zM559 1157h180q55 0 56 39q0 37 -56 37h-180v-76zM672 811q330 0 426 145q45 70 45 172q0 165 -118 232
t-353 67h-4q-308 0 -403 -97q-46 -48 -61 -95q-16 -47 -16 -113t16 -112t62 -96q93 -102 402 -103h4zM635 1544h70q279 0 418 -92q171 -113 171 -319v-29q0 -157 -130 -275q-66 -61 -186 -98t-278 -37h-65q-390 0 -525 185q-73 96 -73 225v31q0 207 175 317q146 92 423 92z
" />
    <glyph glyph-name="macron" unicode="&#xaf;" 
d="M291 1231v250h864v-250h-864z" />
    <glyph glyph-name="degree" unicode="&#xb0;" horiz-adv-x="839" 
d="M250 1167q0 -74 48 -121t123 -47q75 -1 122 47t47 122t-47 120q-47 47 -122 47t-123 -47t-48 -121zM420 784q-172 0 -287 106t-115 275t115 275t287 106t287 -106t115 -274t-116 -276q-114 -106 -286 -106z" />
    <glyph glyph-name="acute" unicode="&#xb4;" 
d="M395 1208l185 316h471l-220 -316h-436z" />
    <glyph glyph-name="paragraph" unicode="&#xb6;" horiz-adv-x="1593" 
d="M637 0v672h-113q-258 0 -377 110t-118 297v39q0 195 108 300q109 105 391 106h1039v-224h-160v-1300h-283v1300h-204v-1300h-283z" />
    <glyph glyph-name="periodcentered" unicode="&#xb7;" horiz-adv-x="636" 
d="M565 788v-358h-493v358h493z" />
    <glyph glyph-name="cedilla" unicode="&#xb8;" 
d="M371 -528v184h217q82 0 82 46t-82 46h-146v252h260v-102q215 0 294 -52t79 -155v-6q0 -97 -81 -155t-294 -58h-329z" />
    <glyph glyph-name="ordmasculine" unicode="&#xba;" horiz-adv-x="1230" 
d="M615 979q128 0 184 50q55 50 55 126v6q0 76 -56 124t-182 48h-2q-238 0 -237 -172v-6q0 -76 55 -126t183 -50zM664 770h-95q-311 0 -433 126q-105 109 -103 251v22q0 142 103 247q56 56 167 89t266 33h95q535 0 534 -369v-22q1 -377 -534 -377z" />
    <glyph glyph-name="guillemotright" unicode="&#xbb;" horiz-adv-x="1105" 
d="M823 240h-329l243 348l-250 344h334l256 -344zM279 588l-246 344h334l251 -344l-243 -348h-330z" />
    <glyph glyph-name="onequarter" unicode="&#xbc;" horiz-adv-x="1906" 
d="M1409 342v229l-262 -229h262zM866 139v170q53 45 80 70l172 151q199 176 250 224h346v-412h162v-203h-162v-141h-305v141h-543zM225 1202h-194v168q188 10 250 154h245v-754h-301v432zM1473 1524h352l-1600 -1524h-342z" />
    <glyph glyph-name="onehalf" unicode="&#xbd;" horiz-adv-x="2041" 
d="M2001 0h-983v88q0 60 15 106t63 98q98 108 407 165q180 33 180 73q1 48 -171 48t-173 -97h-309v8q0 276 465 277h39q290 0 383 -73q47 -36 65 -75t19 -94v-8q0 -109 -97 -154t-337 -81q-16 -2 -47 -7q-199 -31 -226 -55q-2 -4 -4 -6h711v-213zM225 1202h-194v168
q188 10 250 154h245v-754h-301v432zM1473 1524h352l-1600 -1524h-342z" />
    <glyph glyph-name="threequarters" unicode="&#xbe;" horiz-adv-x="2310" 
d="M1812 342v229l-262 -229h262zM1270 139v170q53 45 80 70l172 151q199 176 250 224h346v-412h161v-203h-161v-141h-306v141h-542zM561 762h-67q-331 0 -435 151q-29 43 -35 74t-6 62v10h320q0 -94 196 -94t197 63v4q0 45 -92 45h-250v180h238q90 0 90 39v4q1 48 -191 48
t-192 -72h-305v10q0 98 74 158t177 77t205 17h64q319 0 409 -68q44 -34 60 -62t16 -67v-6q0 -47 -39 -82t-104 -45q76 -12 123 -58t47 -120v-8q0 -260 -500 -260zM1876 1524h352l-1599 -1524h-342z" />
    <glyph glyph-name="questiondown" unicode="&#xbf;" horiz-adv-x="1716" 
d="M692 743v359h494v-359h-494zM713 608h467v-153q0 -117 -65 -181t-265 -114l-172 -43q-115 -29 -153 -60t-38 -67q1 -36 15 -54q14 -20 95 -37t254 -18q269 -1 329 99q20 34 22 48q2 13 6 44h467v-25q0 -184 -73 -279t-238 -151q-164 -57 -475 -57h-115q-518 0 -678 189
q-49 57 -65 113t-17 122v14q0 152 92 253t302 155l170 45q90 23 112 51t23 92v14z" />
    <glyph glyph-name="Agrave" unicode="&#xc0;" horiz-adv-x="2138" 
d="M1087 1937l185 -307h-461l-215 307h491zM1657 0l-144 279h-923l-137 -279h-486l770 1524h619l815 -1524h-514zM1337 623l-295 571l-282 -571h577z" />
    <glyph glyph-name="Aacute" unicode="&#xc1;" horiz-adv-x="2138" 
d="M823 1630l185 307h491l-215 -307h-461zM1657 0l-144 279h-923l-137 -279h-486l770 1524h619l815 -1524h-514zM1337 623l-295 571l-282 -571h577z" />
    <glyph glyph-name="Acircumflex" unicode="&#xc2;" horiz-adv-x="2138" 
d="M1303 1937l327 -307h-450l-136 119l-133 -119h-444l321 307h515zM1657 0l-144 279h-923l-137 -279h-486l770 1524h619l815 -1524h-514zM1337 623l-295 571l-282 -571h577z" />
    <glyph glyph-name="Atilde" unicode="&#xc3;" horiz-adv-x="2138" 
d="M1311 1642h-13q-82 0 -215 46t-171 45q-38 0 -38 -43v-64h-299v166q-1 82 45 141t160 60h13q86 1 220 -45t167 -45q37 0 37 43v61h299v-164q0 -81 -45 -141t-160 -60zM1657 0l-144 279h-923l-137 -279h-486l770 1524h619l815 -1524h-514zM1337 623l-295 571l-282 -571
h577z" />
    <glyph glyph-name="Adieresis" unicode="&#xc4;" horiz-adv-x="2138" 
d="M993 1937v-307h-454v307h454zM1554 1937v-307h-454v307h454zM1657 0l-144 279h-923l-137 -279h-486l770 1524h619l815 -1524h-514zM1337 623l-295 571l-282 -571h577z" />
    <glyph glyph-name="Aring" unicode="&#xc5;" horiz-adv-x="2138" 
d="M1048 1939q-156 0 -157 -94q0 -94 157 -94t156 96q0 92 -156 92zM655 1845q-1 240 391 240t392 -240t-392 -240t-391 240zM1657 0l-144 279h-923l-137 -279h-486l770 1524h619l815 -1524h-514zM1337 623l-295 571l-282 -571h577z" />
    <glyph glyph-name="AE" unicode="&#xc6;" horiz-adv-x="3016" 
d="M1329 0v266h-698l-205 -266h-489l1161 1524h1816v-346h-1114v-226h1088v-348h-1088v-250h1135v-354h-1606zM1329 610v570l-436 -570h436z" />
    <glyph glyph-name="Ccedilla" unicode="&#xc7;" horiz-adv-x="2230" 
d="M766 -528v184h217q82 0 82 46t-82 46h-145v239q-206 25 -330 80q-125 57 -205 123q-243 202 -248 547v60q0 98 19 186q18 88 83 197q65 108 169 186t298 131t451 53h84q252 0 445 -46t298 -112t172 -154q67 -87 86 -156t19 -132v-22h-506q-6 25 -15 44t-47 62t-92 72
q-53 28 -159 52t-257 24t-267 -34t-173 -93q-108 -110 -108 -269v-24q0 -149 115 -276q59 -66 176 -104t274 -38q469 0 553 264q2 4 2 6h506v-22q1 -68 -21 -140t-90 -160q-68 -89 -174 -157t-298 -115t-439 -47h-61v-75q215 0 294 -52t78 -155v-6q0 -98 -80 -156
q-81 -57 -294 -57h-330z" />
    <glyph glyph-name="Egrave" unicode="&#xc8;" horiz-adv-x="1824" 
d="M1038 1937l185 -307h-461l-215 307h491zM117 1524h1605v-346h-1134v-226h1108v-348h-1108v-250h1155v-354h-1626v1524z" />
    <glyph glyph-name="Eacute" unicode="&#xc9;" horiz-adv-x="1824" 
d="M684 1630l184 307h492l-215 -307h-461zM117 1524h1605v-346h-1134v-226h1108v-348h-1108v-250h1155v-354h-1626v1524z" />
    <glyph glyph-name="Ecircumflex" unicode="&#xca;" horiz-adv-x="1824" 
d="M1194 1937l328 -307h-451l-135 119l-133 -119h-445l322 307h514zM117 1524h1605v-346h-1134v-226h1108v-348h-1108v-250h1155v-354h-1626v1524z" />
    <glyph glyph-name="Edieresis" unicode="&#xcb;" horiz-adv-x="1824" 
d="M887 1937v-307h-455v307h455zM1448 1937v-307h-455v307h455zM117 1524h1605v-346h-1134v-226h1108v-348h-1108v-250h1155v-354h-1626v1524z" />
    <glyph glyph-name="Igrave" unicode="&#xcc;" horiz-adv-x="710" 
d="M401 1937l185 -307h-461l-215 307h491zM594 1524v-1524h-477v1524h477z" />
    <glyph glyph-name="Iacute" unicode="&#xcd;" horiz-adv-x="710" 
d="M131 1630l184 307h492l-215 -307h-461zM594 1524v-1524h-477v1524h477z" />
    <glyph glyph-name="Icircumflex" unicode="&#xce;" horiz-adv-x="710" 
d="M608 1937l328 -307h-451l-135 119l-133 -119h-444l321 307h514zM594 1524v-1524h-477v1524h477z" />
    <glyph glyph-name="Idieresis" unicode="&#xcf;" horiz-adv-x="710" 
d="M301 1937v-307h-455v307h455zM862 1937v-307h-454v307h454zM594 1524v-1524h-477v1524h477z" />
    <glyph glyph-name="Eth" unicode="&#xd0;" horiz-adv-x="2260" 
d="M606 1163v-243h678v-306h-678v-247h496q612 0 612 393v12q0 391 -612 391h-496zM129 0v614h-127v306h127v604h1010q435 0 673 -112t319 -270q81 -157 83 -339v-62q0 -109 -25 -203t-97 -198q-74 -102 -188 -174t-311 -119t-452 -47h-1012z" />
    <glyph glyph-name="Ntilde" unicode="&#xd1;" horiz-adv-x="2209" 
d="M1386 1642h-12q-82 0 -215 46t-171 45q-38 0 -38 -43v-64h-299v166q0 82 45 141t160 60h12q86 1 220 -45t167 -45q37 0 37 43v61h299v-164q0 -81 -45 -141t-160 -60zM117 1524h532l973 -959v959h471v-1524h-471l-1034 1010v-1010h-471v1524z" />
    <glyph glyph-name="Ograve" unicode="&#xd2;" horiz-adv-x="2342" 
d="M1221 1937l184 -307h-461l-215 307h492zM1788 754v28q0 202 -176 310q-152 90 -441 90q-616 0 -616 -400v-24q0 -151 113 -271q61 -67 190 -105t312 -38q184 0 312 38t191 102q115 118 115 270zM1128 1550h89q561 0 823 -211q143 -115 203 -274q43 -115 45 -268v-62
q0 -347 -247 -546q-268 -216 -824 -216h-89q-554 0 -826 216q-206 166 -239 419q-8 61 -8 127v62q0 244 118 411q46 66 128 132q264 210 827 210z" />
    <glyph glyph-name="Oacute" unicode="&#xd3;" horiz-adv-x="2342" 
d="M948 1630l185 307h491l-215 -307h-461zM1788 754v28q0 202 -176 310q-152 90 -441 90q-616 0 -616 -400v-24q0 -151 113 -271q61 -67 190 -105t312 -38q184 0 312 38t191 102q115 118 115 270zM1128 1550h89q561 0 823 -211q143 -115 203 -274q43 -115 45 -268v-62
q0 -347 -247 -546q-268 -216 -824 -216h-89q-554 0 -826 216q-206 166 -239 419q-8 61 -8 127v62q0 244 118 411q46 66 128 132q264 210 827 210z" />
    <glyph glyph-name="Ocircumflex" unicode="&#xd4;" horiz-adv-x="2342" 
d="M1425 1937l328 -307h-450l-136 119l-133 -119h-444l321 307h514zM1788 754v28q0 202 -176 310q-152 90 -441 90q-616 0 -616 -400v-24q0 -151 113 -271q61 -67 190 -105t312 -38q184 0 312 38t191 102q115 118 115 270zM1128 1550h89q561 0 823 -211q143 -115 203 -274
q43 -115 45 -268v-62q0 -347 -247 -546q-268 -216 -824 -216h-89q-554 0 -826 216q-206 166 -239 419q-8 61 -8 127v62q0 244 118 411q46 66 128 132q264 210 827 210z" />
    <glyph glyph-name="Otilde" unicode="&#xd5;" horiz-adv-x="2342" 
d="M1436 1642h-13q-82 0 -215 46t-171 45q-38 0 -38 -43v-64h-299v166q0 82 45 141t160 60h13q86 1 220 -45t167 -45q37 0 36 43v61h299v-164q0 -81 -44 -141t-160 -60zM1788 754v28q0 202 -176 310q-152 90 -441 90q-616 0 -616 -400v-24q0 -151 113 -271q61 -67 190 -105
t312 -38q184 0 312 38t191 102q115 118 115 270zM1128 1550h89q561 0 823 -211q143 -115 203 -274q43 -115 45 -268v-62q0 -347 -247 -546q-268 -216 -824 -216h-89q-554 0 -826 216q-206 166 -239 419q-8 61 -8 127v62q0 244 118 411q46 66 128 132q264 210 827 210z" />
    <glyph glyph-name="Odieresis" unicode="&#xd6;" horiz-adv-x="2342" 
d="M1118 1937v-307h-454v307h454zM1679 1937v-307h-454v307h454zM1788 754v28q0 202 -176 310q-152 90 -441 90q-616 0 -616 -400v-24q0 -151 113 -271q61 -67 190 -105t312 -38q184 0 312 38t191 102q115 118 115 270zM1128 1550h89q561 0 823 -211q143 -115 203 -274
q43 -115 45 -268v-62q0 -347 -247 -546q-268 -216 -824 -216h-89q-554 0 -826 216q-206 166 -239 419q-8 61 -8 127v62q0 244 118 411q46 66 128 132q264 210 827 210z" />
    <glyph glyph-name="multiply" unicode="&#xd7;" horiz-adv-x="1099" 
d="M856 152l-307 274l-307 -274l-207 221l287 256l-287 256l209 221l307 -272l305 272l207 -221l-287 -256l289 -256z" />
    <glyph glyph-name="Oslash" unicode="&#xd8;" horiz-adv-x="2342" 
d="M1181 346q173 0 301 37t191 100q115 115 115 271v28q0 150 -76 236l-821 -649q118 -23 290 -23zM555 782v-24q0 -147 80 -244l815 645q-109 20 -279 21q-616 -1 -616 -398zM1219 -27h-91q-360 0 -608 103l-96 -76h-436l78 61q14 12 52 42t77 61t77 61q-217 195 -217 510
v62q0 246 118 413q46 66 128 130q270 212 827 210h91q365 0 600 -100l96 74h438l-285 -224q219 -197 220 -503v-62q0 -347 -248 -547q-165 -133 -461 -186q-161 -29 -360 -29z" />
    <glyph glyph-name="Ugrave" unicode="&#xd9;" horiz-adv-x="2156" 
d="M1157 1933l184 -307h-460l-215 307h491zM1122 -23h-73q-476 0 -717 228q-229 216 -234 579v740h480v-711q0 -167 94 -292q51 -69 156 -109q106 -40 252 -39q146 0 250 40t156 108q97 129 95 292v711h477v-740q0 -214 -106 -406q-64 -114 -162 -200t-272 -144t-396 -57z
" />
    <glyph glyph-name="Uacute" unicode="&#xda;" horiz-adv-x="2156" 
d="M817 1630l184 307h492l-215 -307h-461zM1122 -23h-73q-476 0 -717 228q-229 216 -234 579v740h480v-711q0 -167 94 -292q51 -69 156 -109q106 -40 252 -39q146 0 250 40t156 108q97 129 95 292v711h477v-740q0 -214 -106 -406q-64 -114 -162 -200t-272 -144t-396 -57z
" />
    <glyph glyph-name="Ucircumflex" unicode="&#xdb;" horiz-adv-x="2156" 
d="M1331 1937l328 -307h-451l-135 119l-133 -119h-444l321 307h514zM1122 -23h-73q-476 0 -717 228q-229 216 -234 579v740h480v-711q0 -167 94 -292q51 -69 156 -109q106 -40 252 -39q146 0 250 40t156 108q97 129 95 292v711h477v-740q0 -214 -106 -406
q-64 -114 -162 -200t-272 -144t-396 -57z" />
    <glyph glyph-name="Udieresis" unicode="&#xdc;" horiz-adv-x="2156" 
d="M1024 1937v-307h-455v307h455zM1585 1937v-307h-455v307h455zM1122 -23h-73q-476 0 -717 228q-229 216 -234 579v740h480v-711q0 -167 94 -292q51 -69 156 -109q106 -40 252 -39q146 0 250 40t156 108q97 129 95 292v711h477v-740q0 -214 -106 -406q-64 -114 -162 -200
t-272 -144t-396 -57z" />
    <glyph glyph-name="Yacute" unicode="&#xdd;" horiz-adv-x="1994" 
d="M778 1630l185 307h491l-215 -307h-461zM770 0v590l-815 934h592l473 -561l481 561h539l-793 -934v-590h-477z" />
    <glyph glyph-name="Thorn" unicode="&#xde;" horiz-adv-x="2015" 
d="M594 934v-328h661q104 0 163 41q58 41 59 119v6q0 162 -222 162h-661zM1264 264h-670v-264h-477v1524h477v-248h670q713 0 712 -496v-20q0 -224 -166 -360t-546 -136z" />
    <glyph glyph-name="germandbls" unicode="&#xdf;" horiz-adv-x="1783" 
d="M1743 489v-24q0 -465 -678 -465h-375v324h287q160 0 219 40t59 117v2q0 76 -59 116t-219 40h-287v324h258q127 -1 173 33t46 91v3q0 29 -8 48q-24 57 -127 72q-63 10 -164 11h-26q-162 0 -226 -45t-63 -144v-1032h-457v1069q0 66 12 120q11 54 53 120q41 65 111 109
t199 75t303 31h123q526 0 662 -165q43 -52 53 -95t10 -99v-12q0 -104 -72 -178t-178 -92q371 -80 371 -394z" />
    <glyph glyph-name="agrave" unicode="&#xe0;" horiz-adv-x="1638" 
d="M1001 1208h-440l-219 316h475zM571 -20h-26q-260 0 -386 102t-126 258v14q0 152 107 230q108 78 356 100l503 47q70 8 70 57q0 27 -13 43q-13 15 -81 31t-193 17h-10q-213 0 -263 -65q-23 -30 -26 -58h-424v4q0 53 9 95q8 42 47 97t105 92t193 63q128 26 304 26h112
q506 0 625 -163q39 -52 47 -93t8 -101v-422q0 -55 58 -55h59v-299h-371q-149 0 -174 152q-51 -64 -174 -118t-336 -54zM1069 489v35l-436 -67q-92 -14 -129 -36t-37 -67v-2q0 -51 47 -88t154 -37q176 0 288 80t113 182z" />
    <glyph glyph-name="aacute" unicode="&#xe1;" horiz-adv-x="1638" 
d="M557 1208l184 316h471l-219 -316h-436zM571 -20h-26q-260 0 -386 102t-126 258v14q0 152 107 230q108 78 356 100l503 47q70 8 70 57q0 27 -13 43q-13 15 -81 31t-193 17h-10q-213 0 -263 -65q-23 -30 -26 -58h-424v4q0 53 9 95q8 42 47 97t105 92t193 63q128 26 304 26
h112q506 0 625 -163q39 -52 47 -93t8 -101v-422q0 -55 58 -55h59v-299h-371q-149 0 -174 152q-51 -64 -174 -118t-336 -54zM1069 489v35l-436 -67q-92 -14 -129 -36t-37 -67v-2q0 -51 47 -88t154 -37q176 0 288 80t113 182z" />
    <glyph glyph-name="acircumflex" unicode="&#xe2;" horiz-adv-x="1638" 
d="M1026 1526l311 -318h-440l-125 131l-125 -131h-434l307 318h506zM571 -20h-26q-260 0 -386 102t-126 258v14q0 152 107 230q108 78 356 100l503 47q70 8 70 57q0 27 -13 43q-13 15 -81 31t-193 17h-10q-213 0 -263 -65q-23 -30 -26 -58h-424v4q0 53 9 95q8 42 47 97
t105 92t193 63q128 26 304 26h112q506 0 625 -163q39 -52 47 -93t8 -101v-422q0 -55 58 -55h59v-299h-371q-149 0 -174 152q-51 -64 -174 -118t-336 -54zM1069 489v35l-436 -67q-92 -14 -129 -36t-37 -67v-2q0 -51 47 -88t154 -37q176 0 288 80t113 182z" />
    <glyph glyph-name="atilde" unicode="&#xe3;" horiz-adv-x="1638" 
d="M1028 1217h-12q-80 0 -213 44t-158 44q-33 0 -33 -43v-60h-295v156q0 80 44 139t155 59h10q70 0 120 -15t138 -44t113 -29q33 0 33 45v60h295v-156q0 -200 -197 -200zM571 -20h-26q-260 0 -386 102t-126 258v14q0 152 107 230q108 78 356 100l503 47q70 8 70 57
q0 27 -13 43q-13 15 -81 31t-193 17h-10q-213 0 -263 -65q-23 -30 -26 -58h-424v4q0 53 9 95q8 42 47 97t105 92t193 63q128 26 304 26h112q506 0 625 -163q39 -52 47 -93t8 -101v-422q0 -55 58 -55h59v-299h-371q-149 0 -174 152q-51 -64 -174 -118t-336 -54zM1069 489v35
l-436 -67q-92 -14 -129 -36t-37 -67v-2q0 -51 47 -88t154 -37q176 0 288 80t113 182z" />
    <glyph glyph-name="adieresis" unicode="&#xe4;" horiz-adv-x="1638" 
d="M723 1524v-316h-440v316h440zM1268 1524v-316h-443v316h443zM571 -20h-26q-260 0 -386 102t-126 258v14q0 152 107 230q108 78 356 100l503 47q70 8 70 57q0 27 -13 43q-13 15 -81 31t-193 17h-10q-213 0 -263 -65q-23 -30 -26 -58h-424v4q0 53 9 95q8 42 47 97t105 92
t193 63q128 26 304 26h112q506 0 625 -163q39 -52 47 -93t8 -101v-422q0 -55 58 -55h59v-299h-371q-149 0 -174 152q-51 -64 -174 -118t-336 -54zM1069 489v35l-436 -67q-92 -14 -129 -36t-37 -67v-2q0 -51 47 -88t154 -37q176 0 288 80t113 182z" />
    <glyph glyph-name="aring" unicode="&#xe5;" horiz-adv-x="1638" 
d="M926 1432q0 92 -152 92t-153 -94q1 -94 153 -94t152 96zM1159 1432q0 -242 -387 -242t-387 240t387 240t387 -238zM571 -20h-26q-260 0 -386 102t-126 258v14q0 152 107 230q108 78 356 100l503 47q70 8 70 57q0 27 -13 43q-13 15 -81 31t-193 17h-10q-213 0 -263 -65
q-23 -30 -26 -58h-424v4q0 53 9 95q8 42 47 97t105 92t193 63q128 26 304 26h112q506 0 625 -163q39 -52 47 -93t8 -101v-422q0 -55 58 -55h59v-299h-371q-149 0 -174 152q-51 -64 -174 -118t-336 -54zM1069 489v35l-436 -67q-92 -14 -129 -36t-37 -67v-2q0 -51 47 -88
t154 -37q176 0 288 80t113 182z" />
    <glyph glyph-name="ae" unicode="&#xe6;" horiz-adv-x="2738" 
d="M2691 389v-2q0 -53 -13 -101q-12 -48 -60 -108t-125 -105q-77 -44 -219 -74t-330 -30h-121q-481 0 -670 248q-52 -70 -138 -126q-174 -113 -411 -111h-26q-285 0 -415 101t-130 259v14q0 152 109 232q110 80 350 102l518 47q47 6 47 58q-1 25 -15 41q-37 41 -268 43h-14
q-212 0 -255 -63q-18 -26 -24 -58h-422v4q0 55 8 96q7 41 44 97q37 57 103 93t192 62q127 26 303 25h112q385 0 516 -105q154 104 473 105h132q754 0 753 -594v-76h-1196q41 -215 387 -215h2q172 0 253 39t96 77q7 15 8 25h446zM666 225q170 0 280 80t111 184v35l-432 -65
q-88 -12 -124 -35t-36 -66v-2q1 -53 49 -92t152 -39zM1876 877h-4q-309 0 -365 -187h734q-43 187 -365 187z" />
    <glyph glyph-name="ccedilla" unicode="&#xe7;" horiz-adv-x="1740" 
d="M518 -528v184h217q82 0 82 46t-82 46h-145v237q-201 31 -301 100q-181 122 -226 298q-18 74 -18 154v41q0 173 89 301q52 76 135 130t223 89t319 35h117q197 0 344 -37t226 -89t128 -123q48 -71 62 -125t14 -108v-6h-469q-47 199 -365 199h-6q-184 0 -267 -77t-83 -196
v-14q0 -125 84 -210t266 -85h6q315 0 365 203h469v-4q0 -57 -12 -111t-60 -128q-48 -73 -126 -125t-228 -90t-350 -38h-76v-71q215 0 294 -52t79 -155v-6q0 -97 -81 -155t-294 -58h-330z" />
    <glyph glyph-name="egrave" unicode="&#xe8;" horiz-adv-x="1742" 
d="M1085 1208h-440l-219 316h475zM1694 389v-2q0 -51 -14 -101t-64 -110q-49 -60 -127 -103q-78 -44 -220 -74t-331 -30h-117q-428 0 -602 166t-174 397v46q0 228 157 381q176 172 607 174h125q766 0 766 -594v-76h-1206q45 -215 389 -215h2q231 0 316 81q38 35 42 60h451z
M870 877h-2q-311 0 -366 -187h737q-50 187 -369 187z" />
    <glyph glyph-name="eacute" unicode="&#xe9;" horiz-adv-x="1742" 
d="M655 1208l185 316h471l-219 -316h-437zM1694 389v-2q0 -51 -14 -101t-64 -110q-49 -60 -127 -103q-78 -44 -220 -74t-331 -30h-117q-428 0 -602 166t-174 397v46q0 228 157 381q176 172 607 174h125q766 0 766 -594v-76h-1206q45 -215 389 -215h2q231 0 316 81
q38 35 42 60h451zM870 877h-2q-311 0 -366 -187h737q-50 187 -369 187z" />
    <glyph glyph-name="ecircumflex" unicode="&#xea;" horiz-adv-x="1742" 
d="M1124 1526l312 -318h-441l-125 131l-125 -131h-434l307 318h506zM1694 389v-2q0 -51 -14 -101t-64 -110q-49 -60 -127 -103q-78 -44 -220 -74t-331 -30h-117q-428 0 -602 166t-174 397v46q0 228 157 381q176 172 607 174h125q766 0 766 -594v-76h-1206q45 -215 389 -215
h2q231 0 316 81q38 35 42 60h451zM870 877h-2q-311 0 -366 -187h737q-50 187 -369 187z" />
    <glyph glyph-name="edieresis" unicode="&#xeb;" horiz-adv-x="1742" 
d="M821 1524v-316h-440v316h440zM1366 1524v-316h-442v316h442zM1694 389v-2q0 -51 -14 -101t-64 -110q-49 -60 -127 -103q-78 -44 -220 -74t-331 -30h-117q-428 0 -602 166t-174 397v46q0 228 157 381q176 172 607 174h125q766 0 766 -594v-76h-1206q45 -215 389 -215h2
q231 0 316 81q38 35 42 60h451zM870 877h-2q-311 0 -366 -187h737q-50 187 -369 187z" />
    <glyph glyph-name="igrave" unicode="&#xec;" horiz-adv-x="649" 
d="M543 1208h-441l-219 316h475zM553 1102v-1102h-457v1102h457z" />
    <glyph glyph-name="iacute" unicode="&#xed;" horiz-adv-x="649" 
d="M111 1208l184 316h471l-219 -316h-436zM553 1102v-1102h-457v1102h457z" />
    <glyph glyph-name="icircumflex" unicode="&#xee;" horiz-adv-x="649" 
d="M553 1102v-1102h-457v1102h457zM555 1524l221 -316h-362l-92 131l-93 -131h-356l217 316h465z" />
    <glyph glyph-name="idieresis" unicode="&#xef;" horiz-adv-x="649" 
d="M553 1102v-1102h-457v1102h457zM281 1524v-316h-357v316h357zM725 1524v-316h-358v316h358z" />
    <glyph glyph-name="eth" unicode="&#xf0;" horiz-adv-x="1814" 
d="M906 266q214 0 306 80t93 199v10q-1 119 -93 198t-305 78h-2q-215 1 -306 -77t-91 -199v-10q0 -119 92 -199t306 -80zM846 -31q-225 0 -390 49q-165 48 -250 132q-161 158 -161 368v49q0 237 154 387t491 150h35q250 0 457 -117l-295 217l-557 -63v184l336 37l-222 162
h570l147 -105l426 47v-184l-203 -22q205 -148 295 -302t90 -340v-40q0 -224 -79 -344q-175 -265 -734 -265h-110z" />
    <glyph glyph-name="ntilde" unicode="&#xf1;" horiz-adv-x="1738" 
d="M1112 1217h-12q-80 0 -213 44t-158 44q-33 0 -33 -43v-60h-295v156q0 80 44 139t155 59h10q70 0 120 -15t138 -44t113 -29q33 0 33 45v60h295v-156q0 -200 -197 -200zM82 0v1102h453v-189q213 213 546 213h15q268 0 402 -126t134 -304v-696h-461v545q0 131 -73 203
q-74 72 -224 72t-243 -83q-92 -82 -92 -217v-520h-457z" />
    <glyph glyph-name="ograve" unicode="&#xf2;" horiz-adv-x="1814" 
d="M1128 1208h-440l-219 316h475zM909 266q213 0 305 84t93 201v10q-1 119 -93 199t-303 80h-2q-215 0 -306 -79t-91 -200v-10q0 -117 92 -201t305 -84zM981 -31h-143q-184 0 -326 36t-229 91q-86 55 -142 133q-94 133 -96 310v36q0 172 95 306q111 156 369 218
q142 34 327 34h145q788 0 788 -558v-36q0 -570 -788 -570z" />
    <glyph glyph-name="oacute" unicode="&#xf3;" horiz-adv-x="1814" 
d="M690 1208l184 316h472l-220 -316h-436zM909 266q213 0 305 84t93 201v10q-1 119 -93 199t-303 80h-2q-215 0 -306 -79t-91 -200v-10q0 -117 92 -201t305 -84zM981 -31h-143q-184 0 -326 36t-229 91q-86 55 -142 133q-94 133 -96 310v36q0 172 95 306q111 156 369 218
q142 34 327 34h145q788 0 788 -558v-36q0 -570 -788 -570z" />
    <glyph glyph-name="ocircumflex" unicode="&#xf4;" horiz-adv-x="1814" 
d="M1159 1526l311 -318h-440l-125 131l-125 -131h-434l307 318h506zM909 266q213 0 305 84t93 201v10q-1 119 -93 199t-303 80h-2q-215 0 -306 -79t-91 -200v-10q0 -117 92 -201t305 -84zM981 -31h-143q-184 0 -326 36t-229 91q-86 55 -142 133q-94 133 -96 310v36
q0 172 95 306q111 156 369 218q142 34 327 34h145q788 0 788 -558v-36q0 -570 -788 -570z" />
    <glyph glyph-name="otilde" unicode="&#xf5;" horiz-adv-x="1814" 
d="M1163 1217h-12q-80 0 -213 44t-158 44q-33 0 -32 -43v-60h-295v156q0 80 44 139t154 59h11q69 0 119 -15q51 -15 139 -44t112 -29q33 0 33 45v60h295v-156q0 -200 -197 -200zM909 266q213 0 305 84t93 201v10q-1 119 -93 199t-303 80h-2q-215 0 -306 -79t-91 -200v-10
q0 -117 92 -201t305 -84zM981 -31h-143q-184 0 -326 36t-229 91q-86 55 -142 133q-94 133 -96 310v36q0 172 95 306q111 156 369 218q142 34 327 34h145q788 0 788 -558v-36q0 -570 -788 -570z" />
    <glyph glyph-name="odieresis" unicode="&#xf6;" horiz-adv-x="1814" 
d="M856 1524v-316h-440v316h440zM1401 1524v-316h-443v316h443zM909 266q213 0 305 84t93 201v10q-1 119 -93 199t-303 80h-2q-215 0 -306 -79t-91 -200v-10q0 -117 92 -201t305 -84zM981 -31h-143q-184 0 -326 36t-229 91q-86 55 -142 133q-94 133 -96 310v36q0 172 95 306
q111 156 369 218q142 34 327 34h145q788 0 788 -558v-36q0 -570 -788 -570z" />
    <glyph glyph-name="divide" unicode="&#xf7;" horiz-adv-x="1277" 
d="M836 373v-312h-394v312h394zM78 772h1122v-283h-1122v283zM836 1198v-311h-394v311h394z" />
    <glyph glyph-name="oslash" unicode="&#xf8;" horiz-adv-x="1814" 
d="M909 266q217 0 311 84q93 84 93 201v10q0 76 -31 129l-559 -401q84 -23 186 -23zM504 561v-10q0 -80 37 -139l567 403q-80 25 -197 25h-2q-221 0 -313 -79t-92 -200zM981 -31h-143q-270 0 -447 86l-78 -55h-350l244 176q-162 147 -162 363v36q0 172 95 306
q111 156 369 218q142 34 327 34h143q256 0 446 -82l74 51h354l-241 -172q158 -139 157 -355v-36q0 -570 -788 -570z" />
    <glyph glyph-name="ugrave" unicode="&#xf9;" horiz-adv-x="1716" 
d="M1081 1208h-440l-219 316h475zM1620 1102v-1102h-453v190q-35 -33 -47 -44t-70 -52t-108 -60q-152 -57 -309 -59h-17q-262 1 -393 133t-131 308v686h461v-545q0 -127 71 -201q70 -74 216 -74t234 83q88 82 89 217v520h457z" />
    <glyph glyph-name="uacute" unicode="&#xfa;" horiz-adv-x="1716" 
d="M629 1208l184 316h471l-219 -316h-436zM1620 1102v-1102h-453v190q-35 -33 -47 -44t-70 -52t-108 -60q-152 -57 -309 -59h-17q-262 1 -393 133t-131 308v686h461v-545q0 -127 71 -201q70 -74 216 -74t234 83q88 82 89 217v520h457z" />
    <glyph glyph-name="ucircumflex" unicode="&#xfb;" horiz-adv-x="1716" 
d="M1108 1526l311 -318h-440l-125 131l-125 -131h-434l307 318h506zM1620 1102v-1102h-453v190q-35 -33 -47 -44t-70 -52t-108 -60q-152 -57 -309 -59h-17q-262 1 -393 133t-131 308v686h461v-545q0 -127 71 -201q70 -74 216 -74t234 83q88 82 89 217v520h457z" />
    <glyph glyph-name="udieresis" unicode="&#xfc;" horiz-adv-x="1716" 
d="M805 1524v-316h-440v316h440zM1350 1524v-316h-443v316h443zM1620 1102v-1102h-453v190q-35 -33 -47 -44t-70 -52t-108 -60q-152 -57 -309 -59h-17q-262 1 -393 133t-131 308v686h461v-545q0 -127 71 -201q70 -74 216 -74t234 83q88 82 89 217v520h457z" />
    <glyph glyph-name="yacute" unicode="&#xfd;" horiz-adv-x="1603" 
d="M580 1208l184 316h471l-219 -316h-436zM244 -385v328h258q53 0 53 34q0 18 -51 117l-527 1008h492l354 -746l344 746h459l-577 -1176q-82 -164 -172 -238t-234 -73h-399z" />
    <glyph glyph-name="thorn" unicode="&#xfe;" horiz-adv-x="1859" 
d="M96 1524h457v-580q211 184 559 184h37q362 0 514 -157t152 -396v-38q0 -231 -148 -391q-76 -81 -211 -127t-315 -46h-33q-215 1 -359 63t-196 120v-541h-457v1909zM553 559v-8q0 -115 106 -201t302 -86h10q201 0 289 84t88 203v8q0 123 -87 204t-290 81h-10
q-201 0 -305 -84t-103 -201z" />
    <glyph glyph-name="ydieresis" unicode="&#xff;" horiz-adv-x="1603" 
d="M770 1524v-316h-440v316h440zM1315 1524v-316h-443v316h443zM244 -385v328h258q53 0 53 34q0 18 -51 117l-527 1008h492l354 -746l344 746h459l-577 -1176q-82 -164 -172 -238t-234 -73h-399z" />
    <glyph glyph-name="Amacron" unicode="&#x100;" horiz-adv-x="2138" 
d="M596 1647v258h903v-258h-903zM1657 0l-144 279h-923l-137 -279h-486l770 1524h619l815 -1524h-514zM1337 623l-295 571l-282 -571h577z" />
    <glyph glyph-name="amacron" unicode="&#x101;" horiz-adv-x="1638" 
d="M342 1231v250h864v-250h-864zM571 -20h-26q-260 0 -386 102t-126 258v14q0 152 107 230q108 78 356 100l503 47q70 8 70 57q0 27 -13 43q-13 15 -81 31t-193 17h-10q-213 0 -263 -65q-23 -30 -26 -58h-424v4q0 53 9 95q8 42 47 97t105 92t193 63q128 26 304 26h112
q506 0 625 -163q39 -52 47 -93t8 -101v-422q0 -55 58 -55h59v-299h-371q-149 0 -174 152q-51 -64 -174 -118t-336 -54zM1069 489v35l-436 -67q-92 -14 -129 -36t-37 -67v-2q0 -51 47 -88t154 -37q176 0 288 80t113 182z" />
    <glyph glyph-name="Abreve" unicode="&#x102;" horiz-adv-x="2138" 
d="M1085 1612h-69q-291 0 -394 171q-49 78 -51 161v4h353q0 -46 47 -78q31 -20 91 -20t90 32q28 33 28 66h344v-4q0 -95 -90 -203q-46 -55 -138 -92t-211 -37zM1657 0l-144 279h-923l-137 -279h-486l770 1524h619l815 -1524h-514zM1337 623l-295 571l-282 -571h577z" />
    <glyph glyph-name="abreve" unicode="&#x103;" horiz-adv-x="1638" 
d="M571 -20h-26q-260 0 -386 102t-126 258v14q0 152 107 230q108 78 356 100l503 47q70 8 70 57q0 27 -13 43q-13 15 -81 31t-193 17h-10q-213 0 -263 -65q-23 -30 -26 -58h-424v4q0 53 9 95q8 42 47 97t105 92t193 63q128 26 304 26h112q506 0 625 -163q39 -52 47 -93
t8 -101v-422q0 -55 58 -55h59v-299h-371q-149 0 -174 152q-51 -64 -174 -118t-336 -54zM1069 489v35l-436 -67q-92 -14 -129 -36t-37 -67v-2q0 -51 47 -88t154 -37q176 0 288 80t113 182zM815 1192h-65q-130 0 -224 35t-138 91q-77 98 -79 202v4h348q0 -31 29 -66
q30 -35 98 -35t97 35t28 66h340v-4q0 -98 -89 -202q-46 -54 -136 -90t-209 -36z" />
    <glyph glyph-name="Aogonek" unicode="&#x104;" horiz-adv-x="2138" 
d="M2171 -385h-277q-266 0 -266 145v4q0 78 85 132t261 104h-317l-144 279h-923l-137 -279h-486l770 1524h619l815 -1524q-121 -82 -121 -129t78 -47h43v-209zM1337 623l-295 571l-282 -571h577z" />
    <glyph glyph-name="aogonek" unicode="&#x105;" horiz-adv-x="1638" 
d="M1626 -385h-276q-266 0 -267 145v4q0 78 85 132t262 104h-175q-150 0 -174 152q-51 -64 -174 -118t-336 -54h-26q-260 0 -386 102t-126 258v14q0 152 107 230q108 78 356 100l503 47q70 8 70 57q0 27 -13 43q-13 15 -81 31t-193 17h-10q-213 0 -263 -65q-23 -30 -26 -58
h-424v4q0 53 9 95q8 42 47 97t105 92t193 63q128 26 304 26h112q506 0 625 -163q39 -52 47 -93t8 -101v-422q0 -55 58 -55h59v-299q-121 -82 -121 -129t78 -47h43v-209zM1069 489v35l-436 -67q-92 -14 -129 -36t-37 -67v-2q0 -51 47 -88t154 -37q176 0 288 80t113 182z" />
    <glyph glyph-name="Cacute" unicode="&#x106;" horiz-adv-x="2230" 
d="M1159 -27h-84q-510 0 -772 216q-243 203 -248 548v60q0 98 19 186q18 88 83 197q65 108 169 186t298 131t451 53h84q252 0 445 -46t298 -112t172 -154q67 -87 86 -156t19 -132v-22h-506q-6 25 -15 44t-47 62t-92 72q-53 28 -159 52t-257 24t-267 -34t-173 -93
q-108 -110 -108 -269v-24q0 -149 115 -276q59 -66 176 -104t274 -38q469 0 553 264q2 4 2 6h506v-22q1 -68 -21 -140t-90 -160q-68 -89 -174 -157t-298 -115t-439 -47zM895 1630l184 307h492l-215 -307h-461z" />
    <glyph glyph-name="cacute" unicode="&#x107;" horiz-adv-x="1740" 
d="M926 -31h-113q-180 0 -320 36q-141 36 -223 92t-135 134q-90 132 -90 306v41q0 173 89 301q52 76 135 130t223 89t319 35h117q197 0 344 -37t226 -89t128 -123q48 -71 62 -125t14 -108v-6h-469q-47 199 -365 199h-6q-184 0 -267 -77t-83 -196v-14q0 -125 84 -210t266 -85
h6q315 0 365 203h469v-4q0 -57 -12 -111t-60 -128q-48 -73 -126 -125q-79 -52 -228 -90t-350 -38zM655 1208l185 316h471l-219 -316h-437z" />
    <glyph glyph-name="Ccircumflex" unicode="&#x108;" horiz-adv-x="2230" 
d="M1159 -27h-84q-510 0 -772 216q-243 203 -248 548v60q0 98 19 186q18 88 83 197q65 108 169 186t298 131t451 53h84q252 0 445 -46t298 -112t172 -154q67 -87 86 -156t19 -132v-22h-506q-6 25 -15 44t-47 62t-92 72q-53 28 -159 52t-257 24t-267 -34t-173 -93
q-108 -110 -108 -269v-24q0 -149 115 -276q59 -66 176 -104t274 -38q469 0 553 264q2 4 2 6h506v-22q1 -68 -21 -140t-90 -160q-68 -89 -174 -157t-298 -115t-439 -47zM1372 1937l328 -307h-451l-135 119l-133 -119h-444l321 307h514z" />
    <glyph glyph-name="ccircumflex" unicode="&#x109;" horiz-adv-x="1740" 
d="M926 -31h-113q-180 0 -320 36q-141 36 -223 92t-135 134q-90 132 -90 306v41q0 173 89 301q52 76 135 130t223 89t319 35h117q197 0 344 -37t226 -89t128 -123q48 -71 62 -125t14 -108v-6h-469q-47 199 -365 199h-6q-184 0 -267 -77t-83 -196v-14q0 -125 84 -210t266 -85
h6q315 0 365 203h469v-4q0 -57 -12 -111t-60 -128q-48 -73 -126 -125q-79 -52 -228 -90t-350 -38zM1124 1524l312 -318h-441l-125 131l-125 -131h-434l307 318h506z" />
    <glyph glyph-name="Cdotaccent" unicode="&#x10a;" horiz-adv-x="2230" 
d="M1159 -27h-84q-510 0 -772 216q-243 203 -248 548v60q0 98 19 186q18 88 83 197q65 108 169 186t298 131t451 53h84q252 0 445 -46t298 -112t172 -154q67 -87 86 -156t19 -132v-22h-506q-6 25 -15 44t-47 62t-92 72q-53 28 -159 52t-257 24t-267 -34t-173 -93
q-108 -110 -108 -269v-24q0 -149 115 -276q59 -66 176 -104t274 -38q469 0 553 264q2 4 2 6h506v-22q1 -68 -21 -140t-90 -160q-68 -89 -174 -157t-298 -115t-439 -47zM1348 1946v-316h-457v316h457z" />
    <glyph glyph-name="cdotaccent" unicode="&#x10b;" horiz-adv-x="1740" 
d="M926 -31h-113q-180 0 -320 36q-141 36 -223 92t-135 134q-90 132 -90 306v41q0 173 89 301q52 76 135 130t223 89t319 35h117q197 0 344 -37t226 -89t128 -123q48 -71 62 -125t14 -108v-6h-469q-47 199 -365 199h-6q-184 0 -267 -77t-83 -196v-14q0 -125 84 -210t266 -85
h6q315 0 365 203h469v-4q0 -57 -12 -111t-60 -128q-48 -73 -126 -125q-79 -52 -228 -90t-350 -38zM1102 1524v-316h-457v316h457z" />
    <glyph glyph-name="Ccaron" unicode="&#x10c;" horiz-adv-x="2230" 
d="M1159 -27h-84q-510 0 -772 216q-243 203 -248 548v60q0 98 19 186q18 88 83 197q65 108 169 186t298 131t451 53h84q252 0 445 -46t298 -112t172 -154q67 -87 86 -156t19 -132v-22h-506q-6 25 -15 44t-47 62t-92 72q-53 28 -159 52t-257 24t-267 -34t-173 -93
q-108 -110 -108 -269v-24q0 -149 115 -276q59 -66 176 -104t274 -38q469 0 553 264q2 4 2 6h506v-22q1 -68 -21 -140t-90 -160q-68 -89 -174 -157t-298 -115t-439 -47zM864 1630l-327 307h450l135 -118l133 118h445l-322 -307h-514z" />
    <glyph glyph-name="ccaron" unicode="&#x10d;" horiz-adv-x="1740" 
d="M926 -31h-113q-180 0 -320 36q-141 36 -223 92t-135 134q-90 132 -90 306v41q0 173 89 301q52 76 135 130t223 89t319 35h117q197 0 344 -37t226 -89t128 -123q48 -71 62 -125t14 -108v-6h-469q-47 199 -365 199h-6q-184 0 -267 -77t-83 -196v-14q0 -125 84 -210t266 -85
h6q315 0 365 203h469v-4q0 -57 -12 -111t-60 -128q-48 -73 -126 -125q-79 -52 -228 -90t-350 -38zM623 1208l-312 316h441l125 -129l124 129h435l-308 -316h-505z" />
    <glyph glyph-name="Dcaron" unicode="&#x10e;" horiz-adv-x="2248" 
d="M702 1630l-327 307h450l136 -118l133 118h444l-321 -307h-515zM594 1163v-796h496q612 0 612 393v12q0 391 -612 391h-496zM117 0v1524h1009q433 0 673 -112q239 -112 320 -270q81 -157 83 -339v-62q0 -109 -25 -203t-97 -198q-73 -102 -188 -174q-116 -72 -312 -119
t-452 -47h-1011z" />
    <glyph glyph-name="dcaron" unicode="&#x10f;" horiz-adv-x="1861" 
d="M1829 1184l31 340h366l-61 -340h-336zM1307 1524h458v-1524h-454v168q-35 -50 -124 -99q-175 -96 -421 -96h-27q-348 0 -521 159t-173 409v39q0 242 164 396t512 152h33q354 0 553 -174v570zM1307 549v8q0 115 -113 199t-305 84h-10q-199 0 -283 -80t-84 -203v-8
q0 -115 92 -200t279 -85h10q193 0 303 85t111 200z" />
    <glyph glyph-name="Dcroat" unicode="&#x110;" horiz-adv-x="2260" 
d="M606 1163v-243h678v-306h-678v-247h496q612 0 612 393v12q0 391 -612 391h-496zM129 0v614h-127v306h127v604h1010q435 0 673 -112t319 -270q81 -157 83 -339v-62q0 -109 -25 -203t-97 -198q-74 -102 -188 -174t-311 -119t-452 -47h-1012z" />
    <glyph glyph-name="dcroat" unicode="&#x111;" horiz-adv-x="1861" 
d="M1307 1524h458v-103h158v-211h-158v-1210h-454v168q-35 -50 -124 -99q-175 -96 -421 -96h-27q-348 0 -521 159t-173 409v39q0 242 164 396t512 152h33q354 0 553 -174v256h-586v211h586v103zM1307 549v8q0 115 -113 199t-305 84h-10q-199 0 -283 -80t-84 -203v-8
q0 -115 92 -200t279 -85h10q193 0 303 85t111 200z" />
    <glyph glyph-name="Emacron" unicode="&#x112;" horiz-adv-x="1824" 
d="M487 1647v258h904v-258h-904zM117 1524h1605v-346h-1134v-226h1108v-348h-1108v-250h1155v-354h-1626v1524z" />
    <glyph glyph-name="emacron" unicode="&#x113;" horiz-adv-x="1742" 
d="M440 1231v250h865v-250h-865zM1694 389v-2q0 -51 -14 -101t-64 -110q-49 -60 -127 -103q-78 -44 -220 -74t-331 -30h-117q-428 0 -602 166t-174 397v46q0 228 157 381q176 172 607 174h125q766 0 766 -594v-76h-1206q45 -215 389 -215h2q231 0 316 81q38 35 42 60h451z
M870 877h-2q-311 0 -366 -187h737q-50 187 -369 187z" />
    <glyph glyph-name="Ebreve" unicode="&#x114;" horiz-adv-x="1824" 
d="M979 1612h-70q-287 0 -394 171q-50 80 -50 161v4h352q0 -46 47 -78q32 -20 92 -20t88 32q28 33 29 66h344v-4q0 -98 -90 -203q-47 -55 -138 -92t-210 -37zM117 1524h1605v-346h-1134v-226h1108v-348h-1108v-250h1155v-354h-1626v1524z" />
    <glyph glyph-name="ebreve" unicode="&#x115;" horiz-adv-x="1742" 
d="M1694 389v-2q0 -51 -14 -101t-64 -110q-49 -60 -127 -103q-78 -44 -220 -74t-331 -30h-117q-428 0 -602 166t-174 397v46q0 228 157 381q176 172 607 174h125q766 0 766 -594v-76h-1206q45 -215 389 -215h2q231 0 316 81q38 35 42 60h451zM870 877h-2q-311 0 -366 -187
h737q-50 187 -369 187zM909 1192h-65q-131 0 -224 35t-138 91q-77 98 -79 202v4h349q0 -31 28 -66t98 -35t98 35t28 66h339v-4q0 -98 -89 -202q-46 -54 -136 -90t-209 -36z" />
    <glyph glyph-name="Edotaccent" unicode="&#x116;" horiz-adv-x="1824" 
d="M1167 1946v-316h-456v316h456zM117 1524h1605v-346h-1134v-226h1108v-348h-1108v-250h1155v-354h-1626v1524z" />
    <glyph glyph-name="edotaccent" unicode="&#x117;" horiz-adv-x="1742" 
d="M1694 389v-2q0 -51 -14 -101t-64 -110q-49 -60 -127 -103q-78 -44 -220 -74t-331 -30h-117q-428 0 -602 166t-174 397v46q0 228 157 381q176 172 607 174h125q766 0 766 -594v-76h-1206q45 -215 389 -215h2q231 0 316 81q38 35 42 60h451zM870 877h-2q-311 0 -366 -187
h737q-50 187 -369 187zM1102 1524v-316h-457v316h457z" />
    <glyph glyph-name="Eogonek" unicode="&#x118;" horiz-adv-x="1824" 
d="M117 1524h1605v-346h-1134v-226h1108v-348h-1108v-250h1155v-354h-234q-121 -82 -121 -129t78 -47h52v-209h-285q-266 0 -266 145v4q0 78 85 132t261 104h-1196v1524z" />
    <glyph glyph-name="eogonek" unicode="&#x119;" horiz-adv-x="1742" 
d="M1425 -176v-209h-284q-266 0 -267 145v4q0 74 74 121t238 101q-115 -16 -248 -17h-117q-428 0 -602 166t-174 397v46q0 228 157 381q176 172 607 174h125q766 0 766 -594v-76h-1206q45 -215 389 -215h2q231 0 316 81q38 35 42 60h451v-2q0 -113 -70 -204t-199 -178
t-129 -134t78 -47h51zM870 877h-2q-311 0 -366 -187h737q-50 187 -369 187z" />
    <glyph glyph-name="Ecaron" unicode="&#x11a;" horiz-adv-x="1824" 
d="M686 1630l-328 307h451l135 -118l133 118h445l-322 -307h-514zM117 1524h1605v-346h-1134v-226h1108v-348h-1108v-250h1155v-354h-1626v1524z" />
    <glyph glyph-name="ecaron" unicode="&#x11b;" horiz-adv-x="1742" 
d="M1694 389v-2q0 -51 -14 -101t-64 -110q-49 -60 -127 -103q-78 -44 -220 -74t-331 -30h-117q-428 0 -602 166t-174 397v46q0 228 157 381q176 172 607 174h125q766 0 766 -594v-76h-1206q45 -215 389 -215h2q231 0 316 81q38 35 42 60h451zM870 877h-2q-311 0 -366 -187
h737q-50 187 -369 187zM623 1208l-312 316h441l125 -129l124 129h435l-308 -316h-505z" />
    <glyph glyph-name="Gcircumflex" unicode="&#x11c;" horiz-adv-x="2295" 
d="M1114 -27h-43q-238 -1 -422 51t-294 131t-179 184q-121 182 -121 400v58q0 100 22 193q23 92 91 198t176 183q109 77 300 128t443 51h89q244 0 430 -41t291 -101t173 -143t92 -152q22 -69 23 -140v-2h-508q-76 217 -542 217q-580 0 -580 -412v-22q0 -168 142 -289
t456 -121t488 122q79 57 79 95v4h-598v289h1073v-854h-286q-14 123 -62 238q-229 -265 -733 -265zM1384 1937l328 -307h-450l-136 119l-133 -119h-444l321 307h514z" />
    <glyph glyph-name="gcircumflex" unicode="&#x11d;" horiz-adv-x="1878" 
d="M1130 1526l312 -318h-441l-124 131l-125 -131h-435l308 318h505zM1008 -399h-146q-197 -1 -343 33t-221 79t-120 105t-55 100q-10 39 -10 76v6h460q25 -102 353 -102h6q393 0 393 317q-186 -166 -537 -166h-24q-365 -1 -542 147t-177 379v41q0 220 160 366t502 146h43
q387 0 573 -174v148h459v-901q0 -70 -14 -140q-14 -71 -65 -157q-50 -86 -130 -151t-226 -109t-339 -43zM899 842h-12q-203 0 -290 -70t-87 -176v-10q0 -106 91 -182t286 -74h12q203 0 309 74t107 180v8q-1 106 -107 178t-309 72z" />
    <glyph glyph-name="Gbreve" unicode="&#x11e;" horiz-adv-x="2295" 
d="M1169 1612h-69q-291 0 -394 171q-49 78 -51 161v4h353q0 -46 47 -78q31 -20 91 -20t90 32q28 33 28 66h344v-4q0 -95 -90 -203q-46 -55 -138 -92t-211 -37zM1114 -27h-43q-238 -1 -422 51t-294 131t-179 184q-121 182 -121 400v58q0 100 22 193q23 92 91 198t176 183
q109 77 300 128t443 51h89q244 0 430 -41t291 -101t173 -143t92 -152q22 -69 23 -140v-2h-508q-76 217 -542 217q-580 0 -580 -412v-22q0 -168 142 -289t456 -121t488 122q79 57 79 95v4h-598v289h1073v-854h-286q-14 123 -62 238q-229 -265 -733 -265z" />
    <glyph glyph-name="gbreve" unicode="&#x11f;" horiz-adv-x="1878" 
d="M918 1192h-66q-131 0 -224 35t-138 91q-78 99 -78 202v4h348q0 -31 28 -66t98 -35t98 35t28 66h340v-4q0 -95 -89 -202q-46 -54 -136 -90t-209 -36zM1008 -399h-146q-197 -1 -343 33t-221 79t-120 105t-55 100q-10 39 -10 76v6h460q25 -102 353 -102h6q393 0 393 317
q-186 -166 -537 -166h-24q-365 -1 -542 147t-177 379v41q0 220 160 366t502 146h43q387 0 573 -174v148h459v-901q0 -70 -14 -140q-14 -71 -65 -157q-50 -86 -130 -151t-226 -109t-339 -43zM899 842h-12q-203 0 -290 -70t-87 -176v-10q0 -106 91 -182t286 -74h12
q203 0 309 74t107 180v8q-1 106 -107 178t-309 72z" />
    <glyph glyph-name="Gdotaccent" unicode="&#x120;" horiz-adv-x="2295" 
d="M1114 -27h-43q-238 -1 -422 51t-294 131t-179 184q-121 182 -121 400v58q0 100 22 193q23 92 91 198t176 183q109 77 300 128t443 51h89q244 0 430 -41t291 -101t173 -143t92 -152q22 -69 23 -140v-2h-508q-76 217 -542 217q-580 0 -580 -412v-22q0 -168 142 -289
t456 -121t488 122q79 57 79 95v4h-598v289h1073v-854h-286q-14 123 -62 238q-229 -265 -733 -265zM1360 1946v-316h-457v316h457z" />
    <glyph glyph-name="gdotaccent" unicode="&#x121;" horiz-adv-x="1878" 
d="M1102 1524v-316h-457v316h457zM1010 -399h-146q-197 -1 -343 33t-221 79t-120 105t-55 100q-10 39 -10 76v6h460q25 -102 353 -102h6q393 0 393 317q-186 -166 -536 -166h-25q-365 -1 -542 147t-177 379v41q0 220 160 366t502 146h43q387 0 573 -174v148h459v-901
q0 -70 -14 -140q-14 -71 -65 -157q-50 -86 -130 -151t-226 -109t-339 -43zM901 842h-12q-203 0 -290 -70t-87 -176v-10q0 -106 91 -182t286 -74h12q203 0 309 74t107 180v8q-1 106 -107 178t-309 72z" />
    <glyph glyph-name="uni0122" unicode="&#x122;" horiz-adv-x="2295" 
d="M856 -414v308h457v-246q0 -93 -80 -228h-232q39 88 60 166h-205zM1114 -27h-43q-238 -1 -422 51t-294 131t-179 184q-121 182 -121 400v58q0 100 22 193q23 92 91 198t176 183q109 77 300 128t443 51h89q244 0 430 -41t291 -101t173 -143t92 -152q22 -69 23 -140v-2h-508
q-76 217 -542 217q-580 0 -580 -412v-22q0 -168 142 -289t456 -121t488 122q79 57 79 95v4h-598v289h1073v-854h-286q-14 123 -62 238q-229 -265 -733 -265z" />
    <glyph glyph-name="uni0123" unicode="&#x123;" horiz-adv-x="1878" 
d="M1102 1516v-308h-457v246q0 92 80 227h231q-39 -88 -59 -165h205zM1008 -399h-146q-197 -1 -343 33t-221 79t-120 105t-55 100q-10 39 -10 76v6h460q25 -102 353 -102h6q393 0 393 317q-186 -166 -537 -166h-24q-365 -1 -542 147t-177 379v41q0 220 160 366t502 146h43
q387 0 573 -174v148h459v-901q0 -70 -14 -140q-14 -71 -65 -157q-50 -86 -130 -151t-226 -109t-339 -43zM899 842h-12q-203 0 -290 -70t-87 -176v-10q0 -106 91 -182t286 -74h12q203 0 309 74t107 180v8q-1 106 -107 178t-309 72z" />
    <glyph glyph-name="Hcircumflex" unicode="&#x124;" horiz-adv-x="2211" 
d="M1360 1937l328 -307h-451l-135 119l-133 -119h-445l322 307h514zM117 0v1524h477v-555h1024v555h477v-1524h-477v600h-1024v-600h-477z" />
    <glyph glyph-name="hcircumflex" unicode="&#x125;" horiz-adv-x="1738" 
d="M1083 1937l328 -307h-450l-136 119l-133 -119h-444l321 307h514zM96 0v1524h457v-606q209 209 543 208h14q266 0 401 -126t136 -304v-696h-461v545q0 131 -74 203t-224 72t-243 -83q-92 -82 -92 -217v-520h-457z" />
    <glyph glyph-name="Hbar" unicode="&#x126;" horiz-adv-x="2260" 
d="M-10 1130v250h151v144h477v-144h1024v144h478v-144h151v-250h-151v-1130h-478v600h-1024v-600h-477v1130h-151zM618 1130v-161h1024v161h-1024z" />
    <glyph glyph-name="hbar" unicode="&#x127;" horiz-adv-x="1738" 
d="M96 1210h-157v211h157v103h457v-103h526v-211h-526v-292q209 209 543 208h14q266 0 401 -126t136 -304v-696h-461v545q0 131 -74 203t-224 72t-243 -83q-92 -82 -92 -217v-520h-457v1210z" />
    <glyph glyph-name="Itilde" unicode="&#x128;" horiz-adv-x="710" 
d="M618 1642h-12q-82 0 -215 46t-171 45q-38 0 -38 -43v-64h-299v166q0 82 45 141t160 60h12q86 1 220 -45t167 -45q37 0 37 43v61h299v-164q0 -81 -45 -141t-160 -60zM594 1524v-1524h-477v1524h477z" />
    <glyph glyph-name="itilde" unicode="&#x129;" horiz-adv-x="649" 
d="M553 1102v-1102h-457v1102h457zM535 1217h-11q-57 0 -169 44t-130 44q-27 0 -26 -43v-60h-250v148q0 80 38 139t128 59h8q65 0 171 -44t130 -44t25 45v60h249v-148q1 -200 -163 -200z" />
    <glyph glyph-name="Imacron" unicode="&#x12a;" horiz-adv-x="710" 
d="M594 1524v-1524h-477v1524h477zM-43 1647v258h797v-258h-797z" />
    <glyph glyph-name="imacron" unicode="&#x12b;" horiz-adv-x="649" 
d="M553 1102v-1102h-457v1102h457zM-33 1231v250h715v-250h-715z" />
    <glyph glyph-name="Ibreve" unicode="&#x12c;" horiz-adv-x="710" 
d="M393 1612h-69q-288 0 -395 171q-50 80 -50 161v4h352q-1 -45 39 -72q40 -26 100 -26t89 32q29 33 28 66h344v-4q0 -98 -90 -203q-47 -55 -138 -92t-210 -37zM594 1524v-1524h-477v1524h477z" />
    <glyph glyph-name="ibreve" unicode="&#x12d;" horiz-adv-x="649" 
d="M553 1102v-1102h-457v1102h457zM340 1194h-29q-109 0 -187 33t-118 85q-70 93 -72 208v4h295q6 -88 97 -88q50 0 72 28t22 60h295v-4q0 -108 -73 -208q-38 -52 -117 -85t-185 -33z" />
    <glyph glyph-name="Iogonek" unicode="&#x12e;" horiz-adv-x="710" 
d="M594 -385h-277q-266 0 -266 145v4q0 78 85 132t261 104h-280v1524h477v-1524q-121 -82 -121 -129t78 -47h43v-209z" />
    <glyph glyph-name="iogonek" unicode="&#x12f;" horiz-adv-x="649" 
d="M553 -385h-277q-266 0 -266 145v4q0 78 85 132t261 104h-260v1102h457v-1102q-121 -82 -121 -129t78 -47h43v-209zM553 1524v-316h-457v316h457z" />
    <glyph glyph-name="Idotaccent" unicode="&#x130;" horiz-adv-x="710" 
d="M584 1946v-316h-457v316h457zM594 1524v-1524h-477v1524h477z" />
    <glyph glyph-name="dotlessi" unicode="&#x131;" horiz-adv-x="649" 
d="M553 1102v-1102h-457v1102h457z" />
    <glyph glyph-name="IJ" unicode="&#x132;" horiz-adv-x="2533" 
d="M1636 -23h-114q-182 0 -326 41q-256 73 -380 263q-105 160 -103 356v12h483q4 -65 33 -121q29 -57 65 -90q36 -34 106 -58q71 -24 165 -24h24q183 0 275 100t92 277v791h479v-803q0 -226 -94 -397q-55 -102 -141 -176t-232 -123q-146 -48 -332 -48zM594 1524v-1524h-477
v1524h477z" />
    <glyph glyph-name="ij" unicode="&#x133;" horiz-adv-x="1286" 
d="M584 -63h84q37 0 51 15t14 62v1088h457v-1202q0 -145 -57 -215t-152 -70h-397v322zM1190 1524v-316h-457v316h457zM553 1102v-1102h-457v1102h457zM553 1524v-316h-457v316h457z" />
    <glyph glyph-name="Jcircumflex" unicode="&#x134;" horiz-adv-x="1835" 
d="M1749 1937l328 -307h-451l-135 119l-133 -119h-445l322 307h514zM938 -23h-115q-182 0 -326 41q-257 73 -380 263q-103 159 -103 356v12h484q4 -65 33 -121q29 -57 65 -90q36 -34 106 -58t164 -24h25q184 0 275 100t91 277v791h480v-803q0 -224 -95 -397
q-55 -102 -141 -176q-85 -74 -231 -123q-146 -48 -332 -48z" />
    <glyph glyph-name="jcircumflex" unicode="&#x135;" horiz-adv-x="649" 
d="M-53 -63h84q37 0 51 15t14 62v1088h457v-1202q0 -145 -57 -215t-152 -70h-397v322zM555 1524l221 -316h-362l-92 131l-93 -131h-356l217 316h465z" />
    <glyph glyph-name="uni0136" unicode="&#x136;" horiz-adv-x="1982" 
d="M733 -414v308h457v-246q0 -93 -80 -228h-231q39 88 59 166h-205zM594 0h-477v1524h477v-635l780 635h606l-876 -697l917 -827h-622l-805 719v-719z" />
    <glyph glyph-name="uni0137" unicode="&#x137;" horiz-adv-x="1538" 
d="M561 -414v308h457v-246q0 -93 -80 -228h-231q39 88 59 166h-205zM553 0h-457v1524h457v-862l446 440h506l-520 -498l584 -604h-537l-479 506v-506z" />
    <glyph glyph-name="Lacute" unicode="&#x139;" horiz-adv-x="1712" 
d="M137 1630l185 307h491l-215 -307h-461zM117 1524h477v-1145h1059v-379h-1536v1524z" />
    <glyph glyph-name="lacute" unicode="&#x13a;" horiz-adv-x="649" 
d="M553 1524v-1524h-457v1524h457zM115 1630l174 297h471l-209 -297h-436z" />
    <glyph glyph-name="uni013B" unicode="&#x13b;" horiz-adv-x="1712" 
d="M666 -414v308h456v-246q0 -93 -80 -228h-231q39 88 59 166h-204zM117 1524h477v-1145h1059v-379h-1536v1524z" />
    <glyph glyph-name="uni013C" unicode="&#x13c;" horiz-adv-x="649" 
d="M96 -414v308h457v-246q0 -93 -80 -228h-231q39 88 59 166h-205zM553 1524v-1524h-457v1524h457z" />
    <glyph glyph-name="Lcaron" unicode="&#x13d;" horiz-adv-x="1712" 
d="M657 1184l31 340h367l-62 -340h-336zM117 1524h477v-1145h1059v-379h-1536v1524z" />
    <glyph glyph-name="lcaron" unicode="&#x13e;" horiz-adv-x="649" 
d="M616 1184l31 340h367l-62 -340h-336zM553 1524v-1524h-457v1524h457z" />
    <glyph glyph-name="Ldot" unicode="&#x13f;" horiz-adv-x="1701" 
d="M1487 1030v-358h-494v358h494zM117 1524h477v-1145h1059v-379h-1536v1524z" />
    <glyph glyph-name="ldot" unicode="&#x140;" horiz-adv-x="1134" 
d="M553 1524v-1524h-457v1524h457zM1120 967v-359h-465v359h465z" />
    <glyph glyph-name="Lslash" unicode="&#x141;" horiz-adv-x="1738" 
d="M143 1524h478v-643l636 233v-303l-636 -225v-207h1058v-379h-1536v418l-147 -51v286l147 54v817z" />
    <glyph glyph-name="lslash" unicode="&#x142;" horiz-adv-x="681" 
d="M569 0h-456v549l-113 -53v274l113 55v699h456v-471l113 55v-285l-113 -55v-768z" />
    <glyph glyph-name="Nacute" unicode="&#x143;" horiz-adv-x="2209" 
d="M881 1630l184 307h491l-215 -307h-460zM117 1524h532l973 -959v959h471v-1524h-471l-1034 1010v-1010h-471v1524z" />
    <glyph glyph-name="nacute" unicode="&#x144;" horiz-adv-x="1738" 
d="M651 1208l185 316h471l-220 -316h-436zM96 0v1102h453v-189q213 213 547 213h14q268 0 402 -126t135 -304v-696h-461v545q0 131 -74 203t-224 72t-243 -83q-92 -82 -92 -217v-520h-457z" />
    <glyph glyph-name="uni0145" unicode="&#x145;" horiz-adv-x="2209" 
d="M872 -414v308h457v-246q0 -93 -80 -228h-231q39 88 59 166h-205zM117 1524h532l973 -959v959h471v-1524h-471l-1034 1010v-1010h-471v1524z" />
    <glyph glyph-name="uni0146" unicode="&#x146;" horiz-adv-x="1738" 
d="M641 -414v308h457v-246q0 -93 -80 -228h-232q39 88 60 166h-205zM96 0v1102h453v-189q213 213 547 213h14q268 0 402 -126t135 -304v-696h-461v545q0 131 -74 203t-224 72t-243 -83q-92 -82 -92 -217v-520h-457z" />
    <glyph glyph-name="Ncaron" unicode="&#x147;" horiz-adv-x="2209" 
d="M850 1630l-328 307h451l135 -118l133 118h445l-322 -307h-514zM117 1524h532l973 -959v959h471v-1524h-471l-1034 1010v-1010h-471v1524z" />
    <glyph glyph-name="ncaron" unicode="&#x148;" horiz-adv-x="1738" 
d="M614 1208l-311 316h440l125 -129l125 129h434l-307 -316h-506zM96 0v1102h453v-189q213 213 547 213h14q268 0 402 -126t135 -304v-696h-461v545q0 131 -74 203t-224 72t-243 -83q-92 -82 -92 -217v-520h-457z" />
    <glyph glyph-name="napostrophe" unicode="&#x149;" horiz-adv-x="2181" 
d="M6 1212v312h475v-256q0 -121 -94 -248h-250q61 113 74 192h-205zM539 0v1102h452v-189q213 213 547 213h14q268 0 402 -126t135 -304v-696h-461v545q0 131 -74 203t-224 72t-243 -83q-92 -82 -92 -217v-520h-456z" />
    <glyph glyph-name="Eng" unicode="&#x14a;" horiz-adv-x="2209" 
d="M2093 1524v-1473q0 -219 -97 -327t-261 -109h-328v342h164q45 0 45 29q0 12 -6 20l-9 12l-9 12t-12 11q-5 4 -15 14l-977 955v-1010h-471v1524h532l973 -959v959h471z" />
    <glyph glyph-name="eng" unicode="&#x14b;" horiz-adv-x="1738" 
d="M1647 696v-796q1 -145 -57 -215t-152 -70h-457v332h133q39 0 55 18t17 66v514q0 131 -74 203t-224 72t-243 -83q-92 -82 -92 -217v-520h-457v1102h453v-189q213 213 547 213h14q268 0 402 -126t135 -304z" />
    <glyph glyph-name="Omacron" unicode="&#x14c;" horiz-adv-x="2342" 
d="M721 1647v258h903v-258h-903zM1788 754v28q0 202 -176 310q-152 90 -441 90q-616 0 -616 -400v-24q0 -151 113 -271q61 -67 190 -105t312 -38q184 0 312 38t191 102q115 118 115 270zM1128 1550h89q561 0 823 -211q143 -115 203 -274q43 -115 45 -268v-62
q0 -347 -247 -546q-268 -216 -824 -216h-89q-554 0 -826 216q-206 166 -239 419q-8 61 -8 127v62q0 244 118 411q46 66 128 132q264 210 827 210z" />
    <glyph glyph-name="omacron" unicode="&#x14d;" horiz-adv-x="1814" 
d="M475 1231v250h864v-250h-864zM909 266q213 0 305 84t93 201v10q-1 119 -93 199t-303 80h-2q-215 0 -306 -79t-91 -200v-10q0 -117 92 -201t305 -84zM981 -31h-143q-184 0 -326 36t-229 91q-86 55 -142 133q-94 133 -96 310v36q0 172 95 306q111 156 369 218
q142 34 327 34h145q788 0 788 -558v-36q0 -570 -788 -570z" />
    <glyph glyph-name="Obreve" unicode="&#x14e;" horiz-adv-x="2342" 
d="M1210 1612h-69q-288 0 -395 171q-48 76 -50 161v4h353q0 -46 47 -78q32 -20 92 -20t88 32q28 33 29 66h344v-4q0 -95 -90 -203q-47 -55 -139 -92t-210 -37zM1788 754v28q0 202 -176 310q-152 90 -441 90q-616 0 -616 -400v-24q0 -151 113 -271q61 -67 190 -105t312 -38
q184 0 312 38t191 102q115 118 115 270zM1128 1550h89q561 0 823 -211q143 -115 203 -274q43 -115 45 -268v-62q0 -347 -247 -546q-268 -216 -824 -216h-89q-554 0 -826 216q-206 166 -239 419q-8 61 -8 127v62q0 244 118 411q46 66 128 132q264 210 827 210z" />
    <glyph glyph-name="obreve" unicode="&#x14f;" horiz-adv-x="1814" 
d="M909 266q213 0 305 84t93 201v10q-1 119 -93 199t-303 80h-2q-215 0 -306 -79t-91 -200v-10q0 -117 92 -201t305 -84zM981 -31h-143q-184 0 -326 36t-229 91q-86 55 -142 133q-94 133 -96 310v36q0 172 95 306q111 156 369 218q142 34 327 34h145q788 0 788 -558v-36
q0 -570 -788 -570zM944 1192h-65q-131 0 -225 35t-137 91q-77 98 -79 202v4h348q0 -31 29 -66t97 -35t98 35q29 35 28 66h340v-4q0 -98 -89 -202q-46 -54 -136 -90t-209 -36z" />
    <glyph glyph-name="Ohungarumlaut" unicode="&#x150;" horiz-adv-x="2342" 
d="M1788 754v28q0 202 -176 310q-152 90 -441 90q-616 0 -616 -400v-24q0 -151 113 -271q61 -67 190 -105t312 -38q184 0 312 38t191 102q115 118 115 270zM1128 1550h89q561 0 823 -211q143 -115 203 -274q43 -115 45 -268v-62q0 -347 -247 -546q-268 -216 -824 -216h-89
q-554 0 -826 216q-206 166 -239 419q-8 61 -8 127v62q0 244 118 411q46 66 128 132q264 210 827 210zM705 1630l108 307h449l-123 -307h-434zM1233 1630l123 307h448l-137 -307h-434z" />
    <glyph glyph-name="ohungarumlaut" unicode="&#x151;" horiz-adv-x="1814" 
d="M909 266q213 0 305 84t93 201v10q-1 119 -93 199t-303 80h-2q-215 0 -306 -79t-91 -200v-10q0 -117 92 -201t305 -84zM981 -31h-143q-184 0 -326 36t-229 91q-86 55 -142 133q-94 133 -96 310v36q0 172 95 306q111 156 369 218q142 34 327 34h145q788 0 788 -558v-36
q0 -570 -788 -570zM459 1208l108 316h434l-122 -316h-420zM973 1208l123 316h434l-137 -316h-420z" />
    <glyph glyph-name="OE" unicode="&#x152;" horiz-adv-x="3459" 
d="M1815 0v152q-78 -68 -251 -123t-411 -56h-80q-257 1 -449 55t-297 134t-170 190t-83 198q-18 89 -19 185v62q0 98 19 186q18 88 82 197q62 108 168 186t299 131t450 53h80q424 0 662 -153v127h1542v-346h-1114v-226h1087v-348h-1087v-250h1134v-354h-1562zM1163 1180
q-608 0 -608 -398v-24q0 -208 174 -320q148 -92 434 -92q478 0 583 266q26 66 26 142v28q0 122 -69 217q-132 181 -540 181z" />
    <glyph glyph-name="oe" unicode="&#x153;" horiz-adv-x="3002" 
d="M829 -31q-182 0 -324 36t-227 91q-229 148 -233 443v36q0 175 93 306q111 157 366 218q141 34 323 34h103q434 0 612 -179q174 178 582 179h86q750 0 749 -594v-76h-1192q45 -215 385 -215h2q173 0 247 36q101 50 110 105h444v-2q0 -53 -13 -101t-59 -108t-123 -105
q-77 -44 -218 -74t-330 -30h-76q-410 1 -588 183q-172 -182 -618 -183h-101zM905 266q211 0 301 84t90 201v10q0 119 -89 199t-300 80h-4q-213 0 -302 -79t-89 -200v-10q0 -117 91 -201t302 -84zM2142 877h-2q-309 0 -364 -187h731q-50 187 -365 187z" />
    <glyph glyph-name="Racute" unicode="&#x154;" horiz-adv-x="2084" 
d="M791 1630l184 307h491l-215 -307h-460zM594 541v-541h-477v1524h1229q662 0 661 -396v-24q0 -242 -283 -334q129 -37 209 -124t80 -226v-223q0 -137 29 -187v-10h-486q-23 29 -22 96v176q0 140 -72 204t-245 65h-623zM594 1178v-299h723q98 0 145 41t47 108v2
q0 66 -47 107t-145 41h-723z" />
    <glyph glyph-name="racute" unicode="&#x155;" horiz-adv-x="1505" 
d="M518 1208l184 316h472l-220 -316h-436zM553 569v-569h-457v1102h453v-195q29 43 72 86t146 88t228 45h23q229 0 339 -133t109 -358v-64h-440q0 117 -56 191t-177 74h-2q-111 0 -175 -77t-63 -190z" />
    <glyph glyph-name="uni0156" unicode="&#x156;" horiz-adv-x="2084" 
d="M840 -414v308h456v-246q1 -93 -79 -228h-232q39 88 59 166h-204zM594 541v-541h-477v1524h1229q662 0 661 -396v-24q0 -242 -283 -334q129 -37 209 -124t80 -226v-223q0 -137 29 -187v-10h-486q-23 29 -22 96v176q0 140 -72 204t-245 65h-623zM594 1178v-299h723
q98 0 145 41t47 108v2q0 66 -47 107t-145 41h-723z" />
    <glyph glyph-name="uni0157" unicode="&#x157;" horiz-adv-x="1505" 
d="M96 -414v308h457v-246q0 -93 -80 -228h-231q39 88 59 166h-205zM553 569v-569h-457v1102h453v-195q29 43 72 86t146 88t228 45h23q229 0 339 -133t109 -358v-64h-440q0 117 -56 191t-177 74h-2q-111 0 -175 -77t-63 -190z" />
    <glyph glyph-name="Rcaron" unicode="&#x158;" horiz-adv-x="2084" 
d="M762 1630l-328 307h451l135 -118l133 118h444l-321 -307h-514zM594 541v-541h-477v1524h1229q662 0 661 -396v-24q0 -242 -283 -334q129 -37 209 -124t80 -226v-223q0 -137 29 -187v-10h-486q-23 29 -22 96v176q0 140 -72 204t-245 65h-623zM594 1178v-299h723
q98 0 145 41t47 108v2q0 66 -47 107t-145 41h-723z" />
    <glyph glyph-name="rcaron" unicode="&#x159;" horiz-adv-x="1505" 
d="M473 1208l-311 316h440l125 -129l125 129h434l-307 -316h-506zM553 569v-569h-457v1102h453v-195q29 43 72 86t146 88t228 45h23q229 0 339 -133t109 -358v-64h-440q0 117 -56 191t-177 74h-2q-111 0 -175 -77t-63 -190z" />
    <glyph glyph-name="Sacute" unicode="&#x15a;" horiz-adv-x="2009" 
d="M930 -27q-228 0 -398 39t-262 94q-92 54 -146 134t-70 143q-15 63 -15 135v23h498q16 -242 452 -242h29q285 0 375 51q43 24 57 50t14 68t-24 71q-60 69 -375 75l-262 7q-743 20 -744 446v18q1 75 19 137t74 124q183 206 737 204h141q585 0 779 -213q106 -117 106 -268
v-20h-496q-4 25 -11 42t-34 46q-88 94 -395 94h-33q-172 0 -264 -22t-112 -45q-19 -24 -19 -64q-1 -40 21 -64q22 -25 103 -45t228 -22l256 -4q425 -8 615 -116t190 -337v-29q0 -85 -18 -151t-76 -136q-185 -224 -799 -223h-141zM756 1630l184 307h492l-215 -307h-461z" />
    <glyph glyph-name="sacute" unicode="&#x15b;" horiz-adv-x="1595" 
d="M827 -31h-84q-709 0 -708 391v13h471q0 -150 282 -150h5q119 1 185 17t83 36q16 20 16 52v4q0 48 -46 70t-195 26l-197 4q-346 8 -470 110t-124 234v12q0 56 13 102q14 46 58 93q139 147 625 150h82q690 0 690 -347v-14h-464q-8 40 -39 65q-57 46 -234 48h-2
q-156 -1 -209 -19t-53 -63v-4q0 -41 49 -63t182 -25l197 -4q466 -8 568 -159q46 -69 46 -188v-12q0 -84 -30 -146q-72 -151 -328 -203q-150 -30 -369 -30zM578 1208l184 316h471l-219 -316h-436z" />
    <glyph glyph-name="Scircumflex" unicode="&#x15c;" horiz-adv-x="2009" 
d="M930 -27q-228 0 -398 39t-262 94q-92 54 -146 134t-70 143q-15 63 -15 135v23h498q16 -242 452 -242h29q285 0 375 51q43 24 57 50t14 68t-24 71q-60 69 -375 75l-262 7q-743 20 -744 446v18q1 75 19 137t74 124q183 206 737 204h141q585 0 779 -213q106 -117 106 -268
v-20h-496q-4 25 -11 42t-34 46q-88 94 -395 94h-33q-172 0 -264 -22t-112 -45q-19 -24 -19 -64q-1 -40 21 -64q22 -25 103 -45t228 -22l256 -4q425 -8 615 -116t190 -337v-29q0 -85 -18 -151t-76 -136q-185 -224 -799 -223h-141zM1249 1937l328 -307h-451l-135 119
l-133 -119h-444l321 307h514z" />
    <glyph glyph-name="scircumflex" unicode="&#x15d;" horiz-adv-x="1595" 
d="M827 -31h-84q-709 0 -708 391v13h471q0 -150 282 -150h5q119 1 185 17t83 36q16 20 16 52v4q0 48 -46 70t-195 26l-197 4q-346 8 -470 110t-124 234v12q0 56 13 102q14 46 58 93q139 147 625 150h82q690 0 690 -347v-14h-464q-8 40 -39 65q-57 46 -234 48h-2
q-156 -1 -209 -19t-53 -63v-4q0 -41 49 -63t182 -25l197 -4q466 -8 568 -159q46 -69 46 -188v-12q0 -84 -30 -146q-72 -151 -328 -203q-150 -30 -369 -30zM1040 1524l312 -318h-441l-125 131l-124 -131h-435l308 318h505z" />
    <glyph glyph-name="uni015E" unicode="&#x15e;" horiz-adv-x="2009" 
d="M707 -528v184h217q82 0 82 46t-82 46h-146v230q-499 33 -654 263q-54 79 -70 142q-15 63 -15 135v23h498q16 -242 452 -242h29q285 0 375 51q43 24 57 50t14 68t-24 71q-60 69 -375 75l-262 7q-743 20 -744 446v18q1 75 19 137t74 124q183 206 737 204h141
q585 0 779 -213q106 -117 106 -268v-20h-496q-4 25 -11 42t-34 46q-88 94 -395 94h-33q-172 0 -264 -22t-112 -45q-19 -24 -19 -64q-1 -40 21 -64q22 -25 103 -45t228 -22l256 -4q425 -8 615 -116t190 -337v-29q0 -85 -18 -151t-76 -136q-185 -224 -799 -223h-33v-75
q215 0 294 -52t79 -155v-6q0 -97 -81 -155t-294 -58h-329z" />
    <glyph glyph-name="uni015F" unicode="&#x15f;" horiz-adv-x="1595" 
d="M440 -528v184h217q82 0 82 46t-82 46h-145v234q-477 58 -477 378v13h471q0 -150 282 -150h5q119 1 185 17t83 36q16 20 16 52v4q0 48 -46 70t-195 26l-197 4q-346 8 -470 110t-124 234v12q0 56 13 102q14 46 58 93q139 147 625 150h82q690 0 690 -347v-14h-464
q-8 40 -39 65q-57 46 -234 48h-2q-156 -1 -209 -19t-53 -63v-4q0 -41 49 -63t182 -25l197 -4q466 -8 568 -159q46 -69 46 -188v-12q0 -84 -30 -146q-72 -151 -328 -203q-150 -30 -369 -30h-55v-71q215 0 294 -52t79 -155v-6q0 -97 -81 -155t-294 -58h-330z" />
    <glyph glyph-name="Scaron" unicode="&#x160;" horiz-adv-x="2009" 
d="M719 1630l-328 307h451l135 -118l133 118h444l-321 -307h-514zM930 -27q-228 0 -398 39t-262 94q-92 54 -146 134t-70 143q-15 63 -15 135v23h498q16 -242 452 -242h29q285 0 375 51q43 24 57 50t14 68t-24 71q-60 69 -375 75l-262 7q-743 20 -744 446v18q1 75 19 137
t74 124q183 206 737 204h141q585 0 779 -213q106 -117 106 -268v-20h-496q-4 25 -11 42t-34 46q-88 94 -395 94h-33q-172 0 -264 -22t-112 -45q-19 -24 -19 -64q-1 -40 21 -64q22 -25 103 -45t228 -22l256 -4q425 -8 615 -116t190 -337v-29q0 -85 -18 -151t-76 -136
q-185 -224 -799 -223h-141z" />
    <glyph glyph-name="scaron" unicode="&#x161;" horiz-adv-x="1595" 
d="M526 1208l-311 316h440l125 -129l125 129h434l-307 -316h-506zM827 -31h-84q-709 0 -708 391v13h471q0 -150 282 -150h5q119 1 185 17t83 36q16 20 16 52v4q0 48 -46 70t-195 26l-197 4q-346 8 -470 110t-124 234v12q0 56 13 102q14 46 58 93q139 147 625 150h82
q690 0 690 -347v-14h-464q-8 40 -39 65q-57 46 -234 48h-2q-156 -1 -209 -19t-53 -63v-4q0 -41 49 -63t182 -25l197 -4q466 -8 568 -159q46 -69 46 -188v-12q0 -84 -30 -146q-72 -151 -328 -203q-150 -30 -369 -30z" />
    <glyph glyph-name="Tcommaaccent" unicode="&#x162;" horiz-adv-x="1908" 
d="M727 -414v308h457v-246q0 -93 -80 -228h-232q39 88 60 166h-205zM713 0v1163h-656v361h1794v-361h-657v-1163h-481z" />
    <glyph glyph-name="tcommaaccent" unicode="&#x163;" horiz-adv-x="970" 
d="M393 -414v308h457v-246q0 -93 -80 -228h-231q39 88 59 166h-205zM911 0h-395q-272 0 -272 313v486h-215v303h215v321h450v-321h217v-303h-217v-400q0 -49 18 -73t74 -23h125v-303z" />
    <glyph glyph-name="Tcaron" unicode="&#x164;" horiz-adv-x="1908" 
d="M700 1630l-327 307h450l135 -118l134 118h444l-322 -307h-514zM713 0v1163h-656v361h1794v-361h-657v-1163h-481z" />
    <glyph glyph-name="tcaron" unicode="&#x165;" horiz-adv-x="970" 
d="M758 1184l30 340h367l-61 -340h-336zM911 0h-395q-272 0 -272 313v486h-215v303h215v321h450v-321h217v-303h-217v-400q0 -49 18 -73t74 -23h125v-303z" />
    <glyph glyph-name="Tbar" unicode="&#x166;" horiz-adv-x="1908" 
d="M713 895v268h-656v361h1794v-361h-657v-268h498v-274h-498v-621h-481v621h-498v274h498z" />
    <glyph glyph-name="tbar" unicode="&#x167;" horiz-adv-x="970" 
d="M911 303v-303h-395q-272 0 -272 313v140h-215v254h215v104h-215v291h215v321h450v-321h217v-291h-217v-104h217v-254h-217v-54q0 -49 18 -73t74 -23h125z" />
    <glyph glyph-name="Utilde" unicode="&#x168;" horiz-adv-x="2156" 
d="M1341 1642h-12q-82 0 -215 46t-171 45q-38 0 -38 -43v-64h-299v166q0 82 45 141t160 60h12q86 1 220 -45t167 -45q37 0 37 43v61h299v-164q0 -81 -45 -141t-160 -60zM1122 -23h-73q-476 0 -717 228q-229 216 -234 579v740h480v-711q0 -167 94 -292q51 -69 156 -109
q106 -40 252 -39q146 0 250 40t156 108q97 129 95 292v711h477v-740q0 -214 -106 -406q-64 -114 -162 -200t-272 -144t-396 -57z" />
    <glyph glyph-name="utilde" unicode="&#x169;" horiz-adv-x="1716" 
d="M1112 1217h-12q-80 0 -213 44t-158 44q-33 0 -33 -43v-60h-295v156q0 80 44 139t155 59h10q70 0 120 -15t138 -44t113 -29q33 0 33 45v60h295v-156q0 -200 -197 -200zM1620 1102v-1102h-453v190q-35 -33 -47 -44t-70 -52t-108 -60q-152 -57 -309 -59h-17q-262 1 -393 133
t-131 308v686h461v-545q0 -127 71 -201q70 -74 216 -74t234 83q88 82 89 217v520h457z" />
    <glyph glyph-name="Umacron" unicode="&#x16a;" horiz-adv-x="2156" 
d="M627 1647v258h903v-258h-903zM1122 -23h-73q-476 0 -717 228q-229 216 -234 579v740h480v-711q0 -167 94 -292q51 -69 156 -109q106 -40 252 -39q146 0 250 40t156 108q97 129 95 292v711h477v-740q0 -214 -106 -406q-64 -114 -162 -200t-272 -144t-396 -57z" />
    <glyph glyph-name="umacron" unicode="&#x16b;" horiz-adv-x="1716" 
d="M424 1231v250h864v-250h-864zM1620 1102v-1102h-453v190q-35 -33 -47 -44t-70 -52t-108 -60q-152 -57 -309 -59h-17q-262 1 -393 133t-131 308v686h461v-545q0 -127 71 -201q70 -74 216 -74t234 83q88 82 89 217v520h457z" />
    <glyph glyph-name="Ubreve" unicode="&#x16c;" horiz-adv-x="2156" 
d="M1116 1612h-69q-288 0 -395 171q-50 80 -50 161v4h352q0 -45 47 -78q31 -20 91 -20t90 32q29 33 28 66h344v-4q0 -98 -90 -203q-47 -55 -138 -92t-210 -37zM1122 -23h-73q-476 0 -717 228q-229 216 -234 579v740h480v-711q0 -167 94 -292q51 -69 156 -109
q106 -40 252 -39q146 0 250 40t156 108q97 129 95 292v711h477v-740q0 -214 -106 -406q-64 -114 -162 -200t-272 -144t-396 -57z" />
    <glyph glyph-name="ubreve" unicode="&#x16d;" horiz-adv-x="1716" 
d="M893 1192h-66q-131 0 -224 35t-137 91q-79 101 -79 202v4h348q0 -31 29 -66q30 -35 98 -35t96 35t29 66h340v-4q0 -98 -89 -202q-46 -54 -136 -90t-209 -36zM1620 1102v-1102h-453v190q-35 -33 -47 -44t-70 -52t-108 -60q-152 -57 -309 -59h-17q-262 1 -393 133t-131 308
v686h461v-545q0 -127 71 -201q70 -74 216 -74t234 83q88 82 89 217v520h457z" />
    <glyph glyph-name="Uring" unicode="&#x16e;" horiz-adv-x="2156" 
d="M922 1825q0 -94 156 -94t157 94q-1 94 -157 94t-156 -94zM1468 1827q0 -242 -391 -242t-391 240q0 239 391 239t391 -237zM1122 -23h-73q-476 0 -717 228q-229 216 -234 579v740h480v-711q0 -167 94 -292q51 -69 156 -109q106 -40 252 -39q146 0 250 40t156 108
q97 129 95 292v711h477v-740q0 -214 -106 -406q-64 -114 -162 -200t-272 -144t-396 -57z" />
    <glyph glyph-name="uring" unicode="&#x16f;" horiz-adv-x="1716" 
d="M1010 1432q0 92 -152 92t-153 -94q1 -94 153 -94t152 96zM1243 1432q0 -242 -387 -242t-387 240t387 240t387 -238zM1620 1102v-1102h-453v190q-35 -33 -47 -44t-70 -52t-108 -60q-152 -57 -309 -59h-17q-262 1 -393 133t-131 308v686h461v-545q0 -127 71 -201
q70 -74 216 -74t234 83q88 82 89 217v520h457z" />
    <glyph glyph-name="Uhungarumlaut" unicode="&#x170;" horiz-adv-x="2156" 
d="M592 1630l108 307h449l-123 -307h-434zM1120 1630l123 307h449l-138 -307h-434zM1122 -23h-73q-476 0 -717 228q-229 216 -234 579v740h480v-711q0 -167 94 -292q51 -69 156 -109q106 -40 252 -39q146 0 250 40t156 108q97 129 95 292v711h477v-740q0 -214 -106 -406
q-64 -114 -162 -200t-272 -144t-396 -57z" />
    <glyph glyph-name="uhungarumlaut" unicode="&#x171;" horiz-adv-x="1716" 
d="M391 1208l109 316h434l-123 -316h-420zM905 1208l123 316h434l-137 -316h-420zM1620 1102v-1102h-453v190q-35 -33 -47 -44t-70 -52t-108 -60q-152 -57 -309 -59h-17q-262 1 -393 133t-131 308v686h461v-545q0 -127 71 -201q70 -74 216 -74t234 83q88 82 89 217v520h457z
" />
    <glyph glyph-name="Uogonek" unicode="&#x172;" horiz-adv-x="2156" 
d="M1538 -385h-289q-266 0 -266 145v4q0 74 75 123t232 99q-74 -8 -168 -9h-73q-476 0 -717 228q-229 216 -234 579v740h480v-711q0 -167 94 -292q51 -69 156 -109q106 -40 252 -39q146 0 250 40t156 108q97 129 95 292v711h477v-740q0 -502 -502 -778q-54 -31 -80 -47
t-49 -41t-22 -47q0 -47 78 -47h55v-209z" />
    <glyph glyph-name="uogonek" unicode="&#x173;" horiz-adv-x="1716" 
d="M1620 -385h-277q-266 0 -266 145v4q0 78 85 132t261 104h-256v190q-35 -33 -47 -44t-70 -52t-108 -60q-152 -57 -309 -59h-17q-262 1 -393 133t-131 308v686h461v-545q0 -127 71 -201q70 -74 216 -74t234 83q88 82 89 217v520h457v-1102q-121 -82 -121 -129t78 -47h43
v-209z" />
    <glyph glyph-name="Wcircumflex" unicode="&#x174;" horiz-adv-x="2914" 
d="M1733 1937l327 -307h-450l-135 119l-134 -119h-444l322 307h514zM1128 0h-526l-627 1524h521l393 -1049l340 1049h508l348 -1018l385 1018h469l-617 -1524h-481l-366 1020z" />
    <glyph glyph-name="wcircumflex" unicode="&#x175;" horiz-adv-x="2338" 
d="M1448 1526l311 -318h-440l-125 131l-125 -131h-434l307 318h506zM909 0h-473l-456 1102h475l252 -705l247 705h480l256 -705l243 705h426l-426 -1102h-483l-270 729z" />
    <glyph glyph-name="Ycircumflex" unicode="&#x176;" horiz-adv-x="1994" 
d="M1266 1937l327 -307h-450l-135 119l-134 -119h-444l322 307h514zM770 0v590l-815 934h592l473 -561l481 561h539l-793 -934v-590h-477z" />
    <glyph glyph-name="ycircumflex" unicode="&#x177;" horiz-adv-x="1603" 
d="M1073 1526l311 -318h-440l-125 131l-125 -131h-434l307 318h506zM244 -385v328h258q53 0 53 34q0 18 -51 117l-527 1008h492l354 -746l344 746h459l-577 -1176q-82 -164 -172 -238t-234 -73h-399z" />
    <glyph glyph-name="Ydieresis" unicode="&#x178;" horiz-adv-x="1994" 
d="M965 1937v-307h-455v307h455zM1526 1937v-307h-455v307h455zM770 0v590l-815 934h592l473 -561l481 561h539l-793 -934v-590h-477z" />
    <glyph glyph-name="Zacute" unicode="&#x179;" horiz-adv-x="1869" 
d="M647 1630l184 307h492l-215 -307h-461zM86 1524h1700v-279l-1045 -885h1059v-360h-1730v281l1017 890h-1001v353z" />
    <glyph glyph-name="zacute" unicode="&#x17a;" horiz-adv-x="1482" 
d="M500 1208l184 316h471l-219 -316h-436zM1434 0h-1385v266l748 539h-748v297h1381v-256l-783 -541h787v-305z" />
    <glyph glyph-name="Zdotaccent" unicode="&#x17b;" horiz-adv-x="1869" 
d="M1163 1946v-316h-456v316h456zM86 1524h1700v-279l-1045 -885h1059v-360h-1730v281l1017 890h-1001v353z" />
    <glyph glyph-name="zdotaccent" unicode="&#x17c;" horiz-adv-x="1482" 
d="M969 1524v-316h-457v316h457zM1434 0h-1385v266l748 539h-748v297h1381v-256l-783 -541h787v-305z" />
    <glyph glyph-name="Zcaron" unicode="&#x17d;" horiz-adv-x="1869" 
d="M680 1630l-328 307h451l135 -118l133 118h445l-322 -307h-514zM86 1524h1700v-279l-1045 -885h1059v-360h-1730v281l1017 890h-1001v353z" />
    <glyph glyph-name="zcaron" unicode="&#x17e;" horiz-adv-x="1482" 
d="M492 1208l-312 316h441l124 -129l125 129h435l-308 -316h-505zM1434 0h-1385v266l748 539h-748v297h1381v-256l-783 -541h787v-305z" />
    <glyph glyph-name="florin" unicode="&#x192;" horiz-adv-x="1042" 
d="M971 674h-269l-57 -1059h-444l55 1059h-207v303h223l13 256q4 114 73 194q84 97 312 97h301v-303h-160q-59 0 -75 -40q-5 -15 -9 -51l-8 -153h252v-303z" />
    <glyph glyph-name="Aringacute" unicode="&#x1fa;" horiz-adv-x="2138" 
d="M1054 1935q-156 0 -157 -94q0 -94 157 -94t156 96q0 92 -156 92zM662 1841q0 240 391 240t391 -240t-391 -240t-391 240zM1657 0l-144 279h-923l-137 -279h-486l770 1524h619l815 -1524h-514zM1337 623l-295 571l-282 -571h577zM846 2136l184 315h471l-219 -315h-436z
" />
    <glyph glyph-name="aringacute" unicode="&#x1fb;" horiz-adv-x="1638" 
d="M567 1724l185 316h471l-219 -316h-437zM926 1432q0 92 -152 92t-153 -94q1 -94 153 -94t152 96zM1159 1432q0 -242 -387 -242t-387 240t387 240t387 -238zM571 -20h-26q-260 0 -386 102t-126 258v14q0 152 107 230q108 78 356 100l503 47q70 8 70 57q0 27 -13 43
q-13 15 -81 31t-193 17h-10q-213 0 -263 -65q-23 -30 -26 -58h-424v4q0 53 9 95q8 42 47 97t105 92t193 63q128 26 304 26h112q506 0 625 -163q39 -52 47 -93t8 -101v-422q0 -55 58 -55h59v-299h-371q-149 0 -174 152q-51 -64 -174 -118t-336 -54zM1069 489v35l-436 -67
q-92 -14 -129 -36t-37 -67v-2q0 -51 47 -88t154 -37q176 0 288 80t113 182z" />
    <glyph glyph-name="AEacute" unicode="&#x1fc;" horiz-adv-x="3016" 
d="M1776 1630l184 307h491l-215 -307h-460zM1329 0v266h-698l-205 -266h-489l1161 1524h1816v-346h-1114v-226h1088v-348h-1088v-250h1135v-354h-1606zM1329 610v570l-436 -570h436z" />
    <glyph glyph-name="aeacute" unicode="&#x1fd;" horiz-adv-x="2738" 
d="M1124 1208l185 316h471l-219 -316h-437zM2691 389v-2q0 -53 -13 -101q-12 -48 -60 -108t-125 -105q-77 -44 -219 -74t-330 -30h-121q-481 0 -670 248q-52 -70 -138 -126q-174 -113 -411 -111h-26q-285 0 -415 101t-130 259v14q0 152 109 232q110 80 350 102l518 47
q47 6 47 58q-1 25 -15 41q-37 41 -268 43h-14q-212 0 -255 -63q-18 -26 -24 -58h-422v4q0 55 8 96q7 41 44 97q37 57 103 93t192 62q127 26 303 25h112q385 0 516 -105q154 104 473 105h132q754 0 753 -594v-76h-1196q41 -215 387 -215h2q172 0 253 39t96 77q7 15 8 25h446z
M666 225q170 0 280 80t111 184v35l-432 -65q-88 -12 -124 -35t-36 -66v-2q1 -53 49 -92t152 -39zM1876 877h-4q-309 0 -365 -187h734q-43 187 -365 187z" />
    <glyph glyph-name="Oslashacute" unicode="&#x1fe;" horiz-adv-x="2342" 
d="M1181 346q173 0 301 37t191 100q115 115 115 271v28q0 150 -76 236l-821 -649q118 -23 290 -23zM555 782v-24q0 -147 80 -244l815 645q-109 20 -279 21q-616 -1 -616 -398zM1219 -27h-91q-360 0 -608 103l-96 -76h-436l78 61q14 12 52 42t77 61t77 61q-217 195 -217 510
v62q0 246 118 413q46 66 128 130q270 212 827 210h91q365 0 600 -100l96 74h438l-285 -224q219 -197 220 -503v-62q0 -347 -248 -547q-165 -133 -461 -186q-161 -29 -360 -29zM946 1630l184 307h492l-215 -307h-461z" />
    <glyph glyph-name="oslashacute" unicode="&#x1ff;" horiz-adv-x="1814" 
d="M909 266q217 0 311 84q93 84 93 201v10q0 76 -31 129l-559 -401q84 -23 186 -23zM504 561v-10q0 -80 37 -139l567 403q-80 25 -197 25h-2q-221 0 -313 -79t-92 -200zM981 -31h-143q-270 0 -447 86l-78 -55h-350l244 176q-162 147 -162 363v36q0 172 95 306
q111 156 369 218q142 34 327 34h143q256 0 446 -82l74 51h354l-241 -172q158 -139 157 -355v-36q0 -570 -788 -570zM690 1208l184 316h472l-220 -316h-436z" />
    <glyph glyph-name="uni0218" unicode="&#x218;" horiz-adv-x="2009" 
d="M768 -414v308h457v-246q0 -93 -80 -228h-232q39 88 60 166h-205zM930 -27q-228 0 -398 39t-262 94q-92 54 -146 134t-70 143q-15 63 -15 135v23h498q16 -242 452 -242h29q285 0 375 51q43 24 57 50t14 68t-24 71q-60 69 -375 75l-262 7q-743 20 -744 446v18q1 75 19 137
t74 124q183 206 737 204h141q585 0 779 -213q106 -117 106 -268v-20h-496q-4 25 -11 42t-34 46q-88 94 -395 94h-33q-172 0 -264 -22t-112 -45q-19 -24 -19 -64q-1 -40 21 -64q22 -25 103 -45t228 -22l256 -4q425 -8 615 -116t190 -337v-29q0 -85 -18 -151t-76 -136
q-185 -224 -799 -223h-141z" />
    <glyph glyph-name="uni0219" unicode="&#x219;" horiz-adv-x="1595" 
d="M567 -414v308h457v-246q0 -93 -80 -228h-231q39 88 59 166h-205zM827 -31h-84q-709 0 -708 391v13h471q0 -150 282 -150h5q119 1 185 17t83 36q16 20 16 52v4q0 48 -46 70t-195 26l-197 4q-346 8 -470 110t-124 234v12q0 56 13 102q14 46 58 93q139 147 625 150h82
q690 0 690 -347v-14h-464q-8 40 -39 65q-57 46 -234 48h-2q-156 -1 -209 -19t-53 -63v-4q0 -41 49 -63t182 -25l197 -4q466 -8 568 -159q46 -69 46 -188v-12q0 -84 -30 -146q-72 -151 -328 -203q-150 -30 -369 -30z" />
    <glyph glyph-name="uni021A" unicode="&#x21a;" horiz-adv-x="1908" 
d="M727 -414v308h457v-246q0 -93 -80 -228h-232q39 88 60 166h-205zM713 0v1163h-656v361h1794v-361h-657v-1163h-481z" />
    <glyph glyph-name="uni021B" unicode="&#x21b;" horiz-adv-x="970" 
d="M393 -414v308h457v-246q0 -93 -80 -228h-231q39 88 59 166h-205zM911 0h-395q-272 0 -272 313v486h-215v303h215v321h450v-321h217v-303h-217v-400q0 -49 18 -73t74 -23h125v-303z" />
    <glyph glyph-name="uni0237" unicode="&#x237;" horiz-adv-x="649" 
d="M-53 -63h84q37 0 51 15t14 62v1088h457v-1202q0 -145 -57 -215t-152 -70h-397v322z" />
    <glyph glyph-name="circumflex" unicode="&#x2c6;" 
d="M973 1526l311 -318h-440l-125 131l-125 -131h-434l307 318h506z" />
    <glyph glyph-name="caron" unicode="&#x2c7;" 
d="M471 1208l-311 316h440l125 -129l125 129h434l-307 -316h-506z" />
    <glyph glyph-name="breve" unicode="&#x2d8;" 
d="M758 1192h-66q-131 0 -224 35t-137 91q-79 101 -79 202v4h348q0 -31 29 -66t97 -35t98 35q28 35 28 66h340v-4q0 -95 -89 -202q-46 -54 -136 -90t-209 -36z" />
    <glyph glyph-name="dotaccent" unicode="&#x2d9;" 
d="M950 1524v-316h-456v316h456z" />
    <glyph glyph-name="ring" unicode="&#x2da;" 
d="M877 1432q0 92 -153 92t-153 -94t153 -94t153 96zM1110 1432q0 -242 -387 -242t-387 240t387 240t387 -238z" />
    <glyph glyph-name="ogonek" unicode="&#x2db;" 
d="M983 -385h-276q-266 0 -267 145v4q0 78 85 132t261 104h197q-121 -82 -121 -129t78 -47h43v-209z" />
    <glyph glyph-name="tilde" unicode="&#x2dc;" 
d="M979 1217h-12q-80 0 -213 44t-158 44q-33 0 -33 -43v-60h-295v156q0 80 44 139t155 59h10q70 0 120 -15q51 -15 139 -44t112 -29q33 0 33 45v60h295v-156q0 -200 -197 -200z" />
    <glyph glyph-name="hungarumlaut" unicode="&#x2dd;" 
d="M188 1208l109 316h434l-123 -316h-420zM702 1208l123 316h435l-138 -316h-420z" />
    <glyph glyph-name="Wgrave" unicode="&#x1e80;" horiz-adv-x="2914" 
d="M1516 1937l184 -307h-461l-215 307h492zM1128 0h-526l-627 1524h521l393 -1049l340 1049h508l348 -1018l385 1018h469l-617 -1524h-481l-366 1020z" />
    <glyph glyph-name="wgrave" unicode="&#x1e81;" horiz-adv-x="2338" 
d="M1403 1208h-440l-220 316h476zM909 0h-473l-456 1102h475l252 -705l247 705h480l256 -705l243 705h426l-426 -1102h-483l-270 729z" />
    <glyph glyph-name="Wacute" unicode="&#x1e82;" horiz-adv-x="2914" 
d="M1264 1630l184 307h491l-215 -307h-460zM1128 0h-526l-627 1524h521l393 -1049l340 1049h508l348 -1018l385 1018h469l-617 -1524h-481l-366 1020z" />
    <glyph glyph-name="wacute" unicode="&#x1e83;" horiz-adv-x="2338" 
d="M987 1208l184 316h471l-219 -316h-436zM909 0h-473l-456 1102h475l252 -705l247 705h480l256 -705l243 705h426l-426 -1102h-483l-270 729z" />
    <glyph glyph-name="Wdieresis" unicode="&#x1e84;" horiz-adv-x="2914" 
d="M1425 1937v-307h-454v307h454zM1987 1937v-307h-455v307h455zM1128 0h-526l-627 1524h521l393 -1049l340 1049h508l348 -1018l385 1018h469l-617 -1524h-481l-366 1020z" />
    <glyph glyph-name="wdieresis" unicode="&#x1e85;" horiz-adv-x="2338" 
d="M1143 1524v-316h-441v316h441zM1688 1524v-316h-443v316h443zM909 0h-473l-456 1102h475l252 -705l247 705h480l256 -705l243 705h426l-426 -1102h-483l-270 729z" />
    <glyph glyph-name="Ygrave" unicode="&#x1ef2;" horiz-adv-x="1994" 
d="M1081 1937l185 -307h-461l-215 307h491zM770 0v590l-815 934h592l473 -561l481 561h539l-793 -934v-590h-477z" />
    <glyph glyph-name="ygrave" unicode="&#x1ef3;" horiz-adv-x="1603" 
d="M1051 1208h-441l-219 316h475zM244 -385v328h258q53 0 53 34q0 18 -51 117l-527 1008h492l354 -746l344 746h459l-577 -1176q-82 -164 -172 -238t-234 -73h-399z" />
    <glyph glyph-name="uni2009" unicode="&#x2009;" horiz-adv-x="61" 
 />
    <glyph glyph-name="endash" unicode="&#x2013;" horiz-adv-x="1824" 
d="M78 745h1669v-266h-1669v266z" />
    <glyph glyph-name="emdash" unicode="&#x2014;" horiz-adv-x="2676" 
d="M78 745h2521v-266h-2521v266z" />
    <glyph glyph-name="quoteleft" unicode="&#x2018;" horiz-adv-x="614" 
d="M545 1331v-311h-475v256q0 121 94 248h250q-61 -113 -74 -193h205z" />
    <glyph glyph-name="quoteright" unicode="&#x2019;" horiz-adv-x="614" 
d="M70 1212v312h475v-256q0 -121 -94 -248h-250q61 113 73 192h-204z" />
    <glyph glyph-name="quotesinglbase" unicode="&#x201a;" horiz-adv-x="614" 
d="M70 0v311h475v-256q0 -121 -94 -248h-250q61 113 73 193h-204z" />
    <glyph glyph-name="quotedblleft" unicode="&#x201c;" horiz-adv-x="1169" 
d="M1100 1331v-311h-475v256q0 121 94 248h250q-61 -113 -74 -193h205zM545 1331v-311h-475v256q0 121 94 248h250q-61 -113 -74 -193h205z" />
    <glyph glyph-name="quotedblright" unicode="&#x201d;" horiz-adv-x="1169" 
d="M625 1212v312h475v-256q0 -121 -94 -248h-250q61 113 73 192h-204zM70 1212v312h475v-256q0 -121 -94 -248h-250q61 113 73 192h-204z" />
    <glyph glyph-name="quotedblbase" unicode="&#x201e;" horiz-adv-x="1169" 
d="M70 0v311h475v-256q0 -121 -94 -248h-250q61 113 73 193h-204zM625 0v311h475v-256q0 -121 -94 -248h-250q61 113 73 193h-204z" />
    <glyph glyph-name="dagger" unicode="&#x2020;" horiz-adv-x="1183" 
d="M375 0v874h-320v318h320v332h432v-332h321v-318h-321v-874h-432z" />
    <glyph glyph-name="daggerdbl" unicode="&#x2021;" horiz-adv-x="1200" 
d="M389 307h-321v311h321v295h-321v312h321v299h422v-299h322v-312h-322v-295h322v-311h-322v-307h-422v307z" />
    <glyph glyph-name="bullet" unicode="&#x2022;" horiz-adv-x="880" 
d="M819 676q0 -164 -106 -266q-107 -102 -273 -102t-272 102t-107 266q1 164 107 265t272 101t272 -101t107 -265z" />
    <glyph glyph-name="ellipsis" unicode="&#x2026;" horiz-adv-x="1861" 
d="M1790 358v-358h-494v358h494zM1178 358v-358h-494v358h494zM565 358v-358h-493v358h493z" />
    <glyph glyph-name="perthousand" unicode="&#x2030;" horiz-adv-x="4159" 
d="M3232 426q0 -80 64 -134t205 -54q140 0 207 54t66 130v16q0 78 -64 129q-65 51 -208 51q-142 0 -206 -51t-64 -129v-12zM2228 238q141 0 207 54t66 130v16q0 78 -65 129t-208 51q-142 0 -206 -51t-64 -129v-12q0 -80 64 -134t206 -54zM3529 -16h-51q-141 0 -249 30
t-168 77q-61 45 -99 107q-62 100 -62 216v35q0 115 50 194q50 78 110 123t169 75q108 30 249 29h51q141 0 249 -30t166 -74q58 -45 108 -123t50 -194v-35q0 -118 -48 -197t-108 -125t-168 -78q-108 -30 -249 -30zM2255 -16h-51q-141 0 -249 30t-168 77q-60 45 -98 107
q-63 102 -63 216v35q0 116 63 213q38 59 98 104t168 75t249 29h51q174 0 296 -43t178 -113q103 -128 101 -265v-35q0 -119 -49 -197q-49 -79 -108 -125t-168 -78q-109 -30 -250 -30zM389 1098q1 -80 65 -134t204 -55q140 1 206 55t66 130v16q0 180 -270 180t-271 -180v-12z
M2060 1524h406l-1643 -1524h-403zM684 657h-49q-141 0 -250 31t-169 76t-108 123t-51 198v35q0 200 159 319q60 43 169 73t250 30h49q141 0 249 -30t168 -74t108 -120q48 -77 51 -198v-35q0 -141 -100 -268q-56 -72 -178 -116t-298 -44z" />
    <glyph glyph-name="uni2032" unicode="&#x2032;" horiz-adv-x="524" 
d="M489 1524l-88 -506h-366l88 506h366z" />
    <glyph glyph-name="uni2033" unicode="&#x2033;" horiz-adv-x="974" 
d="M852 1018h-363l89 506h362zM485 1524l-88 -506h-362l88 506h362z" />
    <glyph glyph-name="guilsinglleft" unicode="&#x2039;" horiz-adv-x="688" 
d="M645 240h-344l-272 348l276 344h350l-270 -344z" />
    <glyph glyph-name="guilsinglright" unicode="&#x203a;" horiz-adv-x="688" 
d="M389 240h-346l260 348l-270 344h350l276 -344z" />
    <glyph glyph-name="fraction" unicode="&#x2044;" horiz-adv-x="1953" 
d="M1595 1524h353l-1600 -1524h-342z" />
    <glyph glyph-name="Euro" unicode="&#x20ac;" horiz-adv-x="2310" 
d="M1288 -27h-88q-223 -1 -398 49t-284 135q-203 158 -266 380h-229v178h200v112h-200v181h231q63 216 263 368q229 174 683 174h88q232 0 412 -46t282 -112t168 -153q109 -142 109 -289v-22h-508q-23 102 -147 178q-52 30 -148 54t-217 24q-348 0 -463 -176h629v-181h-682
q-2 -14 -2 -41v-24q0 -31 2 -47h682v-178h-623q123 -195 461 -195q123 0 219 26t146 58t87 77q36 45 44 67t14 44h508v-22q0 -153 -109 -301q-66 -88 -168 -157t-282 -115q-181 -46 -414 -46z" />
    <glyph glyph-name="published" unicode="&#x2117;" horiz-adv-x="2385" 
d="M1036 973v-207h312q139 0 139 100v8q0 98 -139 99h-312zM1358 537h-322v-213h-358v884h680q293 0 394 -97q50 -48 70 -102t19 -128v-17q-1 -152 -105 -240t-378 -87zM1167 164h52q481 0 681 181q177 162 177 405v24q0 433 -443 543q-172 43 -415 43h-52q-489 0 -682 -169
q-94 -83 -135 -183t-41 -234v-24q0 -243 177 -405q93 -85 266 -133t415 -48zM2331 793v-58q0 -758 -1106 -758h-64q-1106 0 -1106 758v58q0 123 30 227t106 204q77 99 199 169q122 69 320 111t453 42h60q255 0 453 -42t320 -112t198 -168q76 -100 107 -204q30 -104 30 -227z
" />
    <glyph glyph-name="trademark" unicode="&#x2122;" horiz-adv-x="2265" 
d="M989 791v733h430l180 -387l181 387h411v-733h-268v497l-233 -497h-201l-234 497v-497h-266zM903 1303h-282v-512h-302v512h-282v221h866v-221z" />
    <glyph glyph-name="onethird" unicode="&#x2153;" horiz-adv-x="2091" 
d="M1573 -10h-68q-330 0 -434 151q-41 61 -41 135v11h320q0 -94 196 -94t197 63v4q0 45 -92 45h-250v180h237q90 0 91 39v4q1 47 -191 47t-192 -71h-306v10q0 97 75 158t177 77q103 17 205 17h64q319 0 409 -68q44 -34 60 -62t16 -67v-6q0 -47 -39 -82t-104 -45
q77 -12 123 -58t47 -120v-8q0 -260 -500 -260zM1473 1524h352l-1600 -1524h-342zM225 1202h-194v168q188 10 250 154h245v-754h-301v432z" />
    <glyph glyph-name="twothirds" unicode="&#x2154;" horiz-adv-x="2553" 
d="M2036 -10h-68q-330 0 -434 151q-41 61 -41 135v11h319q0 -94 197 -94t197 63v4q0 45 -92 45h-250v180h237q90 0 90 39v4q0 47 -191 47t-192 -71h-305v10q0 97 75 158t177 77q103 17 205 17h63q320 0 410 -68q45 -34 60 -62t16 -67v-6q0 -47 -39 -82t-105 -45
q76 -12 123 -58t47 -120v-8q1 -260 -499 -260zM1012 770h-983v88q0 60 15 106t62 98q97 107 408 165q180 33 180 73q0 48 -172 48t-172 -97h-309v9q0 276 465 276h39q288 0 383 -73q47 -37 65 -75t19 -94v-8q0 -110 -98 -154t-327 -80q-231 -36 -255 -48t-31 -21h711v-213z
M1937 1524h353l-1600 -1524h-342z" />
    <glyph glyph-name="oneeighth" unicode="&#x215b;" horiz-adv-x="2105" 
d="M1765 240v4q-1 61 -201 61t-200 -61v-4q0 -63 200 -63t201 63zM1743 537v2q0 55 -179 55t-180 -55v-2q0 -57 180 -57t179 57zM2062 561v-12q0 -57 -49 -98t-119 -54q82 -10 134 -55t53 -111v-14q0 -227 -492 -227h-49q-492 0 -491 227v14q0 61 52 107t134 59
q-72 11 -120 53t-48 99v12q0 203 473 203h49q473 0 473 -203zM225 1202h-194v168q188 10 250 154h245v-754h-301v432zM1473 1524h352l-1600 -1524h-342z" />
    <glyph glyph-name="threeeighths" unicode="&#x215c;" horiz-adv-x="2510" 
d="M2171 240v4q0 61 -201 61t-201 -61v-4q0 -63 201 -63t201 63zM2148 537v2q0 55 -179 55t-179 -55v-2q0 -57 179 -57t179 57zM2468 561v-12q0 -57 -49 -98t-119 -54q82 -10 134 -55t52 -111v-14q0 -227 -491 -227h-49q-492 0 -492 227v14q0 61 52 107t134 59
q-72 11 -120 53t-47 99v12q0 203 473 203h49q473 0 473 -203zM561 762h-67q-331 0 -435 151q-29 43 -35 74t-6 62v10h320q0 -94 196 -94t197 63v4q0 45 -92 45h-250v180h238q90 0 90 39v4q1 48 -191 48t-192 -72h-305v10q0 98 74 158t177 77t205 17h64q319 0 409 -68
q44 -34 60 -62t16 -67v-6q0 -47 -39 -82t-104 -45q76 -12 123 -58t47 -120v-8q0 -260 -500 -260zM1876 1524h352l-1599 -1524h-342z" />
    <glyph glyph-name="fiveeighths" unicode="&#x215d;" horiz-adv-x="2455" 
d="M2116 240v4q0 61 -201 61t-201 -61v-4q0 -63 201 -63t201 63zM2093 537v2q0 55 -179 55t-179 -55v-2q0 -57 179 -57t179 57zM2413 561v-12q1 -57 -49 -98t-119 -54q82 -10 134 -55t52 -111v-14q0 -227 -492 -227h-49q-492 0 -491 227v14q0 61 52 107t134 59
q-72 11 -120 53t-48 99v12q0 203 473 203h49q474 0 474 -203zM586 760h-94q-144 0 -242 26t-138 71q-40 44 -53 78q-12 34 -12 71v6h320q0 -23 42 -43q42 -19 130 -19q164 0 163 82v6q0 80 -163 80q-70 0 -121 -17t-51 -42h-304v465h898v-187h-594v-116q102 63 260 63h10
q213 0 295 -64t82 -178v-6q0 -276 -428 -276zM1821 1524h352l-1600 -1524h-342z" />
    <glyph glyph-name="seveneighths" unicode="&#x215e;" horiz-adv-x="2308" 
d="M1968 240v4q0 61 -201 61t-200 -61v-4q1 -63 201 -63t200 63zM1946 537v2q0 55 -180 55t-179 -55v-2q-1 -57 179 -57t180 57zM2265 561v-12q0 -57 -49 -98t-119 -54q82 -10 134 -55t53 -111v-14q0 -227 -492 -227h-49q-492 0 -492 227v14q1 61 53 107t134 59
q-72 11 -120 53t-48 99v12q0 203 473 203h49q473 0 473 -203zM35 1524h981v-183q-160 -184 -182 -213q-78 -100 -100 -172t-21 -176v-10h-336v78q0 86 41 154q40 68 162 186q122 119 128 129t5 14h-381v-153h-297v346zM1673 1524h352l-1599 -1524h-342z" />
    <glyph glyph-name="minus" unicode="&#x2212;" horiz-adv-x="1191" 
d="M78 774h1036v-287h-1036v287z" />
    <glyph glyph-name="J.alt" unicode="&#xe489;" horiz-adv-x="1034" 
d="M59 0v379h220q96 0 140 48t44 173v924h477v-1026q0 -498 -451 -498h-430z" />
    <glyph glyph-name="a.alt" unicode="&#xe4c0;" horiz-adv-x="1603" 
d="M571 -20h-26q-260 0 -386 102t-126 258v14q0 152 107 230q108 78 356 100l503 47q70 8 70 57q0 27 -13 43q-13 15 -81 31t-193 17h-10q-213 0 -263 -65q-23 -30 -26 -58h-424v4q0 53 9 95q8 42 47 97t105 92t193 63q128 26 304 26h112q511 0 624 -165q38 -54 47 -98
t9 -110v-387q0 -231 29 -363v-10h-434q-23 50 -23 152q-51 -64 -174 -118t-336 -54zM1069 489v35l-436 -67q-92 -14 -129 -36t-37 -67v-2q0 -51 47 -88t154 -37q176 0 288 80t113 182z" />
    <glyph glyph-name="r.alt" unicode="&#xe4d1;" horiz-adv-x="1118" 
d="M553 481v-481h-457v1102h453v-256q137 281 508 280v-440q-81 27 -217 27t-212 -64t-75 -168z" />
    <glyph glyph-name="f_f" unicode="&#xfb00;" horiz-adv-x="1837" 
d="M690 0h-450v799h-211v303h211v131q0 291 383 291h329v-271h-176q-51 0 -68 -20t-18 -70v-61h387v131q0 291 383 291h332v-271h-178q-50 0 -68 -20t-18 -70v-61h264v-303h-264v-799h-451v799h-387v-799z" />
    <glyph glyph-name="fi" unicode="&#xfb01;" horiz-adv-x="1630" 
d="M1534 1102v-1102h-457v1102h457zM1534 1524v-316h-457v316h457zM948 1524v-271h-172q-51 0 -68 -20t-18 -70v-61h258v-303h-258v-799h-450v799h-211v303h211v131q0 291 383 291h325z" />
    <glyph glyph-name="fl" unicode="&#xfb02;" horiz-adv-x="1630" 
d="M1534 1524v-1524h-457v1524h457zM948 1524v-271h-172q-51 0 -68 -20t-18 -70v-61h258v-303h-258v-799h-450v799h-211v303h211v131q0 291 383 291h325z" />
    <glyph glyph-name="idotaccent" horiz-adv-x="649" 
d="M553 1102v-1102h-457v1102h457zM553 1524v-316h-457v316h457z" />
    <glyph glyph-name="space_uni0326" 
d="M496 -414v308h456v-246q0 -93 -80 -228h-231q39 88 59 166h-204z" />
    <glyph glyph-name="zero.num" horiz-adv-x="1214" 
d="M858 1147v12q0 68 -56 116t-194 48t-194 -48q-55 -48 -56 -116v-12q0 -70 58 -121t192 -51q135 0 193 51q57 51 57 121zM586 1536h47q261 0 396 -90q143 -100 147 -281v-30q0 -104 -46 -174t-101 -109q-57 -39 -159 -66t-237 -26h-47q-369 0 -492 186q-55 83 -55 189v30
q0 104 45 173t102 108q132 90 400 90z" />
    <glyph glyph-name="one.num" horiz-adv-x="602" 
d="M225 1202h-194v168q188 10 250 154h245v-754h-301v432z" />
    <glyph glyph-name="two.num" horiz-adv-x="1052" 
d="M1012 770h-983v88q0 60 15 106t62 98q97 107 408 165q180 33 180 73q0 48 -172 48t-172 -97h-309v9q0 276 465 276h39q288 0 383 -73q47 -37 65 -75t19 -94v-8q0 -110 -98 -154t-327 -80q-231 -36 -255 -48t-31 -21h711v-213z" />
    <glyph glyph-name="three.num" horiz-adv-x="1079" 
d="M561 760h-67q-331 0 -435 151q-29 43 -35 74t-6 62v10h320q0 -94 196 -94t197 63v4q0 45 -92 45h-250v180h238q90 0 90 39v4q1 48 -191 48t-192 -72h-305v10q0 98 74 158t177 77t205 17h64q319 0 409 -68q44 -34 60 -62t16 -67v-6q0 -47 -39 -82t-104 -45q76 -12 123 -58
t47 -120v-8q0 -260 -500 -260z" />
    <glyph glyph-name="four.num" horiz-adv-x="1069" 
d="M571 1114v229l-262 -229h262zM29 911v170q53 45 80 70l172 152q199 176 249 223h347v-412h161v-203h-161v-141h-306v141h-542z" />
    <glyph glyph-name="five.num" horiz-adv-x="1044" 
d="M586 760h-94q-144 0 -242 26t-138 71q-40 44 -53 78q-12 34 -12 71v6h320q0 -23 42 -43q42 -19 130 -19q164 0 163 82v6q0 80 -163 80q-70 0 -121 -17t-51 -42h-304v465h898v-187h-594v-116q102 63 260 63h10q213 0 295 -64t82 -178v-6q0 -276 -428 -276z" />
    <glyph glyph-name="six.num" horiz-adv-x="1126" 
d="M377 1026v-6q0 -70 203 -70q82 0 129 12t58 24q11 13 11 34v6q0 70 -200 70t-201 -70zM530 760q-492 0 -491 377v24q0 185 124 280t359 95h64q260 0 370 -72t109 -166v-6h-307q0 26 -56 42t-156 16t-148 -50t-48 -106v-4q96 70 305 70h15q263 0 345 -62t85 -160v-8
q0 -51 -16 -92t-64 -85q-99 -93 -416 -93h-74z" />
    <glyph glyph-name="seven.num" horiz-adv-x="1044" 
d="M35 1524h981v-183q-160 -184 -182 -213q-78 -100 -100 -172t-21 -176v-10h-336v78q0 86 41 154q40 68 162 186q122 119 128 129t5 14h-381v-153h-297v346z" />
    <glyph glyph-name="eight.num" horiz-adv-x="1081" 
d="M741 1010v4q-1 61 -201 61t-200 -61v-4q0 -63 200 -63t201 63zM719 1307v2q0 55 -179 55t-180 -55v-2q0 -57 180 -57t179 57zM1038 1331v-12q0 -57 -49 -98t-119 -54q82 -10 134 -55t53 -111v-14q0 -227 -492 -227h-49q-492 0 -491 227v14q0 61 52 107t134 59
q-72 11 -120 53t-48 99v12q0 203 473 203h49q473 0 473 -203z" />
    <glyph glyph-name="nine.num" horiz-adv-x="1126" 
d="M598 760h-63q-375 0 -455 164q-18 37 -19 75v5h308q0 -36 101 -53q36 -5 85 -5q123 0 170 48t47 106v4q-2 0 -12 -7q-87 -61 -283 -61h-12q-250 0 -343 62t-93 170v8q0 51 15 90t60 81q95 89 412 89h72q154 0 259 -36t153 -96q85 -106 85 -241v-24q0 -185 -127 -282
q-126 -97 -360 -97zM748 1270v4q0 72 -202 72t-202 -70v-4q0 -72 202 -72t202 70z" />
    <glyph glyph-name="zero.den" horiz-adv-x="1214" 
d="M858 377v12q0 68 -56 116t-194 48t-194 -48q-55 -48 -56 -116v-12q0 -70 58 -121t192 -51q135 0 193 51q57 51 57 121zM586 766h47q261 0 396 -90q143 -100 147 -281v-30q0 -104 -46 -174t-101 -109q-57 -39 -159 -66t-237 -26h-47q-369 0 -492 186q-55 83 -55 189v30
q0 104 45 173t102 108q132 90 400 90z" />
    <glyph glyph-name="one.den" horiz-adv-x="602" 
d="M225 432h-194v168q188 10 250 154h245v-754h-301v432z" />
    <glyph glyph-name="two.den" horiz-adv-x="1052" 
d="M1012 0h-983v88q0 60 15 106t62 98q97 107 408 165q180 33 180 73q0 48 -172 48t-172 -97h-309v8q0 276 465 277h39q288 0 383 -73q47 -36 65 -75t19 -94v-8q0 -109 -98 -154t-336 -81q-238 -30 -273 -62q-2 -4 -4 -6h711v-213z" />
    <glyph glyph-name="three.den" horiz-adv-x="1079" 
d="M561 -10h-67q-331 0 -435 151q-38 57 -41 135v11h320q0 -94 196 -94t197 63v4q0 45 -92 45h-250v180h238q90 0 90 39v4q1 47 -191 47t-192 -71h-305v10q0 98 74 158t177 77t205 17h64q319 0 409 -68q44 -34 60 -62t16 -67v-6q0 -47 -39 -82t-104 -45q76 -12 123 -58
t47 -120v-8q0 -260 -500 -260z" />
    <glyph glyph-name="four.den" horiz-adv-x="1069" 
d="M571 344v229l-262 -229h262zM29 141v170q53 45 80 70l172 151q199 176 249 224h347v-412h161v-203h-161v-141h-306v141h-542z" />
    <glyph glyph-name="five.den" horiz-adv-x="1044" 
d="M586 -10h-94q-144 0 -242 26t-138 71q-40 44 -53 78q-12 34 -12 71v6h320q0 -23 42 -43q42 -19 130 -19q164 0 163 82v6q0 80 -163 80q-70 0 -121 -17t-51 -42h-304v465h898v-187h-594v-116q102 63 260 63h10q213 0 295 -64t82 -178v-6q0 -276 -428 -276z" />
    <glyph glyph-name="six.den" horiz-adv-x="1126" 
d="M377 256v-6q0 -70 181 -70t209 36q11 13 11 34v6q0 70 -200 70t-201 -70zM530 -10q-492 0 -491 377v24q0 185 124 280t359 95h64q260 0 370 -72t109 -166v-6h-307q0 26 -56 42t-156 16t-148 -50t-48 -106v-4q96 70 305 69h15q264 0 346 -61t84 -160v-8q0 -51 -16 -92
t-64 -85q-99 -93 -416 -93h-74z" />
    <glyph glyph-name="seven.den" horiz-adv-x="1044" 
d="M35 754h981v-183q-160 -184 -182 -213q-78 -100 -100 -172t-21 -176v-10h-336v78q0 86 49 167t184 199q102 100 103 117h-381v-153h-297v346z" />
    <glyph glyph-name="eight.den" horiz-adv-x="1081" 
d="M741 240v4q-1 61 -201 61t-200 -61v-4q0 -63 200 -63t201 63zM719 537v2q0 55 -179 55t-180 -55v-2q0 -57 180 -57t179 57zM1038 561v-12q0 -57 -49 -98t-119 -54q82 -10 134 -55t53 -111v-14q0 -227 -492 -227h-49q-492 0 -491 227v14q0 61 52 107t134 59
q-72 11 -120 53t-48 99v12q0 203 473 203h49q473 0 473 -203z" />
    <glyph glyph-name="nine.den" horiz-adv-x="1126" 
d="M535 -10q-375 0 -455 164q-18 37 -19 75v4h308q0 -35 101 -52q36 -5 85 -5q123 0 170 48t47 106v4q-2 0 -12 -7q-87 -61 -283 -61h-12q-250 0 -343 62t-93 170v8q0 51 15 90t60 81q95 89 412 89h72q154 0 259 -36t153 -96q85 -106 85 -241v-24q0 -185 -127 -282t-360 -97
h-63zM748 500v4q0 72 -202 72t-202 -70v-4q0 -72 202 -72t202 70z" />
    <glyph glyph-name="zero.sub" horiz-adv-x="1214" 
d="M858 184v13q0 67 -56 115t-194 48t-194 -48q-55 -48 -56 -115v-13q0 -70 58 -121t192 -51q135 0 193 51q57 51 57 121zM586 573h47q367 0 487 -182q54 -81 56 -188v-31q0 -103 -46 -173q-46 -69 -101 -109q-57 -40 -159 -66t-237 -27h-47q-262 0 -400 93q-57 40 -102 109
t-45 173v31q0 105 45 173t102 107q132 90 400 90z" />
    <glyph glyph-name="one.sub" horiz-adv-x="602" 
d="M225 240h-194v168q188 10 250 153h245v-754h-301v433z" />
    <glyph glyph-name="two.sub" horiz-adv-x="1052" 
d="M1012 -193h-983v89q0 61 15 106t62 97q99 110 408 165q180 33 180 74q0 47 -172 47t-172 -96h-309v8q0 276 465 276h39q287 0 383 -72q47 -36 65 -75t19 -94v-8q0 -109 -98 -154t-327 -81q-231 -36 -255 -48t-31 -21h711v-213z" />
    <glyph glyph-name="three.sub" horiz-adv-x="1079" 
d="M561 -203h-67q-126 0 -218 23q-92 22 -140 54q-113 74 -118 210v10h320q0 -94 196 -94t197 63v5q0 45 -92 45h-250v180h238q90 0 90 39v4q1 47 -191 47t-192 -72h-305v11q0 99 74 158t177 76t205 17h64q318 0 409 -67q44 -33 60 -62t16 -67v-6q0 -47 -39 -82t-104 -45
q76 -12 123 -58t47 -120v-9q0 -260 -500 -260z" />
    <glyph glyph-name="four.sub" horiz-adv-x="1069" 
d="M571 152v229l-262 -229h262zM29 -51v170q53 45 80 69l172 152q199 176 249 223h347v-411h161v-203h-161v-142h-306v142h-542z" />
    <glyph glyph-name="five.sub" horiz-adv-x="1044" 
d="M586 -203h-94q-144 0 -242 27t-138 71q-65 72 -65 148v6h320q0 -21 41 -41t131 -20q164 0 163 82v6q0 80 -163 80q-70 0 -113 -14t-51 -26q-8 -11 -8 -20h-304v465h898v-186h-594v-117q102 63 260 64h10q213 0 295 -65t82 -177v-6q0 -277 -428 -277z" />
    <glyph glyph-name="six.sub" horiz-adv-x="1126" 
d="M377 63v-6q0 -70 203 -69q159 0 187 36q11 13 11 33v6q0 70 -200 70t-201 -70zM530 -203q-492 0 -491 377v25q0 184 126 280t357 94h64q260 1 370 -71t109 -166v-6h-307q0 25 -56 41t-156 16t-148 -49t-48 -107v-4q96 70 305 70h15q266 0 347 -62t83 -159v-8
q0 -50 -16 -92t-64 -86q-99 -93 -416 -93h-74z" />
    <glyph glyph-name="seven.sub" horiz-adv-x="1044" 
d="M35 561h981v-182q-160 -184 -182 -213q-78 -100 -100 -172t-21 -176v-11h-336v78q0 86 41 154q40 69 162 187t128 128t5 15h-381v-154h-297v346z" />
    <glyph glyph-name="eight.sub" horiz-adv-x="1081" 
d="M741 47v4q-1 61 -201 61t-200 -61v-4q0 -63 200 -63t201 63zM719 344v2q0 55 -179 55t-180 -55v-2q0 -57 180 -57t179 57zM1038 369v-13q0 -57 -49 -98t-119 -53q82 -10 134 -55t53 -111v-14q0 -227 -492 -228h-49q-492 0 -491 228v14q0 61 52 107t134 59q-72 12 -120 53
t-48 98v13q0 203 473 202h49q473 1 473 -202z" />
    <glyph glyph-name="nine.sub" horiz-adv-x="1126" 
d="M535 -203q-283 0 -390 87q-82 70 -84 153v4h308q0 -38 101 -52q36 -5 85 -5q123 0 170 48t47 105v4q-2 0 -12 -7t-20 -12q-76 -36 -148 -42t-115 -6h-12q-250 0 -343 62t-93 169v8q0 51 15 90q66 173 472 170h72q154 1 259 -35t153 -96q85 -107 85 -241v-25
q0 -183 -127 -281t-360 -98h-63zM748 307v4q0 72 -202 72t-202 -70v-4q0 -72 202 -72t202 70z" />
    <glyph glyph-name="zero.sup" horiz-adv-x="1214" 
d="M858 1147v12q0 68 -56 116t-194 48t-194 -48q-55 -48 -56 -116v-12q0 -70 58 -121t192 -51q135 0 193 51q57 51 57 121zM586 1536h47q261 0 396 -90q143 -100 147 -281v-30q0 -104 -46 -174t-101 -109q-57 -39 -159 -66t-237 -26h-47q-369 0 -492 186q-55 83 -55 189v30
q0 104 45 173t102 108q132 90 400 90z" />
    <glyph glyph-name="one.sup" horiz-adv-x="602" 
d="M225 1202h-194v168q188 10 250 154h245v-754h-301v432z" />
    <glyph glyph-name="two.sup" horiz-adv-x="1052" 
d="M1012 770h-983v88q0 60 15 106t62 98q97 107 408 165q180 33 180 73q0 48 -172 48t-172 -97h-309v9q0 276 465 276h39q288 0 383 -73q47 -37 65 -75t19 -94v-8q0 -110 -98 -154t-327 -80q-231 -36 -255 -48t-31 -21h711v-213z" />
    <glyph glyph-name="three.sup" horiz-adv-x="1079" 
d="M561 760h-67q-331 0 -435 151q-29 43 -35 74t-6 62v10h320q0 -94 196 -94t197 63v4q0 45 -92 45h-250v180h238q90 0 90 39v4q1 48 -191 48t-192 -72h-305v10q0 98 74 158t177 77t205 17h64q319 0 409 -68q44 -34 60 -62t16 -67v-6q0 -47 -39 -82t-104 -45q76 -12 123 -58
t47 -120v-8q0 -260 -500 -260z" />
    <glyph glyph-name="four.sup" horiz-adv-x="1069" 
d="M571 1114v229l-262 -229h262zM29 911v170q53 45 80 70l172 152q199 176 249 223h347v-412h161v-203h-161v-141h-306v141h-542z" />
    <glyph glyph-name="five.sup" horiz-adv-x="1044" 
d="M586 760h-94q-144 0 -242 26t-138 71q-40 44 -53 78q-12 34 -12 71v6h320q0 -23 42 -43q42 -19 130 -19q164 0 163 82v6q0 80 -163 80q-70 0 -121 -17t-51 -42h-304v465h898v-187h-594v-116q102 63 260 63h10q213 0 295 -64t82 -178v-6q0 -276 -428 -276z" />
    <glyph glyph-name="six.sup" horiz-adv-x="1126" 
d="M377 1026v-6q0 -70 203 -70q82 0 129 12t58 24q11 13 11 34v6q0 70 -200 70t-201 -70zM530 760q-492 0 -491 377v24q0 185 124 280t359 95h64q260 0 370 -72t109 -166v-6h-307q0 26 -56 42t-156 16t-148 -50t-48 -106v-4q96 70 305 70h15q263 0 345 -62t85 -160v-8
q0 -51 -16 -92t-64 -85q-99 -93 -416 -93h-74z" />
    <glyph glyph-name="seven.sup" horiz-adv-x="1044" 
d="M35 1524h981v-183q-160 -184 -182 -213q-78 -100 -100 -172t-21 -176v-10h-336v78q0 86 41 154q40 68 162 186q122 119 128 129t5 14h-381v-153h-297v346z" />
    <glyph glyph-name="eight.sup" horiz-adv-x="1081" 
d="M741 1010v4q-1 61 -201 61t-200 -61v-4q0 -63 200 -63t201 63zM719 1307v2q0 55 -179 55t-180 -55v-2q0 -57 180 -57t179 57zM1038 1331v-12q0 -57 -49 -98t-119 -54q82 -10 134 -55t53 -111v-14q0 -227 -492 -227h-49q-492 0 -491 227v14q0 61 52 107t134 59
q-72 11 -120 53t-48 99v12q0 203 473 203h49q473 0 473 -203z" />
    <glyph glyph-name="nine.sup" horiz-adv-x="1126" 
d="M598 760h-63q-375 0 -455 164q-18 37 -19 75v5h308q0 -36 101 -53q36 -5 85 -5q123 0 170 48t47 106v4q-2 0 -12 -7q-87 -61 -283 -61h-12q-250 0 -343 62t-93 170v8q0 51 15 90t60 81q95 89 412 89h72q154 0 259 -36t153 -96q85 -106 85 -241v-24q0 -185 -127 -282
q-126 -97 -360 -97zM748 1270v4q0 72 -202 72t-202 -70v-4q0 -72 202 -72t202 70z" />
    <glyph glyph-name="IJ.alt" horiz-adv-x="1732" 
d="M758 0v379h219q96 0 140 48t44 173v924h477v-1026q0 -498 -450 -498h-430zM594 1524v-1524h-477v1524h477z" />
    <glyph glyph-name="a.alt2" horiz-adv-x="1808" 
d="M1253 1102h459v-1102h-455v170q-41 -61 -171 -129t-338 -68h-29q-332 0 -503 162t-171 406v39q0 231 168 390t485 158h31q350 0 524 -174v148zM1253 549v8q0 111 -107 197q-108 86 -284 86h-10q-180 0 -260 -82t-80 -201v-8q0 -111 86 -198t260 -87h10q174 0 280 87
q105 87 105 198z" />
    <glyph glyph-name="Jcircumflex.alt" horiz-adv-x="1034" 
d="M952 1937l328 -307h-451l-135 119l-133 -119h-444l321 307h514zM59 0v379h220q96 0 140 48t44 173v924h477v-1026q0 -498 -451 -498h-430z" />
    <glyph glyph-name="aacute.alt" horiz-adv-x="1603" 
d="M571 -20h-26q-260 0 -386 102t-126 258v14q0 152 107 230q108 78 356 100l503 47q70 8 70 57q0 27 -13 43q-13 15 -81 31t-193 17h-10q-213 0 -263 -65q-23 -30 -26 -58h-424v4q0 53 9 95q8 42 47 97t105 92t193 63q128 26 304 26h112q511 0 624 -165q38 -54 47 -98
t9 -110v-387q0 -231 29 -363v-10h-434q-23 50 -23 152q-51 -64 -174 -118t-336 -54zM1069 489v35l-436 -67q-92 -14 -129 -36t-37 -67v-2q0 -51 47 -88t154 -37q176 0 288 80t113 182zM557 1208l184 316h471l-219 -316h-436z" />
    <glyph glyph-name="aacute.alt2" horiz-adv-x="1808" 
d="M641 1208l184 316h471l-219 -316h-436zM1253 1102h459v-1102h-455v170q-41 -61 -171 -129t-338 -68h-29q-332 0 -503 162t-171 406v39q0 231 168 390t485 158h31q350 0 524 -174v148zM1253 549v8q0 111 -107 197q-108 86 -284 86h-10q-180 0 -260 -82t-80 -201v-8
q0 -111 86 -198t260 -87h10q174 0 280 87q105 87 105 198z" />
    <glyph glyph-name="abreve.alt" horiz-adv-x="1603" 
d="M571 -20h-26q-260 0 -386 102t-126 258v14q0 152 107 230q108 78 356 100l503 47q70 8 70 57q0 27 -13 43q-13 15 -81 31t-193 17h-10q-213 0 -263 -65q-23 -30 -26 -58h-424v4q0 53 9 95q8 42 47 97t105 92t193 63q128 26 304 26h112q511 0 624 -165q38 -54 47 -98
t9 -110v-387q0 -231 29 -363v-10h-434q-23 50 -23 152q-51 -64 -174 -118t-336 -54zM1069 489v35l-436 -67q-92 -14 -129 -36t-37 -67v-2q0 -51 47 -88t154 -37q176 0 288 80t113 182zM815 1192h-65q-130 0 -224 35t-138 91q-77 98 -79 202v4h348q0 -31 29 -66
q30 -35 98 -35t97 35t28 66h340v-4q0 -98 -89 -202q-46 -54 -136 -90t-209 -36z" />
    <glyph glyph-name="abreve.alt2" horiz-adv-x="1808" 
d="M899 1192h-65q-130 0 -224 35t-138 91q-77 98 -79 202v4h348q0 -31 29 -66q30 -35 98 -35t97 35t28 66h340v-4q0 -98 -89 -202q-46 -54 -136 -90t-209 -36zM1253 1102h459v-1102h-455v170q-41 -61 -171 -129t-338 -68h-29q-332 0 -503 162t-171 406v39q0 231 168 390
t485 158h31q350 0 524 -174v148zM1253 549v8q0 111 -107 197q-108 86 -284 86h-10q-180 0 -260 -82t-80 -201v-8q0 -111 86 -198t260 -87h10q174 0 280 87q105 87 105 198z" />
    <glyph glyph-name="acircumflex.alt" horiz-adv-x="1603" 
d="M571 -20h-26q-260 0 -386 102t-126 258v14q0 152 107 230q108 78 356 100l503 47q70 8 70 57q0 27 -13 43q-13 15 -81 31t-193 17h-10q-213 0 -263 -65q-23 -30 -26 -58h-424v4q0 53 9 95q8 42 47 97t105 92t193 63q128 26 304 26h112q511 0 624 -165q38 -54 47 -98
t9 -110v-387q0 -231 29 -363v-10h-434q-23 50 -23 152q-51 -64 -174 -118t-336 -54zM1069 489v35l-436 -67q-92 -14 -129 -36t-37 -67v-2q0 -51 47 -88t154 -37q176 0 288 80t113 182zM1026 1524l311 -318h-440l-125 131l-125 -131h-434l307 318h506z" />
    <glyph glyph-name="acircumflex.alt2" horiz-adv-x="1808" 
d="M1098 1526l311 -318h-440l-125 131l-125 -131h-434l307 318h506zM1253 1102h459v-1102h-455v170q-41 -61 -171 -129t-338 -68h-29q-332 0 -503 162t-171 406v39q0 231 168 390t485 158h31q350 0 524 -174v148zM1253 549v8q0 111 -107 197q-108 86 -284 86h-10
q-180 0 -260 -82t-80 -201v-8q0 -111 86 -198t260 -87h10q174 0 280 87q105 87 105 198z" />
    <glyph glyph-name="adieresis.alt" horiz-adv-x="1603" 
d="M571 -20h-26q-260 0 -386 102t-126 258v14q0 152 107 230q108 78 356 100l503 47q70 8 70 57q0 27 -13 43q-13 15 -81 31t-193 17h-10q-213 0 -263 -65q-23 -30 -26 -58h-424v4q0 53 9 95q8 42 47 97t105 92t193 63q128 26 304 26h112q511 0 624 -165q38 -54 47 -98
t9 -110v-387q0 -231 29 -363v-10h-434q-23 50 -23 152q-51 -64 -174 -118t-336 -54zM1069 489v35l-436 -67q-92 -14 -129 -36t-37 -67v-2q0 -51 47 -88t154 -37q176 0 288 80t113 182zM723 1524v-316h-440v316h440zM1268 1524v-316h-443v316h443z" />
    <glyph glyph-name="adieresis.alt2" horiz-adv-x="1808" 
d="M797 1524v-316h-441v316h441zM1341 1524v-316h-442v316h442zM1253 1102h459v-1102h-455v170q-41 -61 -171 -129t-338 -68h-29q-332 0 -503 162t-171 406v39q0 231 168 390t485 158h31q350 0 524 -174v148zM1253 549v8q0 111 -107 197q-108 86 -284 86h-10
q-180 0 -260 -82t-80 -201v-8q0 -111 86 -198t260 -87h10q174 0 280 87q105 87 105 198z" />
    <glyph glyph-name="agrave.alt" horiz-adv-x="1603" 
d="M571 -20h-26q-260 0 -386 102t-126 258v14q0 152 107 230q108 78 356 100l503 47q70 8 70 57q0 27 -13 43q-13 15 -81 31t-193 17h-10q-213 0 -263 -65q-23 -30 -26 -58h-424v4q0 53 9 95q8 42 47 97t105 92t193 63q128 26 304 26h112q511 0 624 -165q38 -54 47 -98
t9 -110v-387q0 -231 29 -363v-10h-434q-23 50 -23 152q-51 -64 -174 -118t-336 -54zM1069 489v35l-436 -67q-92 -14 -129 -36t-37 -67v-2q0 -51 47 -88t154 -37q176 0 288 80t113 182zM1001 1208h-440l-219 316h475z" />
    <glyph glyph-name="agrave.alt2" horiz-adv-x="1808" 
d="M1071 1208h-440l-219 316h475zM1253 1102h459v-1102h-455v170q-41 -61 -171 -129t-338 -68h-29q-332 0 -503 162t-171 406v39q0 231 168 390t485 158h31q350 0 524 -174v148zM1253 549v8q0 111 -107 197q-108 86 -284 86h-10q-180 0 -260 -82t-80 -201v-8q0 -111 86 -198
t260 -87h10q174 0 280 87q105 87 105 198z" />
    <glyph glyph-name="amacron.alt" horiz-adv-x="1603" 
d="M342 1231v250h864v-250h-864zM571 -20h-26q-260 0 -386 102t-126 258v14q0 152 107 230q108 78 356 100l503 47q70 8 70 57q0 27 -13 43q-13 15 -81 31t-193 17h-10q-213 0 -263 -65q-23 -30 -26 -58h-424v4q0 53 9 95q8 42 47 97t105 92t193 63q128 26 304 26h112
q511 0 624 -165q38 -54 47 -98t9 -110v-387q0 -231 29 -363v-10h-434q-23 50 -23 152q-51 -64 -174 -118t-336 -54zM1069 489v35l-436 -67q-92 -14 -129 -36t-37 -67v-2q0 -51 47 -88t154 -37q176 0 288 80t113 182z" />
    <glyph glyph-name="amacron.alt2" horiz-adv-x="1808" 
d="M430 1231v250h864v-250h-864zM1253 1102h459v-1102h-455v170q-41 -61 -171 -129t-338 -68h-29q-332 0 -503 162t-171 406v39q0 231 168 390t485 158h31q350 0 524 -174v148zM1253 549v8q0 111 -107 197q-108 86 -284 86h-10q-180 0 -260 -82t-80 -201v-8q0 -111 86 -198
t260 -87h10q174 0 280 87q105 87 105 198z" />
    <glyph glyph-name="aogonek.alt" horiz-adv-x="1603" 
d="M1538 -385h-276q-266 0 -267 145v4q0 78 85 132t261 104h-237q-23 49 -23 152q-51 -64 -174 -118t-336 -54h-26q-260 0 -386 102t-126 258v14q0 152 107 230q108 78 356 100l503 47q70 8 70 57q0 27 -13 43q-13 15 -81 31t-193 17h-10q-213 0 -263 -65q-23 -30 -26 -58
h-424v4q0 53 9 95q8 42 47 97t105 92t193 63q128 26 304 26h112q511 0 624 -165q38 -54 47 -98t9 -110v-387q0 -231 29 -363v-10q-121 -82 -121 -129t78 -47h43v-209zM1069 489v35l-436 -67q-92 -14 -129 -36t-37 -67v-2q0 -51 47 -88t154 -37q176 0 288 80t113 182z" />
    <glyph glyph-name="aogonek.alt2" horiz-adv-x="1808" 
d="M1712 -385h-276q-266 0 -267 145v4q0 78 85 132t262 104h-259v170q-41 -61 -171 -129t-338 -68h-29q-332 0 -503 162t-171 406v39q0 231 168 390t485 158h31q350 0 524 -174v148h459v-1102q-121 -82 -121 -129t78 -47h43v-209zM1253 549v8q0 111 -107 197
q-108 86 -284 86h-10q-180 0 -260 -82t-80 -201v-8q0 -111 86 -198t260 -87h10q174 0 280 87q105 87 105 198z" />
    <glyph glyph-name="aring.alt" horiz-adv-x="1603" 
d="M926 1432q0 92 -152 92t-153 -94q1 -94 153 -94t152 96zM1159 1432q0 -242 -387 -242t-387 240t387 240t387 -238zM571 -20h-26q-260 0 -386 102t-126 258v14q0 152 107 230q108 78 356 100l503 47q70 8 70 57q0 27 -13 43q-13 15 -81 31t-193 17h-10q-213 0 -263 -65
q-23 -30 -26 -58h-424v4q0 53 9 95q8 42 47 97t105 92t193 63q128 26 304 26h112q511 0 624 -165q38 -54 47 -98t9 -110v-387q0 -231 29 -363v-10h-434q-23 50 -23 152q-51 -64 -174 -118t-336 -54zM1069 489v35l-436 -67q-92 -14 -129 -36t-37 -67v-2q0 -51 47 -88t154 -37
q176 0 288 80t113 182z" />
    <glyph glyph-name="aring.alt2" horiz-adv-x="1808" 
d="M844 1524q-152 0 -152 -94t153 -94t152 96q-1 92 -153 92zM1231 1432q0 -242 -387 -242t-387 240t387 240t387 -238zM1253 1102h459v-1102h-455v170q-41 -61 -171 -129t-338 -68h-29q-332 0 -503 162t-171 406v39q0 231 168 390t485 158h31q350 0 524 -174v148zM1253 549
v8q0 111 -107 197q-108 86 -284 86h-10q-180 0 -260 -82t-80 -201v-8q0 -111 86 -198t260 -87h10q174 0 280 87q105 87 105 198z" />
    <glyph glyph-name="aringacute.alt" horiz-adv-x="1603" 
d="M571 -20h-26q-260 0 -386 102t-126 258v14q0 152 107 230q108 78 356 100l503 47q70 8 70 57q0 27 -13 43q-13 15 -81 31t-193 17h-10q-213 0 -263 -65q-23 -30 -26 -58h-424v4q0 53 9 95q8 42 47 97t105 92t193 63q128 26 304 26h112q511 0 624 -165q38 -54 47 -98
t9 -110v-387q0 -231 29 -363v-10h-434q-23 50 -23 152q-51 -64 -174 -118t-336 -54zM1069 489v35l-436 -67q-92 -14 -129 -36t-37 -67v-2q0 -51 47 -88t154 -37q176 0 288 80t113 182zM567 1724l185 316h471l-219 -316h-437zM926 1432q0 92 -152 92t-153 -94q1 -94 153 -94
t152 96zM1159 1432q0 -242 -387 -242t-387 240t387 240t387 -238z" />
    <glyph glyph-name="aringacute.alt2" horiz-adv-x="1808" 
d="M1253 1102h459v-1102h-455v170q-41 -61 -171 -129t-338 -68h-29q-332 0 -503 162t-171 406v39q0 231 168 390t485 158h31q350 0 524 -174v148zM1253 549v8q0 111 -107 197q-108 86 -284 86h-10q-180 0 -260 -82t-80 -201v-8q0 -111 86 -198t260 -87h10q174 0 280 87
q105 87 105 198zM641 1724l184 316h471l-219 -316h-436zM846 1524q-152 0 -152 -94t153 -94t152 96q-1 92 -153 92zM1233 1432q0 -242 -387 -242t-387 240t387 240t387 -238z" />
    <glyph glyph-name="atilde.alt" horiz-adv-x="1603" 
d="M1028 1217h-12q-80 0 -213 44t-158 44q-33 0 -33 -43v-60h-295v156q0 80 44 139t155 59h10q70 0 120 -15t138 -44t113 -29q33 0 33 45v60h295v-156q0 -200 -197 -200zM571 -20h-26q-260 0 -386 102t-126 258v14q0 152 107 230q108 78 356 100l503 47q70 8 70 57
q0 27 -13 43q-13 15 -81 31t-193 17h-10q-213 0 -263 -65q-23 -30 -26 -58h-424v4q0 53 9 95q8 42 47 97t105 92t193 63q128 26 304 26h112q511 0 624 -165q38 -54 47 -98t9 -110v-387q0 -231 29 -363v-10h-434q-23 50 -23 152q-51 -64 -174 -118t-336 -54zM1069 489v35
l-436 -67q-92 -14 -129 -36t-37 -67v-2q0 -51 47 -88t154 -37q176 0 288 80t113 182z" />
    <glyph glyph-name="atilde.alt2" horiz-adv-x="1808" 
d="M1126 1217h-12q-80 0 -213 44t-158 44q-33 0 -32 -43v-60h-295v156q0 80 44 139t154 59h11q69 0 119 -15q51 -15 139 -44t112 -29q33 0 33 45v60h295v-156q0 -200 -197 -200zM1253 1102h459v-1102h-455v170q-41 -61 -171 -129t-338 -68h-29q-332 0 -503 162t-171 406v39
q0 231 168 390t485 158h31q350 0 524 -174v148zM1253 549v8q0 111 -107 197q-108 86 -284 86h-10q-180 0 -260 -82t-80 -201v-8q0 -111 86 -198t260 -87h10q174 0 280 87q105 87 105 198z" />
    <glyph glyph-name="racute.alt" horiz-adv-x="1118" 
d="M369 1208l184 316h471l-219 -316h-436zM553 481v-481h-457v1102h453v-256q137 281 508 280v-440q-81 27 -217 27t-212 -64t-75 -168z" />
    <glyph glyph-name="rcaron.alt" horiz-adv-x="1118" 
d="M330 1208l-312 316h441l125 -129l125 129h434l-307 -316h-506zM553 481v-481h-457v1102h453v-256q137 281 508 280v-440q-81 27 -217 27t-212 -64t-75 -168z" />
    <glyph glyph-name="rcommaaccent.alt" horiz-adv-x="1118" 
d="M96 -414v308h457v-246q0 -93 -80 -228h-231q39 88 59 166h-205zM553 481v-481h-457v1102h453v-256q137 281 508 280v-440q-81 27 -217 27t-212 -64t-75 -168z" />
    <glyph glyph-name="space_uni0326.alt" 
d="M950 1516v-308h-456v246q-1 92 79 227h232q-39 -88 -60 -165h205z" />
    <glyph glyph-name="ordfeminine.alt" horiz-adv-x="1122" 
d="M408 776h-19q-184 0 -268 68t-84 172v10q0 100 84 154t256 69l311 29q39 2 39 33q0 53 -172 53h-16q-170 0 -170 -74h-314v4q0 47 12 81q11 34 51 76q85 89 388 87h80q303 0 392 -79q44 -38 58 -75t15 -90v-256q0 -170 18 -239v-8h-299q-14 32 -14 110
q-113 -125 -348 -125zM360 1024q0 -70 117 -70t183 50t67 118v13l-264 -41q-57 -10 -80 -26t-23 -44z" />
    <glyph glyph-name="ordfeminine.alt2" horiz-adv-x="1261" 
d="M846 1524h344v-736h-342v101q-119 -119 -330 -119h-24q-231 0 -347 108q-115 108 -114 271v27q0 154 113 258q114 104 335 104h25q96 0 175 -22t101 -37q22 -14 64 -45v90zM838 1153v6q0 72 -65 121t-177 49h-6q-211 0 -211 -170v-6q0 -70 52 -122t161 -52h10
q112 0 174 51t62 123z" />
    <glyph glyph-name="emdash.alt" horiz-adv-x="5197" 
d="M5120 745v-266h-5042v266h5042z" />
    <glyph glyph-name="caron.alt" 
d="M524 1184l31 340h367l-62 -340h-336z" />
    <glyph glyph-name="plus.uc" horiz-adv-x="1275" 
d="M1198 578h-389v-361h-344v361h-387v282h387v361h344v-361h389v-282z" />
    <glyph glyph-name="minus.uc" horiz-adv-x="1191" 
d="M78 862h1036v-287h-1036v287z" />
    <glyph glyph-name="multiply.uc" horiz-adv-x="1099" 
d="M856 240l-307 274l-307 -274l-207 221l287 256l-287 256l209 221l307 -272l305 272l207 -221l-287 -256l289 -256z" />
    <glyph glyph-name="divide.uc" horiz-adv-x="1277" 
d="M836 461v-311h-394v311h394zM78 860h1122v-282h-1122v282zM836 1286v-311h-394v311h394z" />
    <glyph glyph-name="equal.uc" horiz-adv-x="1212" 
d="M88 649h1036v-260h-1036v260zM88 1055h1036v-262h-1036v262z" />
    <glyph glyph-name="less.uc" horiz-adv-x="1116" 
d="M1032 227l-954 318v325l954 322v-311l-647 -174l647 -170v-310z" />
    <glyph glyph-name="greater.uc" horiz-adv-x="1116" 
d="M84 227v310l647 170l-647 174v311l954 -322v-325z" />
    <glyph glyph-name="questiondown.uc" horiz-adv-x="1742" 
d="M707 1165v359h493v-359h-493zM727 1030h467v-153q0 -117 -65 -181t-265 -114l-172 -43q-114 -29 -152 -60t-38 -67t14 -54q14 -20 95 -37t210 -17q314 -1 373 98q20 34 22 48t7 44h467v-25q0 -182 -69 -272q-30 -39 -88 -82q-179 -133 -630 -133h-115q-517 0 -677 189
q-49 57 -65 113t-17 122v14q0 152 92 253t301 154l170 45q90 23 113 52t22 92v14z" />
    <glyph glyph-name="exclamdown.uc" horiz-adv-x="655" 
d="M575 1524v-359h-495v359h495zM606 0h-557l141 1061h275z" />
    <glyph glyph-name="hyphen.uc" horiz-adv-x="813" 
d="M78 872h657v-352h-657v352z" />
    <glyph glyph-name="endash.uc" horiz-adv-x="1824" 
d="M78 834h1669v-267h-1669v267z" />
    <glyph glyph-name="emdash.uc" horiz-adv-x="2676" 
d="M78 834h2521v-267h-2521v267z" />
    <glyph glyph-name="guilsinglleft.uc" horiz-adv-x="688" 
d="M645 283h-344l-272 348l276 344h350l-270 -344z" />
    <glyph glyph-name="guilsinglright.uc" horiz-adv-x="688" 
d="M389 283h-346l260 348l-270 344h350l276 -344z" />
    <glyph glyph-name="guillemotleft.uc" horiz-adv-x="1105" 
d="M827 631l234 -348h-330l-244 348l252 344h334zM369 631l243 -348h-329l-254 348l256 344h333z" />
    <glyph glyph-name="guillemotright.uc" horiz-adv-x="1105" 
d="M823 283h-329l243 348l-250 344h334l256 -344zM279 631l-246 344h334l251 -344l-243 -348h-330z" />
    <glyph glyph-name="parenleft.uc" horiz-adv-x="688" 
d="M72 754q0 309 127 549q105 202 245 368h250q-110 -190 -182 -432q-72 -241 -72 -487t71 -486t183 -432h-250q-372 408 -372 920z" />
    <glyph glyph-name="parenright.uc" horiz-adv-x="688" 
d="M616 754q0 -502 -372 -920h-250q114 192 184 432t70 486t-72 488t-182 431h250q265 -315 340 -625q32 -140 32 -292z" />
    <glyph glyph-name="bracketleft.uc" horiz-adv-x="716" 
d="M117 -166v1839h571v-227h-219v-1387h219v-225h-571z" />
    <glyph glyph-name="bracketright.uc" horiz-adv-x="716" 
d="M29 -166v225h219v1387h-219v227h571v-1839h-571z" />
    <glyph glyph-name="braceleft.uc" horiz-adv-x="747" 
d="M719 -164h-256q-184 0 -273 53q-88 53 -88 174q0 85 87 267t87 221q0 94 -92 94h-129v229h129q92 0 92 78q0 43 -87 220t-87 266q0 236 361 235h256v-227h-158q-90 0 -90 -70q0 -42 67 -194q66 -152 66 -224t-44 -122q-44 -49 -150 -74q106 -23 150 -67q44 -43 44 -113
t-66 -232t-67 -200q0 -88 107 -89h141v-225z" />
    <glyph glyph-name="braceright.uc" horiz-adv-x="747" 
d="M285 -164h-256v225h141q106 0 106 89q0 38 -66 200t-65 232q0 70 43 114t150 66q-104 25 -149 74q-44 48 -44 122t66 226t65 192q0 70 -90 70h-157v227h256q360 0 360 -235q0 -88 -87 -266t-87 -220q0 -78 92 -78h129v-229h-129q-92 0 -92 -94q0 -39 87 -221t87 -267
q0 -121 -88 -174t-272 -53z" />
    <glyph glyph-name="slash.uc" horiz-adv-x="962" 
d="M989 1671l-682 -1837h-344l678 1837h348z" />
    <glyph glyph-name="backslash.uc" horiz-adv-x="962" 
d="M1001 -166h-346l-682 1837h349z" />
    <glyph glyph-name="bar.uc" horiz-adv-x="780" 
d="M555 1671v-1837h-330v1837h330z" />
    <glyph glyph-name="at.uc" horiz-adv-x="2721" 
d="M1333 942q-244 0 -262 -199l-4 -36q-14 -92 45 -166t199 -74q274 0 305 219l4 39q10 97 -65 157t-222 60zM1384 -221q-315 0 -556 53t-384 138t-233 210t-122 250t-32 275v24q0 158 37 286t128 246q285 369 1124 369h26q599 0 896 -141q99 -47 164 -92q114 -79 180 -222
q53 -111 57 -339v-23q0 -192 -87 -344q-100 -175 -316 -245q-120 -38 -271 -38h-35q-268 0 -348 158q-158 -158 -447 -158h-30q-149 0 -259 48t-167 126q-115 157 -88 351l14 102q18 168 142 287t351 119h31q311 0 498 -166l18 141h451l-92 -729q-9 -80 71 -80
q119 0 197 118t78 320v6q0 76 -3 120t-24 114q-20 70 -57 113t-111 93q-216 146 -813 146h-26q-670 0 -869 -276q-65 -91 -89 -189t-23 -225v-25q0 -147 43 -264t149 -220q106 -102 315 -160t512 -58q668 0 1000 166l78 -221q-322 -164 -1078 -164z" />
    <glyph glyph-name="grave.uc" 
d="M877 1937l184 -307h-461l-215 307h492z" />
    <glyph glyph-name="dieresis.uc" 
d="M670 1937v-307h-455v307h455zM1231 1937v-307h-455v307h455z" />
    <glyph glyph-name="macron.uc" 
d="M270 1647v258h904v-258h-904z" />
    <glyph glyph-name="acute.uc" 
d="M385 1630l184 307h492l-215 -307h-461z" />
    <glyph glyph-name="circumflex.uc" 
d="M977 1937l328 -307h-451l-135 119l-133 -119h-445l322 307h514z" />
    <glyph glyph-name="caron.uc" 
d="M469 1630l-328 307h451l135 -118l133 118h445l-322 -307h-514z" />
    <glyph glyph-name="breve.uc" 
d="M760 1612h-70q-287 0 -394 171q-50 80 -50 161v4h352q0 -46 47 -78q31 -20 91 -20t90 32q28 33 28 66h344v-4q0 -98 -90 -203q-47 -55 -138 -92t-210 -37z" />
    <glyph glyph-name="dotaccent.uc" 
d="M950 1946v-316h-456v316h456z" />
    <glyph glyph-name="ring.uc" 
d="M567 1845q0 -94 157 -94t157 94t-157 94t-157 -94zM332 1845q0 240 391 240t391 -240t-391 -240t-391 240z" />
    <glyph glyph-name="tilde.uc" 
d="M987 1642h-12q-82 0 -215 46t-171 45q-38 0 -38 -43v-64h-299v166q0 82 45 141t160 60h12q86 1 220 -45t167 -45q37 0 37 43v61h299v-164q0 -81 -45 -141t-160 -60z" />
    <glyph glyph-name="hungarumlaut.uc" 
d="M174 1630l109 307h448l-123 -307h-434zM702 1630l123 307h449l-137 -307h-435z" />
    <glyph glyph-name="emdash.altuc" horiz-adv-x="5197" 
d="M5120 834v-267h-5042v267h5042z" />
    <glyph glyph-name="f.short" horiz-adv-x="993" 
d="M948 1524v-271h-172q-51 0 -68 -20t-18 -70v-61h258v-303h-258v-799h-450v799h-211v303h211v131q0 291 383 291h325z" />
    <glyph glyph-name="f_f.short" horiz-adv-x="1830" 
d="M690 0h-450v799h-211v303h211v131q0 291 383 291h329v-271h-176q-51 0 -68 -20t-18 -70v-61h387v131q0 291 383 291h326v-271h-172q-50 0 -68 -20t-18 -70v-61h258v-303h-258v-799h-451v799h-387v-799z" />
    <glyph glyph-name="j.short" horiz-adv-x="649" 
d="M-29 -63h60q37 0 51 15t14 62v1088h457v-1202q0 -145 -57 -215t-152 -70h-373v322zM553 1524v-316h-457v316h457z" />
    </font>
</defs>
</svg>
