<svg width="1920" height="745" viewBox="0 0 1920 745" fill="none" xmlns="http://www.w3.org/2000/svg">
<path d="M491.799 590.886V739.89H415.216V590.886V589.776H414.106H326.146V535.668H580.869V589.776H492.909H491.799V590.886ZM879.978 651.082L944.035 535.668H1046.05V739.89H970.297V612.251V608.014L968.219 611.707L896.116 739.89H857.182L785.356 611.709L783.278 608V612.251V739.89H708.637V535.668H815.084L878.033 651.074L878.999 652.845L879.978 651.082ZM1151.57 690.499H1303.35V739.89H1074.99V535.668H1301.13V583.949H1151.57H1150.46V585.059V610.864V611.974H1151.57H1298.08V659.977H1151.57H1150.46V661.087V689.39V690.499H1151.57ZM1484.99 697.704L1485.01 697.702L1485.02 697.7C1492.09 696.584 1497.42 695.081 1500.92 693.135L1500.94 693.123L1500.96 693.111C1504.35 691.041 1506.76 688.886 1508.01 686.607C1509.41 684.207 1510.1 681.518 1510.1 678.568V678.291C1510.1 674.231 1509.03 670.894 1506.78 668.419C1505.69 667.018 1503.89 665.827 1501.53 664.788C1499.13 663.733 1496.05 662.79 1492.32 661.95C1484.98 660.072 1474.35 658.961 1460.46 658.59C1460.46 658.59 1460.46 658.59 1460.46 658.59L1422.17 657.48L1422.17 657.48C1388.48 656.557 1363.39 650.927 1346.76 640.718C1330.21 630.56 1321.97 615.842 1321.97 596.435V593.938C1321.97 586.827 1322.97 580.481 1324.96 574.886L1324.96 574.876C1326.93 569.141 1330.53 563.542 1335.81 558.083C1341.05 552.661 1347.94 548.113 1356.53 544.459C1365.11 540.808 1376.39 537.867 1390.4 535.655L1390.41 535.653C1404.58 533.261 1420.98 532.061 1439.62 532.061H1464.31C1506.06 532.061 1537.2 537.493 1557.86 548.238C1568.18 553.601 1575.86 560.273 1580.96 568.229C1586.06 576.18 1588.62 585.476 1588.62 596.158V597.268H1504.96C1503.78 589.968 1498.92 584.529 1490.7 580.921C1482.17 577.176 1469.92 575.347 1454.05 575.347H1451.27C1438.3 575.347 1428.22 576.179 1421.06 577.871C1417.52 578.617 1414.61 579.442 1412.36 580.353C1410.14 581.25 1408.43 582.278 1407.42 583.503C1405.54 585.604 1404.66 588.384 1404.66 591.718V591.996C1404.66 595.374 1405.66 598.243 1407.72 600.512L1407.74 600.531L1407.76 600.55C1408.92 601.716 1410.69 602.755 1412.97 603.703C1415.26 604.658 1418.14 605.553 1421.6 606.393L1421.61 606.396L1421.62 606.399C1428.57 607.902 1438.28 608.736 1450.7 608.922C1450.7 608.922 1450.7 608.922 1450.7 608.922L1487.87 609.754C1487.87 609.754 1487.87 609.754 1487.87 609.754C1526.87 610.863 1554.56 616.318 1571.14 625.974L1571.15 625.979C1587.6 635.382 1595.84 650.256 1595.84 670.799V674.683C1595.84 682.175 1594.92 689.001 1593.11 695.172C1591.32 701.086 1587.71 707.24 1582.24 713.631C1576.81 719.786 1569.54 725.066 1560.4 729.455C1551.46 733.649 1539.18 737.14 1523.51 739.906C1508.04 742.482 1489.89 743.775 1469.03 743.775H1443.78C1401.86 743.775 1370.6 737.674 1349.86 725.612C1329.21 713.603 1318.92 695.656 1318.92 671.631V669.966H1403.36C1404.38 679.545 1409.23 686.811 1417.85 691.674C1426.69 696.667 1439.45 699.101 1455.99 699.101H1458.49C1469.06 699.101 1477.9 698.638 1484.99 697.704ZM679.806 535.668V739.89H603.5V535.668H679.806Z" stroke="#DC0032" stroke-width="2.2198"/>
<path d="M491.799 60.8858V209.89H415.216V60.8858V59.7759H414.106H326.146V5.66825H580.869V59.7759H492.909H491.799V60.8858ZM879.978 121.082L944.035 5.66825H1046.05V209.89H970.297V82.2514V78.0144L968.219 81.7073L896.116 209.89H857.182L785.356 81.7089L783.278 78.0002V82.2514V209.89H708.637V5.66825H815.084L878.033 121.074L878.999 122.845L879.978 121.082ZM1151.57 160.499H1303.35V209.89H1074.99V5.66825H1301.13V53.9489H1151.57H1150.46V55.0588V80.8641V81.974H1151.57H1298.08V129.977H1151.57H1150.46V131.087V159.39V160.499H1151.57ZM1484.99 167.704L1485.01 167.702L1485.02 167.7C1492.09 166.584 1497.42 165.081 1500.92 163.135L1500.94 163.123L1500.96 163.111C1504.35 161.041 1506.76 158.886 1508.01 156.607C1509.41 154.207 1510.1 151.518 1510.1 148.568V148.291C1510.1 144.231 1509.03 140.894 1506.78 138.419C1505.69 137.018 1503.89 135.827 1501.53 134.788C1499.13 133.733 1496.05 132.79 1492.32 131.95C1484.98 130.072 1474.35 128.961 1460.46 128.59C1460.46 128.59 1460.46 128.59 1460.46 128.59L1422.17 127.48L1422.17 127.48C1388.48 126.557 1363.39 120.927 1346.76 110.718C1330.21 100.56 1321.97 85.8424 1321.97 66.4353V63.9381C1321.97 56.8273 1322.97 50.4815 1324.96 44.886L1324.96 44.8756C1326.93 39.1413 1330.53 33.542 1335.81 28.0827C1341.05 22.661 1347.94 18.1131 1356.53 14.4588C1365.11 10.8079 1376.39 7.86666 1390.4 5.65473L1390.41 5.65277C1404.58 3.26077 1420.98 2.06107 1439.62 2.06107H1464.31C1506.06 2.06107 1537.2 7.49321 1557.86 18.2376C1568.18 23.6013 1575.86 30.2734 1580.96 38.229C1586.06 46.1797 1588.62 55.4756 1588.62 66.1579V67.2678H1504.96C1503.78 59.9681 1498.92 54.529 1490.7 50.9209C1482.17 47.1761 1469.92 45.3472 1454.05 45.3472H1451.27C1438.3 45.3472 1428.22 46.1788 1421.06 47.8711C1417.52 48.6174 1414.61 49.442 1412.36 50.3533C1410.14 51.25 1408.43 52.2777 1407.42 53.5033C1405.54 55.6042 1404.66 58.3844 1404.66 61.7182V61.9957C1404.66 65.3741 1405.66 68.2431 1407.72 70.5116L1407.74 70.5312L1407.76 70.5499C1408.92 71.7161 1410.69 72.7548 1412.97 73.703C1415.26 74.6578 1418.14 75.5526 1421.6 76.393L1421.61 76.3964L1421.62 76.3994C1428.57 77.9021 1438.28 78.7361 1450.7 78.9215C1450.7 78.9216 1450.7 78.9216 1450.7 78.9216L1487.87 79.7537C1487.87 79.7537 1487.87 79.7538 1487.87 79.7538C1526.87 80.8629 1554.56 86.3183 1571.14 95.9744L1571.15 95.979C1587.6 105.382 1595.84 120.256 1595.84 140.799V144.683C1595.84 152.175 1594.92 159.001 1593.11 165.172C1591.32 171.086 1587.71 177.24 1582.24 183.631C1576.81 189.786 1569.54 195.066 1560.4 199.455C1551.46 203.649 1539.18 207.14 1523.51 209.906C1508.04 212.482 1489.89 213.775 1469.03 213.775H1443.78C1401.86 213.775 1370.6 207.674 1349.86 195.612C1329.21 183.603 1318.92 165.656 1318.92 141.631V139.966H1403.36C1404.38 149.545 1409.23 156.811 1417.85 161.674C1426.69 166.667 1439.45 169.101 1455.99 169.101H1458.49C1469.06 169.101 1477.9 168.638 1484.99 167.704ZM679.806 5.66825V209.89H603.5V5.66825H679.806Z" stroke="#DC0032" stroke-width="2.2198"/>
<path d="M414.106 477.376V327.262H-0.5V270.934H581.978V327.262H492.909V477.376H414.106Z" fill="#DC0032"/>
<path d="M680.916 270.934V477.376H602.39V270.934H680.916Z" fill="#DC0032"/>
<path d="M707.527 477.376V270.934H815.743L879.007 386.919L943.381 270.934H1047.16V477.376H969.187V348.627L896.766 477.376H856.532L784.388 348.627V477.376H707.527Z" fill="#DC0032"/>
<path d="M1073.88 270.934H1302.24V321.435H1151.57V347.24H1299.19V397.463H1151.57V425.766H1304.46V477.376H1073.88V270.934Z" fill="#DC0032"/>
<path d="M1469.03 481.261H1443.78C1359.8 481.261 1317.81 456.843 1317.81 408.007V405.232H1404.38C1405.86 424.656 1423.06 434.367 1455.99 434.367H1458.49C1469.03 434.367 1477.82 433.905 1484.85 432.98C1491.88 431.87 1497.06 430.39 1500.38 428.54C1503.71 426.505 1505.93 424.471 1507.04 422.436C1508.34 420.216 1508.99 417.719 1508.99 414.944V414.667C1508.99 410.782 1507.97 407.73 1505.93 405.51C1504.08 403.105 1499.46 401.07 1492.06 399.405C1484.85 397.556 1474.3 396.446 1460.43 396.076L1422.14 394.966C1354.62 393.116 1320.86 372.398 1320.86 332.811V330.314C1320.86 323.1 1321.88 316.625 1323.91 310.891C1325.95 304.971 1329.64 299.237 1335.01 293.687C1340.37 288.138 1347.4 283.513 1356.1 279.814C1364.79 276.114 1376.17 273.154 1390.23 270.934C1404.47 268.53 1420.93 267.327 1439.62 267.327H1464.31C1547.93 267.327 1589.73 289.063 1589.73 332.534V334.754H1503.99C1502.33 320.14 1485.68 312.833 1454.05 312.833H1451.27C1438.32 312.833 1428.33 313.666 1421.3 315.33C1414.27 316.81 1409.93 318.568 1408.26 320.602C1406.6 322.452 1405.77 324.95 1405.77 328.094V328.372C1405.77 331.516 1406.69 334.106 1408.54 336.141C1410.58 338.176 1415.01 340.026 1421.86 341.691C1428.7 343.17 1438.32 344.003 1450.72 344.188L1487.9 345.02C1526.93 346.13 1554.86 351.587 1571.7 361.391C1588.53 371.01 1596.95 386.272 1596.95 407.175V411.059C1596.95 418.644 1596.02 425.581 1594.17 431.87C1592.32 437.974 1588.62 444.264 1583.07 450.738C1577.52 457.028 1570.12 462.392 1560.87 466.832C1551.81 471.086 1539.42 474.601 1523.69 477.376C1508.15 479.966 1489.93 481.261 1469.03 481.261Z" fill="#DC0032"/>
</svg>
