<svg width="2159" height="2799" viewBox="0 0 2159 2799" fill="none" xmlns="http://www.w3.org/2000/svg">
<path d="M1269.77 66.541C1438.34 170.708 1594.88 339.41 1673.4 520.959C1761 724.005 1772.61 972.624 1649.84 1156.75C1736.74 1107.86 1833.79 1077.27 1916.61 1021.95C1999.43 966.638 2069.9 876.017 2061.14 776.875C2083.04 1014.79 2178.08 1247.46 2154.17 1485.2C2144.23 1583.77 2113.92 1679.2 2078.4 1771.74C2040.65 1869.92 1995.8 1967.36 1926.16 2046.27C1803.22 2185.7 1617.34 2252.07 1435.63 2290.96C1253.91 2329.85 1065.58 2347.76 892.143 2415.14C718.705 2482.51 555.909 2612.59 511.104 2792.83C477.905 2617.62 517.98 2437.34 565.676 2265.49C621.781 2064.06 690.981 1860.66 821.06 1696.33C888.158 1611.43 969.971 1539.03 1035.67 1452.69C1095.89 1373.3 1141.09 1283.64 1182.39 1193.02C1233.37 1081.16 1279.36 965.808 1299.24 844.426C1320.83 712.819 1311.15 578.329 1300.86 445.368C1291.05 319.092 1280.74 192.86 1269.94 66.6721" fill="url(#paint0_linear)" fill-opacity="0.6"/>
<path d="M843.177 306.072C947.678 385.158 1054.5 555.914 1087.48 682.627C1105 750.44 1115.69 820.525 1112.88 890.523C1105.13 1081.47 999.447 1255.37 874.712 1400.39C749.976 1545.41 603.167 1671.29 487.628 1823.83C372.09 1976.36 287.561 2165.73 314.978 2354.88C155.742 2174.55 51.8028 1952.36 15.5341 1714.77C-42.1035 1332.44 80.486 946.757 228.39 589.471C250.289 537.038 272.757 483.6 277.838 427.017C282.743 372.749 271.225 318.35 256.158 265.961C229.507 173.414 191.68 84.4415 143.511 1C346.299 123.555 511.288 299.522 620.335 509.555C659.446 585.189 691.506 667.946 686.688 752.887C777.174 620.191 831.137 466.112 843.177 306.072Z" fill="url(#paint1_linear)" fill-opacity="0.6"/>
<path d="M1269.77 66.541C1438.34 170.708 1594.88 339.41 1673.4 520.959C1761 724.005 1772.61 972.624 1649.84 1156.75C1736.74 1107.86 1833.79 1077.27 1916.61 1021.95C1999.43 966.638 2069.9 876.017 2061.14 776.875C2083.04 1014.79 2178.08 1247.46 2154.17 1485.2C2144.23 1583.77 2113.92 1679.2 2078.4 1771.74C2040.65 1869.92 1995.8 1967.36 1926.16 2046.27C1803.22 2185.7 1617.34 2252.07 1435.63 2290.96C1253.91 2329.85 1065.58 2347.76 892.143 2415.14C718.705 2482.51 555.909 2612.59 511.104 2792.83C477.905 2617.62 517.98 2437.34 565.676 2265.49C621.781 2064.06 690.981 1860.66 821.06 1696.33C888.158 1611.43 969.971 1539.03 1035.67 1452.69C1095.89 1373.3 1141.09 1283.64 1182.39 1193.02C1233.37 1081.16 1279.36 965.808 1299.24 844.426C1320.83 712.819 1311.15 578.329 1300.86 445.368C1291.05 319.092 1280.74 192.86 1269.94 66.6721M843.177 306.072C947.678 385.158 1054.5 555.914 1087.48 682.627C1105 750.44 1115.69 820.525 1112.88 890.523C1105.13 1081.47 999.447 1255.37 874.712 1400.39C749.976 1545.41 603.167 1671.29 487.628 1823.83C372.09 1976.36 287.561 2165.73 314.978 2354.88C155.742 2174.55 51.8028 1952.36 15.5341 1714.77C-42.1035 1332.44 80.486 946.757 228.39 589.471C250.289 537.038 272.757 483.6 277.838 427.017C282.743 372.749 271.225 318.35 256.158 265.961C229.507 173.414 191.68 84.4415 143.511 1C346.299 123.555 511.288 299.522 620.335 509.555C659.446 585.189 691.506 667.946 686.688 752.887C777.174 620.191 831.137 466.112 843.177 306.072Z" stroke="url(#paint2_linear)" stroke-opacity="0.5"/>
<defs>
<linearGradient id="paint0_linear" x1="325.595" y1="0.999998" x2="1340.64" y2="2699.78" gradientUnits="userSpaceOnUse">
<stop stop-color="#00DC58"/>
<stop offset="1" stop-color="#00DCB4" stop-opacity="0"/>
</linearGradient>
<linearGradient id="paint1_linear" x1="325.595" y1="0.999998" x2="1340.64" y2="2699.78" gradientUnits="userSpaceOnUse">
<stop stop-color="#00DC58"/>
<stop offset="1" stop-color="#00DCB4" stop-opacity="0"/>
</linearGradient>
<linearGradient id="paint2_linear" x1="1079.5" y1="1" x2="1079.5" y2="2798" gradientUnits="userSpaceOnUse">
<stop stop-color="#00DC30"/>
<stop offset="1" stop-color="#20E200" stop-opacity="0"/>
</linearGradient>
</defs>
</svg>
