<svg width="1772" height="1080" viewBox="0 0 1772 1080" fill="none" xmlns="http://www.w3.org/2000/svg">
<path d="M882.766 -321.338C1051.34 -216.978 1207.88 -47.9631 1286.4 133.922C1374 337.344 1385.61 586.424 1262.84 770.891C1349.74 721.907 1446.79 691.264 1529.61 635.845C1612.43 580.426 1682.9 489.637 1674.14 390.312C1696.04 628.666 1791.08 861.768 1767.17 1099.95C1757.23 1198.7 1726.92 1294.31 1691.4 1387.02C1653.65 1485.39 1608.8 1583 1539.16 1662.06C1416.22 1801.75 1230.34 1868.24 1048.63 1907.2C866.911 1946.16 678.582 1964.11 505.143 2031.61C331.705 2099.11 168.909 2229.43 124.104 2410C90.9053 2234.46 130.98 2053.85 178.676 1881.68C234.781 1679.88 303.981 1476.11 434.06 1311.47C501.157 1226.41 582.971 1153.88 648.668 1067.38C708.89 987.84 754.089 898.013 795.39 807.224C846.37 695.16 892.358 579.595 912.242 457.988C933.834 326.138 924.155 191.398 913.862 58.1912C904.052 -68.3184 893.745 -194.784 882.941 -321.206" fill="url(#paint0_linear_940:1259)" fill-opacity="0.6"/>
<path d="M456.177 -81.3633C560.678 -2.13069 667.501 168.942 700.48 295.889C717.999 363.828 728.686 434.043 725.883 504.17C718.131 695.467 612.447 869.691 487.712 1014.98C362.976 1160.27 216.166 1286.38 100.628 1439.2C-14.9096 1592.02 -99.439 1781.74 -72.0217 1971.24C-231.258 1790.57 -335.197 1567.97 -371.466 1329.94C-429.103 946.91 -306.514 560.509 -158.609 202.561C-136.711 150.031 -114.243 96.4942 -109.162 39.8057C-104.257 -14.5628 -115.775 -69.0626 -130.842 -121.549C-157.493 -214.267 -195.32 -303.404 -243.489 -387C-40.7005 -264.218 124.288 -87.9247 233.335 122.497C272.446 198.271 304.506 281.181 299.688 366.279C390.174 233.337 444.137 78.9734 456.177 -81.3633Z" fill="url(#paint1_linear_940:1259)" fill-opacity="0.6"/>
<path d="M882.766 -321.338C1051.34 -216.978 1207.88 -47.9631 1286.4 133.922C1374 337.344 1385.61 586.424 1262.84 770.891C1349.74 721.907 1446.79 691.264 1529.61 635.845C1612.43 580.426 1682.9 489.637 1674.14 390.312C1696.04 628.666 1791.08 861.768 1767.17 1099.95C1757.23 1198.7 1726.92 1294.31 1691.4 1387.02C1653.65 1485.39 1608.8 1583 1539.16 1662.06C1416.22 1801.75 1230.34 1868.24 1048.63 1907.2C866.911 1946.16 678.582 1964.11 505.143 2031.61C331.705 2099.11 168.909 2229.43 124.104 2410C90.9053 2234.46 130.98 2053.85 178.676 1881.68C234.781 1679.88 303.981 1476.11 434.06 1311.47C501.157 1226.41 582.971 1153.88 648.668 1067.38C708.89 987.84 754.089 898.013 795.39 807.224C846.37 695.16 892.358 579.595 912.242 457.988C933.834 326.138 924.155 191.398 913.862 58.1912C904.052 -68.3184 893.745 -194.784 882.941 -321.206M456.177 -81.3633C560.678 -2.13069 667.501 168.942 700.48 295.889C717.999 363.828 728.686 434.043 725.883 504.17C718.131 695.467 612.447 869.691 487.712 1014.98C362.976 1160.27 216.166 1286.38 100.628 1439.2C-14.9096 1592.02 -99.439 1781.74 -72.0217 1971.24C-231.258 1790.57 -335.197 1567.97 -371.466 1329.94C-429.103 946.91 -306.514 560.509 -158.609 202.561C-136.711 150.031 -114.243 96.4942 -109.162 39.8057C-104.257 -14.5628 -115.775 -69.0626 -130.842 -121.549C-157.493 -214.267 -195.32 -303.404 -243.489 -387C-40.7005 -264.218 124.288 -87.9247 233.335 122.497C272.446 198.271 304.506 281.181 299.688 366.279C390.174 233.337 444.137 78.9734 456.177 -81.3633Z" stroke="url(#paint2_linear_940:1259)" stroke-opacity="0.5"/>
<defs>
<linearGradient id="paint0_linear_940:1259" x1="-61.4051" y1="-387" x2="953.64" y2="2311.78" gradientUnits="userSpaceOnUse">
<stop stop-color="#FF001F"/>
<stop offset="1" stop-color="white" stop-opacity="0"/>
</linearGradient>
<linearGradient id="paint1_linear_940:1259" x1="-61.4051" y1="-387" x2="953.64" y2="2311.78" gradientUnits="userSpaceOnUse">
<stop stop-color="#FF001F"/>
<stop offset="1" stop-color="white" stop-opacity="0"/>
</linearGradient>
<linearGradient id="paint2_linear_940:1259" x1="692.5" y1="-387" x2="692.5" y2="2410" gradientUnits="userSpaceOnUse">
<stop stop-color="#DC001A"/>
<stop offset="1" stop-color="white" stop-opacity="0"/>
</linearGradient>
</defs>
</svg>
